%TF.GenerationSoftware,KiCad,Pcbnew,9.0.6*%
%TF.CreationDate,2025-12-27T17:50:34+00:00*%
%TF.ProjectId,Split Keyboard,53706c69-7420-44b6-9579-626f6172642e,rev?*%
%TF.SameCoordinates,Original*%
%TF.FileFunction,Legend,Top*%
%TF.FilePolarity,Positive*%
%FSLAX46Y46*%
G04 Gerber Fmt 4.6, Leading zero omitted, Abs format (unit mm)*
G04 Created by KiCad (PCBNEW 9.0.6) date 2025-12-27 17:50:34*
%MOMM*%
%LPD*%
G01*
G04 APERTURE LIST*
%ADD10C,0.100000*%
%ADD11C,0.150000*%
%ADD12C,0.120000*%
%ADD13C,0.000000*%
G04 APERTURE END LIST*
D10*
G36*
X33045297Y-104218100D02*
G01*
X33045297Y-99662665D01*
X33742305Y-99662665D01*
X33742305Y-104218100D01*
X33045297Y-104218100D01*
G37*
G36*
X31641512Y-99919425D02*
G01*
X31641512Y-99255085D01*
X35146091Y-99255085D01*
X35146091Y-99919425D01*
X31641512Y-99919425D01*
G37*
G36*
X38648533Y-104218100D02*
G01*
X38648533Y-99255085D01*
X39345236Y-99255085D01*
X39345236Y-104218100D01*
X38648533Y-104218100D01*
G37*
G36*
X35827223Y-104218100D02*
G01*
X35827223Y-99255085D01*
X36523926Y-99255085D01*
X36523926Y-104218100D01*
X35827223Y-104218100D01*
G37*
G36*
X36261060Y-102107841D02*
G01*
X36261060Y-101443501D01*
X39017340Y-101443501D01*
X39017340Y-102107841D01*
X36261060Y-102107841D01*
G37*
G36*
X40575304Y-104218100D02*
G01*
X40575304Y-99255085D01*
X41272007Y-99255085D01*
X41272007Y-104218100D01*
X40575304Y-104218100D01*
G37*
G36*
X40913275Y-104218100D02*
G01*
X40913275Y-103553759D01*
X43765421Y-103553759D01*
X43765421Y-104218100D01*
X40913275Y-104218100D01*
G37*
G36*
X40913275Y-102088302D02*
G01*
X40913275Y-101423961D01*
X43389592Y-101423961D01*
X43389592Y-102088302D01*
X40913275Y-102088302D01*
G37*
G36*
X40913275Y-99919425D02*
G01*
X40913275Y-99255085D01*
X43765421Y-99255085D01*
X43765421Y-99919425D01*
X40913275Y-99919425D01*
G37*
G36*
X47353043Y-104218100D02*
G01*
X47353043Y-99662665D01*
X48050051Y-99662665D01*
X48050051Y-104218100D01*
X47353043Y-104218100D01*
G37*
G36*
X45949257Y-99919425D02*
G01*
X45949257Y-99255085D01*
X49453837Y-99255085D01*
X49453837Y-99919425D01*
X45949257Y-99919425D01*
G37*
G36*
X51498150Y-103146179D02*
G01*
X52515726Y-99255085D01*
X52994137Y-99255085D01*
X54012019Y-103146179D01*
X54889767Y-99255085D01*
X55613947Y-99255085D01*
X54401281Y-104218100D01*
X53690840Y-104218100D01*
X52775540Y-100750156D01*
X51819024Y-104218100D01*
X51108582Y-104218100D01*
X49896222Y-99255085D01*
X50620097Y-99255085D01*
X51498150Y-103146179D01*
G37*
G36*
X57064749Y-99255085D02*
G01*
X57064749Y-104218100D01*
X56368047Y-104218100D01*
X56368047Y-99255085D01*
X57064749Y-99255085D01*
G37*
G36*
X58292680Y-104218100D02*
G01*
X58292680Y-99255085D01*
X58924353Y-99255085D01*
X61353043Y-103094277D01*
X61270917Y-103183120D01*
X61270917Y-99255085D01*
X61960903Y-99255085D01*
X61960903Y-104218100D01*
X61322208Y-104218100D01*
X58900540Y-100436915D01*
X58982666Y-100348072D01*
X58982666Y-104218100D01*
X58292680Y-104218100D01*
G37*
G36*
X64684821Y-104271833D02*
G01*
X64329047Y-104254294D01*
X64003383Y-104203445D01*
X63692393Y-104117395D01*
X63405599Y-103998586D01*
X63136881Y-103845256D01*
X62884751Y-103656952D01*
X63318588Y-103123892D01*
X63617762Y-103340495D01*
X63943544Y-103493919D01*
X64295348Y-103585701D01*
X64684821Y-103617262D01*
X65040242Y-103591362D01*
X65313301Y-103521399D01*
X65521353Y-103415456D01*
X65687532Y-103261576D01*
X65784959Y-103076697D01*
X65818718Y-102850340D01*
X65818718Y-102846981D01*
X65800058Y-102663789D01*
X65748818Y-102522372D01*
X65668204Y-102413145D01*
X65498999Y-102284743D01*
X65273752Y-102189663D01*
X64739470Y-102068152D01*
X64174048Y-101955495D01*
X63898603Y-101871441D01*
X63649842Y-101752163D01*
X63435973Y-101585140D01*
X63265465Y-101354047D01*
X63189032Y-101174801D01*
X63138836Y-100947316D01*
X63120446Y-100660397D01*
X63120446Y-100657039D01*
X63151704Y-100316993D01*
X63240264Y-100031036D01*
X63382668Y-99788577D01*
X63581454Y-99582370D01*
X63819464Y-99424132D01*
X64108533Y-99305282D01*
X64458876Y-99228833D01*
X64882963Y-99201351D01*
X65277883Y-99233335D01*
X65665151Y-99329579D01*
X66037773Y-99488833D01*
X66409481Y-99720673D01*
X66013502Y-100274188D01*
X65724386Y-100085793D01*
X65448080Y-99958810D01*
X65163944Y-99881289D01*
X64882963Y-99855922D01*
X64548714Y-99881844D01*
X64290501Y-99952185D01*
X64092227Y-100059560D01*
X63936175Y-100213453D01*
X63843077Y-100401942D01*
X63810432Y-100636278D01*
X63810432Y-100639942D01*
X63830485Y-100819661D01*
X63885920Y-100958868D01*
X63974380Y-101067061D01*
X64157604Y-101191737D01*
X64403026Y-101284132D01*
X64971501Y-101415413D01*
X65517994Y-101546999D01*
X65780739Y-101641866D01*
X66015029Y-101769260D01*
X66215013Y-101939460D01*
X66373760Y-102167070D01*
X66445178Y-102340921D01*
X66491756Y-102557614D01*
X66508704Y-102826526D01*
X66508704Y-102833243D01*
X66476543Y-103168543D01*
X66385210Y-103450956D01*
X66237648Y-103691105D01*
X66030294Y-103896004D01*
X65784672Y-104051593D01*
X65485940Y-104168936D01*
X65123555Y-104244603D01*
X64684821Y-104271833D01*
G37*
G36*
X31846675Y-112618100D02*
G01*
X33677276Y-107655085D01*
X34271702Y-107655085D01*
X36102302Y-112618100D01*
X35350950Y-112618100D01*
X33974336Y-108614349D01*
X32598028Y-112618100D01*
X31846675Y-112618100D01*
G37*
G36*
X32690229Y-111523892D02*
G01*
X32690229Y-110859551D01*
X35303017Y-110859551D01*
X35303017Y-111523892D01*
X32690229Y-111523892D01*
G37*
G36*
X37296955Y-111484813D02*
G01*
X37399537Y-110440369D01*
X39592227Y-107655085D01*
X40449519Y-107655085D01*
X37296955Y-111484813D01*
G37*
G36*
X36853043Y-112618100D02*
G01*
X36853043Y-107655085D01*
X37549746Y-107655085D01*
X37549746Y-112618100D01*
X36853043Y-112618100D01*
G37*
G36*
X39804107Y-112618100D02*
G01*
X38225993Y-109969286D01*
X38775845Y-109460650D01*
X40658042Y-112618100D01*
X39804107Y-112618100D01*
G37*
G36*
X235760397Y-109019500D02*
G01*
X235760397Y-104464065D01*
X236457405Y-104464065D01*
X236457405Y-109019500D01*
X235760397Y-109019500D01*
G37*
G36*
X234356612Y-104720825D02*
G01*
X234356612Y-104056485D01*
X237861191Y-104056485D01*
X237861191Y-104720825D01*
X234356612Y-104720825D01*
G37*
G36*
X241363633Y-109019500D02*
G01*
X241363633Y-104056485D01*
X242060336Y-104056485D01*
X242060336Y-109019500D01*
X241363633Y-109019500D01*
G37*
G36*
X238542323Y-109019500D02*
G01*
X238542323Y-104056485D01*
X239239026Y-104056485D01*
X239239026Y-109019500D01*
X238542323Y-109019500D01*
G37*
G36*
X238976160Y-106909241D02*
G01*
X238976160Y-106244901D01*
X241732440Y-106244901D01*
X241732440Y-106909241D01*
X238976160Y-106909241D01*
G37*
G36*
X243290404Y-109019500D02*
G01*
X243290404Y-104056485D01*
X243987107Y-104056485D01*
X243987107Y-109019500D01*
X243290404Y-109019500D01*
G37*
G36*
X243628375Y-109019500D02*
G01*
X243628375Y-108355159D01*
X246480521Y-108355159D01*
X246480521Y-109019500D01*
X243628375Y-109019500D01*
G37*
G36*
X243628375Y-106889702D02*
G01*
X243628375Y-106225361D01*
X246104692Y-106225361D01*
X246104692Y-106889702D01*
X243628375Y-106889702D01*
G37*
G36*
X243628375Y-104720825D02*
G01*
X243628375Y-104056485D01*
X246480521Y-104056485D01*
X246480521Y-104720825D01*
X243628375Y-104720825D01*
G37*
G36*
X250068143Y-109019500D02*
G01*
X250068143Y-104464065D01*
X250765151Y-104464065D01*
X250765151Y-109019500D01*
X250068143Y-109019500D01*
G37*
G36*
X248664357Y-104720825D02*
G01*
X248664357Y-104056485D01*
X252168937Y-104056485D01*
X252168937Y-104720825D01*
X248664357Y-104720825D01*
G37*
G36*
X254213250Y-107947579D02*
G01*
X255230826Y-104056485D01*
X255709237Y-104056485D01*
X256727119Y-107947579D01*
X257604867Y-104056485D01*
X258329047Y-104056485D01*
X257116381Y-109019500D01*
X256405940Y-109019500D01*
X255490640Y-105551556D01*
X254534124Y-109019500D01*
X253823682Y-109019500D01*
X252611322Y-104056485D01*
X253335197Y-104056485D01*
X254213250Y-107947579D01*
G37*
G36*
X259779849Y-104056485D02*
G01*
X259779849Y-109019500D01*
X259083147Y-109019500D01*
X259083147Y-104056485D01*
X259779849Y-104056485D01*
G37*
G36*
X261007780Y-109019500D02*
G01*
X261007780Y-104056485D01*
X261639453Y-104056485D01*
X264068143Y-107895677D01*
X263986017Y-107984520D01*
X263986017Y-104056485D01*
X264676003Y-104056485D01*
X264676003Y-109019500D01*
X264037308Y-109019500D01*
X261615640Y-105238315D01*
X261697766Y-105149472D01*
X261697766Y-109019500D01*
X261007780Y-109019500D01*
G37*
G36*
X267399921Y-109073233D02*
G01*
X267044147Y-109055694D01*
X266718483Y-109004845D01*
X266407493Y-108918795D01*
X266120699Y-108799986D01*
X265851981Y-108646656D01*
X265599851Y-108458352D01*
X266033688Y-107925292D01*
X266332862Y-108141895D01*
X266658644Y-108295319D01*
X267010448Y-108387101D01*
X267399921Y-108418662D01*
X267755342Y-108392762D01*
X268028401Y-108322799D01*
X268236453Y-108216856D01*
X268402632Y-108062976D01*
X268500059Y-107878097D01*
X268533818Y-107651740D01*
X268533818Y-107648381D01*
X268515158Y-107465189D01*
X268463918Y-107323772D01*
X268383304Y-107214545D01*
X268214099Y-107086143D01*
X267988852Y-106991063D01*
X267454570Y-106869552D01*
X266889148Y-106756895D01*
X266613703Y-106672841D01*
X266364942Y-106553563D01*
X266151073Y-106386540D01*
X265980565Y-106155447D01*
X265904132Y-105976201D01*
X265853936Y-105748716D01*
X265835546Y-105461797D01*
X265835546Y-105458439D01*
X265866804Y-105118393D01*
X265955364Y-104832436D01*
X266097768Y-104589977D01*
X266296554Y-104383770D01*
X266534564Y-104225532D01*
X266823633Y-104106682D01*
X267173976Y-104030233D01*
X267598063Y-104002751D01*
X267992983Y-104034735D01*
X268380251Y-104130979D01*
X268752873Y-104290233D01*
X269124581Y-104522073D01*
X268728602Y-105075588D01*
X268439486Y-104887193D01*
X268163180Y-104760210D01*
X267879044Y-104682689D01*
X267598063Y-104657322D01*
X267263814Y-104683244D01*
X267005601Y-104753585D01*
X266807327Y-104860960D01*
X266651275Y-105014853D01*
X266558177Y-105203342D01*
X266525532Y-105437678D01*
X266525532Y-105441342D01*
X266545585Y-105621061D01*
X266601020Y-105760268D01*
X266689480Y-105868461D01*
X266872704Y-105993137D01*
X267118126Y-106085532D01*
X267686601Y-106216813D01*
X268233094Y-106348399D01*
X268495839Y-106443266D01*
X268730129Y-106570660D01*
X268930113Y-106740860D01*
X269088860Y-106968470D01*
X269160278Y-107142321D01*
X269206856Y-107359014D01*
X269223804Y-107627926D01*
X269223804Y-107634643D01*
X269191643Y-107969943D01*
X269100310Y-108252356D01*
X268952748Y-108492505D01*
X268745394Y-108697404D01*
X268499772Y-108852993D01*
X268201040Y-108970336D01*
X267838655Y-109046003D01*
X267399921Y-109073233D01*
G37*
D11*
X53666666Y-125204819D02*
X53666666Y-125919104D01*
X53666666Y-125919104D02*
X53619047Y-126061961D01*
X53619047Y-126061961D02*
X53523809Y-126157200D01*
X53523809Y-126157200D02*
X53380952Y-126204819D01*
X53380952Y-126204819D02*
X53285714Y-126204819D01*
X54095238Y-125300057D02*
X54142857Y-125252438D01*
X54142857Y-125252438D02*
X54238095Y-125204819D01*
X54238095Y-125204819D02*
X54476190Y-125204819D01*
X54476190Y-125204819D02*
X54571428Y-125252438D01*
X54571428Y-125252438D02*
X54619047Y-125300057D01*
X54619047Y-125300057D02*
X54666666Y-125395295D01*
X54666666Y-125395295D02*
X54666666Y-125490533D01*
X54666666Y-125490533D02*
X54619047Y-125633390D01*
X54619047Y-125633390D02*
X54047619Y-126204819D01*
X54047619Y-126204819D02*
X54666666Y-126204819D01*
X242558095Y-109506819D02*
X243129523Y-109506819D01*
X242843809Y-110506819D02*
X242843809Y-109506819D01*
X243462857Y-110506819D02*
X243462857Y-109506819D01*
X243462857Y-109506819D02*
X243843809Y-109506819D01*
X243843809Y-109506819D02*
X243939047Y-109554438D01*
X243939047Y-109554438D02*
X243986666Y-109602057D01*
X243986666Y-109602057D02*
X244034285Y-109697295D01*
X244034285Y-109697295D02*
X244034285Y-109840152D01*
X244034285Y-109840152D02*
X243986666Y-109935390D01*
X243986666Y-109935390D02*
X243939047Y-109983009D01*
X243939047Y-109983009D02*
X243843809Y-110030628D01*
X243843809Y-110030628D02*
X243462857Y-110030628D01*
X244986666Y-110506819D02*
X244415238Y-110506819D01*
X244700952Y-110506819D02*
X244700952Y-109506819D01*
X244700952Y-109506819D02*
X244605714Y-109649676D01*
X244605714Y-109649676D02*
X244510476Y-109744914D01*
X244510476Y-109744914D02*
X244415238Y-109792533D01*
X40968095Y-111616819D02*
X41539523Y-111616819D01*
X41253809Y-112616819D02*
X41253809Y-111616819D01*
X41872857Y-112616819D02*
X41872857Y-111616819D01*
X41872857Y-111616819D02*
X42253809Y-111616819D01*
X42253809Y-111616819D02*
X42349047Y-111664438D01*
X42349047Y-111664438D02*
X42396666Y-111712057D01*
X42396666Y-111712057D02*
X42444285Y-111807295D01*
X42444285Y-111807295D02*
X42444285Y-111950152D01*
X42444285Y-111950152D02*
X42396666Y-112045390D01*
X42396666Y-112045390D02*
X42349047Y-112093009D01*
X42349047Y-112093009D02*
X42253809Y-112140628D01*
X42253809Y-112140628D02*
X41872857Y-112140628D01*
X42825238Y-111712057D02*
X42872857Y-111664438D01*
X42872857Y-111664438D02*
X42968095Y-111616819D01*
X42968095Y-111616819D02*
X43206190Y-111616819D01*
X43206190Y-111616819D02*
X43301428Y-111664438D01*
X43301428Y-111664438D02*
X43349047Y-111712057D01*
X43349047Y-111712057D02*
X43396666Y-111807295D01*
X43396666Y-111807295D02*
X43396666Y-111902533D01*
X43396666Y-111902533D02*
X43349047Y-112045390D01*
X43349047Y-112045390D02*
X42777619Y-112616819D01*
X42777619Y-112616819D02*
X43396666Y-112616819D01*
X41408095Y-115986819D02*
X41979523Y-115986819D01*
X41693809Y-116986819D02*
X41693809Y-115986819D01*
X42312857Y-116986819D02*
X42312857Y-115986819D01*
X42312857Y-115986819D02*
X42693809Y-115986819D01*
X42693809Y-115986819D02*
X42789047Y-116034438D01*
X42789047Y-116034438D02*
X42836666Y-116082057D01*
X42836666Y-116082057D02*
X42884285Y-116177295D01*
X42884285Y-116177295D02*
X42884285Y-116320152D01*
X42884285Y-116320152D02*
X42836666Y-116415390D01*
X42836666Y-116415390D02*
X42789047Y-116463009D01*
X42789047Y-116463009D02*
X42693809Y-116510628D01*
X42693809Y-116510628D02*
X42312857Y-116510628D01*
X43741428Y-116320152D02*
X43741428Y-116986819D01*
X43503333Y-115939200D02*
X43265238Y-116653485D01*
X43265238Y-116653485D02*
X43884285Y-116653485D01*
X249598095Y-109246819D02*
X250169523Y-109246819D01*
X249883809Y-110246819D02*
X249883809Y-109246819D01*
X250502857Y-110246819D02*
X250502857Y-109246819D01*
X250502857Y-109246819D02*
X250883809Y-109246819D01*
X250883809Y-109246819D02*
X250979047Y-109294438D01*
X250979047Y-109294438D02*
X251026666Y-109342057D01*
X251026666Y-109342057D02*
X251074285Y-109437295D01*
X251074285Y-109437295D02*
X251074285Y-109580152D01*
X251074285Y-109580152D02*
X251026666Y-109675390D01*
X251026666Y-109675390D02*
X250979047Y-109723009D01*
X250979047Y-109723009D02*
X250883809Y-109770628D01*
X250883809Y-109770628D02*
X250502857Y-109770628D01*
X251407619Y-109246819D02*
X252026666Y-109246819D01*
X252026666Y-109246819D02*
X251693333Y-109627771D01*
X251693333Y-109627771D02*
X251836190Y-109627771D01*
X251836190Y-109627771D02*
X251931428Y-109675390D01*
X251931428Y-109675390D02*
X251979047Y-109723009D01*
X251979047Y-109723009D02*
X252026666Y-109818247D01*
X252026666Y-109818247D02*
X252026666Y-110056342D01*
X252026666Y-110056342D02*
X251979047Y-110151580D01*
X251979047Y-110151580D02*
X251931428Y-110199200D01*
X251931428Y-110199200D02*
X251836190Y-110246819D01*
X251836190Y-110246819D02*
X251550476Y-110246819D01*
X251550476Y-110246819D02*
X251455238Y-110199200D01*
X251455238Y-110199200D02*
X251407619Y-110151580D01*
X249666666Y-112934619D02*
X249666666Y-113648904D01*
X249666666Y-113648904D02*
X249619047Y-113791761D01*
X249619047Y-113791761D02*
X249523809Y-113887000D01*
X249523809Y-113887000D02*
X249380952Y-113934619D01*
X249380952Y-113934619D02*
X249285714Y-113934619D01*
X250666666Y-113934619D02*
X250095238Y-113934619D01*
X250380952Y-113934619D02*
X250380952Y-112934619D01*
X250380952Y-112934619D02*
X250285714Y-113077476D01*
X250285714Y-113077476D02*
X250190476Y-113172714D01*
X250190476Y-113172714D02*
X250095238Y-113220333D01*
D12*
%TO.C,J2*%
X52620000Y-122100000D02*
X52620000Y-114370000D01*
X55380000Y-114370000D02*
X52620000Y-114370000D01*
X55380000Y-122100000D02*
X52620000Y-122100000D01*
X55380000Y-122100000D02*
X55380000Y-114370000D01*
X55380000Y-123370000D02*
X55380000Y-124750000D01*
X55380000Y-124750000D02*
X54000000Y-124750000D01*
%TO.C,TP1*%
X245020000Y-112050000D02*
G75*
G02*
X242620000Y-112050000I-1200000J0D01*
G01*
X242620000Y-112050000D02*
G75*
G02*
X245020000Y-112050000I1200000J0D01*
G01*
%TO.C,TP2*%
X43430000Y-114160000D02*
G75*
G02*
X41030000Y-114160000I-1200000J0D01*
G01*
X41030000Y-114160000D02*
G75*
G02*
X43430000Y-114160000I1200000J0D01*
G01*
%TO.C,TP4*%
X43870000Y-118530000D02*
G75*
G02*
X41470000Y-118530000I-1200000J0D01*
G01*
X41470000Y-118530000D02*
G75*
G02*
X43870000Y-118530000I1200000J0D01*
G01*
%TO.C,TP3*%
X252060000Y-111790000D02*
G75*
G02*
X249660000Y-111790000I-1200000J0D01*
G01*
X249660000Y-111790000D02*
G75*
G02*
X252060000Y-111790000I1200000J0D01*
G01*
D13*
%TO.C,G\u002A\u002A\u002A*%
G36*
X180514390Y-91830625D02*
G01*
X180530436Y-91962608D01*
X180110245Y-92498737D01*
X179978262Y-92514782D01*
X179442133Y-92094592D01*
X179426088Y-91962608D01*
X179846278Y-91426480D01*
X179978262Y-91410435D01*
X180514390Y-91830625D01*
G37*
G36*
X183827433Y-94039321D02*
G01*
X183843479Y-94171304D01*
X183423289Y-94707432D01*
X183291305Y-94723478D01*
X182755177Y-94303288D01*
X182739131Y-94171304D01*
X183159322Y-93635176D01*
X183291305Y-93619130D01*
X183827433Y-94039321D01*
G37*
G36*
X188244825Y-96248016D02*
G01*
X188260870Y-96380000D01*
X187840680Y-96916128D01*
X187708696Y-96932174D01*
X187172568Y-96511983D01*
X187156523Y-96380000D01*
X187576713Y-95843871D01*
X187708696Y-95827826D01*
X188244825Y-96248016D01*
G37*
G36*
X212540477Y-90726277D02*
G01*
X212556523Y-90858261D01*
X212136332Y-91394389D01*
X212004349Y-91410435D01*
X211468220Y-90990244D01*
X211452175Y-90858261D01*
X211872365Y-90322132D01*
X212004349Y-90306087D01*
X212540477Y-90726277D01*
G37*
G36*
X219119150Y-74104827D02*
G01*
X219182610Y-74845217D01*
X218792164Y-75768069D01*
X218078262Y-75949565D01*
X217132671Y-75725352D01*
X217197470Y-75076739D01*
X217799873Y-74431087D01*
X218714454Y-73804042D01*
X219119150Y-74104827D01*
G37*
G36*
X243271178Y-83911236D02*
G01*
X243478262Y-84232174D01*
X243015789Y-84680806D01*
X242373914Y-84784348D01*
X241476649Y-85015584D01*
X241269566Y-85336521D01*
X240804110Y-85742353D01*
X239677943Y-85879999D01*
X238296364Y-85769727D01*
X237064673Y-85431800D01*
X236536647Y-85099875D01*
X235825377Y-84191709D01*
X236074271Y-83759261D01*
X236852175Y-83680000D01*
X237749439Y-83911236D01*
X237956523Y-84232174D01*
X238436344Y-84619873D01*
X239592435Y-84784305D01*
X239613044Y-84784348D01*
X240776142Y-84624407D01*
X241269439Y-84239043D01*
X241269566Y-84232174D01*
X241732039Y-83783541D01*
X242373914Y-83680000D01*
X243271178Y-83911236D01*
G37*
G36*
X195416251Y-40714052D02*
G01*
X196717247Y-40952903D01*
X197325725Y-41300652D01*
X197688354Y-41706724D01*
X197969928Y-41300652D01*
X198627797Y-40840806D01*
X199746966Y-40631788D01*
X200856581Y-40691942D01*
X201485788Y-41039613D01*
X201513044Y-41162608D01*
X201975517Y-41611241D01*
X202617392Y-41714782D01*
X203514657Y-41946019D01*
X203721740Y-42266956D01*
X204201562Y-42654656D01*
X205357653Y-42819088D01*
X205378262Y-42819130D01*
X206541360Y-42979071D01*
X207034656Y-43364434D01*
X207034783Y-43371304D01*
X207485646Y-43852398D01*
X207917594Y-43923478D01*
X208832586Y-44302832D01*
X210018507Y-45246802D01*
X210347827Y-45580000D01*
X212006464Y-46853651D01*
X213607875Y-47178647D01*
X214969976Y-46534757D01*
X215317392Y-46132174D01*
X216188820Y-45459623D01*
X217385591Y-45074550D01*
X218505024Y-45034481D01*
X219144434Y-45396943D01*
X219182610Y-45580000D01*
X218733657Y-46065800D01*
X218329250Y-46132174D01*
X217385977Y-46498949D01*
X216216996Y-47394540D01*
X216088284Y-47519780D01*
X215212604Y-48509661D01*
X215089420Y-49157297D01*
X215521768Y-49728475D01*
X216749401Y-50298947D01*
X218879705Y-50542965D01*
X219373241Y-50549565D01*
X221380031Y-50676539D01*
X222489971Y-51038327D01*
X222651384Y-51239782D01*
X223110044Y-51455194D01*
X224004557Y-50687608D01*
X225084620Y-49789020D01*
X226011507Y-49445217D01*
X226792181Y-49168362D01*
X226913044Y-48893043D01*
X227402906Y-48547270D01*
X228626640Y-48354949D01*
X229121740Y-48340869D01*
X230504831Y-48463335D01*
X231274115Y-48769268D01*
X231330436Y-48893043D01*
X231706113Y-49413565D01*
X232609534Y-49324817D01*
X233705282Y-48706397D01*
X234238923Y-48202826D01*
X235133901Y-47435051D01*
X235592096Y-47650652D01*
X236186912Y-48174561D01*
X237113474Y-48327936D01*
X237837445Y-48079580D01*
X237956523Y-47788695D01*
X238436344Y-47400996D01*
X239592435Y-47236564D01*
X239613044Y-47236521D01*
X240776142Y-47396462D01*
X241269439Y-47781826D01*
X241269566Y-47788695D01*
X240789744Y-48176395D01*
X239633654Y-48340827D01*
X239613044Y-48340869D01*
X238449946Y-48500810D01*
X237956650Y-48886173D01*
X237956523Y-48893043D01*
X237466661Y-49238816D01*
X236242927Y-49431137D01*
X235747827Y-49445217D01*
X234364736Y-49567682D01*
X233595452Y-49873616D01*
X233539131Y-49997391D01*
X233042521Y-50312375D01*
X231772769Y-50512302D01*
X230778262Y-50549565D01*
X229203343Y-50648887D01*
X228203708Y-50902837D01*
X228017392Y-51101739D01*
X227560778Y-51567582D01*
X227034942Y-51653913D01*
X225967385Y-52070526D01*
X225256523Y-52758261D01*
X224128374Y-53628375D01*
X223162575Y-53862608D01*
X222063243Y-54102021D01*
X221074266Y-54666006D01*
X220469927Y-55323186D01*
X220524508Y-55842182D01*
X220706018Y-55934904D01*
X221278875Y-56605140D01*
X221391305Y-57221666D01*
X221631509Y-58093642D01*
X221943479Y-58280000D01*
X222479607Y-57859809D01*
X222495653Y-57727826D01*
X222958126Y-57279194D01*
X223600001Y-57175652D01*
X224497989Y-57356233D01*
X224704349Y-57605928D01*
X224305652Y-58223629D01*
X223600001Y-58832174D01*
X222737522Y-59824441D01*
X222495653Y-60610593D01*
X222733871Y-61263890D01*
X223624269Y-61549275D01*
X224704349Y-61593043D01*
X226087440Y-61470578D01*
X226856724Y-61164644D01*
X226913044Y-61040869D01*
X227375517Y-60592237D01*
X228017392Y-60488695D01*
X228914657Y-60257459D01*
X229121740Y-59936521D01*
X229601562Y-59548822D01*
X230757653Y-59384390D01*
X230778262Y-59384348D01*
X231941360Y-59224407D01*
X232434656Y-58839043D01*
X232434783Y-58832174D01*
X232897256Y-58383541D01*
X233539131Y-58280000D01*
X234436396Y-58048763D01*
X234643479Y-57727826D01*
X235105952Y-57279194D01*
X235747827Y-57175652D01*
X236645091Y-57406888D01*
X236852175Y-57727826D01*
X237302602Y-58144664D01*
X238336005Y-58269957D01*
X239475568Y-58122682D01*
X240244472Y-57721813D01*
X240320949Y-57589782D01*
X240804808Y-57411388D01*
X241769136Y-58222483D01*
X241821740Y-58280000D01*
X242806785Y-59133947D01*
X243311585Y-58998507D01*
X243322531Y-58970217D01*
X243917347Y-58446308D01*
X244843908Y-58292933D01*
X245567880Y-58541289D01*
X245686957Y-58832174D01*
X245224485Y-59280806D01*
X244582610Y-59384348D01*
X243685345Y-59615584D01*
X243478262Y-59936521D01*
X243015789Y-60385154D01*
X242373914Y-60488695D01*
X241476649Y-60257459D01*
X241269566Y-59936521D01*
X240766613Y-59642402D01*
X239452723Y-59442999D01*
X237956523Y-59384348D01*
X236191805Y-59468173D01*
X234995390Y-59687155D01*
X234643479Y-59936521D01*
X234181006Y-60385154D01*
X233539131Y-60488695D01*
X232641867Y-60719932D01*
X232434783Y-61040869D01*
X231954962Y-61428569D01*
X230798871Y-61593001D01*
X230778262Y-61593043D01*
X229615164Y-61752984D01*
X229121867Y-62138347D01*
X229121740Y-62145217D01*
X228659267Y-62593849D01*
X228017392Y-62697391D01*
X227120128Y-62928627D01*
X226913044Y-63249565D01*
X226433223Y-63637264D01*
X225277132Y-63801696D01*
X225256523Y-63801739D01*
X224044000Y-63975285D01*
X223617090Y-64621012D01*
X223600001Y-64906087D01*
X223868873Y-65831597D01*
X224433156Y-65931375D01*
X224858826Y-65320217D01*
X225329403Y-64931166D01*
X225545541Y-65040628D01*
X225501227Y-65643695D01*
X224792875Y-66485830D01*
X223799821Y-67500488D01*
X223759690Y-68049793D01*
X224668125Y-68219031D01*
X224704349Y-68219130D01*
X225601613Y-68450366D01*
X225808696Y-68771304D01*
X226305307Y-69086288D01*
X227575059Y-69286215D01*
X228569566Y-69323478D01*
X230144485Y-69422800D01*
X231144120Y-69676750D01*
X231330436Y-69875652D01*
X231820297Y-70221425D01*
X233044031Y-70413746D01*
X233539131Y-70427826D01*
X234922222Y-70305360D01*
X235691506Y-69999427D01*
X235747827Y-69875652D01*
X236250780Y-69581532D01*
X237564670Y-69382130D01*
X239060870Y-69323478D01*
X240825588Y-69239652D01*
X242022003Y-69020671D01*
X242373914Y-68771304D01*
X242851345Y-68392429D01*
X244033790Y-68229982D01*
X245546478Y-68268768D01*
X247014639Y-68493596D01*
X248063501Y-68889271D01*
X248211181Y-69007950D01*
X248905273Y-69877298D01*
X248670697Y-70307411D01*
X247428413Y-70427629D01*
X247343479Y-70427826D01*
X246180381Y-70267885D01*
X245687085Y-69882522D01*
X245686957Y-69875652D01*
X245207136Y-69487953D01*
X244051045Y-69323520D01*
X244030436Y-69323478D01*
X242867338Y-69483419D01*
X242374041Y-69868782D01*
X242373914Y-69875652D01*
X241894092Y-70263351D01*
X240738001Y-70427783D01*
X240717392Y-70427826D01*
X239554294Y-70587766D01*
X239060998Y-70973130D01*
X239060870Y-70980000D01*
X238564260Y-71294984D01*
X237294508Y-71494910D01*
X236300001Y-71532174D01*
X234725082Y-71631496D01*
X233725447Y-71885446D01*
X233539131Y-72084348D01*
X233049270Y-72430120D01*
X231825535Y-72622441D01*
X231330436Y-72636521D01*
X229947345Y-72514056D01*
X229178061Y-72208122D01*
X229121740Y-72084348D01*
X228700667Y-71580189D01*
X227669300Y-71558247D01*
X226375414Y-71951480D01*
X225166787Y-72692847D01*
X224955337Y-72887510D01*
X223911285Y-74027497D01*
X223696918Y-74622646D01*
X224291726Y-74832925D01*
X224704349Y-74845217D01*
X225601613Y-75076453D01*
X225808696Y-75397391D01*
X225346224Y-75846023D01*
X224704349Y-75949565D01*
X223847158Y-76262857D01*
X223600010Y-77358919D01*
X223600001Y-77369441D01*
X224001204Y-78967513D01*
X225019677Y-80069977D01*
X226045342Y-80366956D01*
X226805124Y-80653254D01*
X226913044Y-80919130D01*
X227375517Y-81367762D01*
X228017392Y-81471304D01*
X228914657Y-81702540D01*
X229121740Y-82023478D01*
X229618350Y-82338462D01*
X230888103Y-82538389D01*
X231882610Y-82575652D01*
X233457529Y-82674974D01*
X234457163Y-82928924D01*
X234643479Y-83127826D01*
X234134291Y-83413380D01*
X232776267Y-83609909D01*
X230900159Y-83680000D01*
X228790113Y-83624151D01*
X227486838Y-83408907D01*
X226696256Y-82962723D01*
X226360870Y-82575652D01*
X225134015Y-81684158D01*
X224030277Y-81471304D01*
X222940041Y-81623591D01*
X222538989Y-82311412D01*
X222495653Y-83127826D01*
X222655594Y-84290924D01*
X223040957Y-84784220D01*
X223047827Y-84784348D01*
X223583955Y-85204538D01*
X223600001Y-85336521D01*
X223120179Y-85724221D01*
X221964088Y-85888653D01*
X221943479Y-85888695D01*
X220730957Y-86062242D01*
X220304047Y-86707969D01*
X220286957Y-86993043D01*
X220682197Y-87921387D01*
X221345291Y-88097391D01*
X222384285Y-88415718D01*
X222725725Y-88787608D01*
X223088354Y-89193680D01*
X223369928Y-88787608D01*
X224152928Y-88156219D01*
X225271476Y-88299002D01*
X226331246Y-89161358D01*
X226360870Y-89201739D01*
X227225709Y-89939952D01*
X228632954Y-90264267D01*
X229795811Y-90306087D01*
X231330288Y-90409724D01*
X232282013Y-90673544D01*
X232434783Y-90858261D01*
X232897256Y-91306893D01*
X233539131Y-91410435D01*
X234436396Y-91641671D01*
X234643479Y-91962608D01*
X234163657Y-92350308D01*
X233007567Y-92514740D01*
X232986957Y-92514782D01*
X231823859Y-92354842D01*
X231330563Y-91969478D01*
X231330436Y-91962608D01*
X230867963Y-91513976D01*
X230226088Y-91410435D01*
X229328823Y-91641671D01*
X229121740Y-91962608D01*
X228641918Y-92350308D01*
X227485827Y-92514740D01*
X227465218Y-92514782D01*
X226302120Y-92354842D01*
X225808824Y-91969478D01*
X225808696Y-91962608D01*
X225346224Y-91513976D01*
X224704349Y-91410435D01*
X223807084Y-91179198D01*
X223600001Y-90858261D01*
X223103391Y-90543277D01*
X221833638Y-90343350D01*
X220839131Y-90306087D01*
X219264212Y-90405409D01*
X218264578Y-90659359D01*
X218078262Y-90858261D01*
X217615789Y-91306893D01*
X216973914Y-91410435D01*
X216075407Y-91543064D01*
X215869566Y-91725962D01*
X216303568Y-92490038D01*
X217271089Y-93250196D01*
X218270405Y-93618002D01*
X218314908Y-93619130D01*
X219074689Y-93905428D01*
X219182610Y-94171304D01*
X218702788Y-94559003D01*
X217546697Y-94723436D01*
X217526088Y-94723478D01*
X216362990Y-94563537D01*
X215869693Y-94178174D01*
X215869566Y-94171304D01*
X215462984Y-93622769D01*
X214451321Y-93611275D01*
X213146706Y-94058790D01*
X211861267Y-94887281D01*
X211452175Y-95275652D01*
X210299765Y-96324168D01*
X209334475Y-96896383D01*
X209143839Y-96932174D01*
X208258321Y-97341719D01*
X207586957Y-98036521D01*
X206412138Y-98903127D01*
X204704190Y-99140869D01*
X203366826Y-99269998D01*
X202653737Y-99590476D01*
X202617392Y-99693043D01*
X202154920Y-100141675D01*
X201513044Y-100245217D01*
X200615780Y-100476453D01*
X200408696Y-100797391D01*
X199991332Y-101262028D01*
X199088349Y-101308050D01*
X198223408Y-100965099D01*
X197969928Y-100659348D01*
X197607300Y-100253276D01*
X197325725Y-100659348D01*
X196675375Y-101019297D01*
X195354063Y-101252878D01*
X193717354Y-101352932D01*
X192120809Y-101312298D01*
X190919994Y-101123820D01*
X190469566Y-100797391D01*
X189979705Y-100451618D01*
X188755970Y-100259297D01*
X188260870Y-100245217D01*
X186877779Y-100122752D01*
X186108495Y-99816818D01*
X186052175Y-99693043D01*
X185572353Y-99305344D01*
X184416262Y-99140912D01*
X184395653Y-99140869D01*
X183232555Y-98980929D01*
X182739259Y-98595565D01*
X182739131Y-98588695D01*
X182276659Y-98140063D01*
X181634783Y-98036521D01*
X180737519Y-97805285D01*
X180530436Y-97484348D01*
X180082489Y-96996139D01*
X179691949Y-96932174D01*
X178952623Y-96561286D01*
X177672874Y-95567510D01*
X176072299Y-94129179D01*
X175229840Y-93308551D01*
X173543577Y-91607086D01*
X172627895Y-90596705D01*
X173904349Y-90596705D01*
X174296489Y-91244801D01*
X175288754Y-92315035D01*
X176604912Y-93557548D01*
X177968729Y-94722482D01*
X179103971Y-95559976D01*
X179687644Y-95827826D01*
X180431737Y-96121501D01*
X180530436Y-96380000D01*
X180992908Y-96828632D01*
X181634783Y-96932174D01*
X182532048Y-97163410D01*
X182739131Y-97484348D01*
X183218953Y-97872047D01*
X184375044Y-98036479D01*
X184395653Y-98036521D01*
X185558751Y-98196462D01*
X186052048Y-98581826D01*
X186052175Y-98588695D01*
X186542036Y-98934468D01*
X187765771Y-99126789D01*
X188260870Y-99140869D01*
X189643961Y-99263335D01*
X190413245Y-99569268D01*
X190469566Y-99693043D01*
X190969296Y-99993119D01*
X192260447Y-100193660D01*
X193561072Y-100245217D01*
X195458517Y-100169060D01*
X196695111Y-99836090D01*
X197709806Y-99089560D01*
X198200001Y-98588695D01*
X199399000Y-97638765D01*
X200732915Y-97040876D01*
X201889620Y-96873061D01*
X202556985Y-97213351D01*
X202617392Y-97484348D01*
X203097214Y-97872047D01*
X204253305Y-98036479D01*
X204273914Y-98036521D01*
X205437012Y-97876581D01*
X205930308Y-97491217D01*
X205930436Y-97484348D01*
X206392908Y-97035715D01*
X207034783Y-96932174D01*
X207957636Y-96541728D01*
X208139131Y-95827826D01*
X207907895Y-94930561D01*
X207586957Y-94723478D01*
X207050829Y-95143668D01*
X207034783Y-95275652D01*
X206572311Y-95724284D01*
X205930436Y-95827826D01*
X205033171Y-96059062D01*
X204826088Y-96380000D01*
X204363615Y-96828632D01*
X203721740Y-96932174D01*
X202824476Y-96700937D01*
X202617392Y-96380000D01*
X203079865Y-95931368D01*
X203721740Y-95827826D01*
X204556983Y-95418578D01*
X204852365Y-94536934D01*
X204515119Y-93702042D01*
X204140801Y-93482730D01*
X203784293Y-93055746D01*
X204212103Y-92455233D01*
X204571124Y-92233206D01*
X209414567Y-92233206D01*
X210204390Y-92492232D01*
X210853986Y-92514782D01*
X212099666Y-92302385D01*
X212744558Y-91824565D01*
X213120072Y-91467136D01*
X213588810Y-91946617D01*
X214258379Y-92410837D01*
X214597151Y-92285152D01*
X214608554Y-91721349D01*
X214351088Y-91564912D01*
X213773415Y-90877697D01*
X213660870Y-90260072D01*
X213316821Y-89386120D01*
X212410075Y-89310580D01*
X211128740Y-90021999D01*
X210637955Y-90444130D01*
X209563186Y-91589778D01*
X209414567Y-92233206D01*
X204571124Y-92233206D01*
X205164120Y-91866484D01*
X206380233Y-91474789D01*
X207049892Y-91410435D01*
X208809073Y-90990737D01*
X210347827Y-89753913D01*
X211532677Y-88701950D01*
X211910299Y-88493974D01*
X214795288Y-88493974D01*
X215099464Y-89045030D01*
X215869566Y-89201739D01*
X216677914Y-88941419D01*
X216962521Y-87972829D01*
X216973914Y-87545217D01*
X217133854Y-86382119D01*
X217519218Y-85888823D01*
X217526088Y-85888695D01*
X217913787Y-85408874D01*
X218078219Y-84252783D01*
X218078262Y-84232174D01*
X219182610Y-84232174D01*
X219602800Y-84768302D01*
X219734783Y-84784348D01*
X220270912Y-84364157D01*
X220286957Y-84232174D01*
X219866767Y-83696045D01*
X219734783Y-83680000D01*
X219198655Y-84100190D01*
X219182610Y-84232174D01*
X218078262Y-84232174D01*
X218238202Y-83069076D01*
X218623566Y-82575779D01*
X218630436Y-82575652D01*
X219079068Y-82113179D01*
X219182610Y-81471304D01*
X219413846Y-80574040D01*
X219734783Y-80366956D01*
X220183416Y-80829429D01*
X220286957Y-81471304D01*
X220518194Y-82368568D01*
X220839131Y-82575652D01*
X221303768Y-82158288D01*
X221349790Y-81255304D01*
X221006839Y-80390363D01*
X220701088Y-80136884D01*
X220295016Y-79774256D01*
X220701088Y-79492681D01*
X221226221Y-78841279D01*
X221377103Y-77891736D01*
X221124093Y-77167714D01*
X220839131Y-77053913D01*
X220355634Y-77503809D01*
X220286957Y-77921615D01*
X219919996Y-79001759D01*
X219437774Y-79638500D01*
X218754309Y-80142130D01*
X218127160Y-79896628D01*
X217501662Y-79234446D01*
X216636187Y-78460528D01*
X216059998Y-78336289D01*
X216053624Y-78342319D01*
X216155407Y-78911938D01*
X216885387Y-79738004D01*
X217915447Y-81030664D01*
X217854587Y-82206088D01*
X216973914Y-83127826D01*
X216111435Y-84120093D01*
X215869566Y-84906245D01*
X215612932Y-85735092D01*
X215317392Y-85888695D01*
X214798738Y-86212274D01*
X214981113Y-86858636D01*
X215455436Y-87223116D01*
X215861507Y-87585744D01*
X215455436Y-87867319D01*
X214795288Y-88493974D01*
X211910299Y-88493974D01*
X212410075Y-88218721D01*
X212568821Y-88131291D01*
X212778060Y-88097391D01*
X213511430Y-87636369D01*
X213660870Y-86993043D01*
X213892107Y-86095779D01*
X214213044Y-85888695D01*
X214661677Y-85426223D01*
X214765218Y-84784348D01*
X214996455Y-83887083D01*
X215317392Y-83680000D01*
X215698560Y-83211507D01*
X215856181Y-82089601D01*
X215803003Y-80739640D01*
X215551778Y-79586981D01*
X215179349Y-79074573D01*
X214821214Y-78699296D01*
X215299680Y-78231385D01*
X215736820Y-77724840D01*
X215405609Y-77096679D01*
X214801062Y-76532826D01*
X213491894Y-75397391D01*
X214680730Y-74366319D01*
X215556021Y-73353745D01*
X215869566Y-72555608D01*
X216279717Y-71654779D01*
X216973914Y-70980000D01*
X217806868Y-70025646D01*
X218048754Y-69019651D01*
X217668010Y-68330255D01*
X217210560Y-68219130D01*
X216267332Y-67944451D01*
X215419487Y-67314966D01*
X214952375Y-66622506D01*
X214978082Y-66562608D01*
X215869566Y-66562608D01*
X216319462Y-67046106D01*
X216737268Y-67114782D01*
X217965743Y-67570490D01*
X218924463Y-68628681D01*
X219182610Y-69514109D01*
X219577049Y-70388079D01*
X219872827Y-70566853D01*
X219911162Y-71039109D01*
X219172924Y-72059976D01*
X218174112Y-73094899D01*
X216870857Y-74406737D01*
X216282082Y-75231821D01*
X216289163Y-75808325D01*
X216616193Y-76222900D01*
X217568701Y-76904386D01*
X218078262Y-77053913D01*
X219177982Y-76567628D01*
X220008946Y-75371894D01*
X220286957Y-74056397D01*
X220471180Y-72999971D01*
X220839131Y-72636521D01*
X221287763Y-72174049D01*
X221391305Y-71532174D01*
X221160069Y-70634909D01*
X220839131Y-70427826D01*
X220353331Y-69978873D01*
X220286957Y-69574466D01*
X219920239Y-68625502D01*
X219027746Y-67464035D01*
X218931621Y-67365770D01*
X217717994Y-66425673D01*
X216632617Y-66020440D01*
X215961066Y-66224976D01*
X215869566Y-66562608D01*
X214978082Y-66562608D01*
X215151345Y-66158900D01*
X215184279Y-66146835D01*
X215635928Y-65489114D01*
X215861800Y-64133937D01*
X215869566Y-63801739D01*
X216033886Y-62357980D01*
X216440781Y-61450211D01*
X216559783Y-61362971D01*
X216632617Y-61297929D01*
X216965855Y-61000343D01*
X216559783Y-60718768D01*
X215974315Y-59968208D01*
X215944229Y-58918549D01*
X216469528Y-58164397D01*
X216559783Y-58125522D01*
X216917238Y-57641907D01*
X216760275Y-57389291D01*
X216188537Y-57319232D01*
X216024043Y-57589782D01*
X215334383Y-58214611D01*
X214229645Y-58076895D01*
X213255791Y-57401629D01*
X212701982Y-56632581D01*
X213033947Y-56118609D01*
X213091739Y-56081784D01*
X213228575Y-55598127D01*
X212659581Y-54657846D01*
X211317232Y-53160664D01*
X210708512Y-52542764D01*
X209057828Y-50955481D01*
X207852979Y-50022654D01*
X206803034Y-49576081D01*
X205617063Y-49447561D01*
X205350825Y-49445217D01*
X203920238Y-49262740D01*
X202644014Y-48812582D01*
X201762864Y-48240654D01*
X201517502Y-47692867D01*
X201932105Y-47372922D01*
X202588902Y-46857474D01*
X202334000Y-46324786D01*
X201513044Y-46132174D01*
X200615780Y-45900937D01*
X200408696Y-45580000D01*
X199946224Y-45131368D01*
X199304349Y-45027826D01*
X198381496Y-44637380D01*
X198200001Y-43923478D01*
X197809555Y-43000626D01*
X197095653Y-42819130D01*
X196198389Y-42587894D01*
X195991305Y-42266956D01*
X195501444Y-41921183D01*
X194277709Y-41728863D01*
X193782610Y-41714782D01*
X192399518Y-41837248D01*
X191630235Y-42143181D01*
X191573914Y-42266956D01*
X191077304Y-42581940D01*
X189807551Y-42781867D01*
X188813044Y-42819130D01*
X187238125Y-42918452D01*
X186238491Y-43172403D01*
X186052175Y-43371304D01*
X185572353Y-43759003D01*
X184416262Y-43923436D01*
X184395653Y-43923478D01*
X183232555Y-44083419D01*
X182739259Y-44468782D01*
X182739131Y-44475652D01*
X182276659Y-44924284D01*
X181634783Y-45027826D01*
X180737519Y-45259062D01*
X180530436Y-45580000D01*
X180082307Y-46067777D01*
X179689290Y-46132174D01*
X178866252Y-46494465D01*
X177587028Y-47434494D01*
X176416264Y-48478913D01*
X174819333Y-50103097D01*
X174044586Y-51117774D01*
X174045003Y-51594659D01*
X174334625Y-51653913D01*
X174880956Y-51301281D01*
X174952325Y-51255216D01*
X175560870Y-50549565D01*
X176501903Y-49690191D01*
X177217392Y-49445217D01*
X178184544Y-49032468D01*
X178873914Y-48340869D01*
X179866181Y-47478390D01*
X180652333Y-47236521D01*
X181481180Y-46979887D01*
X181634783Y-46684348D01*
X182097256Y-46235715D01*
X182739131Y-46132174D01*
X183636396Y-45900937D01*
X183843479Y-45580000D01*
X184305952Y-45131368D01*
X184947827Y-45027826D01*
X185845091Y-44796589D01*
X186052175Y-44475652D01*
X186573433Y-44211073D01*
X188016359Y-44022340D01*
X190199676Y-43929594D01*
X191021740Y-43923478D01*
X193402950Y-43981396D01*
X195101548Y-44141721D01*
X195936258Y-44384311D01*
X195991305Y-44475652D01*
X195528833Y-44924284D01*
X194886957Y-45027826D01*
X193989693Y-45259062D01*
X193782610Y-45580000D01*
X193303613Y-45938448D01*
X192125396Y-46113493D01*
X190636118Y-46114572D01*
X189223940Y-45951128D01*
X188277020Y-45632599D01*
X188106393Y-45441956D01*
X187622778Y-45084502D01*
X187370161Y-45241465D01*
X187300103Y-45813203D01*
X187570653Y-45977696D01*
X188231247Y-46514086D01*
X187968774Y-47050929D01*
X187156523Y-47236521D01*
X186259258Y-47467758D01*
X186052175Y-47788695D01*
X185636745Y-48253626D01*
X184746798Y-48300955D01*
X183916845Y-47961906D01*
X183689002Y-47650652D01*
X183205386Y-47293198D01*
X182952770Y-47450160D01*
X182882711Y-48021898D01*
X183153262Y-48186392D01*
X183812213Y-48728400D01*
X183549179Y-49270469D01*
X182785146Y-49445217D01*
X181769213Y-49760917D01*
X181446749Y-50135435D01*
X181071234Y-50492863D01*
X180602497Y-50013382D01*
X179937756Y-49528381D01*
X179610146Y-49629275D01*
X179619557Y-50241862D01*
X179994253Y-50621626D01*
X180483401Y-51157231D01*
X180116305Y-51465878D01*
X179455844Y-52042581D01*
X179737304Y-52586234D01*
X180530436Y-52758261D01*
X181427700Y-52989497D01*
X181634783Y-53310435D01*
X182111647Y-53709570D01*
X183169408Y-53862608D01*
X184711308Y-54283085D01*
X185500001Y-54966956D01*
X185931605Y-55385101D01*
X186383267Y-55822679D01*
X187016864Y-56071304D01*
X187836975Y-56463700D01*
X189061378Y-57458321D01*
X189237478Y-57629552D01*
X190421997Y-58781320D01*
X191650756Y-60158849D01*
X192479580Y-61317060D01*
X192678262Y-61854599D01*
X192971937Y-62598693D01*
X193230436Y-62697391D01*
X193452813Y-63234033D01*
X193622635Y-64783813D01*
X193734089Y-67256509D01*
X193781363Y-70561900D01*
X193782610Y-71268090D01*
X193782610Y-79838790D01*
X190757657Y-82863743D01*
X189209866Y-84308785D01*
X187868667Y-85378164D01*
X186985391Y-85875187D01*
X186892439Y-85888695D01*
X186149953Y-86183140D01*
X186052175Y-86440869D01*
X185595561Y-86906712D01*
X185069724Y-86993043D01*
X184002168Y-87409656D01*
X183291305Y-88097391D01*
X182426467Y-88835604D01*
X181019222Y-89159919D01*
X179856364Y-89201739D01*
X178321887Y-89305377D01*
X177370163Y-89569197D01*
X177217392Y-89753913D01*
X176737570Y-90141612D01*
X175581480Y-90306044D01*
X175560870Y-90306087D01*
X174396884Y-90390420D01*
X173904445Y-90593558D01*
X173904349Y-90596705D01*
X172627895Y-90596705D01*
X172537751Y-90497238D01*
X172111306Y-89790330D01*
X172163189Y-89297687D01*
X172592346Y-88830632D01*
X172755283Y-88688349D01*
X173610449Y-87713393D01*
X173904349Y-86993043D01*
X174288280Y-86147691D01*
X175097223Y-85259743D01*
X175829587Y-84402645D01*
X175895460Y-83830532D01*
X175325309Y-83865524D01*
X175028783Y-84199672D01*
X174530865Y-84658003D01*
X173857118Y-84258933D01*
X173678372Y-84085079D01*
X172965375Y-83009624D01*
X172800001Y-82339006D01*
X172513703Y-81579224D01*
X172247827Y-81471304D01*
X171902054Y-81961165D01*
X171709733Y-83184900D01*
X171695653Y-83680000D01*
X171818118Y-85063091D01*
X172124052Y-85832375D01*
X172247827Y-85888695D01*
X172696459Y-86351168D01*
X172800001Y-86993043D01*
X172568765Y-87890308D01*
X172247827Y-88097391D01*
X171799195Y-87634918D01*
X171695653Y-86993043D01*
X171464417Y-86095779D01*
X171143479Y-85888695D01*
X170797706Y-85398834D01*
X170605385Y-84175100D01*
X170591305Y-83680000D01*
X170713771Y-82296909D01*
X171019704Y-81527625D01*
X171143479Y-81471304D01*
X171592111Y-81008831D01*
X171695653Y-80366956D01*
X171926889Y-79469692D01*
X172247827Y-79262608D01*
X172696459Y-79725081D01*
X172800001Y-80366956D01*
X173031237Y-81264221D01*
X173352175Y-81471304D01*
X173800807Y-81933777D01*
X173904349Y-82575652D01*
X174135585Y-83472916D01*
X174456523Y-83680000D01*
X174750642Y-83177047D01*
X174950045Y-81863157D01*
X175008696Y-80366956D01*
X175092522Y-78602239D01*
X175311504Y-77405823D01*
X175560870Y-77053913D01*
X176009503Y-76591440D01*
X176113044Y-75949565D01*
X176344281Y-75052301D01*
X176665218Y-74845217D01*
X177113850Y-75307690D01*
X177217392Y-75949565D01*
X177448628Y-76846829D01*
X177769566Y-77053913D01*
X178157265Y-77533734D01*
X178321698Y-78689825D01*
X178321740Y-78710435D01*
X178481681Y-79873532D01*
X178867044Y-80366829D01*
X178873914Y-80366956D01*
X179322546Y-80829429D01*
X179426088Y-81471304D01*
X179194851Y-82368568D01*
X178873914Y-82575652D01*
X178425282Y-82113179D01*
X178321740Y-81471304D01*
X178090504Y-80574040D01*
X177769566Y-80366956D01*
X177381867Y-79887135D01*
X177217435Y-78731044D01*
X177217392Y-78710435D01*
X177057452Y-77547337D01*
X176672088Y-77054040D01*
X176665218Y-77053913D01*
X176371099Y-77556866D01*
X176171696Y-78870755D01*
X176113044Y-80366956D01*
X176196870Y-82131673D01*
X176415851Y-83328089D01*
X176665218Y-83680000D01*
X177113850Y-84142472D01*
X177217392Y-84784348D01*
X177448628Y-85681612D01*
X177769566Y-85888695D01*
X178235409Y-85432081D01*
X178321740Y-84906245D01*
X178738353Y-83838689D01*
X179426088Y-83127826D01*
X180098639Y-82256398D01*
X180483711Y-81059627D01*
X180523780Y-79940194D01*
X180161318Y-79300784D01*
X179978262Y-79262608D01*
X179632489Y-78772747D01*
X179440168Y-77549013D01*
X179426088Y-77053913D01*
X180530436Y-77053913D01*
X180652901Y-78437004D01*
X180958835Y-79206288D01*
X181082610Y-79262608D01*
X181470309Y-79742430D01*
X181634741Y-80898521D01*
X181634783Y-80919130D01*
X181743563Y-82210966D01*
X182156129Y-82491361D01*
X183001820Y-81839354D01*
X183054659Y-81786832D01*
X183675333Y-80801447D01*
X183815667Y-79824358D01*
X183435723Y-79281567D01*
X183291305Y-79262608D01*
X182842673Y-78800136D01*
X182739131Y-78158261D01*
X182507895Y-77260996D01*
X182186957Y-77053913D01*
X181738325Y-76591440D01*
X181634783Y-75949565D01*
X181403547Y-75052301D01*
X181082610Y-74845217D01*
X180736837Y-75335078D01*
X180544516Y-76558813D01*
X180530436Y-77053913D01*
X179426088Y-77053913D01*
X179548553Y-75670822D01*
X179854487Y-74901538D01*
X179978262Y-74845217D01*
X180426894Y-74382744D01*
X180530436Y-73740869D01*
X180761672Y-72843605D01*
X181082610Y-72636521D01*
X181531242Y-73098994D01*
X181634783Y-73740869D01*
X181866020Y-74638134D01*
X182186957Y-74845217D01*
X182635590Y-75307690D01*
X182739131Y-75949565D01*
X182970368Y-76846829D01*
X183291305Y-77053913D01*
X183739937Y-77516385D01*
X183843479Y-78158261D01*
X184074715Y-79055525D01*
X184395653Y-79262608D01*
X184844285Y-79725081D01*
X184947827Y-80366956D01*
X185096916Y-81301654D01*
X185630319Y-81297743D01*
X186500816Y-80549371D01*
X187059836Y-79772370D01*
X186737462Y-79399009D01*
X186164605Y-78728773D01*
X186052175Y-78112246D01*
X185811971Y-77240271D01*
X185500001Y-77053913D01*
X185048651Y-76611311D01*
X184969773Y-75566592D01*
X185005685Y-75397391D01*
X186052175Y-75397391D01*
X186212115Y-76560489D01*
X186597479Y-77053786D01*
X186604349Y-77053913D01*
X187052981Y-77516385D01*
X187156523Y-78158261D01*
X187546969Y-79081113D01*
X188260870Y-79262608D01*
X189158135Y-79031372D01*
X189365218Y-78710435D01*
X188945028Y-78174306D01*
X188813044Y-78158261D01*
X188364412Y-77695788D01*
X188260870Y-77053913D01*
X188029634Y-76156648D01*
X187708696Y-75949565D01*
X187260064Y-75487092D01*
X187156523Y-74845217D01*
X186925286Y-73947953D01*
X186604349Y-73740869D01*
X186216649Y-74220691D01*
X186052217Y-75376782D01*
X186052175Y-75397391D01*
X185005685Y-75397391D01*
X185229179Y-74344386D01*
X185792680Y-73369326D01*
X185797011Y-73364978D01*
X186495530Y-72849149D01*
X186604349Y-72894776D01*
X187124764Y-73112985D01*
X187656343Y-73680506D01*
X188506940Y-74532411D01*
X189015855Y-74845217D01*
X189200133Y-74343474D01*
X189326728Y-73039362D01*
X189365218Y-71532174D01*
X189322373Y-69676392D01*
X189140635Y-68673563D01*
X188740205Y-68273877D01*
X188306885Y-68219130D01*
X187318737Y-68529474D01*
X187020122Y-68904417D01*
X186621165Y-69221526D01*
X185869760Y-68667771D01*
X185170575Y-67629188D01*
X185064209Y-67114782D01*
X186052175Y-67114782D01*
X186283411Y-68012047D01*
X186604349Y-68219130D01*
X187052981Y-67756658D01*
X187156523Y-67114782D01*
X187546969Y-66191930D01*
X188260870Y-66010435D01*
X189193671Y-65737242D01*
X189272968Y-65155078D01*
X188675001Y-64718052D01*
X188317572Y-64342537D01*
X188797053Y-63873800D01*
X189307844Y-63232950D01*
X189237478Y-62937766D01*
X188625873Y-62950233D01*
X187863893Y-63606765D01*
X187281970Y-64557242D01*
X187156523Y-65142733D01*
X186870225Y-65902514D01*
X186604349Y-66010435D01*
X186155716Y-66472907D01*
X186052175Y-67114782D01*
X185064209Y-67114782D01*
X184963089Y-66625748D01*
X185301187Y-66044697D01*
X185500001Y-66010435D01*
X185948633Y-65547962D01*
X186052175Y-64906087D01*
X185820938Y-64008822D01*
X185500001Y-63801739D01*
X185034158Y-64258353D01*
X184947827Y-64784189D01*
X184531214Y-65851746D01*
X183843479Y-66562608D01*
X182981000Y-67554875D01*
X182739131Y-68341028D01*
X182482497Y-69169874D01*
X182186957Y-69323478D01*
X181738325Y-68861005D01*
X181634783Y-68219130D01*
X181403547Y-67321866D01*
X181082610Y-67114782D01*
X180694910Y-66634961D01*
X180530478Y-65478870D01*
X180530436Y-65458261D01*
X181634783Y-65458261D01*
X181794724Y-66621359D01*
X182180088Y-67114655D01*
X182186957Y-67114782D01*
X182668051Y-66663920D01*
X182739131Y-66231972D01*
X183118715Y-65331271D01*
X184070103Y-64132512D01*
X184498738Y-63705443D01*
X185547619Y-62619731D01*
X185813738Y-61964641D01*
X185465042Y-61551297D01*
X184952999Y-61048088D01*
X185440357Y-60546969D01*
X185484010Y-60518719D01*
X185999389Y-59910536D01*
X185931605Y-59631894D01*
X185346398Y-59711961D01*
X184446660Y-60409488D01*
X183525614Y-61419860D01*
X182876483Y-62438464D01*
X182739131Y-62948379D01*
X182448632Y-63699161D01*
X182186957Y-63801739D01*
X181799258Y-64281561D01*
X181634826Y-65437651D01*
X181634783Y-65458261D01*
X180530436Y-65458261D01*
X180690376Y-64295163D01*
X181075740Y-63801866D01*
X181082610Y-63801739D01*
X181531242Y-63339266D01*
X181634783Y-62697391D01*
X181866020Y-61800127D01*
X182186957Y-61593043D01*
X182723086Y-61172853D01*
X182739131Y-61040869D01*
X182289235Y-60557372D01*
X181871429Y-60488695D01*
X180737719Y-60125839D01*
X179880818Y-59257764D01*
X179468135Y-58215215D01*
X179667079Y-57328935D01*
X180116305Y-57021175D01*
X180518102Y-56562116D01*
X180418686Y-56357251D01*
X179804054Y-56335906D01*
X179037965Y-56967870D01*
X178450905Y-57912813D01*
X178321740Y-58516646D01*
X178035442Y-59276427D01*
X177769566Y-59384348D01*
X177320934Y-59846820D01*
X177217392Y-60488695D01*
X176986156Y-61385960D01*
X176665218Y-61593043D01*
X176319445Y-62082905D01*
X176127125Y-63306639D01*
X176113044Y-63801739D01*
X176235510Y-65184830D01*
X176541443Y-65954114D01*
X176665218Y-66010435D01*
X177131061Y-65553820D01*
X177217392Y-65027984D01*
X177634005Y-63960428D01*
X178321740Y-63249565D01*
X179188952Y-62232450D01*
X179389121Y-61147956D01*
X178866232Y-60390411D01*
X178735870Y-60334218D01*
X178334074Y-59875160D01*
X178433489Y-59670295D01*
X179043595Y-59660235D01*
X179821446Y-60278966D01*
X180412662Y-61182154D01*
X180530436Y-61707792D01*
X180121379Y-62580967D01*
X179426088Y-63249565D01*
X178563609Y-64241832D01*
X178321740Y-65027984D01*
X178065106Y-65856831D01*
X177769566Y-66010435D01*
X177320934Y-66472907D01*
X177217392Y-67114782D01*
X176986156Y-68012047D01*
X176665218Y-68219130D01*
X176216586Y-67756658D01*
X176113044Y-67114782D01*
X175881808Y-66217518D01*
X175560870Y-66010435D01*
X175215098Y-65520573D01*
X175022777Y-64296839D01*
X175008696Y-63801739D01*
X175131162Y-62418648D01*
X175437095Y-61649364D01*
X175560870Y-61593043D01*
X176009503Y-61130571D01*
X176113044Y-60488695D01*
X176344281Y-59591431D01*
X176665218Y-59384348D01*
X177201347Y-58964157D01*
X177217392Y-58832174D01*
X176737570Y-58444474D01*
X175581480Y-58280042D01*
X175560870Y-58280000D01*
X174348348Y-58453546D01*
X173921438Y-59099273D01*
X173904349Y-59384348D01*
X173673112Y-60281612D01*
X173352175Y-60488695D01*
X172903543Y-60951168D01*
X172800001Y-61593043D01*
X172568765Y-62490308D01*
X172247827Y-62697391D01*
X171799195Y-62234918D01*
X171695653Y-61593043D01*
X171464417Y-60695779D01*
X171143479Y-60488695D01*
X170755780Y-60008874D01*
X170591348Y-58852783D01*
X170591305Y-58832174D01*
X171695653Y-58832174D01*
X171855594Y-59995272D01*
X172240957Y-60488568D01*
X172247827Y-60488695D01*
X172725974Y-60036673D01*
X172800001Y-59587158D01*
X173190386Y-58590077D01*
X174024680Y-57623463D01*
X174811155Y-56809337D01*
X174762156Y-56292897D01*
X174438811Y-56040217D01*
X173905364Y-55533440D01*
X174372115Y-55041397D01*
X174440531Y-54996980D01*
X174952551Y-54385696D01*
X174880956Y-54102984D01*
X174269351Y-54115450D01*
X173507371Y-54771983D01*
X172925448Y-55722459D01*
X172800001Y-56307950D01*
X172513703Y-57067732D01*
X172247827Y-57175652D01*
X171860128Y-57655474D01*
X171695695Y-58811564D01*
X171695653Y-58832174D01*
X170591305Y-58832174D01*
X170751246Y-57669076D01*
X171136609Y-57175779D01*
X171143479Y-57175652D01*
X171592111Y-56713179D01*
X171695653Y-56071304D01*
X171926889Y-55174040D01*
X172247827Y-54966956D01*
X172696459Y-54504484D01*
X172800001Y-53862608D01*
X172568765Y-52965344D01*
X172247827Y-52758261D01*
X171759907Y-52310192D01*
X171695653Y-51917996D01*
X172083793Y-51095572D01*
X173085596Y-49821282D01*
X174457138Y-48339050D01*
X175954493Y-46892800D01*
X177333737Y-45726459D01*
X178350944Y-45083950D01*
X178585823Y-45027826D01*
X179328310Y-44733381D01*
X179426088Y-44475652D01*
X179888560Y-44027020D01*
X180530436Y-43923478D01*
X181427700Y-43692242D01*
X181634783Y-43371304D01*
X182114605Y-42983605D01*
X183270696Y-42819173D01*
X183291305Y-42819130D01*
X184454403Y-42659190D01*
X184947700Y-42273826D01*
X184947827Y-42266956D01*
X185444437Y-41951972D01*
X186714190Y-41752046D01*
X187708696Y-41714782D01*
X189283616Y-41615460D01*
X190283250Y-41361510D01*
X190469566Y-41162608D01*
X190956515Y-40825557D01*
X192180322Y-40643220D01*
X193782610Y-40608500D01*
X193785421Y-40608439D01*
X195416251Y-40714052D01*
G37*
D12*
%TO.C,J1*%
X248620000Y-114479800D02*
X250000000Y-114479800D01*
X248620000Y-115859800D02*
X248620000Y-114479800D01*
X248620000Y-117129800D02*
X248620000Y-124859800D01*
X248620000Y-117129800D02*
X251380000Y-117129800D01*
X248620000Y-124859800D02*
X251380000Y-124859800D01*
X251380000Y-117129800D02*
X251380000Y-124859800D01*
D13*
%TO.C,G\u002A\u002A\u002A*%
G36*
X84902857Y-66932372D02*
G01*
X84840758Y-67553959D01*
X84263455Y-68172709D01*
X83386982Y-68773627D01*
X82999148Y-68485374D01*
X82938332Y-67775834D01*
X83312510Y-66891434D01*
X83996666Y-66717501D01*
X84902857Y-66932372D01*
G37*
G36*
X90331289Y-52303517D02*
G01*
X90346666Y-52430001D01*
X89943983Y-52943790D01*
X89817499Y-52959167D01*
X89303710Y-52556485D01*
X89288333Y-52430001D01*
X89691015Y-51916211D01*
X89817499Y-51900834D01*
X90331289Y-52303517D01*
G37*
G36*
X64620985Y-57306512D02*
G01*
X65801355Y-57630359D01*
X66307380Y-57948453D01*
X66989013Y-58818780D01*
X66750490Y-59233209D01*
X66004999Y-59309167D01*
X65145121Y-59087566D01*
X64946666Y-58780001D01*
X64486837Y-58408456D01*
X63378916Y-58250875D01*
X63359166Y-58250834D01*
X62244530Y-58404111D01*
X61771788Y-58773417D01*
X61771666Y-58780001D01*
X61328463Y-59209940D01*
X60713332Y-59309167D01*
X59853454Y-59087566D01*
X59654999Y-58780001D01*
X60098202Y-58350062D01*
X60713332Y-58250834D01*
X61573211Y-58029233D01*
X61771666Y-57721667D01*
X62217728Y-57332746D01*
X63296972Y-57200834D01*
X64620985Y-57306512D01*
G37*
G36*
X108260130Y-42471018D02*
G01*
X109218113Y-42714387D01*
X109396666Y-42905001D01*
X109872584Y-43206860D01*
X111089430Y-43398457D01*
X112042499Y-43434168D01*
X113551797Y-43529351D01*
X114509780Y-43772720D01*
X114688332Y-43963334D01*
X115156006Y-44302461D01*
X116316705Y-44483285D01*
X116688181Y-44492501D01*
X118458626Y-44771541D01*
X119450832Y-45550834D01*
X120313059Y-46371914D01*
X120942844Y-46609168D01*
X121741468Y-46969994D01*
X122832871Y-47868694D01*
X123154999Y-48196668D01*
X124226905Y-49197991D01*
X125080980Y-49747899D01*
X125243442Y-49784167D01*
X126085269Y-50171212D01*
X127136027Y-51088892D01*
X128041106Y-52172023D01*
X128445894Y-53055425D01*
X128446666Y-53082879D01*
X128838233Y-53908452D01*
X129504999Y-54546667D01*
X130328566Y-55448490D01*
X130563333Y-56134167D01*
X130958883Y-57061021D01*
X131621666Y-57721667D01*
X132476014Y-58897404D01*
X132679999Y-59955153D01*
X132844430Y-61018224D01*
X133209166Y-61425834D01*
X133540531Y-61895285D01*
X133724839Y-63068030D01*
X133738333Y-63542501D01*
X133827083Y-64927301D01*
X134185798Y-65539329D01*
X134796666Y-65659167D01*
X135656544Y-65880769D01*
X135854999Y-66188334D01*
X136298202Y-66618273D01*
X136913333Y-66717501D01*
X137773211Y-66939102D01*
X137971666Y-67246668D01*
X138341108Y-67736905D01*
X139196023Y-67694215D01*
X140156291Y-67194622D01*
X140617499Y-66717501D01*
X141743368Y-65887004D01*
X143380151Y-65659167D01*
X144661791Y-65782916D01*
X145345169Y-66090040D01*
X145379999Y-66188334D01*
X145811150Y-66651686D01*
X146211547Y-66717501D01*
X147265203Y-67069300D01*
X147799047Y-67473453D01*
X148255317Y-68479903D01*
X148504315Y-70129468D01*
X148547680Y-72048832D01*
X148387049Y-73864678D01*
X148024063Y-75203689D01*
X147763455Y-75581042D01*
X146967499Y-76011383D01*
X146704476Y-76153589D01*
X146196083Y-76242501D01*
X145477669Y-76521407D01*
X145379999Y-76771667D01*
X144912326Y-77110794D01*
X143751627Y-77291618D01*
X143380151Y-77300834D01*
X141675833Y-77032216D01*
X141609706Y-77021794D01*
X140617499Y-76242501D01*
X139772974Y-75509470D01*
X138810016Y-75188585D01*
X138108745Y-75355871D01*
X137971666Y-75713334D01*
X137528463Y-76143273D01*
X136913333Y-76242501D01*
X136053454Y-76464102D01*
X135854999Y-76771667D01*
X135411796Y-77201607D01*
X135325833Y-77215474D01*
X134796666Y-77300834D01*
X134161873Y-77440135D01*
X133845278Y-78031403D01*
X133742861Y-79334689D01*
X133738333Y-79946667D01*
X133643149Y-81455965D01*
X133399780Y-82413948D01*
X133209166Y-82592501D01*
X132813294Y-83045884D01*
X132679999Y-83933056D01*
X132397577Y-84877451D01*
X131684817Y-86049566D01*
X130743479Y-87223818D01*
X129775322Y-88174621D01*
X128982108Y-88676388D01*
X128572343Y-88525782D01*
X127941736Y-88034630D01*
X127055599Y-87884167D01*
X125781257Y-87501242D01*
X124464907Y-86565756D01*
X123471919Y-85397641D01*
X123154999Y-84468637D01*
X122876604Y-83749138D01*
X122625833Y-83650834D01*
X122254287Y-83191005D01*
X122096706Y-82083085D01*
X122096666Y-82063334D01*
X121943389Y-80948699D01*
X121574083Y-80475956D01*
X121567499Y-80475834D01*
X121195954Y-80935663D01*
X121038373Y-82043584D01*
X121038333Y-82063334D01*
X121191609Y-83177970D01*
X121560916Y-83650712D01*
X121567499Y-83650834D01*
X122034094Y-84080650D01*
X122096666Y-84462223D01*
X122514845Y-85502244D01*
X123560708Y-86747248D01*
X124921240Y-87917287D01*
X126283429Y-88732411D01*
X127106110Y-88942501D01*
X128189953Y-89220253D01*
X128446666Y-89753890D01*
X128082077Y-90589399D01*
X127181192Y-91758798D01*
X126033331Y-92958374D01*
X124927816Y-93884414D01*
X124178695Y-94234167D01*
X123466648Y-94591974D01*
X122425752Y-95484073D01*
X122096666Y-95821667D01*
X120961185Y-96829799D01*
X120509166Y-97078749D01*
X119968213Y-97376680D01*
X119767692Y-97409167D01*
X119030573Y-97679420D01*
X118921666Y-97938334D01*
X118461837Y-98309879D01*
X117353916Y-98467460D01*
X117334166Y-98467501D01*
X116219530Y-98620777D01*
X115746788Y-98990084D01*
X115746666Y-98996667D01*
X115264669Y-99278532D01*
X114005525Y-99469626D01*
X113100832Y-99505090D01*
X112571666Y-99525834D01*
X110880479Y-99606167D01*
X109733914Y-99816024D01*
X109396666Y-100055001D01*
X108920748Y-100356860D01*
X107703902Y-100548457D01*
X106750832Y-100584167D01*
X105241535Y-100488984D01*
X104283552Y-100245615D01*
X104104999Y-100055001D01*
X103623003Y-99773136D01*
X103046666Y-99685668D01*
X102363858Y-99582042D01*
X100929999Y-99525834D01*
X99238812Y-99445501D01*
X98092247Y-99235644D01*
X97754999Y-98996667D01*
X97295170Y-98625122D01*
X96187250Y-98467541D01*
X96167499Y-98467501D01*
X95052864Y-98314224D01*
X94580121Y-97944918D01*
X94579999Y-97938334D01*
X94147923Y-97477286D01*
X93733973Y-97409167D01*
X92857105Y-97045620D01*
X91720598Y-96140982D01*
X91404999Y-95821667D01*
X89815472Y-94601085D01*
X88280787Y-94289631D01*
X86975439Y-94906692D01*
X86642499Y-95292501D01*
X85807381Y-95937029D01*
X84660475Y-96306057D01*
X83587685Y-96344456D01*
X82974917Y-95997096D01*
X82938332Y-95821667D01*
X83368579Y-95356109D01*
X83756136Y-95292501D01*
X84660105Y-94941007D01*
X85780379Y-94082734D01*
X85903728Y-93962712D01*
X86742921Y-93014076D01*
X86860972Y-92393424D01*
X86446639Y-91846045D01*
X85270158Y-91299343D01*
X83228616Y-91065493D01*
X82755644Y-91059168D01*
X80832470Y-90937484D01*
X79768777Y-90590770D01*
X79614090Y-90397709D01*
X79174541Y-90191273D01*
X78317299Y-90926876D01*
X77282239Y-91788023D01*
X76393972Y-92117501D01*
X75645827Y-92382820D01*
X75529999Y-92646668D01*
X75060549Y-92978033D01*
X73887803Y-93162341D01*
X73413333Y-93175834D01*
X72087870Y-93058472D01*
X71350640Y-92765285D01*
X71296666Y-92646668D01*
X70936642Y-92147834D01*
X70070864Y-92232884D01*
X69020771Y-92825537D01*
X68509366Y-93308126D01*
X67651678Y-94043910D01*
X67212575Y-93837292D01*
X66642542Y-93335213D01*
X65754588Y-93188229D01*
X65060782Y-93426237D01*
X64946666Y-93705001D01*
X64486837Y-94076546D01*
X63378916Y-94234127D01*
X63359166Y-94234167D01*
X62244530Y-94080891D01*
X61771788Y-93711584D01*
X61771666Y-93705001D01*
X62231495Y-93333456D01*
X63339415Y-93175875D01*
X63359166Y-93175834D01*
X64473801Y-93022558D01*
X64946544Y-92653251D01*
X64946666Y-92646668D01*
X65416116Y-92315302D01*
X66588862Y-92130994D01*
X67063332Y-92117501D01*
X68388795Y-92000138D01*
X69126025Y-91706952D01*
X69179999Y-91588334D01*
X69655917Y-91286475D01*
X70872763Y-91094878D01*
X71825833Y-91059167D01*
X73335130Y-90963984D01*
X74293113Y-90720615D01*
X74471666Y-90530001D01*
X74909254Y-90083568D01*
X75413181Y-90000834D01*
X76436256Y-89601580D01*
X77117499Y-88942501D01*
X78198642Y-88108641D01*
X79124199Y-87884167D01*
X80177726Y-87654731D01*
X81125495Y-87114245D01*
X81704653Y-86484447D01*
X81652346Y-85987076D01*
X81478399Y-85898218D01*
X80929411Y-85255908D01*
X80821666Y-84665070D01*
X80591471Y-83829427D01*
X80292499Y-83650834D01*
X79778710Y-84053517D01*
X79763332Y-84180001D01*
X79320130Y-84609940D01*
X78704999Y-84709168D01*
X77844428Y-84536110D01*
X77646666Y-84296819D01*
X78028750Y-83704856D01*
X78704999Y-83121667D01*
X79531542Y-82170745D01*
X79763332Y-81417349D01*
X79535041Y-80791273D01*
X78681743Y-80517779D01*
X77646666Y-80475834D01*
X76321204Y-80593197D01*
X75583973Y-80886383D01*
X75529999Y-81005001D01*
X75086796Y-81434940D01*
X74471666Y-81534167D01*
X73611787Y-81755769D01*
X73413333Y-82063334D01*
X72953503Y-82434879D01*
X71845583Y-82592460D01*
X71825833Y-82592501D01*
X70711197Y-82745777D01*
X70238454Y-83115084D01*
X70238333Y-83121667D01*
X69795130Y-83551607D01*
X69179999Y-83650834D01*
X68320121Y-83872436D01*
X68121666Y-84180001D01*
X67678463Y-84609940D01*
X67063332Y-84709168D01*
X66203454Y-84487566D01*
X66004999Y-84180001D01*
X65573340Y-83780531D01*
X64582995Y-83660458D01*
X63490914Y-83801597D01*
X62754048Y-84185763D01*
X62680757Y-84312293D01*
X62217059Y-84483254D01*
X61292911Y-83705954D01*
X61242499Y-83650834D01*
X60298497Y-82832468D01*
X59814731Y-82962265D01*
X59804241Y-82989376D01*
X59234209Y-83491455D01*
X58346254Y-83638439D01*
X57652449Y-83400432D01*
X57538333Y-83121667D01*
X57981535Y-82691728D01*
X58596666Y-82592501D01*
X59456544Y-82370899D01*
X59654999Y-82063334D01*
X60098202Y-81633395D01*
X60713332Y-81534167D01*
X61573211Y-81755769D01*
X61771666Y-82063334D01*
X62253662Y-82345199D01*
X63512807Y-82536293D01*
X64946666Y-82592501D01*
X66637853Y-82512168D01*
X67784418Y-82302311D01*
X68121666Y-82063334D01*
X68564869Y-81633395D01*
X69179999Y-81534167D01*
X70039878Y-81312566D01*
X70238333Y-81005001D01*
X70698162Y-80633456D01*
X71806082Y-80475875D01*
X71825833Y-80475834D01*
X72940468Y-80322558D01*
X73413211Y-79953251D01*
X73413333Y-79946667D01*
X73856535Y-79516728D01*
X74471666Y-79417501D01*
X75331544Y-79195899D01*
X75529999Y-78888334D01*
X75989828Y-78516789D01*
X77097749Y-78359208D01*
X77117499Y-78359167D01*
X78279500Y-78192852D01*
X78688622Y-77574031D01*
X78704999Y-77300834D01*
X78447330Y-76413887D01*
X77906558Y-76318267D01*
X77498625Y-76903959D01*
X77047655Y-77276800D01*
X76840523Y-77171899D01*
X76882991Y-76593960D01*
X77561828Y-75786914D01*
X78513504Y-74814533D01*
X78551964Y-74288116D01*
X77681380Y-74125929D01*
X77646666Y-74125834D01*
X76786787Y-73904233D01*
X76588333Y-73596668D01*
X76112415Y-73294808D01*
X74895568Y-73103211D01*
X73942499Y-73067501D01*
X72433202Y-72972317D01*
X71475219Y-72728948D01*
X71296666Y-72538334D01*
X70827215Y-72206969D01*
X69654470Y-72022661D01*
X69179999Y-72009168D01*
X67854537Y-72126530D01*
X67117307Y-72419717D01*
X67063332Y-72538334D01*
X66581336Y-72820199D01*
X65322192Y-73011293D01*
X63888333Y-73067501D01*
X62197145Y-73147834D01*
X61050580Y-73357691D01*
X60713332Y-73596668D01*
X60255795Y-73959756D01*
X59122618Y-74115435D01*
X57672959Y-74078264D01*
X56265971Y-73862804D01*
X55260812Y-73483616D01*
X55119285Y-73369882D01*
X54454114Y-72536757D01*
X54678915Y-72124565D01*
X55869438Y-72009356D01*
X55950833Y-72009168D01*
X57065468Y-72162444D01*
X57538211Y-72531751D01*
X57538333Y-72538334D01*
X57998162Y-72909879D01*
X59106082Y-73067460D01*
X59125833Y-73067501D01*
X60240468Y-72914224D01*
X60713211Y-72544918D01*
X60713332Y-72538334D01*
X61173162Y-72166789D01*
X62281082Y-72009208D01*
X62300833Y-72009168D01*
X63415468Y-71855891D01*
X63888211Y-71486584D01*
X63888333Y-71480001D01*
X64364250Y-71178141D01*
X65581097Y-70986545D01*
X66534166Y-70950834D01*
X80821666Y-70950834D01*
X81043267Y-71810713D01*
X81350832Y-72009168D01*
X81813595Y-72440556D01*
X81879999Y-72844405D01*
X82240013Y-73654846D01*
X83165660Y-74847456D01*
X83996666Y-75713334D01*
X85357773Y-77330487D01*
X86065147Y-78843188D01*
X86060852Y-80053052D01*
X85451874Y-80696320D01*
X85062722Y-81043839D01*
X85451874Y-81313681D01*
X86016591Y-82043777D01*
X86113333Y-82592501D01*
X85800114Y-83528185D01*
X85451874Y-83798875D01*
X85096809Y-84265874D01*
X85216063Y-84489106D01*
X85799387Y-84523171D01*
X86094083Y-84211148D01*
X86571254Y-83771915D01*
X87216929Y-84154356D01*
X87388227Y-84320967D01*
X88063898Y-85229924D01*
X88229999Y-85738238D01*
X88583973Y-86329360D01*
X89540723Y-87475771D01*
X90942490Y-88996789D01*
X92190214Y-90273952D01*
X93988496Y-92045553D01*
X95269053Y-93191500D01*
X96249358Y-93847424D01*
X97146888Y-94148954D01*
X98179115Y-94231720D01*
X98540214Y-94234167D01*
X99963292Y-94338918D01*
X100818703Y-94604046D01*
X100929999Y-94763334D01*
X101399450Y-95094700D01*
X102572195Y-95279007D01*
X103046666Y-95292501D01*
X104372128Y-95175138D01*
X105109358Y-94881952D01*
X105163332Y-94763334D01*
X112571666Y-94763334D01*
X112974348Y-95277124D01*
X113100832Y-95292501D01*
X113614622Y-94889818D01*
X113629999Y-94763334D01*
X113227317Y-94249545D01*
X113100832Y-94234167D01*
X112587043Y-94636850D01*
X112571666Y-94763334D01*
X105163332Y-94763334D01*
X105606535Y-94333395D01*
X106221666Y-94234167D01*
X107081544Y-94012566D01*
X107279999Y-93705001D01*
X107755917Y-93403141D01*
X108972763Y-93211545D01*
X109925832Y-93175834D01*
X111435130Y-93080651D01*
X112393113Y-92837281D01*
X112571666Y-92646668D01*
X116804999Y-92646668D01*
X117207682Y-93160457D01*
X117334166Y-93175834D01*
X117847955Y-92773152D01*
X117863332Y-92646668D01*
X117460650Y-92132878D01*
X117334166Y-92117501D01*
X116820376Y-92520183D01*
X116804999Y-92646668D01*
X112571666Y-92646668D01*
X113014869Y-92216728D01*
X113629999Y-92117501D01*
X114514399Y-91743323D01*
X114688332Y-91059167D01*
X114912215Y-90530001D01*
X119979999Y-90530001D01*
X120382682Y-91043790D01*
X120509166Y-91059167D01*
X121022955Y-90656485D01*
X121038333Y-90530001D01*
X120635650Y-90016211D01*
X120509166Y-90000834D01*
X119995376Y-90403517D01*
X119979999Y-90530001D01*
X114912215Y-90530001D01*
X115062510Y-90174767D01*
X115746666Y-90000834D01*
X116606544Y-89779233D01*
X116804999Y-89471667D01*
X117248202Y-89041728D01*
X117863332Y-88942501D01*
X118755617Y-88565554D01*
X118921666Y-88000986D01*
X119320920Y-86977911D01*
X119979999Y-86296668D01*
X120713030Y-85452142D01*
X121033915Y-84489184D01*
X120866629Y-83787913D01*
X120509166Y-83650834D01*
X120137621Y-83191005D01*
X119980040Y-82083085D01*
X119979999Y-82063334D01*
X120133276Y-80948699D01*
X120502582Y-80475956D01*
X120509166Y-80475834D01*
X120880711Y-80016005D01*
X121038292Y-78908085D01*
X121038333Y-78888334D01*
X120885056Y-77773699D01*
X120515749Y-77300956D01*
X120509166Y-77300834D01*
X120079227Y-76857631D01*
X119979999Y-76242501D01*
X120201601Y-75382622D01*
X120509166Y-75184167D01*
X120939105Y-75627370D01*
X121038333Y-76242501D01*
X121259934Y-77102379D01*
X121567499Y-77300834D01*
X121939044Y-77760663D01*
X122096625Y-78868584D01*
X122096666Y-78888334D01*
X122249942Y-80002970D01*
X122619249Y-80475712D01*
X122625833Y-80475834D01*
X123089184Y-80906985D01*
X123154999Y-81307382D01*
X123602746Y-82502786D01*
X124647067Y-83417561D01*
X125498452Y-83650834D01*
X126145828Y-83231188D01*
X126329999Y-82063334D01*
X126176723Y-80948699D01*
X125807416Y-80475956D01*
X125800833Y-80475834D01*
X125453884Y-80009988D01*
X125277322Y-78861644D01*
X125271666Y-78585953D01*
X125063362Y-77114812D01*
X124547777Y-75979299D01*
X123888897Y-75397573D01*
X123250711Y-75587792D01*
X123135749Y-75744481D01*
X122561955Y-76188065D01*
X122305184Y-76098241D01*
X122391751Y-75534538D01*
X123110737Y-74670462D01*
X123202453Y-74587114D01*
X123992607Y-73682187D01*
X123825247Y-73219969D01*
X123816458Y-73216743D01*
X123314378Y-72646711D01*
X123167394Y-71758756D01*
X123405402Y-71064950D01*
X123684166Y-70950834D01*
X124114105Y-70507631D01*
X124127972Y-70421668D01*
X129504999Y-70421668D01*
X129948202Y-70851607D01*
X130563333Y-70950834D01*
X131447733Y-71325012D01*
X131621666Y-72009168D01*
X131721601Y-72565354D01*
X132172270Y-72883986D01*
X133199966Y-73029718D01*
X135030982Y-73067206D01*
X135325833Y-73067501D01*
X137260618Y-73049076D01*
X138367874Y-72937288D01*
X138878371Y-72647364D01*
X139022875Y-72094531D01*
X139029999Y-71706787D01*
X138990381Y-71518839D01*
X140096056Y-71518839D01*
X140485208Y-71788681D01*
X140962513Y-72489003D01*
X141146666Y-73640765D01*
X141303968Y-74736191D01*
X141675833Y-75184167D01*
X141947282Y-74694731D01*
X142134851Y-73382945D01*
X142203697Y-71518839D01*
X145387722Y-71518839D01*
X145776874Y-71788681D01*
X146333400Y-72516158D01*
X146438333Y-73111598D01*
X146668528Y-73947241D01*
X146967499Y-74125834D01*
X147269359Y-73649916D01*
X147460955Y-72433070D01*
X147496666Y-71480001D01*
X147401482Y-69970703D01*
X147158113Y-69012720D01*
X146967499Y-68834168D01*
X146531512Y-69275375D01*
X146438333Y-69848404D01*
X146133269Y-70844107D01*
X145776874Y-71171320D01*
X145387722Y-71518839D01*
X142203697Y-71518839D01*
X142204999Y-71483595D01*
X142204999Y-71480001D01*
X142135080Y-69579853D01*
X141947682Y-68266869D01*
X141676346Y-67775836D01*
X141675833Y-67775834D01*
X141300258Y-68234633D01*
X141146666Y-69319237D01*
X140941989Y-70528466D01*
X140485208Y-71171320D01*
X140096056Y-71518839D01*
X138990381Y-71518839D01*
X138747008Y-70364263D01*
X138274047Y-69590120D01*
X137249016Y-68952069D01*
X136686547Y-68834168D01*
X135958423Y-68559799D01*
X135854999Y-68305001D01*
X135441895Y-67838790D01*
X134459853Y-67773898D01*
X133294777Y-68055194D01*
X132332572Y-68627549D01*
X132150833Y-68834168D01*
X131199910Y-69660710D01*
X130446514Y-69892501D01*
X129652203Y-70138442D01*
X129504999Y-70421668D01*
X124127972Y-70421668D01*
X124213333Y-69892501D01*
X124434934Y-69032622D01*
X124742499Y-68834168D01*
X125212624Y-68448496D01*
X125176371Y-67563651D01*
X124672014Y-66587886D01*
X124515713Y-66415120D01*
X123490683Y-65777069D01*
X122928213Y-65659167D01*
X122200089Y-65384799D01*
X122096666Y-65130001D01*
X122539869Y-64700062D01*
X123154999Y-64600834D01*
X124014878Y-64822436D01*
X124213333Y-65130001D01*
X124616015Y-65643790D01*
X124742499Y-65659167D01*
X125200724Y-65225979D01*
X125271666Y-64795195D01*
X125642173Y-63840649D01*
X126462291Y-62871867D01*
X127198075Y-62014180D01*
X126991458Y-61575076D01*
X126429712Y-60913928D01*
X126329999Y-60367501D01*
X126016780Y-59431817D01*
X125668541Y-59161127D01*
X125325981Y-58697662D01*
X125476403Y-58455571D01*
X126024319Y-58388432D01*
X126181958Y-58647709D01*
X126840540Y-59201312D01*
X127432430Y-59309167D01*
X128207977Y-58912074D01*
X128461207Y-58051923D01*
X128115830Y-57225414D01*
X127785208Y-57012301D01*
X127445546Y-56641203D01*
X127917499Y-56134167D01*
X128397954Y-55570697D01*
X128049791Y-55256034D01*
X127494895Y-54566976D01*
X127388333Y-53973404D01*
X127038095Y-53139699D01*
X126576944Y-52959167D01*
X125676165Y-53343686D01*
X124475679Y-54295298D01*
X123278403Y-55511088D01*
X122387252Y-56688140D01*
X122096666Y-57439445D01*
X121816351Y-58154890D01*
X121567499Y-58250834D01*
X121195954Y-58710663D01*
X121038373Y-59818584D01*
X121038333Y-59838334D01*
X120885056Y-60952970D01*
X120515749Y-61425712D01*
X120509166Y-61425834D01*
X120137621Y-61885663D01*
X119980040Y-62993584D01*
X119979999Y-63013334D01*
X119826723Y-64127970D01*
X119457416Y-64600712D01*
X119450832Y-64600834D01*
X119218549Y-65109233D01*
X119046691Y-66553750D01*
X118945341Y-68813370D01*
X118921666Y-70950834D01*
X118964032Y-73738231D01*
X119084409Y-75800534D01*
X119272711Y-77016727D01*
X119450832Y-77300834D01*
X119822378Y-77760663D01*
X119979959Y-78868584D01*
X119979999Y-78888334D01*
X119826723Y-80002970D01*
X119457416Y-80475712D01*
X119450832Y-80475834D01*
X119079287Y-80016005D01*
X118921706Y-78908085D01*
X118921666Y-78888334D01*
X118768389Y-77773699D01*
X118399083Y-77300956D01*
X118392499Y-77300834D01*
X118160216Y-76792436D01*
X117988357Y-75347918D01*
X117887008Y-73088298D01*
X117863332Y-70950834D01*
X117905699Y-68163437D01*
X118026075Y-66101134D01*
X118214377Y-64884941D01*
X118392499Y-64600834D01*
X118764044Y-64141005D01*
X118921625Y-63033085D01*
X118921666Y-63013334D01*
X119074942Y-61898699D01*
X119444249Y-61425956D01*
X119450832Y-61425834D01*
X119822378Y-60966005D01*
X119979959Y-59858085D01*
X119979999Y-59838334D01*
X120133276Y-58723699D01*
X120502582Y-58250956D01*
X120509166Y-58250834D01*
X120971928Y-57819445D01*
X121038333Y-57415597D01*
X121398346Y-56605156D01*
X122323994Y-55412546D01*
X123154999Y-54546667D01*
X124325748Y-53322964D01*
X125094439Y-52329951D01*
X125271666Y-51924682D01*
X124896695Y-51162834D01*
X123971903Y-50063330D01*
X122797473Y-48919042D01*
X121673588Y-48022842D01*
X120908206Y-47667501D01*
X120087866Y-47276141D01*
X119450832Y-46609168D01*
X118324964Y-45778670D01*
X116688181Y-45550834D01*
X115406540Y-45427086D01*
X114723163Y-45119961D01*
X114688332Y-45021668D01*
X114212415Y-44719808D01*
X112995568Y-44528211D01*
X112042499Y-44492501D01*
X110533202Y-44397317D01*
X109575219Y-44153948D01*
X109396666Y-43963334D01*
X108920748Y-43661475D01*
X107703902Y-43469878D01*
X106750832Y-43434168D01*
X105241535Y-43529351D01*
X104283552Y-43772720D01*
X104104999Y-43963334D01*
X103650602Y-44355519D01*
X102729806Y-44492501D01*
X101277822Y-44947058D01*
X99871666Y-46080001D01*
X98799371Y-47081366D01*
X97944446Y-47631256D01*
X97781731Y-47667501D01*
X97171578Y-48023632D01*
X96022716Y-48981810D01*
X94525281Y-50376710D01*
X94050833Y-50847065D01*
X93521666Y-51371667D01*
X91879533Y-52956405D01*
X90437360Y-54202620D01*
X89428678Y-54920620D01*
X89396670Y-54943404D01*
X89049294Y-55075834D01*
X88374778Y-55518187D01*
X88229999Y-56134167D01*
X88008398Y-56994046D01*
X87700833Y-57192501D01*
X87270893Y-57635704D01*
X87171666Y-58250834D01*
X86950064Y-59110713D01*
X86642499Y-59309167D01*
X86278500Y-59758563D01*
X86128124Y-60836348D01*
X86179323Y-62136916D01*
X86420050Y-63254664D01*
X86774791Y-63762987D01*
X87163943Y-64110505D01*
X86774791Y-64380348D01*
X86210074Y-65110443D01*
X86113333Y-65659167D01*
X86431442Y-66635870D01*
X86774791Y-66937987D01*
X87163943Y-67285505D01*
X86774791Y-67555348D01*
X86282666Y-68260918D01*
X86113333Y-69290613D01*
X85711437Y-70719514D01*
X85054999Y-71480001D01*
X84128075Y-72546984D01*
X84245646Y-73689221D01*
X85139837Y-74728580D01*
X85860407Y-75532282D01*
X85965658Y-76037398D01*
X85423881Y-75940881D01*
X84572758Y-75262346D01*
X83694723Y-74297196D01*
X83072210Y-73340832D01*
X82938333Y-72871068D01*
X82554241Y-72040526D01*
X82276874Y-71875933D01*
X82240136Y-71423354D01*
X82947614Y-70445024D01*
X83904809Y-69453223D01*
X85153762Y-68196045D01*
X85718004Y-67405339D01*
X85711219Y-66852856D01*
X85397815Y-66455555D01*
X84484995Y-65802464D01*
X83996666Y-65659167D01*
X82942767Y-66125190D01*
X82146427Y-67271103D01*
X81879999Y-68531787D01*
X81703452Y-69544195D01*
X81350832Y-69892501D01*
X80920893Y-70335704D01*
X80821666Y-70950834D01*
X66534166Y-70950834D01*
X68043463Y-70855651D01*
X69001446Y-70612281D01*
X69179999Y-70421668D01*
X69649450Y-70090302D01*
X70822195Y-69905994D01*
X71296666Y-69892501D01*
X72622128Y-70009863D01*
X73359358Y-70303050D01*
X73413333Y-70421668D01*
X73816861Y-70904819D01*
X74805254Y-70925847D01*
X76045228Y-70548999D01*
X77203496Y-69838522D01*
X77406136Y-69651971D01*
X78406685Y-68559482D01*
X78612121Y-67989131D01*
X78042096Y-67787614D01*
X77646666Y-67775834D01*
X76786787Y-67554233D01*
X76588333Y-67246668D01*
X77031535Y-66816728D01*
X77646666Y-66717501D01*
X78468141Y-66417263D01*
X78704990Y-65366869D01*
X78704999Y-65356787D01*
X78579338Y-64856253D01*
X80835276Y-64856253D01*
X81077744Y-65550108D01*
X81350832Y-65659167D01*
X81814184Y-65228017D01*
X81879999Y-64827620D01*
X82231671Y-63792482D01*
X82693800Y-63182271D01*
X83348787Y-62699626D01*
X83949805Y-62934898D01*
X84549240Y-63569490D01*
X85378654Y-64311162D01*
X85930836Y-64430224D01*
X85936944Y-64424445D01*
X85839401Y-63878560D01*
X85139837Y-63086914D01*
X84152696Y-61848115D01*
X84211020Y-60721666D01*
X85054999Y-59838334D01*
X85881542Y-58887412D01*
X86113332Y-58134016D01*
X86359274Y-57339704D01*
X86642499Y-57192501D01*
X87139542Y-56882405D01*
X86964766Y-56262975D01*
X86510208Y-55913681D01*
X86121056Y-55566163D01*
X86510208Y-55296320D01*
X87142849Y-54695775D01*
X86851347Y-54167680D01*
X86113332Y-54017501D01*
X85338665Y-54266974D01*
X85065917Y-55195206D01*
X85054999Y-55605001D01*
X84901723Y-56719636D01*
X84532416Y-57192379D01*
X84525832Y-57192501D01*
X84154287Y-57652330D01*
X83996706Y-58760250D01*
X83996666Y-58780001D01*
X83843389Y-59894636D01*
X83474083Y-60367379D01*
X83467499Y-60367501D01*
X83037560Y-60810704D01*
X82938332Y-61425834D01*
X82716731Y-62285713D01*
X82409166Y-62484167D01*
X81979227Y-62040965D01*
X81879999Y-61425834D01*
X81658398Y-60565956D01*
X81350832Y-60367501D01*
X80905556Y-60767475D01*
X80861451Y-61632834D01*
X81190112Y-62461736D01*
X81483124Y-62704654D01*
X81872276Y-63052172D01*
X81483124Y-63322015D01*
X80979872Y-63946274D01*
X80835276Y-64856253D01*
X78579338Y-64856253D01*
X78320513Y-63825301D01*
X77344476Y-62768773D01*
X76361547Y-62484167D01*
X75633423Y-62209799D01*
X75529999Y-61955001D01*
X75086796Y-61525062D01*
X74471666Y-61425834D01*
X73611787Y-61204233D01*
X73413333Y-60896667D01*
X72937415Y-60594808D01*
X71720568Y-60403211D01*
X70767499Y-60367501D01*
X69258202Y-60272317D01*
X68300219Y-60028948D01*
X68121666Y-59838334D01*
X68609638Y-59564678D01*
X69911078Y-59376338D01*
X71709014Y-59309167D01*
X73731141Y-59362690D01*
X74980114Y-59568965D01*
X75737755Y-59996558D01*
X76059166Y-60367501D01*
X77234902Y-61221849D01*
X78292651Y-61425834D01*
X79337460Y-61279892D01*
X79721802Y-60620731D01*
X79763332Y-59838334D01*
X79617798Y-58780001D01*
X81879999Y-58780001D01*
X82282682Y-59293790D01*
X82409166Y-59309167D01*
X82922955Y-58906485D01*
X82938332Y-58780001D01*
X82535650Y-58266211D01*
X82409166Y-58250834D01*
X81895376Y-58653517D01*
X81879999Y-58780001D01*
X79617798Y-58780001D01*
X79610056Y-58723699D01*
X79240749Y-58250956D01*
X79234166Y-58250834D01*
X78720376Y-57848152D01*
X78704999Y-57721667D01*
X79164828Y-57350122D01*
X80272749Y-57192541D01*
X80292499Y-57192501D01*
X81454500Y-57026185D01*
X81863622Y-56407364D01*
X81879999Y-56134167D01*
X81501228Y-55244505D01*
X80865763Y-55075834D01*
X79870060Y-54770771D01*
X79542846Y-54414376D01*
X79195328Y-54025224D01*
X78925485Y-54414376D01*
X78175111Y-55019457D01*
X77103168Y-54882624D01*
X76087556Y-54056199D01*
X76059166Y-54017501D01*
X75230363Y-53310047D01*
X73881753Y-52999245D01*
X72767347Y-52959167D01*
X71296807Y-52859848D01*
X70384738Y-52607020D01*
X70238333Y-52430001D01*
X69795130Y-52000062D01*
X69179999Y-51900834D01*
X68320121Y-51679233D01*
X68121666Y-51371667D01*
X68581495Y-51000122D01*
X69689415Y-50842541D01*
X69709166Y-50842501D01*
X70823801Y-50995777D01*
X71296544Y-51365084D01*
X71296666Y-51371667D01*
X71739869Y-51801607D01*
X72354999Y-51900834D01*
X73214878Y-51679233D01*
X73413333Y-51371667D01*
X73873162Y-51000122D01*
X74981082Y-50842541D01*
X75000833Y-50842501D01*
X76115468Y-50995777D01*
X76588211Y-51365084D01*
X76588333Y-51371667D01*
X77031535Y-51801607D01*
X77646666Y-51900834D01*
X78506544Y-52122436D01*
X78704999Y-52430001D01*
X79180917Y-52731860D01*
X80397763Y-52923457D01*
X81350832Y-52959167D01*
X82860130Y-52863984D01*
X83818113Y-52620615D01*
X83996666Y-52430001D01*
X84439869Y-52000062D01*
X85054999Y-51900834D01*
X85916068Y-51773731D01*
X86108356Y-51602874D01*
X87321803Y-51602874D01*
X87568541Y-51752793D01*
X88122144Y-52411375D01*
X88229999Y-53003265D01*
X88559713Y-53840802D01*
X89428678Y-53913195D01*
X90656624Y-53231419D01*
X91126959Y-52826876D01*
X92156947Y-51728963D01*
X92299373Y-51112345D01*
X91542460Y-50864112D01*
X90919930Y-50842501D01*
X89726154Y-51046048D01*
X89108132Y-51503959D01*
X88748264Y-51846495D01*
X88299058Y-51386992D01*
X87657386Y-50942115D01*
X87332730Y-51062563D01*
X87321803Y-51602874D01*
X86108356Y-51602874D01*
X86113332Y-51598453D01*
X85697414Y-50866214D01*
X84770206Y-50137730D01*
X83812528Y-49785248D01*
X83769880Y-49784167D01*
X83041756Y-49509799D01*
X82938332Y-49255001D01*
X83398162Y-48883456D01*
X84506082Y-48725875D01*
X84525832Y-48725834D01*
X85640468Y-48879111D01*
X86113211Y-49248417D01*
X86113332Y-49255001D01*
X86502974Y-49780680D01*
X87472484Y-49791695D01*
X88722740Y-49362827D01*
X89954619Y-48568856D01*
X90346666Y-48196668D01*
X90928266Y-47667501D01*
X93521666Y-47667501D01*
X93743267Y-48527379D01*
X94050833Y-48725834D01*
X94564622Y-48323152D01*
X94579999Y-48196668D01*
X95023202Y-47766728D01*
X95638333Y-47667501D01*
X96498211Y-47445899D01*
X96696666Y-47138334D01*
X97139869Y-46708395D01*
X97754999Y-46609168D01*
X98614878Y-46387566D01*
X98813333Y-46080001D01*
X98353503Y-45708456D01*
X97245583Y-45550875D01*
X97225833Y-45550834D01*
X96111197Y-45704111D01*
X95638454Y-46073417D01*
X95638333Y-46080001D01*
X95195130Y-46509940D01*
X94579999Y-46609168D01*
X93695599Y-46983345D01*
X93521666Y-47667501D01*
X90928266Y-47667501D01*
X91451059Y-47191840D01*
X92376128Y-46643467D01*
X92558821Y-46609168D01*
X93407442Y-46216686D01*
X94050832Y-45550834D01*
X95176701Y-44720337D01*
X96813484Y-44492501D01*
X98095125Y-44368753D01*
X98778502Y-44061628D01*
X98813333Y-43963334D01*
X99289250Y-43661475D01*
X100506097Y-43469878D01*
X101459166Y-43434168D01*
X102968463Y-43338984D01*
X103926446Y-43095615D01*
X104104999Y-42905001D01*
X104580917Y-42603141D01*
X105797763Y-42411545D01*
X106750832Y-42375834D01*
X108260130Y-42471018D01*
G37*
%TD*%
M02*
