M48
; DRILL file {KiCad 9.0.6} date 2025-12-27T17:50:53+0000
; FORMAT={-:-/ absolute / metric / decimal}
; #@! TF.CreationDate,2025-12-27T17:50:53+00:00
; #@! TF.GenerationSoftware,Kicad,Pcbnew,9.0.6
; #@! TF.FileFunction,MixedPlating,1,2
FMAT,2
METRIC
; #@! TA.AperFunction,Plated,PTH,ViaDrill
T1C0.300
; #@! TA.AperFunction,Plated,PTH,ComponentDrill
T2C1.000
; #@! TA.AperFunction,Plated,PTH,ComponentDrill
T3C2.500
; #@! TA.AperFunction,Plated,PTH,ComponentDrill
T4C3.000
; #@! TA.AperFunction,NonPlated,NPTH,ComponentDrill
T5C0.500
; #@! TA.AperFunction,NonPlated,NPTH,ComponentDrill
T6C1.750
; #@! TA.AperFunction,NonPlated,NPTH,ComponentDrill
T7C3.988
%
G90
G05
T1
X35.046Y-102.938
X35.271Y-99.343
X35.461Y-121.732
X41.031Y-109.703
X41.501Y-106.632
X43.011Y-121.232
X45.0Y-122.392
X45.351Y-112.022
X46.321Y-101.812
X47.991Y-116.593
X49.199Y-117.801
X50.321Y-110.672
X50.761Y-109.522
X51.381Y-100.352
X51.571Y-107.032
X52.0Y-122.974
X52.148Y-120.444
X52.461Y-105.792
X54.047Y-103.882
X54.245Y-99.096
X55.171Y-85.152
X55.761Y-94.703
X57.401Y-107.712
X58.181Y-74.983
X60.144Y-112.92
X60.171Y-108.922
X61.233Y-75.002
X61.801Y-91.542
X61.833Y-75.662
X61.962Y-106.28
X63.531Y-111.736
X63.618Y-112.531
X63.621Y-108.093
X63.646Y-69.154
X66.331Y-48.102
X67.191Y-90.102
X68.161Y-111.152
X68.601Y-106.812
X70.696Y-91.918
X71.311Y-51.913
X72.301Y-104.602
X72.821Y-70.963
X73.141Y-94.363
X73.941Y-90.902
X74.401Y-82.233
X75.151Y-95.233
X75.661Y-51.982
X76.092Y-88.204
X76.092Y-103.172
X78.811Y-85.662
X78.961Y-95.233
X79.201Y-75.233
X79.721Y-51.912
X80.174Y-74.615
X80.174Y-77.123
X82.721Y-87.572
X82.802Y-65.375
X82.811Y-89.912
X83.841Y-51.942
X84.361Y-50.252
X86.125Y-68.647
X89.315Y-66.916
X90.757Y-56.288
X90.861Y-97.832
X91.291Y-94.483
X91.461Y-73.733
X92.861Y-100.832
X93.461Y-77.733
X93.461Y-101.811
X94.761Y-97.832
X95.981Y-85.802
X97.197Y-49.848
X97.861Y-100.733
X99.171Y-60.162
X99.561Y-48.912
X99.907Y-91.307
X100.111Y-93.034
X103.411Y-84.382
X105.081Y-100.132
X105.361Y-82.812
X105.461Y-65.733
X107.741Y-88.132
X108.589Y-95.582
X110.291Y-100.132
X114.461Y-68.474
X115.721Y-87.972
X116.171Y-85.912
X116.591Y-67.873
X118.951Y-54.862
X119.353Y-89.743
X120.801Y-66.682
X120.911Y-87.442
X123.584Y-101.602
X123.584Y-103.582
X124.091Y-87.712
X124.681Y-89.623
X127.729Y-70.435
X128.551Y-87.902
X128.551Y-90.302
X129.731Y-105.382
X130.976Y-106.487
X131.913Y-86.5
X132.426Y-99.087
X133.601Y-61.33
X133.786Y-103.677
X135.234Y-77.94
X135.351Y-59.172
X138.191Y-109.572
X139.766Y-101.197
X140.372Y-103.662
X140.372Y-105.552
X142.881Y-95.742
X144.401Y-102.652
X146.676Y-79.057
X146.676Y-82.483
X155.425Y-85.682
X155.425Y-95.192
X156.008Y-59.252
X156.425Y-74.917
X158.409Y-101.752
X158.508Y-104.352
X159.709Y-116.491
X161.05Y-118.672
X161.909Y-107.652
X163.984Y-115.891
X164.182Y-77.606
X164.368Y-97.634
X164.508Y-120.552
X166.118Y-59.676
X166.556Y-58.744
X168.608Y-77.052
X169.808Y-100.052
X170.208Y-117.453
X172.1Y-99.117
X172.221Y-108.995
X172.308Y-92.453
X172.409Y-80.453
X173.236Y-95.056
X173.784Y-71.363
X174.409Y-64.552
X176.137Y-44.76
X178.108Y-92.352
X178.846Y-47.978
X181.008Y-57.453
X181.754Y-89.273
X183.177Y-47.854
X183.208Y-73.153
X183.209Y-103.884
X183.4Y-86.454
X185.168Y-85.87
X185.409Y-102.852
X187.708Y-106.052
X188.008Y-64.852
X188.364Y-68.068
X190.008Y-69.052
X191.008Y-82.752
X191.508Y-52.652
X191.508Y-97.453
X191.909Y-101.752
X192.391Y-92.282
X193.919Y-68.293
X194.108Y-61.752
X194.274Y-86.219
X196.231Y-66.048
X196.311Y-91.878
X196.462Y-47.062
X197.232Y-80.958
X199.308Y-59.252
X200.188Y-71.492
X200.188Y-85.433
X200.793Y-45.803
X200.955Y-54.09
X201.005Y-48.157
X202.542Y-43.046
X202.669Y-101.951
X202.719Y-91.175
X203.144Y-68.154
X203.144Y-88.403
X204.218Y-100.157
X207.608Y-80.653
X208.508Y-100.152
X209.008Y-46.252
X209.208Y-105.152
X210.966Y-88.849
X211.095Y-83.252
X211.108Y-102.752
X211.499Y-85.433
X211.708Y-59.652
X213.909Y-106.352
X214.409Y-35.752
X214.708Y-109.152
X216.109Y-89.141
X216.909Y-104.352
X217.028Y-51.211
X217.88Y-109.828
X218.388Y-49.385
X218.909Y-95.752
X221.09Y-109.363
X221.308Y-73.852
X221.665Y-53.819
X223.268Y-66.82
X225.409Y-102.352
X225.508Y-83.552
X226.308Y-99.352
X226.409Y-35.152
X226.909Y-87.052
X227.208Y-110.953
X227.308Y-49.953
X227.409Y-47.852
X228.308Y-52.052
X228.96Y-102.972
X229.749Y-88.849
X232.008Y-87.953
X232.108Y-39.453
X232.208Y-91.552
X232.208Y-108.552
X232.633Y-48.414
X233.108Y-73.752
X233.458Y-50.873
X233.508Y-95.652
X235.038Y-88.973
X235.23Y-79.665
X235.511Y-68.722
X235.511Y-72.237
X235.928Y-107.963
X236.583Y-108.893
X237.208Y-86.252
X238.308Y-111.852
X240.349Y-69.334
X240.508Y-86.953
X240.807Y-90.107
X242.319Y-88.251
X244.408Y-90.052
X246.408Y-63.352
X246.708Y-87.152
X246.908Y-73.653
X247.073Y-56.764
X247.45Y-110.77
X247.486Y-50.873
X247.508Y-104.752
X247.608Y-112.606
X248.515Y-51.626
X248.608Y-48.052
X248.651Y-53.819
X248.651Y-56.764
X249.05Y-111.45
X249.26Y-100.947
X249.361Y-102.393
X253.42Y-110.034
X253.674Y-108.154
X255.63Y-119.98
X257.281Y-105.801
X258.308Y-104.552
X258.808Y-120.953
X259.026Y-107.516
X259.31Y-113.745
X260.52Y-106.623
X263.004Y-119.284
X267.142Y-113.188
X267.701Y-99.713
X268.166Y-110.064
X268.178Y-112.729
X269.493Y-118.375
X269.554Y-98.391
X271.308Y-122.352
X274.276Y-103.892
T2
X54.0Y-115.75
X54.0Y-118.29
X54.0Y-120.83
X54.0Y-123.37
X250.0Y-115.86
X250.0Y-118.4
X250.0Y-120.94
X250.0Y-123.48
T3
X45.045Y-103.899
X45.045Y-107.299
X268.106Y-103.995
X268.106Y-107.395
T4
X59.773Y-43.627
X59.773Y-62.677
X59.773Y-81.727
X59.773Y-100.777
X66.123Y-41.087
X66.123Y-60.137
X66.123Y-79.188
X66.123Y-98.237
X78.823Y-41.246
X78.823Y-60.296
X78.823Y-79.346
X78.823Y-98.396
X85.173Y-38.706
X85.173Y-57.756
X85.173Y-76.806
X85.173Y-95.856
X97.873Y-36.484
X97.873Y-55.534
X97.873Y-74.584
X97.873Y-93.634
X104.223Y-33.944
X104.223Y-52.994
X104.223Y-72.044
X104.223Y-91.094
X116.923Y-41.246
X116.923Y-60.296
X116.923Y-79.346
X116.923Y-98.396
X123.273Y-38.706
X123.273Y-57.756
X123.273Y-76.806
X123.273Y-95.856
X135.973Y-53.152
X135.973Y-72.203
X135.973Y-91.252
X135.973Y-110.302
X142.323Y-50.612
X142.323Y-69.662
X142.323Y-88.712
X142.323Y-107.762
X160.558Y-53.249
X160.558Y-72.299
X160.558Y-91.349
X160.558Y-110.399
X166.909Y-50.709
X166.909Y-69.759
X166.909Y-88.809
X166.909Y-107.859
X179.608Y-41.343
X179.608Y-60.392
X179.608Y-79.442
X179.608Y-98.492
X185.958Y-38.802
X185.958Y-57.852
X185.958Y-76.903
X185.958Y-95.953
X198.659Y-36.58
X198.659Y-55.63
X198.659Y-74.68
X198.659Y-93.73
X205.008Y-34.04
X205.008Y-53.09
X205.008Y-72.14
X205.008Y-91.19
X217.708Y-41.343
X217.708Y-60.392
X217.708Y-79.442
X217.708Y-98.492
X224.058Y-38.802
X224.058Y-57.852
X224.058Y-76.903
X224.058Y-95.953
X236.758Y-43.724
X236.758Y-62.774
X236.758Y-81.824
X236.758Y-100.874
X243.108Y-41.184
X243.108Y-60.234
X243.108Y-79.284
X243.108Y-98.334
T5
X149.426Y-52.226
X149.426Y-52.976
X149.426Y-53.726
X149.426Y-54.476
X149.426Y-55.226
X149.426Y-55.976
X149.426Y-56.726
X149.426Y-57.476
X149.426Y-58.226
X149.426Y-58.976
X149.426Y-59.726
X149.426Y-80.126
X149.426Y-80.876
X149.426Y-81.626
X149.426Y-82.376
X149.426Y-83.126
X149.426Y-83.876
X149.426Y-84.626
X149.426Y-85.376
X149.426Y-86.126
X149.426Y-86.876
X149.426Y-87.626
X149.426Y-109.227
X149.426Y-109.977
X149.426Y-110.727
X149.426Y-111.477
X149.426Y-112.227
X149.426Y-112.977
X149.426Y-113.727
X149.426Y-114.477
X149.426Y-115.227
X149.426Y-115.977
X149.426Y-116.727
X154.426Y-52.226
X154.426Y-52.976
X154.426Y-53.726
X154.426Y-54.476
X154.426Y-55.226
X154.426Y-55.976
X154.426Y-56.726
X154.426Y-57.476
X154.426Y-58.226
X154.426Y-58.976
X154.426Y-59.726
X154.426Y-80.126
X154.426Y-80.876
X154.426Y-81.626
X154.426Y-82.376
X154.426Y-83.126
X154.426Y-83.876
X154.426Y-84.626
X154.426Y-85.376
X154.426Y-86.126
X154.426Y-86.876
X154.426Y-87.626
X154.426Y-109.227
X154.426Y-109.977
X154.426Y-110.727
X154.426Y-111.477
X154.426Y-112.227
X154.426Y-112.977
X154.426Y-113.727
X154.426Y-114.477
X154.426Y-115.227
X154.426Y-115.977
X154.426Y-116.727
T6
X58.503Y-46.167
X58.503Y-65.218
X58.503Y-84.267
X58.503Y-103.317
X68.663Y-46.167
X68.663Y-65.218
X68.663Y-84.267
X68.663Y-103.317
X77.553Y-43.786
X77.553Y-62.836
X77.553Y-81.886
X77.553Y-100.936
X87.713Y-43.786
X87.713Y-62.836
X87.713Y-81.886
X87.713Y-100.936
X96.603Y-39.024
X96.603Y-58.074
X96.603Y-77.124
X96.603Y-96.174
X106.763Y-39.024
X106.763Y-58.074
X106.763Y-77.124
X106.763Y-96.174
X115.653Y-43.786
X115.653Y-62.836
X115.653Y-81.886
X115.653Y-100.936
X125.813Y-43.786
X125.813Y-62.836
X125.813Y-81.886
X125.813Y-100.936
X134.703Y-55.692
X134.703Y-74.742
X134.703Y-93.792
X134.703Y-112.843
X144.863Y-55.692
X144.863Y-74.742
X144.863Y-93.792
X144.863Y-112.843
X159.288Y-55.789
X159.288Y-74.839
X159.288Y-93.889
X159.288Y-112.939
X169.448Y-55.789
X169.448Y-74.839
X169.448Y-93.889
X169.448Y-112.939
X178.338Y-43.883
X178.338Y-62.932
X178.338Y-81.983
X178.338Y-101.032
X188.498Y-43.883
X188.498Y-62.932
X188.498Y-81.983
X188.498Y-101.032
X197.388Y-39.12
X197.388Y-58.17
X197.388Y-77.22
X197.388Y-96.27
X207.548Y-39.12
X207.548Y-58.17
X207.548Y-77.22
X207.548Y-96.27
X216.438Y-43.883
X216.438Y-62.932
X216.438Y-81.983
X216.438Y-101.032
X226.599Y-43.883
X226.599Y-62.932
X226.599Y-81.983
X226.599Y-101.032
X235.488Y-46.264
X235.488Y-65.314
X235.488Y-84.364
X235.488Y-103.414
X245.648Y-46.264
X245.648Y-65.314
X245.648Y-84.364
X245.648Y-103.414
T7
X63.583Y-46.167
X63.583Y-65.218
X63.583Y-84.267
X63.583Y-103.317
X82.633Y-43.786
X82.633Y-62.836
X82.633Y-81.886
X82.633Y-100.936
X101.683Y-39.024
X101.683Y-58.074
X101.683Y-77.124
X101.683Y-96.174
X120.733Y-43.786
X120.733Y-62.836
X120.733Y-81.886
X120.733Y-100.936
X139.783Y-55.692
X139.783Y-74.742
X139.783Y-93.792
X139.783Y-112.843
X164.368Y-55.789
X164.368Y-74.839
X164.368Y-93.889
X164.368Y-112.939
X183.418Y-43.883
X183.418Y-62.932
X183.418Y-81.983
X183.418Y-101.032
X202.468Y-39.12
X202.468Y-58.17
X202.468Y-77.22
X202.468Y-96.27
X221.518Y-43.883
X221.518Y-62.932
X221.518Y-81.983
X221.518Y-101.032
X240.569Y-46.264
X240.569Y-65.314
X240.569Y-84.364
X240.569Y-103.414
M30
