%TF.GenerationSoftware,KiCad,Pcbnew,9.0.6*%
%TF.CreationDate,2025-12-27T17:50:34+00:00*%
%TF.ProjectId,Split Keyboard,53706c69-7420-44b6-9579-626f6172642e,rev?*%
%TF.SameCoordinates,Original*%
%TF.FileFunction,Profile,NP*%
%FSLAX46Y46*%
G04 Gerber Fmt 4.6, Leading zero omitted, Abs format (unit mm)*
G04 Created by KiCad (PCBNEW 9.0.6) date 2025-12-27 17:50:34*
%MOMM*%
%LPD*%
G01*
G04 APERTURE LIST*
%TA.AperFunction,Profile*%
%ADD10C,0.050000*%
%TD*%
%TA.AperFunction,Profile*%
%ADD11C,0.100000*%
%TD*%
G04 APERTURE END LIST*
D10*
X192468500Y-28883800D02*
X212468500Y-28883800D01*
X91461400Y-28732500D02*
X91461400Y-33732500D01*
X149425700Y-46212500D02*
X149425700Y-50976500D01*
X149425700Y-88876500D02*
X149425700Y-107976500D01*
X149425700Y-121726500D02*
X149425700Y-117976500D01*
X273468500Y-96483800D02*
X275468500Y-96483800D01*
X242468500Y-124883800D02*
X242468500Y-113883800D01*
X154425700Y-107976500D02*
X154425700Y-88876500D01*
X92461400Y-111732500D02*
X92461400Y-106732500D01*
X173468500Y-45883800D02*
X154972900Y-45883800D01*
X72461400Y-35732500D02*
X53461400Y-35732500D01*
X110461400Y-106732500D02*
X110461400Y-111732500D01*
X211468500Y-106883800D02*
X193468500Y-106883800D01*
X73461400Y-111732500D02*
X92461400Y-111732500D01*
X193468500Y-111883800D02*
X174468500Y-111883800D01*
X147292100Y-122732500D02*
X148425700Y-122726500D01*
X192468500Y-33883800D02*
X173468500Y-33883800D01*
X272268500Y-96483800D02*
X273468500Y-96483800D01*
X129461400Y-122732500D02*
X147292100Y-122732500D01*
X154472900Y-122883800D02*
X154452517Y-121856998D01*
X174468500Y-122883800D02*
X156138900Y-122883800D01*
X53461400Y-93732500D02*
X53461400Y-95732500D01*
X154425700Y-78876500D02*
X154425700Y-60976500D01*
X61461400Y-124732500D02*
X61461400Y-125732500D01*
X231468500Y-33883800D02*
X231468500Y-35883800D01*
X154451350Y-46112500D02*
X154425700Y-50976500D01*
X53461400Y-96332500D02*
X53461400Y-95732500D01*
X154972900Y-45883800D02*
X154452900Y-45883800D01*
X149425700Y-121726500D02*
X149425700Y-122712500D01*
X149425700Y-60976500D02*
X149425700Y-78876500D01*
X61461400Y-124732500D02*
X61461400Y-113732500D01*
X192468500Y-28883800D02*
X192468500Y-33883800D01*
X154451350Y-46112500D02*
X154452556Y-45883800D01*
X28461400Y-96332500D02*
X28461400Y-125732500D01*
X250468500Y-96483800D02*
X250468500Y-95883800D01*
X28461400Y-125732500D02*
X30461400Y-125732500D01*
X230468500Y-111883800D02*
X211468500Y-111883800D01*
X31661400Y-96332500D02*
X30461400Y-96332500D01*
X92461400Y-106732500D02*
X110461400Y-106732500D01*
X242468500Y-124883800D02*
X242468500Y-125883800D01*
X61461400Y-125732500D02*
X30461400Y-125732500D01*
X193468500Y-106883800D02*
X193468500Y-111883800D01*
X72461400Y-33732500D02*
X72461400Y-35732500D01*
X156138900Y-122883800D02*
X154472900Y-122883800D01*
X250468500Y-93883800D02*
X250468500Y-95883800D01*
X211468500Y-111883800D02*
X211468500Y-106883800D01*
X111461400Y-28732500D02*
X111461400Y-33732500D01*
X230468500Y-113883800D02*
X230468500Y-111883800D01*
X250468500Y-35883800D02*
X250468500Y-93883800D01*
X149272900Y-45732500D02*
X149425700Y-45732500D01*
X129461400Y-111732500D02*
X129461400Y-122732500D01*
X130461400Y-33732500D02*
X130461400Y-45732500D01*
X53461400Y-35732500D02*
X53461400Y-93732500D01*
X111461400Y-33732500D02*
X130461400Y-33732500D01*
X61461400Y-113732500D02*
X73461400Y-113732500D01*
X173468500Y-33883800D02*
X173468500Y-45883800D01*
X149425700Y-46212500D02*
X149425700Y-45732500D01*
X242468500Y-113883800D02*
X230468500Y-113883800D01*
X275468500Y-125883800D02*
X273468500Y-125883800D01*
X31661400Y-96332500D02*
X53461400Y-96332500D01*
X148425700Y-122726500D02*
X149425700Y-122721207D01*
X275468500Y-96483800D02*
X275468500Y-125883800D01*
X174468500Y-111883800D02*
X174468500Y-122883800D01*
X231468500Y-35883800D02*
X250468500Y-35883800D01*
X212468500Y-28883800D02*
X212468500Y-33883800D01*
X242468500Y-125883800D02*
X273468500Y-125883800D01*
X212468500Y-33883800D02*
X231468500Y-33883800D01*
X130461400Y-45732500D02*
X149272900Y-45732500D01*
X30461400Y-96332500D02*
X28461400Y-96332500D01*
X73461400Y-113732500D02*
X73461400Y-111732500D01*
X91461400Y-33732500D02*
X72461400Y-33732500D01*
X111461400Y-28732500D02*
X91461400Y-28732500D01*
X110461400Y-111732500D02*
X129461400Y-111732500D01*
X154452517Y-121856998D02*
X154425700Y-117976500D01*
X272268500Y-96483800D02*
X250468500Y-96483800D01*
D11*
%TO.C,BO2*%
X149425700Y-88876500D02*
G75*
G02*
X154425700Y-88876500I2500000J0D01*
G01*
X154425700Y-78876500D02*
G75*
G02*
X149425700Y-78876500I-2500000J0D01*
G01*
%TO.C,BO3*%
X149425700Y-117976500D02*
G75*
G02*
X154425700Y-117976500I2500000J0D01*
G01*
X154425700Y-107976500D02*
G75*
G02*
X149425700Y-107976500I-2500000J0D01*
G01*
%TO.C,BO1*%
X149425700Y-60976500D02*
G75*
G02*
X154425700Y-60976500I2500000J0D01*
G01*
X154425700Y-50976500D02*
G75*
G02*
X149425700Y-50976500I-2500000J0D01*
G01*
%TD*%
M02*
