%TF.GenerationSoftware,KiCad,Pcbnew,9.0.6*%
%TF.CreationDate,2025-12-27T17:50:53+00:00*%
%TF.ProjectId,Split Keyboard,53706c69-7420-44b6-9579-626f6172642e,rev?*%
%TF.SameCoordinates,Original*%
%TF.FileFunction,Drillmap*%
%TF.FilePolarity,Positive*%
%FSLAX45Y45*%
G04 Gerber Fmt 4.5, Leading zero omitted, Abs format (unit mm)*
G04 Created by KiCad (PCBNEW 9.0.6) date 2025-12-27 17:50:53*
%MOMM*%
%LPD*%
G01*
G04 APERTURE LIST*
%ADD10C,0.050000*%
%ADD11C,0.100000*%
%ADD12C,0.200000*%
%ADD13C,0.250000*%
%ADD14C,0.300000*%
%ADD15C,0.175000*%
%ADD16C,0.398780*%
G04 APERTURE END LIST*
D10*
X19246850Y-2888380D02*
X21246850Y-2888380D01*
X9146140Y-2873250D02*
X9146140Y-3373250D01*
X14942570Y-4621250D02*
X14942570Y-5097650D01*
X14942570Y-8887650D02*
X14942570Y-10797650D01*
X14942570Y-12172650D02*
X14942570Y-11797650D01*
X27346850Y-9648380D02*
X27546850Y-9648380D01*
X24246850Y-12488380D02*
X24246850Y-11388380D01*
X15442570Y-10797650D02*
X15442570Y-8887650D01*
X9246140Y-11173250D02*
X9246140Y-10673250D01*
X17346850Y-4588380D02*
X15497290Y-4588380D01*
X7246140Y-3573250D02*
X5346140Y-3573250D01*
X11046140Y-10673250D02*
X11046140Y-11173250D01*
X21146850Y-10688380D02*
X19346850Y-10688380D01*
X7346140Y-11173250D02*
X9246140Y-11173250D01*
X19346850Y-11188380D02*
X17446850Y-11188380D01*
X14729210Y-12273250D02*
X14842570Y-12272650D01*
X19246850Y-3388380D02*
X17346850Y-3388380D01*
X27226850Y-9648380D02*
X27346850Y-9648380D01*
X12946140Y-12273250D02*
X14729210Y-12273250D01*
X15447290Y-12288380D02*
X15445252Y-12185700D01*
X17446850Y-12288380D02*
X15613890Y-12288380D01*
X5346140Y-9373250D02*
X5346140Y-9573250D01*
X15442570Y-7887650D02*
X15442570Y-6097650D01*
X6146140Y-12473250D02*
X6146140Y-12573250D01*
X23146850Y-3388380D02*
X23146850Y-3588380D01*
X15445135Y-4611250D02*
X15442570Y-5097650D01*
X5346140Y-9633250D02*
X5346140Y-9573250D01*
X15497290Y-4588380D02*
X15445290Y-4588380D01*
X14942570Y-12172650D02*
X14942570Y-12271250D01*
X14942570Y-6097650D02*
X14942570Y-7887650D01*
X6146140Y-12473250D02*
X6146140Y-11373250D01*
X19246850Y-2888380D02*
X19246850Y-3388380D01*
X15445135Y-4611250D02*
X15445256Y-4588380D01*
X2846140Y-9633250D02*
X2846140Y-12573250D01*
X25046850Y-9648380D02*
X25046850Y-9588380D01*
X2846140Y-12573250D02*
X3046140Y-12573250D01*
X23046850Y-11188380D02*
X21146850Y-11188380D01*
X3166140Y-9633250D02*
X3046140Y-9633250D01*
X9246140Y-10673250D02*
X11046140Y-10673250D01*
X24246850Y-12488380D02*
X24246850Y-12588380D01*
X6146140Y-12573250D02*
X3046140Y-12573250D01*
X19346850Y-10688380D02*
X19346850Y-11188380D01*
X7246140Y-3373250D02*
X7246140Y-3573250D01*
X15613890Y-12288380D02*
X15447290Y-12288380D01*
X25046850Y-9388380D02*
X25046850Y-9588380D01*
X21146850Y-11188380D02*
X21146850Y-10688380D01*
X11146140Y-2873250D02*
X11146140Y-3373250D01*
X23046850Y-11388380D02*
X23046850Y-11188380D01*
X25046850Y-3588380D02*
X25046850Y-9388380D01*
X14927290Y-4573250D02*
X14942570Y-4573250D01*
X12946140Y-11173250D02*
X12946140Y-12273250D01*
X13046140Y-3373250D02*
X13046140Y-4573250D01*
X5346140Y-3573250D02*
X5346140Y-9373250D01*
X11146140Y-3373250D02*
X13046140Y-3373250D01*
X6146140Y-11373250D02*
X7346140Y-11373250D01*
X17346850Y-3388380D02*
X17346850Y-4588380D01*
X14942570Y-4621250D02*
X14942570Y-4573250D01*
X24246850Y-11388380D02*
X23046850Y-11388380D01*
X27546850Y-12588380D02*
X27346850Y-12588380D01*
X3166140Y-9633250D02*
X5346140Y-9633250D01*
X14842570Y-12272650D02*
X14942570Y-12272121D01*
X27546850Y-9648380D02*
X27546850Y-12588380D01*
X17446850Y-11188380D02*
X17446850Y-12288380D01*
X23146850Y-3588380D02*
X25046850Y-3588380D01*
X21246850Y-2888380D02*
X21246850Y-3388380D01*
X24246850Y-12588380D02*
X27346850Y-12588380D01*
X21246850Y-3388380D02*
X23146850Y-3388380D01*
X13046140Y-4573250D02*
X14927290Y-4573250D01*
X3046140Y-9633250D02*
X2846140Y-9633250D01*
X7346140Y-11373250D02*
X7346140Y-11173250D01*
X9146140Y-3373250D02*
X7246140Y-3373250D01*
X11146140Y-2873250D02*
X9146140Y-2873250D01*
X11046140Y-11173250D02*
X12946140Y-11173250D01*
X15445252Y-12185700D02*
X15442570Y-11797650D01*
X27226850Y-9648380D02*
X25046850Y-9648380D01*
D11*
X14942570Y-8887650D02*
G75*
G02*
X15442570Y-8887650I250000J0D01*
G01*
X15442570Y-7887650D02*
G75*
G02*
X14942570Y-7887650I-250000J0D01*
G01*
X14942570Y-11797650D02*
G75*
G02*
X15442570Y-11797650I250000J0D01*
G01*
X15442570Y-10797650D02*
G75*
G02*
X14942570Y-10797650I-250000J0D01*
G01*
X14942570Y-6097650D02*
G75*
G02*
X15442570Y-6097650I250000J0D01*
G01*
X15442570Y-5097650D02*
G75*
G02*
X14942570Y-5097650I-250000J0D01*
G01*
D12*
D11*
X3489640Y-10278750D02*
X3519640Y-10308750D01*
X3519640Y-10278750D02*
X3489640Y-10308750D01*
X3512140Y-9919250D02*
X3542140Y-9949250D01*
X3542140Y-9919250D02*
X3512140Y-9949250D01*
X3531140Y-12158250D02*
X3561140Y-12188250D01*
X3561140Y-12158250D02*
X3531140Y-12188250D01*
X4088140Y-10955250D02*
X4118140Y-10985250D01*
X4118140Y-10955250D02*
X4088140Y-10985250D01*
X4135140Y-10648250D02*
X4165140Y-10678250D01*
X4165140Y-10648250D02*
X4135140Y-10678250D01*
X4286140Y-12108250D02*
X4316140Y-12138250D01*
X4316140Y-12108250D02*
X4286140Y-12138250D01*
X4485000Y-12224250D02*
X4515000Y-12254250D01*
X4515000Y-12224250D02*
X4485000Y-12254250D01*
X4520140Y-11187250D02*
X4550140Y-11217250D01*
X4550140Y-11187250D02*
X4520140Y-11217250D01*
X4617140Y-10166250D02*
X4647140Y-10196250D01*
X4647140Y-10166250D02*
X4617140Y-10196250D01*
X4784140Y-11644250D02*
X4814140Y-11674250D01*
X4814140Y-11644250D02*
X4784140Y-11674250D01*
X4904945Y-11765055D02*
X4934945Y-11795055D01*
X4934945Y-11765055D02*
X4904945Y-11795055D01*
X5017140Y-11052250D02*
X5047140Y-11082250D01*
X5047140Y-11052250D02*
X5017140Y-11082250D01*
X5061140Y-10937250D02*
X5091140Y-10967250D01*
X5091140Y-10937250D02*
X5061140Y-10967250D01*
X5123140Y-10020250D02*
X5153140Y-10050250D01*
X5153140Y-10020250D02*
X5123140Y-10050250D01*
X5142140Y-10688250D02*
X5172140Y-10718250D01*
X5172140Y-10688250D02*
X5142140Y-10718250D01*
X5185000Y-12282450D02*
X5215000Y-12312450D01*
X5215000Y-12282450D02*
X5185000Y-12312450D01*
X5199813Y-12029437D02*
X5229813Y-12059437D01*
X5229813Y-12029437D02*
X5199813Y-12059437D01*
X5231140Y-10564250D02*
X5261140Y-10594250D01*
X5261140Y-10564250D02*
X5231140Y-10594250D01*
X5389690Y-10373250D02*
X5419690Y-10403250D01*
X5419690Y-10373250D02*
X5389690Y-10403250D01*
X5409490Y-9894581D02*
X5439490Y-9924581D01*
X5439490Y-9894581D02*
X5409490Y-9924581D01*
X5502140Y-8500250D02*
X5532140Y-8530250D01*
X5532140Y-8500250D02*
X5502140Y-8530250D01*
X5561140Y-9455250D02*
X5591140Y-9485250D01*
X5591140Y-9455250D02*
X5561140Y-9485250D01*
X5725140Y-10756250D02*
X5755140Y-10786250D01*
X5755140Y-10756250D02*
X5725140Y-10786250D01*
X5803140Y-7483250D02*
X5833140Y-7513250D01*
X5833140Y-7483250D02*
X5803140Y-7513250D01*
X5999390Y-11277000D02*
X6029390Y-11307000D01*
X6029390Y-11277000D02*
X5999390Y-11307000D01*
X6002140Y-10877250D02*
X6032140Y-10907250D01*
X6032140Y-10877250D02*
X6002140Y-10907250D01*
X6108290Y-7485250D02*
X6138290Y-7515250D01*
X6138290Y-7485250D02*
X6108290Y-7515250D01*
X6165140Y-9139250D02*
X6195140Y-9169250D01*
X6195140Y-9139250D02*
X6165140Y-9169250D01*
X6168290Y-7551250D02*
X6198290Y-7581250D01*
X6198290Y-7551250D02*
X6168290Y-7581250D01*
X6181243Y-10613000D02*
X6211243Y-10643000D01*
X6211243Y-10613000D02*
X6181243Y-10643000D01*
X6338051Y-11158629D02*
X6368051Y-11188629D01*
X6368051Y-11158629D02*
X6338051Y-11188629D01*
X6346797Y-11238150D02*
X6376797Y-11268150D01*
X6376797Y-11238150D02*
X6346797Y-11268150D01*
X6347140Y-10794250D02*
X6377140Y-10824250D01*
X6377140Y-10794250D02*
X6347140Y-10824250D01*
X6349640Y-6900450D02*
X6379640Y-6930450D01*
X6379640Y-6900450D02*
X6349640Y-6930450D01*
X6618140Y-4795250D02*
X6648140Y-4825250D01*
X6648140Y-4795250D02*
X6618140Y-4825250D01*
X6704140Y-8995250D02*
X6734140Y-9025250D01*
X6734140Y-8995250D02*
X6704140Y-9025250D01*
X6801140Y-11100250D02*
X6831140Y-11130250D01*
X6831140Y-11100250D02*
X6801140Y-11130250D01*
X6845140Y-10666250D02*
X6875140Y-10696250D01*
X6875140Y-10666250D02*
X6845140Y-10696250D01*
X7054577Y-9176813D02*
X7084577Y-9206813D01*
X7084577Y-9176813D02*
X7054577Y-9206813D01*
X7116140Y-5176325D02*
X7146140Y-5206325D01*
X7146140Y-5176325D02*
X7116140Y-5206325D01*
X7215140Y-10445250D02*
X7245140Y-10475250D01*
X7245140Y-10445250D02*
X7215140Y-10475250D01*
X7267140Y-7081325D02*
X7297140Y-7111325D01*
X7297140Y-7081325D02*
X7267140Y-7111325D01*
X7299077Y-9421313D02*
X7329077Y-9451313D01*
X7329077Y-9421313D02*
X7299077Y-9451313D01*
X7379140Y-9075250D02*
X7409140Y-9105250D01*
X7409140Y-9075250D02*
X7379140Y-9105250D01*
X7425140Y-8208250D02*
X7455140Y-8238250D01*
X7455140Y-8208250D02*
X7425140Y-8238250D01*
X7500140Y-9508250D02*
X7530140Y-9538250D01*
X7530140Y-9508250D02*
X7500140Y-9538250D01*
X7551140Y-5183250D02*
X7581140Y-5213250D01*
X7581140Y-5183250D02*
X7551140Y-5213250D01*
X7594240Y-8805450D02*
X7624240Y-8835450D01*
X7624240Y-8805450D02*
X7594240Y-8835450D01*
X7594240Y-10302250D02*
X7624240Y-10332250D01*
X7624240Y-10302250D02*
X7594240Y-10332250D01*
X7866140Y-8551250D02*
X7896140Y-8581250D01*
X7896140Y-8551250D02*
X7866140Y-8581250D01*
X7881140Y-9508250D02*
X7911140Y-9538250D01*
X7911140Y-9508250D02*
X7881140Y-9538250D01*
X7905140Y-7508250D02*
X7935140Y-7538250D01*
X7935140Y-7508250D02*
X7905140Y-7538250D01*
X7957140Y-5176250D02*
X7987140Y-5206250D01*
X7987140Y-5176250D02*
X7957140Y-5206250D01*
X8002390Y-7446550D02*
X8032390Y-7476550D01*
X8032390Y-7446550D02*
X8002390Y-7476550D01*
X8002390Y-7697250D02*
X8032390Y-7727250D01*
X8032390Y-7697250D02*
X8002390Y-7727250D01*
X8257140Y-8742250D02*
X8287140Y-8772250D01*
X8287140Y-8742250D02*
X8257140Y-8772250D01*
X8265190Y-6522453D02*
X8295190Y-6552453D01*
X8295190Y-6522453D02*
X8265190Y-6552453D01*
X8266140Y-8976250D02*
X8296140Y-9006250D01*
X8296140Y-8976250D02*
X8266140Y-9006250D01*
X8369140Y-5179250D02*
X8399140Y-5209250D01*
X8399140Y-5179250D02*
X8369140Y-5209250D01*
X8421140Y-5010250D02*
X8451140Y-5040250D01*
X8451140Y-5010250D02*
X8421140Y-5040250D01*
X8597540Y-6849650D02*
X8627540Y-6879650D01*
X8627540Y-6849650D02*
X8597540Y-6879650D01*
X8916515Y-6676625D02*
X8946515Y-6706625D01*
X8946515Y-6676625D02*
X8916515Y-6706625D01*
X9060720Y-5613829D02*
X9090720Y-5643829D01*
X9090720Y-5613829D02*
X9060720Y-5643829D01*
X9071140Y-9768250D02*
X9101140Y-9798250D01*
X9101140Y-9768250D02*
X9071140Y-9798250D01*
X9114140Y-9433250D02*
X9144140Y-9463250D01*
X9144140Y-9433250D02*
X9114140Y-9463250D01*
X9131140Y-7358250D02*
X9161140Y-7388250D01*
X9161140Y-7358250D02*
X9131140Y-7388250D01*
X9271140Y-10068250D02*
X9301140Y-10098250D01*
X9301140Y-10068250D02*
X9271140Y-10098250D01*
X9331140Y-7758250D02*
X9361140Y-7788250D01*
X9361140Y-7758250D02*
X9331140Y-7788250D01*
X9331140Y-10166125D02*
X9361140Y-10196125D01*
X9361140Y-10166125D02*
X9331140Y-10196125D01*
X9461140Y-9768250D02*
X9491140Y-9798250D01*
X9491140Y-9768250D02*
X9461140Y-9798250D01*
X9583140Y-8565250D02*
X9613140Y-8595250D01*
X9613140Y-8565250D02*
X9583140Y-8595250D01*
X9704720Y-4969830D02*
X9734720Y-4999830D01*
X9734720Y-4969830D02*
X9704720Y-4999830D01*
X9771140Y-10058250D02*
X9801140Y-10088250D01*
X9801140Y-10058250D02*
X9771140Y-10088250D01*
X9902140Y-6001250D02*
X9932140Y-6031250D01*
X9932140Y-6001250D02*
X9902140Y-6031250D01*
X9941140Y-4876250D02*
X9971140Y-4906250D01*
X9971140Y-4876250D02*
X9941140Y-4906250D01*
X9975714Y-9115677D02*
X10005714Y-9145677D01*
X10005714Y-9115677D02*
X9975714Y-9145677D01*
X9996140Y-9288375D02*
X10026140Y-9318375D01*
X10026140Y-9288375D02*
X9996140Y-9318375D01*
X10326140Y-8423250D02*
X10356140Y-8453250D01*
X10356140Y-8423250D02*
X10326140Y-8453250D01*
X10493140Y-9998250D02*
X10523140Y-10028250D01*
X10523140Y-9998250D02*
X10493140Y-10028250D01*
X10521140Y-8266250D02*
X10551140Y-8296250D01*
X10551140Y-8266250D02*
X10521140Y-8296250D01*
X10531140Y-6558250D02*
X10561140Y-6588250D01*
X10561140Y-6558250D02*
X10531140Y-6588250D01*
X10759140Y-8798250D02*
X10789140Y-8828250D01*
X10789140Y-8798250D02*
X10759140Y-8828250D01*
X10843890Y-9543250D02*
X10873890Y-9573250D01*
X10873890Y-9543250D02*
X10843890Y-9573250D01*
X11014140Y-9998250D02*
X11044140Y-10028250D01*
X11044140Y-9998250D02*
X11014140Y-10028250D01*
X11431140Y-6832375D02*
X11461140Y-6862375D01*
X11461140Y-6832375D02*
X11431140Y-6862375D01*
X11557140Y-8782250D02*
X11587140Y-8812250D01*
X11587140Y-8782250D02*
X11557140Y-8812250D01*
X11602140Y-8576250D02*
X11632140Y-8606250D01*
X11632140Y-8576250D02*
X11602140Y-8606250D01*
X11644140Y-6772250D02*
X11674140Y-6802250D01*
X11674140Y-6772250D02*
X11644140Y-6802250D01*
X11880140Y-5471250D02*
X11910140Y-5501250D01*
X11910140Y-5471250D02*
X11880140Y-5501250D01*
X11920262Y-8959275D02*
X11950262Y-8989275D01*
X11950262Y-8959275D02*
X11920262Y-8989275D01*
X12065140Y-6653250D02*
X12095140Y-6683250D01*
X12095140Y-6653250D02*
X12065140Y-6683250D01*
X12076140Y-8729250D02*
X12106140Y-8759250D01*
X12106140Y-8729250D02*
X12076140Y-8759250D01*
X12343390Y-10145250D02*
X12373390Y-10175250D01*
X12373390Y-10145250D02*
X12343390Y-10175250D01*
X12343390Y-10343250D02*
X12373390Y-10373250D01*
X12373390Y-10343250D02*
X12343390Y-10373250D01*
X12394140Y-8756250D02*
X12424140Y-8786250D01*
X12424140Y-8756250D02*
X12394140Y-8786250D01*
X12453140Y-8947250D02*
X12483140Y-8977250D01*
X12483140Y-8947250D02*
X12453140Y-8977250D01*
X12757915Y-7028475D02*
X12787915Y-7058475D01*
X12787915Y-7028475D02*
X12757915Y-7058475D01*
X12840140Y-8775250D02*
X12870140Y-8805250D01*
X12870140Y-8775250D02*
X12840140Y-8805250D01*
X12840140Y-9015250D02*
X12870140Y-9045250D01*
X12870140Y-9015250D02*
X12840140Y-9045250D01*
X12958140Y-10523250D02*
X12988140Y-10553250D01*
X12988140Y-10523250D02*
X12958140Y-10553250D01*
X13082590Y-10633700D02*
X13112590Y-10663700D01*
X13112590Y-10633700D02*
X13082590Y-10663700D01*
X13176315Y-8634975D02*
X13206315Y-8664975D01*
X13206315Y-8634975D02*
X13176315Y-8664975D01*
X13227640Y-9893750D02*
X13257640Y-9923750D01*
X13257640Y-9893750D02*
X13227640Y-9923750D01*
X13345140Y-6118000D02*
X13375140Y-6148000D01*
X13375140Y-6118000D02*
X13345140Y-6148000D01*
X13363590Y-10352700D02*
X13393590Y-10382700D01*
X13393590Y-10352700D02*
X13363590Y-10382700D01*
X13508415Y-7778975D02*
X13538415Y-7808975D01*
X13538415Y-7778975D02*
X13508415Y-7808975D01*
X13520140Y-5902250D02*
X13550140Y-5932250D01*
X13550140Y-5902250D02*
X13520140Y-5932250D01*
X13804140Y-10942250D02*
X13834140Y-10972250D01*
X13834140Y-10942250D02*
X13804140Y-10972250D01*
X13961590Y-10104700D02*
X13991590Y-10134700D01*
X13991590Y-10104700D02*
X13961590Y-10134700D01*
X14022190Y-10351250D02*
X14052190Y-10381250D01*
X14052190Y-10351250D02*
X14022190Y-10381250D01*
X14022190Y-10540250D02*
X14052190Y-10570250D01*
X14052190Y-10540250D02*
X14022190Y-10570250D01*
X14273140Y-9559250D02*
X14303140Y-9589250D01*
X14303140Y-9559250D02*
X14273140Y-9589250D01*
X14425140Y-10250250D02*
X14455140Y-10280250D01*
X14455140Y-10250250D02*
X14425140Y-10280250D01*
X14652640Y-7890750D02*
X14682640Y-7920750D01*
X14682640Y-7890750D02*
X14652640Y-7920750D01*
X14652640Y-8233250D02*
X14682640Y-8263250D01*
X14682640Y-8233250D02*
X14652640Y-8263250D01*
X15527490Y-8553250D02*
X15557490Y-8583250D01*
X15557490Y-8553250D02*
X15527490Y-8583250D01*
X15527490Y-9504250D02*
X15557490Y-9534250D01*
X15557490Y-9504250D02*
X15527490Y-9534250D01*
X15585850Y-5910250D02*
X15615850Y-5940250D01*
X15615850Y-5910250D02*
X15585850Y-5940250D01*
X15627480Y-7476690D02*
X15657480Y-7506690D01*
X15657480Y-7476690D02*
X15627480Y-7506690D01*
X15825850Y-10160250D02*
X15855850Y-10190250D01*
X15855850Y-10160250D02*
X15825850Y-10190250D01*
X15835850Y-10420250D02*
X15865850Y-10450250D01*
X15865850Y-10420250D02*
X15835850Y-10450250D01*
X15955910Y-11634120D02*
X15985910Y-11664120D01*
X15985910Y-11634120D02*
X15955910Y-11664120D01*
X16089960Y-11852190D02*
X16119960Y-11882190D01*
X16119960Y-11852190D02*
X16089960Y-11882190D01*
X16175850Y-10750250D02*
X16205850Y-10780250D01*
X16205850Y-10750250D02*
X16175850Y-10780250D01*
X16383423Y-11574120D02*
X16413423Y-11604120D01*
X16413423Y-11574120D02*
X16383423Y-11604120D01*
X16403160Y-7745620D02*
X16433160Y-7775620D01*
X16433160Y-7745620D02*
X16403160Y-7775620D01*
X16421850Y-9748370D02*
X16451850Y-9778370D01*
X16451850Y-9748370D02*
X16421850Y-9778370D01*
X16435850Y-12040250D02*
X16465850Y-12070250D01*
X16465850Y-12040250D02*
X16435850Y-12070250D01*
X16596850Y-5952630D02*
X16626850Y-5982630D01*
X16626850Y-5952630D02*
X16596850Y-5982630D01*
X16640570Y-5859410D02*
X16670570Y-5889410D01*
X16670570Y-5859410D02*
X16640570Y-5889410D01*
X16845850Y-7690250D02*
X16875850Y-7720250D01*
X16875850Y-7690250D02*
X16845850Y-7720250D01*
X16965850Y-9990250D02*
X16995850Y-10020250D01*
X16995850Y-9990250D02*
X16965850Y-10020250D01*
X17005850Y-11730250D02*
X17035850Y-11760250D01*
X17035850Y-11730250D02*
X17005850Y-11760250D01*
X17195050Y-9896730D02*
X17225050Y-9926730D01*
X17225050Y-9896730D02*
X17195050Y-9926730D01*
X17207114Y-10884480D02*
X17237114Y-10914480D01*
X17237114Y-10884480D02*
X17207114Y-10914480D01*
X17215850Y-9230250D02*
X17245850Y-9260250D01*
X17245850Y-9230250D02*
X17215850Y-9260250D01*
X17225850Y-8030250D02*
X17255850Y-8060250D01*
X17255850Y-8030250D02*
X17225850Y-8060250D01*
X17308620Y-9490570D02*
X17338620Y-9520570D01*
X17338620Y-9490570D02*
X17308620Y-9520570D01*
X17363440Y-7121280D02*
X17393440Y-7151280D01*
X17393440Y-7121280D02*
X17363440Y-7151280D01*
X17425850Y-6440250D02*
X17455850Y-6470250D01*
X17455850Y-6440250D02*
X17425850Y-6470250D01*
X17598740Y-4460960D02*
X17628740Y-4490960D01*
X17628740Y-4460960D02*
X17598740Y-4490960D01*
X17795850Y-9220250D02*
X17825850Y-9250250D01*
X17825850Y-9220250D02*
X17795850Y-9250250D01*
X17869620Y-4782830D02*
X17899620Y-4812830D01*
X17899620Y-4782830D02*
X17869620Y-4812830D01*
X18085850Y-5730250D02*
X18115850Y-5760250D01*
X18115850Y-5730250D02*
X18085850Y-5760250D01*
X18160400Y-8912340D02*
X18190400Y-8942340D01*
X18190400Y-8912340D02*
X18160400Y-8942340D01*
X18302650Y-4770400D02*
X18332650Y-4800400D01*
X18332650Y-4770400D02*
X18302650Y-4800400D01*
X18305850Y-7300250D02*
X18335850Y-7330250D01*
X18335850Y-7300250D02*
X18305850Y-7330250D01*
X18305930Y-10373410D02*
X18335930Y-10403410D01*
X18335930Y-10373410D02*
X18305930Y-10403410D01*
X18324990Y-8630410D02*
X18354990Y-8660410D01*
X18354990Y-8630410D02*
X18324990Y-8660410D01*
X18501850Y-8572000D02*
X18531850Y-8602000D01*
X18531850Y-8572000D02*
X18501850Y-8602000D01*
X18525850Y-10270250D02*
X18555850Y-10300250D01*
X18555850Y-10270250D02*
X18525850Y-10300250D01*
X18755850Y-10590250D02*
X18785850Y-10620250D01*
X18785850Y-10590250D02*
X18755850Y-10620250D01*
X18785850Y-6470250D02*
X18815850Y-6500250D01*
X18815850Y-6470250D02*
X18785850Y-6500250D01*
X18821370Y-6791830D02*
X18851370Y-6821830D01*
X18851370Y-6791830D02*
X18821370Y-6821830D01*
X18985850Y-6890250D02*
X19015850Y-6920250D01*
X19015850Y-6890250D02*
X18985850Y-6920250D01*
X19085850Y-8260250D02*
X19115850Y-8290250D01*
X19115850Y-8260250D02*
X19085850Y-8290250D01*
X19135850Y-5250250D02*
X19165850Y-5280250D01*
X19165850Y-5250250D02*
X19135850Y-5280250D01*
X19135850Y-9730250D02*
X19165850Y-9760250D01*
X19165850Y-9730250D02*
X19135850Y-9760250D01*
X19175850Y-10160250D02*
X19205850Y-10190250D01*
X19205850Y-10160250D02*
X19175850Y-10190250D01*
X19224100Y-9213170D02*
X19254100Y-9243170D01*
X19254100Y-9213170D02*
X19224100Y-9243170D01*
X19376950Y-6814340D02*
X19406950Y-6844340D01*
X19406950Y-6814340D02*
X19376950Y-6844340D01*
X19395850Y-6160250D02*
X19425850Y-6190250D01*
X19425850Y-6160250D02*
X19395850Y-6190250D01*
X19412430Y-8606920D02*
X19442430Y-8636920D01*
X19442430Y-8606920D02*
X19412430Y-8636920D01*
X19608120Y-6589790D02*
X19638120Y-6619790D01*
X19638120Y-6589790D02*
X19608120Y-6619790D01*
X19616100Y-9172760D02*
X19646100Y-9202760D01*
X19646100Y-9172760D02*
X19616100Y-9202760D01*
X19631220Y-4691250D02*
X19661220Y-4721250D01*
X19661220Y-4691250D02*
X19631220Y-4721250D01*
X19708200Y-8080830D02*
X19738200Y-8110830D01*
X19738200Y-8080830D02*
X19708200Y-8110830D01*
X19915850Y-5910250D02*
X19945850Y-5940250D01*
X19945850Y-5910250D02*
X19915850Y-5940250D01*
X20003810Y-7134170D02*
X20033810Y-7164170D01*
X20033810Y-7134170D02*
X20003810Y-7164170D01*
X20003810Y-8528280D02*
X20033810Y-8558280D01*
X20033810Y-8528280D02*
X20003810Y-8558280D01*
X20064260Y-4565300D02*
X20094260Y-4595300D01*
X20094260Y-4565300D02*
X20064260Y-4595300D01*
X20080490Y-5394000D02*
X20110490Y-5424000D01*
X20110490Y-5394000D02*
X20080490Y-5424000D01*
X20085550Y-4800700D02*
X20115550Y-4830700D01*
X20115550Y-4800700D02*
X20085550Y-4830700D01*
X20239230Y-4289600D02*
X20269230Y-4319600D01*
X20269230Y-4289600D02*
X20239230Y-4319600D01*
X20251950Y-10180100D02*
X20281950Y-10210100D01*
X20281950Y-10180100D02*
X20251950Y-10210100D01*
X20256950Y-9102540D02*
X20286950Y-9132540D01*
X20286950Y-9102540D02*
X20256950Y-9132540D01*
X20299420Y-6800380D02*
X20329420Y-6830380D01*
X20329420Y-6800380D02*
X20299420Y-6830380D01*
X20299420Y-8825330D02*
X20329420Y-8855330D01*
X20329420Y-8825330D02*
X20299420Y-8855330D01*
X20406850Y-10000750D02*
X20436850Y-10030750D01*
X20436850Y-10000750D02*
X20406850Y-10030750D01*
X20745850Y-8050250D02*
X20775850Y-8080250D01*
X20775850Y-8050250D02*
X20745850Y-8080250D01*
X20835850Y-10000250D02*
X20865850Y-10030250D01*
X20865850Y-10000250D02*
X20835850Y-10030250D01*
X20885850Y-4610250D02*
X20915850Y-4640250D01*
X20915850Y-4610250D02*
X20885850Y-4640250D01*
X20905850Y-10500250D02*
X20935850Y-10530250D01*
X20935850Y-10500250D02*
X20905850Y-10530250D01*
X21081650Y-8869940D02*
X21111650Y-8899940D01*
X21111650Y-8869940D02*
X21081650Y-8899940D01*
X21094530Y-8310200D02*
X21124530Y-8340200D01*
X21124530Y-8310200D02*
X21094530Y-8340200D01*
X21095850Y-10260250D02*
X21125850Y-10290250D01*
X21125850Y-10260250D02*
X21095850Y-10290250D01*
X21134860Y-8528280D02*
X21164860Y-8558280D01*
X21164860Y-8528280D02*
X21134860Y-8558280D01*
X21155850Y-5950250D02*
X21185850Y-5980250D01*
X21185850Y-5950250D02*
X21155850Y-5980250D01*
X21375850Y-10620250D02*
X21405850Y-10650250D01*
X21405850Y-10620250D02*
X21375850Y-10650250D01*
X21425850Y-3560250D02*
X21455850Y-3590250D01*
X21455850Y-3560250D02*
X21425850Y-3590250D01*
X21455850Y-10900250D02*
X21485850Y-10930250D01*
X21485850Y-10900250D02*
X21455850Y-10930250D01*
X21595900Y-8899150D02*
X21625900Y-8929150D01*
X21625900Y-8899150D02*
X21595900Y-8929150D01*
X21675850Y-10420250D02*
X21705850Y-10450250D01*
X21705850Y-10420250D02*
X21675850Y-10450250D01*
X21687760Y-5106100D02*
X21717760Y-5136100D01*
X21717760Y-5106100D02*
X21687760Y-5136100D01*
X21773030Y-10967760D02*
X21803030Y-10997760D01*
X21803030Y-10967760D02*
X21773030Y-10997760D01*
X21823850Y-4923460D02*
X21853850Y-4953460D01*
X21853850Y-4923460D02*
X21823850Y-4953460D01*
X21875850Y-9560250D02*
X21905850Y-9590250D01*
X21905850Y-9560250D02*
X21875850Y-9590250D01*
X22094024Y-10921291D02*
X22124024Y-10951291D01*
X22124024Y-10921291D02*
X22094024Y-10951291D01*
X22115850Y-7370250D02*
X22145850Y-7400250D01*
X22145850Y-7370250D02*
X22115850Y-7400250D01*
X22151470Y-5366870D02*
X22181470Y-5396870D01*
X22181470Y-5366870D02*
X22151470Y-5396870D01*
X22311850Y-6667000D02*
X22341850Y-6697000D01*
X22341850Y-6667000D02*
X22311850Y-6697000D01*
X22525850Y-10220250D02*
X22555850Y-10250250D01*
X22555850Y-10220250D02*
X22525850Y-10250250D01*
X22535850Y-8340250D02*
X22565850Y-8370250D01*
X22565850Y-8340250D02*
X22535850Y-8370250D01*
X22615850Y-9920250D02*
X22645850Y-9950250D01*
X22645850Y-9920250D02*
X22615850Y-9950250D01*
X22625850Y-3500250D02*
X22655850Y-3530250D01*
X22655850Y-3500250D02*
X22625850Y-3530250D01*
X22675850Y-8690250D02*
X22705850Y-8720250D01*
X22705850Y-8690250D02*
X22675850Y-8720250D01*
X22705850Y-11080250D02*
X22735850Y-11110250D01*
X22735850Y-11080250D02*
X22705850Y-11110250D01*
X22715850Y-4980250D02*
X22745850Y-5010250D01*
X22745850Y-4980250D02*
X22715850Y-5010250D01*
X22725850Y-4770250D02*
X22755850Y-4800250D01*
X22755850Y-4770250D02*
X22725850Y-4800250D01*
X22815850Y-5190250D02*
X22845850Y-5220250D01*
X22845850Y-5190250D02*
X22815850Y-5220250D01*
X22881010Y-10282220D02*
X22911010Y-10312220D01*
X22911010Y-10282220D02*
X22881010Y-10312220D01*
X22959910Y-8869940D02*
X22989910Y-8899940D01*
X22989910Y-8869940D02*
X22959910Y-8899940D01*
X23185850Y-8780250D02*
X23215850Y-8810250D01*
X23215850Y-8780250D02*
X23185850Y-8810250D01*
X23195850Y-3930250D02*
X23225850Y-3960250D01*
X23225850Y-3930250D02*
X23195850Y-3960250D01*
X23205850Y-9140250D02*
X23235850Y-9170250D01*
X23235850Y-9140250D02*
X23205850Y-9170250D01*
X23205850Y-10840250D02*
X23235850Y-10870250D01*
X23235850Y-10840250D02*
X23205850Y-10870250D01*
X23248290Y-4826400D02*
X23278290Y-4856400D01*
X23278290Y-4826400D02*
X23248290Y-4856400D01*
X23295850Y-7360250D02*
X23325850Y-7390250D01*
X23325850Y-7360250D02*
X23295850Y-7390250D01*
X23330810Y-5072320D02*
X23360810Y-5102320D01*
X23360810Y-5072320D02*
X23330810Y-5102320D01*
X23335850Y-9550250D02*
X23365850Y-9580250D01*
X23365850Y-9550250D02*
X23335850Y-9580250D01*
X23488840Y-8882280D02*
X23518840Y-8912280D01*
X23518840Y-8882280D02*
X23488840Y-8912280D01*
X23507980Y-7951460D02*
X23537980Y-7981460D01*
X23537980Y-7951460D02*
X23507980Y-7981460D01*
X23536060Y-6857220D02*
X23566060Y-6887220D01*
X23566060Y-6857220D02*
X23536060Y-6887220D01*
X23536060Y-7208740D02*
X23566060Y-7238740D01*
X23566060Y-7208740D02*
X23536060Y-7238740D01*
X23577840Y-10781350D02*
X23607840Y-10811350D01*
X23607840Y-10781350D02*
X23577840Y-10811350D01*
X23643260Y-10874260D02*
X23673260Y-10904260D01*
X23673260Y-10874260D02*
X23643260Y-10904260D01*
X23705850Y-8610250D02*
X23735850Y-8640250D01*
X23735850Y-8610250D02*
X23705850Y-8640250D01*
X23815850Y-11170250D02*
X23845850Y-11200250D01*
X23845850Y-11170250D02*
X23815850Y-11200250D01*
X24019950Y-6918410D02*
X24049950Y-6948410D01*
X24049950Y-6918410D02*
X24019950Y-6948410D01*
X24035850Y-8680250D02*
X24065850Y-8710250D01*
X24065850Y-8680250D02*
X24035850Y-8710250D01*
X24065700Y-8995690D02*
X24095700Y-9025690D01*
X24095700Y-8995690D02*
X24065700Y-9025690D01*
X24216850Y-8810130D02*
X24246850Y-8840130D01*
X24246850Y-8810130D02*
X24216850Y-8840130D01*
X24425850Y-8990250D02*
X24455850Y-9020250D01*
X24455850Y-8990250D02*
X24425850Y-9020250D01*
X24625850Y-6320250D02*
X24655850Y-6350250D01*
X24655850Y-6320250D02*
X24625850Y-6350250D01*
X24655850Y-8700250D02*
X24685850Y-8730250D01*
X24685850Y-8700250D02*
X24655850Y-8730250D01*
X24675850Y-7350250D02*
X24705850Y-7380250D01*
X24705850Y-7350250D02*
X24675850Y-7380250D01*
X24692290Y-5661420D02*
X24722290Y-5691420D01*
X24722290Y-5661420D02*
X24692290Y-5691420D01*
X24730000Y-11062000D02*
X24760000Y-11092000D01*
X24760000Y-11062000D02*
X24730000Y-11092000D01*
X24733570Y-5072320D02*
X24763570Y-5102320D01*
X24763570Y-5072320D02*
X24733570Y-5102320D01*
X24735850Y-10460250D02*
X24765850Y-10490250D01*
X24765850Y-10460250D02*
X24735850Y-10490250D01*
X24745830Y-11245610D02*
X24775830Y-11275610D01*
X24775830Y-11245610D02*
X24745830Y-11275610D01*
X24836500Y-5147560D02*
X24866500Y-5177560D01*
X24866500Y-5147560D02*
X24836500Y-5177560D01*
X24845850Y-4790250D02*
X24875850Y-4820250D01*
X24875850Y-4790250D02*
X24845850Y-4820250D01*
X24850090Y-5366870D02*
X24880090Y-5396870D01*
X24880090Y-5366870D02*
X24850090Y-5396870D01*
X24850090Y-5661420D02*
X24880090Y-5691420D01*
X24880090Y-5661420D02*
X24850090Y-5691420D01*
X24890000Y-11130000D02*
X24920000Y-11160000D01*
X24920000Y-11130000D02*
X24890000Y-11160000D01*
X24910950Y-10079710D02*
X24940950Y-10109710D01*
X24940950Y-10079710D02*
X24910950Y-10109710D01*
X24921150Y-10224270D02*
X24951150Y-10254270D01*
X24951150Y-10224270D02*
X24921150Y-10254270D01*
X25327030Y-10988400D02*
X25357030Y-11018400D01*
X25357030Y-10988400D02*
X25327030Y-11018400D01*
X25352410Y-10800440D02*
X25382410Y-10830440D01*
X25382410Y-10800440D02*
X25352410Y-10830440D01*
X25548000Y-11983000D02*
X25578000Y-12013000D01*
X25578000Y-11983000D02*
X25548000Y-12013000D01*
X25713150Y-10565090D02*
X25743150Y-10595090D01*
X25743150Y-10565090D02*
X25713150Y-10595090D01*
X25815850Y-10440250D02*
X25845850Y-10470250D01*
X25845850Y-10440250D02*
X25815850Y-10470250D01*
X25865850Y-12080250D02*
X25895850Y-12110250D01*
X25895850Y-12080250D02*
X25865850Y-12110250D01*
X25887630Y-10736650D02*
X25917630Y-10766650D01*
X25917630Y-10736650D02*
X25887630Y-10766650D01*
X25916010Y-11359460D02*
X25946010Y-11389460D01*
X25946010Y-11359460D02*
X25916010Y-11389460D01*
X26037050Y-10647250D02*
X26067050Y-10677250D01*
X26067050Y-10647250D02*
X26037050Y-10677250D01*
X26285440Y-11913400D02*
X26315440Y-11943400D01*
X26315440Y-11913400D02*
X26285440Y-11943400D01*
X26699210Y-11303770D02*
X26729210Y-11333770D01*
X26729210Y-11303770D02*
X26699210Y-11333770D01*
X26755090Y-9956310D02*
X26785090Y-9986310D01*
X26785090Y-9956310D02*
X26755090Y-9986310D01*
X26801560Y-10991430D02*
X26831560Y-11021430D01*
X26831560Y-10991430D02*
X26801560Y-11021430D01*
X26802840Y-11257870D02*
X26832840Y-11287870D01*
X26832840Y-11257870D02*
X26802840Y-11287870D01*
X26934350Y-11822550D02*
X26964350Y-11852550D01*
X26964350Y-11822550D02*
X26934350Y-11852550D01*
X26940380Y-9824080D02*
X26970380Y-9854080D01*
X26970380Y-9824080D02*
X26940380Y-9854080D01*
X27115850Y-12220250D02*
X27145850Y-12250250D01*
X27145850Y-12220250D02*
X27115850Y-12250250D01*
X27412600Y-10374220D02*
X27442600Y-10404220D01*
X27442600Y-10374220D02*
X27412600Y-10404220D01*
X5450000Y-11575000D02*
G75*
G02*
X5350000Y-11575000I-50000J0D01*
G01*
X5350000Y-11575000D02*
G75*
G02*
X5450000Y-11575000I50000J0D01*
G01*
X5450000Y-11829000D02*
G75*
G02*
X5350000Y-11829000I-50000J0D01*
G01*
X5350000Y-11829000D02*
G75*
G02*
X5450000Y-11829000I50000J0D01*
G01*
X5450000Y-12083000D02*
G75*
G02*
X5350000Y-12083000I-50000J0D01*
G01*
X5350000Y-12083000D02*
G75*
G02*
X5450000Y-12083000I50000J0D01*
G01*
X5450000Y-12337000D02*
G75*
G02*
X5350000Y-12337000I-50000J0D01*
G01*
X5350000Y-12337000D02*
G75*
G02*
X5450000Y-12337000I50000J0D01*
G01*
X25050000Y-11585980D02*
G75*
G02*
X24950000Y-11585980I-50000J0D01*
G01*
X24950000Y-11585980D02*
G75*
G02*
X25050000Y-11585980I50000J0D01*
G01*
X25050000Y-11839980D02*
G75*
G02*
X24950000Y-11839980I-50000J0D01*
G01*
X24950000Y-11839980D02*
G75*
G02*
X25050000Y-11839980I50000J0D01*
G01*
X25050000Y-12093980D02*
G75*
G02*
X24950000Y-12093980I-50000J0D01*
G01*
X24950000Y-12093980D02*
G75*
G02*
X25050000Y-12093980I50000J0D01*
G01*
X25050000Y-12347980D02*
G75*
G02*
X24950000Y-12347980I-50000J0D01*
G01*
X24950000Y-12347980D02*
G75*
G02*
X25050000Y-12347980I50000J0D01*
G01*
D13*
X4504490Y-10264890D02*
X4504490Y-10514890D01*
X4379490Y-10389890D02*
X4629490Y-10389890D01*
X4504490Y-10604890D02*
X4504490Y-10854890D01*
X4379490Y-10729890D02*
X4629490Y-10729890D01*
X26810650Y-10274520D02*
X26810650Y-10524520D01*
X26685650Y-10399520D02*
X26935650Y-10399520D01*
X26810650Y-10614520D02*
X26810650Y-10864520D01*
X26685650Y-10739520D02*
X26935650Y-10739520D01*
D14*
X6083357Y-4468817D02*
X6083357Y-4256683D01*
X5871223Y-4256683D01*
X5871223Y-4468817D01*
X6083357Y-4468817D01*
X6083357Y-6373817D02*
X6083357Y-6161683D01*
X5871223Y-6161683D01*
X5871223Y-6373817D01*
X6083357Y-6373817D01*
X6083357Y-8278817D02*
X6083357Y-8066683D01*
X5871223Y-8066683D01*
X5871223Y-8278817D01*
X6083357Y-8278817D01*
X6083357Y-10183817D02*
X6083357Y-9971683D01*
X5871223Y-9971683D01*
X5871223Y-10183817D01*
X6083357Y-10183817D01*
X6718357Y-4214817D02*
X6718357Y-4002683D01*
X6506223Y-4002683D01*
X6506223Y-4214817D01*
X6718357Y-4214817D01*
X6718357Y-6119817D02*
X6718357Y-5907683D01*
X6506223Y-5907683D01*
X6506223Y-6119817D01*
X6718357Y-6119817D01*
X6718357Y-8024817D02*
X6718357Y-7812683D01*
X6506223Y-7812683D01*
X6506223Y-8024817D01*
X6718357Y-8024817D01*
X6718357Y-9929817D02*
X6718357Y-9717683D01*
X6506223Y-9717683D01*
X6506223Y-9929817D01*
X6718357Y-9929817D01*
X7988357Y-4230692D02*
X7988357Y-4018558D01*
X7776223Y-4018558D01*
X7776223Y-4230692D01*
X7988357Y-4230692D01*
X7988357Y-6135692D02*
X7988357Y-5923558D01*
X7776223Y-5923558D01*
X7776223Y-6135692D01*
X7988357Y-6135692D01*
X7988357Y-8040692D02*
X7988357Y-7828558D01*
X7776223Y-7828558D01*
X7776223Y-8040692D01*
X7988357Y-8040692D01*
X7988357Y-9945692D02*
X7988357Y-9733558D01*
X7776223Y-9733558D01*
X7776223Y-9945692D01*
X7988357Y-9945692D01*
X8623357Y-3976692D02*
X8623357Y-3764558D01*
X8411223Y-3764558D01*
X8411223Y-3976692D01*
X8623357Y-3976692D01*
X8623357Y-5881692D02*
X8623357Y-5669558D01*
X8411223Y-5669558D01*
X8411223Y-5881692D01*
X8623357Y-5881692D01*
X8623357Y-7786692D02*
X8623357Y-7574558D01*
X8411223Y-7574558D01*
X8411223Y-7786692D01*
X8623357Y-7786692D01*
X8623357Y-9691692D02*
X8623357Y-9479558D01*
X8411223Y-9479558D01*
X8411223Y-9691692D01*
X8623357Y-9691692D01*
X9893357Y-3754442D02*
X9893357Y-3542308D01*
X9681223Y-3542308D01*
X9681223Y-3754442D01*
X9893357Y-3754442D01*
X9893357Y-5659442D02*
X9893357Y-5447308D01*
X9681223Y-5447308D01*
X9681223Y-5659442D01*
X9893357Y-5659442D01*
X9893357Y-7564442D02*
X9893357Y-7352308D01*
X9681223Y-7352308D01*
X9681223Y-7564442D01*
X9893357Y-7564442D01*
X9893357Y-9469442D02*
X9893357Y-9257308D01*
X9681223Y-9257308D01*
X9681223Y-9469442D01*
X9893357Y-9469442D01*
X10528357Y-3500442D02*
X10528357Y-3288308D01*
X10316223Y-3288308D01*
X10316223Y-3500442D01*
X10528357Y-3500442D01*
X10528357Y-5405442D02*
X10528357Y-5193308D01*
X10316223Y-5193308D01*
X10316223Y-5405442D01*
X10528357Y-5405442D01*
X10528357Y-7310442D02*
X10528357Y-7098308D01*
X10316223Y-7098308D01*
X10316223Y-7310442D01*
X10528357Y-7310442D01*
X10528357Y-9215442D02*
X10528357Y-9003308D01*
X10316223Y-9003308D01*
X10316223Y-9215442D01*
X10528357Y-9215442D01*
X11798357Y-4230692D02*
X11798357Y-4018558D01*
X11586223Y-4018558D01*
X11586223Y-4230692D01*
X11798357Y-4230692D01*
X11798357Y-6135692D02*
X11798357Y-5923558D01*
X11586223Y-5923558D01*
X11586223Y-6135692D01*
X11798357Y-6135692D01*
X11798357Y-8040692D02*
X11798357Y-7828558D01*
X11586223Y-7828558D01*
X11586223Y-8040692D01*
X11798357Y-8040692D01*
X11798357Y-9945692D02*
X11798357Y-9733558D01*
X11586223Y-9733558D01*
X11586223Y-9945692D01*
X11798357Y-9945692D01*
X12433357Y-3976692D02*
X12433357Y-3764558D01*
X12221223Y-3764558D01*
X12221223Y-3976692D01*
X12433357Y-3976692D01*
X12433357Y-5881692D02*
X12433357Y-5669558D01*
X12221223Y-5669558D01*
X12221223Y-5881692D01*
X12433357Y-5881692D01*
X12433357Y-7786692D02*
X12433357Y-7574558D01*
X12221223Y-7574558D01*
X12221223Y-7786692D01*
X12433357Y-7786692D01*
X12433357Y-9691692D02*
X12433357Y-9479558D01*
X12221223Y-9479558D01*
X12221223Y-9691692D01*
X12433357Y-9691692D01*
X13703357Y-5421317D02*
X13703357Y-5209183D01*
X13491223Y-5209183D01*
X13491223Y-5421317D01*
X13703357Y-5421317D01*
X13703357Y-7326317D02*
X13703357Y-7114183D01*
X13491223Y-7114183D01*
X13491223Y-7326317D01*
X13703357Y-7326317D01*
X13703357Y-9231317D02*
X13703357Y-9019183D01*
X13491223Y-9019183D01*
X13491223Y-9231317D01*
X13703357Y-9231317D01*
X13703357Y-11136317D02*
X13703357Y-10924183D01*
X13491223Y-10924183D01*
X13491223Y-11136317D01*
X13703357Y-11136317D01*
X14338357Y-5167317D02*
X14338357Y-4955183D01*
X14126223Y-4955183D01*
X14126223Y-5167317D01*
X14338357Y-5167317D01*
X14338357Y-7072317D02*
X14338357Y-6860183D01*
X14126223Y-6860183D01*
X14126223Y-7072317D01*
X14338357Y-7072317D01*
X14338357Y-8977317D02*
X14338357Y-8765183D01*
X14126223Y-8765183D01*
X14126223Y-8977317D01*
X14338357Y-8977317D01*
X14338357Y-10882317D02*
X14338357Y-10670183D01*
X14126223Y-10670183D01*
X14126223Y-10882317D01*
X14338357Y-10882317D01*
X16161917Y-5430947D02*
X16161917Y-5218813D01*
X15949783Y-5218813D01*
X15949783Y-5430947D01*
X16161917Y-5430947D01*
X16161917Y-7335947D02*
X16161917Y-7123813D01*
X15949783Y-7123813D01*
X15949783Y-7335947D01*
X16161917Y-7335947D01*
X16161917Y-9240947D02*
X16161917Y-9028813D01*
X15949783Y-9028813D01*
X15949783Y-9240947D01*
X16161917Y-9240947D01*
X16161917Y-11145947D02*
X16161917Y-10933813D01*
X15949783Y-10933813D01*
X15949783Y-11145947D01*
X16161917Y-11145947D01*
X16796917Y-5176947D02*
X16796917Y-4964813D01*
X16584783Y-4964813D01*
X16584783Y-5176947D01*
X16796917Y-5176947D01*
X16796917Y-7081947D02*
X16796917Y-6869813D01*
X16584783Y-6869813D01*
X16584783Y-7081947D01*
X16796917Y-7081947D01*
X16796917Y-8986947D02*
X16796917Y-8774813D01*
X16584783Y-8774813D01*
X16584783Y-8986947D01*
X16796917Y-8986947D01*
X16796917Y-10891947D02*
X16796917Y-10679813D01*
X16584783Y-10679813D01*
X16584783Y-10891947D01*
X16796917Y-10891947D01*
X18066917Y-4240317D02*
X18066917Y-4028183D01*
X17854783Y-4028183D01*
X17854783Y-4240317D01*
X18066917Y-4240317D01*
X18066917Y-6145317D02*
X18066917Y-5933183D01*
X17854783Y-5933183D01*
X17854783Y-6145317D01*
X18066917Y-6145317D01*
X18066917Y-8050317D02*
X18066917Y-7838183D01*
X17854783Y-7838183D01*
X17854783Y-8050317D01*
X18066917Y-8050317D01*
X18066917Y-9955317D02*
X18066917Y-9743183D01*
X17854783Y-9743183D01*
X17854783Y-9955317D01*
X18066917Y-9955317D01*
X18701917Y-3986317D02*
X18701917Y-3774183D01*
X18489783Y-3774183D01*
X18489783Y-3986317D01*
X18701917Y-3986317D01*
X18701917Y-5891317D02*
X18701917Y-5679183D01*
X18489783Y-5679183D01*
X18489783Y-5891317D01*
X18701917Y-5891317D01*
X18701917Y-7796317D02*
X18701917Y-7584183D01*
X18489783Y-7584183D01*
X18489783Y-7796317D01*
X18701917Y-7796317D01*
X18701917Y-9701317D02*
X18701917Y-9489183D01*
X18489783Y-9489183D01*
X18489783Y-9701317D01*
X18701917Y-9701317D01*
X19971917Y-3764067D02*
X19971917Y-3551933D01*
X19759783Y-3551933D01*
X19759783Y-3764067D01*
X19971917Y-3764067D01*
X19971917Y-5669067D02*
X19971917Y-5456933D01*
X19759783Y-5456933D01*
X19759783Y-5669067D01*
X19971917Y-5669067D01*
X19971917Y-7574067D02*
X19971917Y-7361933D01*
X19759783Y-7361933D01*
X19759783Y-7574067D01*
X19971917Y-7574067D01*
X19971917Y-9479067D02*
X19971917Y-9266933D01*
X19759783Y-9266933D01*
X19759783Y-9479067D01*
X19971917Y-9479067D01*
X20606917Y-3510067D02*
X20606917Y-3297933D01*
X20394783Y-3297933D01*
X20394783Y-3510067D01*
X20606917Y-3510067D01*
X20606917Y-5415067D02*
X20606917Y-5202933D01*
X20394783Y-5202933D01*
X20394783Y-5415067D01*
X20606917Y-5415067D01*
X20606917Y-7320067D02*
X20606917Y-7107933D01*
X20394783Y-7107933D01*
X20394783Y-7320067D01*
X20606917Y-7320067D01*
X20606917Y-9225067D02*
X20606917Y-9012933D01*
X20394783Y-9012933D01*
X20394783Y-9225067D01*
X20606917Y-9225067D01*
X21876917Y-4240317D02*
X21876917Y-4028183D01*
X21664783Y-4028183D01*
X21664783Y-4240317D01*
X21876917Y-4240317D01*
X21876917Y-6145317D02*
X21876917Y-5933183D01*
X21664783Y-5933183D01*
X21664783Y-6145317D01*
X21876917Y-6145317D01*
X21876917Y-8050317D02*
X21876917Y-7838183D01*
X21664783Y-7838183D01*
X21664783Y-8050317D01*
X21876917Y-8050317D01*
X21876917Y-9955317D02*
X21876917Y-9743183D01*
X21664783Y-9743183D01*
X21664783Y-9955317D01*
X21876917Y-9955317D01*
X22511917Y-3986317D02*
X22511917Y-3774183D01*
X22299783Y-3774183D01*
X22299783Y-3986317D01*
X22511917Y-3986317D01*
X22511917Y-5891317D02*
X22511917Y-5679183D01*
X22299783Y-5679183D01*
X22299783Y-5891317D01*
X22511917Y-5891317D01*
X22511917Y-7796317D02*
X22511917Y-7584183D01*
X22299783Y-7584183D01*
X22299783Y-7796317D01*
X22511917Y-7796317D01*
X22511917Y-9701317D02*
X22511917Y-9489183D01*
X22299783Y-9489183D01*
X22299783Y-9701317D01*
X22511917Y-9701317D01*
X23781917Y-4478447D02*
X23781917Y-4266313D01*
X23569783Y-4266313D01*
X23569783Y-4478447D01*
X23781917Y-4478447D01*
X23781917Y-6383447D02*
X23781917Y-6171313D01*
X23569783Y-6171313D01*
X23569783Y-6383447D01*
X23781917Y-6383447D01*
X23781917Y-8288447D02*
X23781917Y-8076313D01*
X23569783Y-8076313D01*
X23569783Y-8288447D01*
X23781917Y-8288447D01*
X23781917Y-10193447D02*
X23781917Y-9981313D01*
X23569783Y-9981313D01*
X23569783Y-10193447D01*
X23781917Y-10193447D01*
X24416917Y-4224447D02*
X24416917Y-4012313D01*
X24204783Y-4012313D01*
X24204783Y-4224447D01*
X24416917Y-4224447D01*
X24416917Y-6129447D02*
X24416917Y-5917313D01*
X24204783Y-5917313D01*
X24204783Y-6129447D01*
X24416917Y-6129447D01*
X24416917Y-8034447D02*
X24416917Y-7822313D01*
X24204783Y-7822313D01*
X24204783Y-8034447D01*
X24416917Y-8034447D01*
X24416917Y-9939447D02*
X24416917Y-9727313D01*
X24204783Y-9727313D01*
X24204783Y-9939447D01*
X24416917Y-9939447D01*
D11*
X14942570Y-5247650D02*
X14967570Y-5222650D01*
X14942570Y-5197650D01*
X14917570Y-5222650D01*
X14942570Y-5247650D01*
X14942570Y-5322650D02*
X14967570Y-5297650D01*
X14942570Y-5272650D01*
X14917570Y-5297650D01*
X14942570Y-5322650D01*
X14942570Y-5397650D02*
X14967570Y-5372650D01*
X14942570Y-5347650D01*
X14917570Y-5372650D01*
X14942570Y-5397650D01*
X14942570Y-5472650D02*
X14967570Y-5447650D01*
X14942570Y-5422650D01*
X14917570Y-5447650D01*
X14942570Y-5472650D01*
X14942570Y-5547650D02*
X14967570Y-5522650D01*
X14942570Y-5497650D01*
X14917570Y-5522650D01*
X14942570Y-5547650D01*
X14942570Y-5622650D02*
X14967570Y-5597650D01*
X14942570Y-5572650D01*
X14917570Y-5597650D01*
X14942570Y-5622650D01*
X14942570Y-5697650D02*
X14967570Y-5672650D01*
X14942570Y-5647650D01*
X14917570Y-5672650D01*
X14942570Y-5697650D01*
X14942570Y-5772650D02*
X14967570Y-5747650D01*
X14942570Y-5722650D01*
X14917570Y-5747650D01*
X14942570Y-5772650D01*
X14942570Y-5847650D02*
X14967570Y-5822650D01*
X14942570Y-5797650D01*
X14917570Y-5822650D01*
X14942570Y-5847650D01*
X14942570Y-5922650D02*
X14967570Y-5897650D01*
X14942570Y-5872650D01*
X14917570Y-5897650D01*
X14942570Y-5922650D01*
X14942570Y-5997650D02*
X14967570Y-5972650D01*
X14942570Y-5947650D01*
X14917570Y-5972650D01*
X14942570Y-5997650D01*
X14942570Y-8037650D02*
X14967570Y-8012650D01*
X14942570Y-7987650D01*
X14917570Y-8012650D01*
X14942570Y-8037650D01*
X14942570Y-8112650D02*
X14967570Y-8087650D01*
X14942570Y-8062650D01*
X14917570Y-8087650D01*
X14942570Y-8112650D01*
X14942570Y-8187650D02*
X14967570Y-8162650D01*
X14942570Y-8137650D01*
X14917570Y-8162650D01*
X14942570Y-8187650D01*
X14942570Y-8262650D02*
X14967570Y-8237650D01*
X14942570Y-8212650D01*
X14917570Y-8237650D01*
X14942570Y-8262650D01*
X14942570Y-8337650D02*
X14967570Y-8312650D01*
X14942570Y-8287650D01*
X14917570Y-8312650D01*
X14942570Y-8337650D01*
X14942570Y-8412650D02*
X14967570Y-8387650D01*
X14942570Y-8362650D01*
X14917570Y-8387650D01*
X14942570Y-8412650D01*
X14942570Y-8487650D02*
X14967570Y-8462650D01*
X14942570Y-8437650D01*
X14917570Y-8462650D01*
X14942570Y-8487650D01*
X14942570Y-8562650D02*
X14967570Y-8537650D01*
X14942570Y-8512650D01*
X14917570Y-8537650D01*
X14942570Y-8562650D01*
X14942570Y-8637650D02*
X14967570Y-8612650D01*
X14942570Y-8587650D01*
X14917570Y-8612650D01*
X14942570Y-8637650D01*
X14942570Y-8712650D02*
X14967570Y-8687650D01*
X14942570Y-8662650D01*
X14917570Y-8687650D01*
X14942570Y-8712650D01*
X14942570Y-8787650D02*
X14967570Y-8762650D01*
X14942570Y-8737650D01*
X14917570Y-8762650D01*
X14942570Y-8787650D01*
X14942570Y-10947650D02*
X14967570Y-10922650D01*
X14942570Y-10897650D01*
X14917570Y-10922650D01*
X14942570Y-10947650D01*
X14942570Y-11022650D02*
X14967570Y-10997650D01*
X14942570Y-10972650D01*
X14917570Y-10997650D01*
X14942570Y-11022650D01*
X14942570Y-11097650D02*
X14967570Y-11072650D01*
X14942570Y-11047650D01*
X14917570Y-11072650D01*
X14942570Y-11097650D01*
X14942570Y-11172650D02*
X14967570Y-11147650D01*
X14942570Y-11122650D01*
X14917570Y-11147650D01*
X14942570Y-11172650D01*
X14942570Y-11247650D02*
X14967570Y-11222650D01*
X14942570Y-11197650D01*
X14917570Y-11222650D01*
X14942570Y-11247650D01*
X14942570Y-11322650D02*
X14967570Y-11297650D01*
X14942570Y-11272650D01*
X14917570Y-11297650D01*
X14942570Y-11322650D01*
X14942570Y-11397650D02*
X14967570Y-11372650D01*
X14942570Y-11347650D01*
X14917570Y-11372650D01*
X14942570Y-11397650D01*
X14942570Y-11472650D02*
X14967570Y-11447650D01*
X14942570Y-11422650D01*
X14917570Y-11447650D01*
X14942570Y-11472650D01*
X14942570Y-11547650D02*
X14967570Y-11522650D01*
X14942570Y-11497650D01*
X14917570Y-11522650D01*
X14942570Y-11547650D01*
X14942570Y-11622650D02*
X14967570Y-11597650D01*
X14942570Y-11572650D01*
X14917570Y-11597650D01*
X14942570Y-11622650D01*
X14942570Y-11697650D02*
X14967570Y-11672650D01*
X14942570Y-11647650D01*
X14917570Y-11672650D01*
X14942570Y-11697650D01*
X15442570Y-5247650D02*
X15467570Y-5222650D01*
X15442570Y-5197650D01*
X15417570Y-5222650D01*
X15442570Y-5247650D01*
X15442570Y-5322650D02*
X15467570Y-5297650D01*
X15442570Y-5272650D01*
X15417570Y-5297650D01*
X15442570Y-5322650D01*
X15442570Y-5397650D02*
X15467570Y-5372650D01*
X15442570Y-5347650D01*
X15417570Y-5372650D01*
X15442570Y-5397650D01*
X15442570Y-5472650D02*
X15467570Y-5447650D01*
X15442570Y-5422650D01*
X15417570Y-5447650D01*
X15442570Y-5472650D01*
X15442570Y-5547650D02*
X15467570Y-5522650D01*
X15442570Y-5497650D01*
X15417570Y-5522650D01*
X15442570Y-5547650D01*
X15442570Y-5622650D02*
X15467570Y-5597650D01*
X15442570Y-5572650D01*
X15417570Y-5597650D01*
X15442570Y-5622650D01*
X15442570Y-5697650D02*
X15467570Y-5672650D01*
X15442570Y-5647650D01*
X15417570Y-5672650D01*
X15442570Y-5697650D01*
X15442570Y-5772650D02*
X15467570Y-5747650D01*
X15442570Y-5722650D01*
X15417570Y-5747650D01*
X15442570Y-5772650D01*
X15442570Y-5847650D02*
X15467570Y-5822650D01*
X15442570Y-5797650D01*
X15417570Y-5822650D01*
X15442570Y-5847650D01*
X15442570Y-5922650D02*
X15467570Y-5897650D01*
X15442570Y-5872650D01*
X15417570Y-5897650D01*
X15442570Y-5922650D01*
X15442570Y-5997650D02*
X15467570Y-5972650D01*
X15442570Y-5947650D01*
X15417570Y-5972650D01*
X15442570Y-5997650D01*
X15442570Y-8037650D02*
X15467570Y-8012650D01*
X15442570Y-7987650D01*
X15417570Y-8012650D01*
X15442570Y-8037650D01*
X15442570Y-8112650D02*
X15467570Y-8087650D01*
X15442570Y-8062650D01*
X15417570Y-8087650D01*
X15442570Y-8112650D01*
X15442570Y-8187650D02*
X15467570Y-8162650D01*
X15442570Y-8137650D01*
X15417570Y-8162650D01*
X15442570Y-8187650D01*
X15442570Y-8262650D02*
X15467570Y-8237650D01*
X15442570Y-8212650D01*
X15417570Y-8237650D01*
X15442570Y-8262650D01*
X15442570Y-8337650D02*
X15467570Y-8312650D01*
X15442570Y-8287650D01*
X15417570Y-8312650D01*
X15442570Y-8337650D01*
X15442570Y-8412650D02*
X15467570Y-8387650D01*
X15442570Y-8362650D01*
X15417570Y-8387650D01*
X15442570Y-8412650D01*
X15442570Y-8487650D02*
X15467570Y-8462650D01*
X15442570Y-8437650D01*
X15417570Y-8462650D01*
X15442570Y-8487650D01*
X15442570Y-8562650D02*
X15467570Y-8537650D01*
X15442570Y-8512650D01*
X15417570Y-8537650D01*
X15442570Y-8562650D01*
X15442570Y-8637650D02*
X15467570Y-8612650D01*
X15442570Y-8587650D01*
X15417570Y-8612650D01*
X15442570Y-8637650D01*
X15442570Y-8712650D02*
X15467570Y-8687650D01*
X15442570Y-8662650D01*
X15417570Y-8687650D01*
X15442570Y-8712650D01*
X15442570Y-8787650D02*
X15467570Y-8762650D01*
X15442570Y-8737650D01*
X15417570Y-8762650D01*
X15442570Y-8787650D01*
X15442570Y-10947650D02*
X15467570Y-10922650D01*
X15442570Y-10897650D01*
X15417570Y-10922650D01*
X15442570Y-10947650D01*
X15442570Y-11022650D02*
X15467570Y-10997650D01*
X15442570Y-10972650D01*
X15417570Y-10997650D01*
X15442570Y-11022650D01*
X15442570Y-11097650D02*
X15467570Y-11072650D01*
X15442570Y-11047650D01*
X15417570Y-11072650D01*
X15442570Y-11097650D01*
X15442570Y-11172650D02*
X15467570Y-11147650D01*
X15442570Y-11122650D01*
X15417570Y-11147650D01*
X15442570Y-11172650D01*
X15442570Y-11247650D02*
X15467570Y-11222650D01*
X15442570Y-11197650D01*
X15417570Y-11222650D01*
X15442570Y-11247650D01*
X15442570Y-11322650D02*
X15467570Y-11297650D01*
X15442570Y-11272650D01*
X15417570Y-11297650D01*
X15442570Y-11322650D01*
X15442570Y-11397650D02*
X15467570Y-11372650D01*
X15442570Y-11347650D01*
X15417570Y-11372650D01*
X15442570Y-11397650D01*
X15442570Y-11472650D02*
X15467570Y-11447650D01*
X15442570Y-11422650D01*
X15417570Y-11447650D01*
X15442570Y-11472650D01*
X15442570Y-11547650D02*
X15467570Y-11522650D01*
X15442570Y-11497650D01*
X15417570Y-11522650D01*
X15442570Y-11547650D01*
X15442570Y-11622650D02*
X15467570Y-11597650D01*
X15442570Y-11572650D01*
X15417570Y-11597650D01*
X15442570Y-11622650D01*
X15442570Y-11697650D02*
X15467570Y-11672650D01*
X15442570Y-11647650D01*
X15417570Y-11672650D01*
X15442570Y-11697650D01*
D15*
X5762790Y-4529250D02*
X5937790Y-4704250D01*
X5937790Y-4529250D02*
X5762790Y-4704250D01*
X5937790Y-4616750D02*
G75*
G02*
X5762790Y-4616750I-87500J0D01*
G01*
X5762790Y-4616750D02*
G75*
G02*
X5937790Y-4616750I87500J0D01*
G01*
X5762790Y-6434250D02*
X5937790Y-6609250D01*
X5937790Y-6434250D02*
X5762790Y-6609250D01*
X5937790Y-6521750D02*
G75*
G02*
X5762790Y-6521750I-87500J0D01*
G01*
X5762790Y-6521750D02*
G75*
G02*
X5937790Y-6521750I87500J0D01*
G01*
X5762790Y-8339250D02*
X5937790Y-8514250D01*
X5937790Y-8339250D02*
X5762790Y-8514250D01*
X5937790Y-8426750D02*
G75*
G02*
X5762790Y-8426750I-87500J0D01*
G01*
X5762790Y-8426750D02*
G75*
G02*
X5937790Y-8426750I87500J0D01*
G01*
X5762790Y-10244250D02*
X5937790Y-10419250D01*
X5937790Y-10244250D02*
X5762790Y-10419250D01*
X5937790Y-10331750D02*
G75*
G02*
X5762790Y-10331750I-87500J0D01*
G01*
X5762790Y-10331750D02*
G75*
G02*
X5937790Y-10331750I87500J0D01*
G01*
X6778790Y-4529250D02*
X6953790Y-4704250D01*
X6953790Y-4529250D02*
X6778790Y-4704250D01*
X6953790Y-4616750D02*
G75*
G02*
X6778790Y-4616750I-87500J0D01*
G01*
X6778790Y-4616750D02*
G75*
G02*
X6953790Y-4616750I87500J0D01*
G01*
X6778790Y-6434250D02*
X6953790Y-6609250D01*
X6953790Y-6434250D02*
X6778790Y-6609250D01*
X6953790Y-6521750D02*
G75*
G02*
X6778790Y-6521750I-87500J0D01*
G01*
X6778790Y-6521750D02*
G75*
G02*
X6953790Y-6521750I87500J0D01*
G01*
X6778790Y-8339250D02*
X6953790Y-8514250D01*
X6953790Y-8339250D02*
X6778790Y-8514250D01*
X6953790Y-8426750D02*
G75*
G02*
X6778790Y-8426750I-87500J0D01*
G01*
X6778790Y-8426750D02*
G75*
G02*
X6953790Y-8426750I87500J0D01*
G01*
X6778790Y-10244250D02*
X6953790Y-10419250D01*
X6953790Y-10244250D02*
X6778790Y-10419250D01*
X6953790Y-10331750D02*
G75*
G02*
X6778790Y-10331750I-87500J0D01*
G01*
X6778790Y-10331750D02*
G75*
G02*
X6953790Y-10331750I87500J0D01*
G01*
X7667790Y-4291125D02*
X7842790Y-4466125D01*
X7842790Y-4291125D02*
X7667790Y-4466125D01*
X7842790Y-4378625D02*
G75*
G02*
X7667790Y-4378625I-87500J0D01*
G01*
X7667790Y-4378625D02*
G75*
G02*
X7842790Y-4378625I87500J0D01*
G01*
X7667790Y-6196125D02*
X7842790Y-6371125D01*
X7842790Y-6196125D02*
X7667790Y-6371125D01*
X7842790Y-6283625D02*
G75*
G02*
X7667790Y-6283625I-87500J0D01*
G01*
X7667790Y-6283625D02*
G75*
G02*
X7842790Y-6283625I87500J0D01*
G01*
X7667790Y-8101125D02*
X7842790Y-8276125D01*
X7842790Y-8101125D02*
X7667790Y-8276125D01*
X7842790Y-8188625D02*
G75*
G02*
X7667790Y-8188625I-87500J0D01*
G01*
X7667790Y-8188625D02*
G75*
G02*
X7842790Y-8188625I87500J0D01*
G01*
X7667790Y-10006125D02*
X7842790Y-10181125D01*
X7842790Y-10006125D02*
X7667790Y-10181125D01*
X7842790Y-10093625D02*
G75*
G02*
X7667790Y-10093625I-87500J0D01*
G01*
X7667790Y-10093625D02*
G75*
G02*
X7842790Y-10093625I87500J0D01*
G01*
X8683790Y-4291125D02*
X8858790Y-4466125D01*
X8858790Y-4291125D02*
X8683790Y-4466125D01*
X8858790Y-4378625D02*
G75*
G02*
X8683790Y-4378625I-87500J0D01*
G01*
X8683790Y-4378625D02*
G75*
G02*
X8858790Y-4378625I87500J0D01*
G01*
X8683790Y-6196125D02*
X8858790Y-6371125D01*
X8858790Y-6196125D02*
X8683790Y-6371125D01*
X8858790Y-6283625D02*
G75*
G02*
X8683790Y-6283625I-87500J0D01*
G01*
X8683790Y-6283625D02*
G75*
G02*
X8858790Y-6283625I87500J0D01*
G01*
X8683790Y-8101125D02*
X8858790Y-8276125D01*
X8858790Y-8101125D02*
X8683790Y-8276125D01*
X8858790Y-8188625D02*
G75*
G02*
X8683790Y-8188625I-87500J0D01*
G01*
X8683790Y-8188625D02*
G75*
G02*
X8858790Y-8188625I87500J0D01*
G01*
X8683790Y-10006125D02*
X8858790Y-10181125D01*
X8858790Y-10006125D02*
X8683790Y-10181125D01*
X8858790Y-10093625D02*
G75*
G02*
X8683790Y-10093625I-87500J0D01*
G01*
X8683790Y-10093625D02*
G75*
G02*
X8858790Y-10093625I87500J0D01*
G01*
X9572790Y-3814875D02*
X9747790Y-3989875D01*
X9747790Y-3814875D02*
X9572790Y-3989875D01*
X9747790Y-3902375D02*
G75*
G02*
X9572790Y-3902375I-87500J0D01*
G01*
X9572790Y-3902375D02*
G75*
G02*
X9747790Y-3902375I87500J0D01*
G01*
X9572790Y-5719875D02*
X9747790Y-5894875D01*
X9747790Y-5719875D02*
X9572790Y-5894875D01*
X9747790Y-5807375D02*
G75*
G02*
X9572790Y-5807375I-87500J0D01*
G01*
X9572790Y-5807375D02*
G75*
G02*
X9747790Y-5807375I87500J0D01*
G01*
X9572790Y-7624875D02*
X9747790Y-7799875D01*
X9747790Y-7624875D02*
X9572790Y-7799875D01*
X9747790Y-7712375D02*
G75*
G02*
X9572790Y-7712375I-87500J0D01*
G01*
X9572790Y-7712375D02*
G75*
G02*
X9747790Y-7712375I87500J0D01*
G01*
X9572790Y-9529875D02*
X9747790Y-9704875D01*
X9747790Y-9529875D02*
X9572790Y-9704875D01*
X9747790Y-9617375D02*
G75*
G02*
X9572790Y-9617375I-87500J0D01*
G01*
X9572790Y-9617375D02*
G75*
G02*
X9747790Y-9617375I87500J0D01*
G01*
X10588790Y-3814875D02*
X10763790Y-3989875D01*
X10763790Y-3814875D02*
X10588790Y-3989875D01*
X10763790Y-3902375D02*
G75*
G02*
X10588790Y-3902375I-87500J0D01*
G01*
X10588790Y-3902375D02*
G75*
G02*
X10763790Y-3902375I87500J0D01*
G01*
X10588790Y-5719875D02*
X10763790Y-5894875D01*
X10763790Y-5719875D02*
X10588790Y-5894875D01*
X10763790Y-5807375D02*
G75*
G02*
X10588790Y-5807375I-87500J0D01*
G01*
X10588790Y-5807375D02*
G75*
G02*
X10763790Y-5807375I87500J0D01*
G01*
X10588790Y-7624875D02*
X10763790Y-7799875D01*
X10763790Y-7624875D02*
X10588790Y-7799875D01*
X10763790Y-7712375D02*
G75*
G02*
X10588790Y-7712375I-87500J0D01*
G01*
X10588790Y-7712375D02*
G75*
G02*
X10763790Y-7712375I87500J0D01*
G01*
X10588790Y-9529875D02*
X10763790Y-9704875D01*
X10763790Y-9529875D02*
X10588790Y-9704875D01*
X10763790Y-9617375D02*
G75*
G02*
X10588790Y-9617375I-87500J0D01*
G01*
X10588790Y-9617375D02*
G75*
G02*
X10763790Y-9617375I87500J0D01*
G01*
X11477790Y-4291125D02*
X11652790Y-4466125D01*
X11652790Y-4291125D02*
X11477790Y-4466125D01*
X11652790Y-4378625D02*
G75*
G02*
X11477790Y-4378625I-87500J0D01*
G01*
X11477790Y-4378625D02*
G75*
G02*
X11652790Y-4378625I87500J0D01*
G01*
X11477790Y-6196125D02*
X11652790Y-6371125D01*
X11652790Y-6196125D02*
X11477790Y-6371125D01*
X11652790Y-6283625D02*
G75*
G02*
X11477790Y-6283625I-87500J0D01*
G01*
X11477790Y-6283625D02*
G75*
G02*
X11652790Y-6283625I87500J0D01*
G01*
X11477790Y-8101125D02*
X11652790Y-8276125D01*
X11652790Y-8101125D02*
X11477790Y-8276125D01*
X11652790Y-8188625D02*
G75*
G02*
X11477790Y-8188625I-87500J0D01*
G01*
X11477790Y-8188625D02*
G75*
G02*
X11652790Y-8188625I87500J0D01*
G01*
X11477790Y-10006125D02*
X11652790Y-10181125D01*
X11652790Y-10006125D02*
X11477790Y-10181125D01*
X11652790Y-10093625D02*
G75*
G02*
X11477790Y-10093625I-87500J0D01*
G01*
X11477790Y-10093625D02*
G75*
G02*
X11652790Y-10093625I87500J0D01*
G01*
X12493790Y-4291125D02*
X12668790Y-4466125D01*
X12668790Y-4291125D02*
X12493790Y-4466125D01*
X12668790Y-4378625D02*
G75*
G02*
X12493790Y-4378625I-87500J0D01*
G01*
X12493790Y-4378625D02*
G75*
G02*
X12668790Y-4378625I87500J0D01*
G01*
X12493790Y-6196125D02*
X12668790Y-6371125D01*
X12668790Y-6196125D02*
X12493790Y-6371125D01*
X12668790Y-6283625D02*
G75*
G02*
X12493790Y-6283625I-87500J0D01*
G01*
X12493790Y-6283625D02*
G75*
G02*
X12668790Y-6283625I87500J0D01*
G01*
X12493790Y-8101125D02*
X12668790Y-8276125D01*
X12668790Y-8101125D02*
X12493790Y-8276125D01*
X12668790Y-8188625D02*
G75*
G02*
X12493790Y-8188625I-87500J0D01*
G01*
X12493790Y-8188625D02*
G75*
G02*
X12668790Y-8188625I87500J0D01*
G01*
X12493790Y-10006125D02*
X12668790Y-10181125D01*
X12668790Y-10006125D02*
X12493790Y-10181125D01*
X12668790Y-10093625D02*
G75*
G02*
X12493790Y-10093625I-87500J0D01*
G01*
X12493790Y-10093625D02*
G75*
G02*
X12668790Y-10093625I87500J0D01*
G01*
X13382790Y-5481750D02*
X13557790Y-5656750D01*
X13557790Y-5481750D02*
X13382790Y-5656750D01*
X13557790Y-5569250D02*
G75*
G02*
X13382790Y-5569250I-87500J0D01*
G01*
X13382790Y-5569250D02*
G75*
G02*
X13557790Y-5569250I87500J0D01*
G01*
X13382790Y-7386750D02*
X13557790Y-7561750D01*
X13557790Y-7386750D02*
X13382790Y-7561750D01*
X13557790Y-7474250D02*
G75*
G02*
X13382790Y-7474250I-87500J0D01*
G01*
X13382790Y-7474250D02*
G75*
G02*
X13557790Y-7474250I87500J0D01*
G01*
X13382790Y-9291750D02*
X13557790Y-9466750D01*
X13557790Y-9291750D02*
X13382790Y-9466750D01*
X13557790Y-9379250D02*
G75*
G02*
X13382790Y-9379250I-87500J0D01*
G01*
X13382790Y-9379250D02*
G75*
G02*
X13557790Y-9379250I87500J0D01*
G01*
X13382790Y-11196750D02*
X13557790Y-11371750D01*
X13557790Y-11196750D02*
X13382790Y-11371750D01*
X13557790Y-11284250D02*
G75*
G02*
X13382790Y-11284250I-87500J0D01*
G01*
X13382790Y-11284250D02*
G75*
G02*
X13557790Y-11284250I87500J0D01*
G01*
X14398790Y-5481750D02*
X14573790Y-5656750D01*
X14573790Y-5481750D02*
X14398790Y-5656750D01*
X14573790Y-5569250D02*
G75*
G02*
X14398790Y-5569250I-87500J0D01*
G01*
X14398790Y-5569250D02*
G75*
G02*
X14573790Y-5569250I87500J0D01*
G01*
X14398790Y-7386750D02*
X14573790Y-7561750D01*
X14573790Y-7386750D02*
X14398790Y-7561750D01*
X14573790Y-7474250D02*
G75*
G02*
X14398790Y-7474250I-87500J0D01*
G01*
X14398790Y-7474250D02*
G75*
G02*
X14573790Y-7474250I87500J0D01*
G01*
X14398790Y-9291750D02*
X14573790Y-9466750D01*
X14573790Y-9291750D02*
X14398790Y-9466750D01*
X14573790Y-9379250D02*
G75*
G02*
X14398790Y-9379250I-87500J0D01*
G01*
X14398790Y-9379250D02*
G75*
G02*
X14573790Y-9379250I87500J0D01*
G01*
X14398790Y-11196750D02*
X14573790Y-11371750D01*
X14573790Y-11196750D02*
X14398790Y-11371750D01*
X14573790Y-11284250D02*
G75*
G02*
X14398790Y-11284250I-87500J0D01*
G01*
X14398790Y-11284250D02*
G75*
G02*
X14573790Y-11284250I87500J0D01*
G01*
X15841350Y-5491380D02*
X16016350Y-5666380D01*
X16016350Y-5491380D02*
X15841350Y-5666380D01*
X16016350Y-5578880D02*
G75*
G02*
X15841350Y-5578880I-87500J0D01*
G01*
X15841350Y-5578880D02*
G75*
G02*
X16016350Y-5578880I87500J0D01*
G01*
X15841350Y-7396380D02*
X16016350Y-7571380D01*
X16016350Y-7396380D02*
X15841350Y-7571380D01*
X16016350Y-7483880D02*
G75*
G02*
X15841350Y-7483880I-87500J0D01*
G01*
X15841350Y-7483880D02*
G75*
G02*
X16016350Y-7483880I87500J0D01*
G01*
X15841350Y-9301380D02*
X16016350Y-9476380D01*
X16016350Y-9301380D02*
X15841350Y-9476380D01*
X16016350Y-9388880D02*
G75*
G02*
X15841350Y-9388880I-87500J0D01*
G01*
X15841350Y-9388880D02*
G75*
G02*
X16016350Y-9388880I87500J0D01*
G01*
X15841350Y-11206380D02*
X16016350Y-11381380D01*
X16016350Y-11206380D02*
X15841350Y-11381380D01*
X16016350Y-11293880D02*
G75*
G02*
X15841350Y-11293880I-87500J0D01*
G01*
X15841350Y-11293880D02*
G75*
G02*
X16016350Y-11293880I87500J0D01*
G01*
X16857350Y-5491380D02*
X17032350Y-5666380D01*
X17032350Y-5491380D02*
X16857350Y-5666380D01*
X17032350Y-5578880D02*
G75*
G02*
X16857350Y-5578880I-87500J0D01*
G01*
X16857350Y-5578880D02*
G75*
G02*
X17032350Y-5578880I87500J0D01*
G01*
X16857350Y-7396380D02*
X17032350Y-7571380D01*
X17032350Y-7396380D02*
X16857350Y-7571380D01*
X17032350Y-7483880D02*
G75*
G02*
X16857350Y-7483880I-87500J0D01*
G01*
X16857350Y-7483880D02*
G75*
G02*
X17032350Y-7483880I87500J0D01*
G01*
X16857350Y-9301380D02*
X17032350Y-9476380D01*
X17032350Y-9301380D02*
X16857350Y-9476380D01*
X17032350Y-9388880D02*
G75*
G02*
X16857350Y-9388880I-87500J0D01*
G01*
X16857350Y-9388880D02*
G75*
G02*
X17032350Y-9388880I87500J0D01*
G01*
X16857350Y-11206380D02*
X17032350Y-11381380D01*
X17032350Y-11206380D02*
X16857350Y-11381380D01*
X17032350Y-11293880D02*
G75*
G02*
X16857350Y-11293880I-87500J0D01*
G01*
X16857350Y-11293880D02*
G75*
G02*
X17032350Y-11293880I87500J0D01*
G01*
X17746350Y-4300750D02*
X17921350Y-4475750D01*
X17921350Y-4300750D02*
X17746350Y-4475750D01*
X17921350Y-4388250D02*
G75*
G02*
X17746350Y-4388250I-87500J0D01*
G01*
X17746350Y-4388250D02*
G75*
G02*
X17921350Y-4388250I87500J0D01*
G01*
X17746350Y-6205750D02*
X17921350Y-6380750D01*
X17921350Y-6205750D02*
X17746350Y-6380750D01*
X17921350Y-6293250D02*
G75*
G02*
X17746350Y-6293250I-87500J0D01*
G01*
X17746350Y-6293250D02*
G75*
G02*
X17921350Y-6293250I87500J0D01*
G01*
X17746350Y-8110750D02*
X17921350Y-8285750D01*
X17921350Y-8110750D02*
X17746350Y-8285750D01*
X17921350Y-8198250D02*
G75*
G02*
X17746350Y-8198250I-87500J0D01*
G01*
X17746350Y-8198250D02*
G75*
G02*
X17921350Y-8198250I87500J0D01*
G01*
X17746350Y-10015750D02*
X17921350Y-10190750D01*
X17921350Y-10015750D02*
X17746350Y-10190750D01*
X17921350Y-10103250D02*
G75*
G02*
X17746350Y-10103250I-87500J0D01*
G01*
X17746350Y-10103250D02*
G75*
G02*
X17921350Y-10103250I87500J0D01*
G01*
X18762350Y-4300750D02*
X18937350Y-4475750D01*
X18937350Y-4300750D02*
X18762350Y-4475750D01*
X18937350Y-4388250D02*
G75*
G02*
X18762350Y-4388250I-87500J0D01*
G01*
X18762350Y-4388250D02*
G75*
G02*
X18937350Y-4388250I87500J0D01*
G01*
X18762350Y-6205750D02*
X18937350Y-6380750D01*
X18937350Y-6205750D02*
X18762350Y-6380750D01*
X18937350Y-6293250D02*
G75*
G02*
X18762350Y-6293250I-87500J0D01*
G01*
X18762350Y-6293250D02*
G75*
G02*
X18937350Y-6293250I87500J0D01*
G01*
X18762350Y-8110750D02*
X18937350Y-8285750D01*
X18937350Y-8110750D02*
X18762350Y-8285750D01*
X18937350Y-8198250D02*
G75*
G02*
X18762350Y-8198250I-87500J0D01*
G01*
X18762350Y-8198250D02*
G75*
G02*
X18937350Y-8198250I87500J0D01*
G01*
X18762350Y-10015750D02*
X18937350Y-10190750D01*
X18937350Y-10015750D02*
X18762350Y-10190750D01*
X18937350Y-10103250D02*
G75*
G02*
X18762350Y-10103250I-87500J0D01*
G01*
X18762350Y-10103250D02*
G75*
G02*
X18937350Y-10103250I87500J0D01*
G01*
X19651350Y-3824500D02*
X19826350Y-3999500D01*
X19826350Y-3824500D02*
X19651350Y-3999500D01*
X19826350Y-3912000D02*
G75*
G02*
X19651350Y-3912000I-87500J0D01*
G01*
X19651350Y-3912000D02*
G75*
G02*
X19826350Y-3912000I87500J0D01*
G01*
X19651350Y-5729500D02*
X19826350Y-5904500D01*
X19826350Y-5729500D02*
X19651350Y-5904500D01*
X19826350Y-5817000D02*
G75*
G02*
X19651350Y-5817000I-87500J0D01*
G01*
X19651350Y-5817000D02*
G75*
G02*
X19826350Y-5817000I87500J0D01*
G01*
X19651350Y-7634500D02*
X19826350Y-7809500D01*
X19826350Y-7634500D02*
X19651350Y-7809500D01*
X19826350Y-7722000D02*
G75*
G02*
X19651350Y-7722000I-87500J0D01*
G01*
X19651350Y-7722000D02*
G75*
G02*
X19826350Y-7722000I87500J0D01*
G01*
X19651350Y-9539500D02*
X19826350Y-9714500D01*
X19826350Y-9539500D02*
X19651350Y-9714500D01*
X19826350Y-9627000D02*
G75*
G02*
X19651350Y-9627000I-87500J0D01*
G01*
X19651350Y-9627000D02*
G75*
G02*
X19826350Y-9627000I87500J0D01*
G01*
X20667350Y-3824500D02*
X20842350Y-3999500D01*
X20842350Y-3824500D02*
X20667350Y-3999500D01*
X20842350Y-3912000D02*
G75*
G02*
X20667350Y-3912000I-87500J0D01*
G01*
X20667350Y-3912000D02*
G75*
G02*
X20842350Y-3912000I87500J0D01*
G01*
X20667350Y-5729500D02*
X20842350Y-5904500D01*
X20842350Y-5729500D02*
X20667350Y-5904500D01*
X20842350Y-5817000D02*
G75*
G02*
X20667350Y-5817000I-87500J0D01*
G01*
X20667350Y-5817000D02*
G75*
G02*
X20842350Y-5817000I87500J0D01*
G01*
X20667350Y-7634500D02*
X20842350Y-7809500D01*
X20842350Y-7634500D02*
X20667350Y-7809500D01*
X20842350Y-7722000D02*
G75*
G02*
X20667350Y-7722000I-87500J0D01*
G01*
X20667350Y-7722000D02*
G75*
G02*
X20842350Y-7722000I87500J0D01*
G01*
X20667350Y-9539500D02*
X20842350Y-9714500D01*
X20842350Y-9539500D02*
X20667350Y-9714500D01*
X20842350Y-9627000D02*
G75*
G02*
X20667350Y-9627000I-87500J0D01*
G01*
X20667350Y-9627000D02*
G75*
G02*
X20842350Y-9627000I87500J0D01*
G01*
X21556350Y-4300750D02*
X21731350Y-4475750D01*
X21731350Y-4300750D02*
X21556350Y-4475750D01*
X21731350Y-4388250D02*
G75*
G02*
X21556350Y-4388250I-87500J0D01*
G01*
X21556350Y-4388250D02*
G75*
G02*
X21731350Y-4388250I87500J0D01*
G01*
X21556350Y-6205750D02*
X21731350Y-6380750D01*
X21731350Y-6205750D02*
X21556350Y-6380750D01*
X21731350Y-6293250D02*
G75*
G02*
X21556350Y-6293250I-87500J0D01*
G01*
X21556350Y-6293250D02*
G75*
G02*
X21731350Y-6293250I87500J0D01*
G01*
X21556350Y-8110750D02*
X21731350Y-8285750D01*
X21731350Y-8110750D02*
X21556350Y-8285750D01*
X21731350Y-8198250D02*
G75*
G02*
X21556350Y-8198250I-87500J0D01*
G01*
X21556350Y-8198250D02*
G75*
G02*
X21731350Y-8198250I87500J0D01*
G01*
X21556350Y-10015750D02*
X21731350Y-10190750D01*
X21731350Y-10015750D02*
X21556350Y-10190750D01*
X21731350Y-10103250D02*
G75*
G02*
X21556350Y-10103250I-87500J0D01*
G01*
X21556350Y-10103250D02*
G75*
G02*
X21731350Y-10103250I87500J0D01*
G01*
X22572350Y-4300750D02*
X22747350Y-4475750D01*
X22747350Y-4300750D02*
X22572350Y-4475750D01*
X22747350Y-4388250D02*
G75*
G02*
X22572350Y-4388250I-87500J0D01*
G01*
X22572350Y-4388250D02*
G75*
G02*
X22747350Y-4388250I87500J0D01*
G01*
X22572350Y-6205750D02*
X22747350Y-6380750D01*
X22747350Y-6205750D02*
X22572350Y-6380750D01*
X22747350Y-6293250D02*
G75*
G02*
X22572350Y-6293250I-87500J0D01*
G01*
X22572350Y-6293250D02*
G75*
G02*
X22747350Y-6293250I87500J0D01*
G01*
X22572350Y-8110750D02*
X22747350Y-8285750D01*
X22747350Y-8110750D02*
X22572350Y-8285750D01*
X22747350Y-8198250D02*
G75*
G02*
X22572350Y-8198250I-87500J0D01*
G01*
X22572350Y-8198250D02*
G75*
G02*
X22747350Y-8198250I87500J0D01*
G01*
X22572350Y-10015750D02*
X22747350Y-10190750D01*
X22747350Y-10015750D02*
X22572350Y-10190750D01*
X22747350Y-10103250D02*
G75*
G02*
X22572350Y-10103250I-87500J0D01*
G01*
X22572350Y-10103250D02*
G75*
G02*
X22747350Y-10103250I87500J0D01*
G01*
X23461350Y-4538880D02*
X23636350Y-4713880D01*
X23636350Y-4538880D02*
X23461350Y-4713880D01*
X23636350Y-4626380D02*
G75*
G02*
X23461350Y-4626380I-87500J0D01*
G01*
X23461350Y-4626380D02*
G75*
G02*
X23636350Y-4626380I87500J0D01*
G01*
X23461350Y-6443880D02*
X23636350Y-6618880D01*
X23636350Y-6443880D02*
X23461350Y-6618880D01*
X23636350Y-6531380D02*
G75*
G02*
X23461350Y-6531380I-87500J0D01*
G01*
X23461350Y-6531380D02*
G75*
G02*
X23636350Y-6531380I87500J0D01*
G01*
X23461350Y-8348880D02*
X23636350Y-8523880D01*
X23636350Y-8348880D02*
X23461350Y-8523880D01*
X23636350Y-8436380D02*
G75*
G02*
X23461350Y-8436380I-87500J0D01*
G01*
X23461350Y-8436380D02*
G75*
G02*
X23636350Y-8436380I87500J0D01*
G01*
X23461350Y-10253880D02*
X23636350Y-10428880D01*
X23636350Y-10253880D02*
X23461350Y-10428880D01*
X23636350Y-10341380D02*
G75*
G02*
X23461350Y-10341380I-87500J0D01*
G01*
X23461350Y-10341380D02*
G75*
G02*
X23636350Y-10341380I87500J0D01*
G01*
X24477350Y-4538880D02*
X24652350Y-4713880D01*
X24652350Y-4538880D02*
X24477350Y-4713880D01*
X24652350Y-4626380D02*
G75*
G02*
X24477350Y-4626380I-87500J0D01*
G01*
X24477350Y-4626380D02*
G75*
G02*
X24652350Y-4626380I87500J0D01*
G01*
X24477350Y-6443880D02*
X24652350Y-6618880D01*
X24652350Y-6443880D02*
X24477350Y-6618880D01*
X24652350Y-6531380D02*
G75*
G02*
X24477350Y-6531380I-87500J0D01*
G01*
X24477350Y-6531380D02*
G75*
G02*
X24652350Y-6531380I87500J0D01*
G01*
X24477350Y-8348880D02*
X24652350Y-8523880D01*
X24652350Y-8348880D02*
X24477350Y-8523880D01*
X24652350Y-8436380D02*
G75*
G02*
X24477350Y-8436380I-87500J0D01*
G01*
X24477350Y-8436380D02*
G75*
G02*
X24652350Y-8436380I87500J0D01*
G01*
X24477350Y-10253880D02*
X24652350Y-10428880D01*
X24652350Y-10253880D02*
X24477350Y-10428880D01*
X24652350Y-10341380D02*
G75*
G02*
X24477350Y-10341380I-87500J0D01*
G01*
X24477350Y-10341380D02*
G75*
G02*
X24652350Y-10341380I87500J0D01*
G01*
D16*
X6158900Y-4417360D02*
X6557680Y-4816140D01*
X6557680Y-4417360D02*
X6158900Y-4816140D01*
X6358290Y-4417360D02*
X6358290Y-4816140D01*
X6158900Y-4616750D02*
X6557680Y-4616750D01*
X6158900Y-6322360D02*
X6557680Y-6721140D01*
X6557680Y-6322360D02*
X6158900Y-6721140D01*
X6358290Y-6322360D02*
X6358290Y-6721140D01*
X6158900Y-6521750D02*
X6557680Y-6521750D01*
X6158900Y-8227360D02*
X6557680Y-8626140D01*
X6557680Y-8227360D02*
X6158900Y-8626140D01*
X6358290Y-8227360D02*
X6358290Y-8626140D01*
X6158900Y-8426750D02*
X6557680Y-8426750D01*
X6158900Y-10132360D02*
X6557680Y-10531140D01*
X6557680Y-10132360D02*
X6158900Y-10531140D01*
X6358290Y-10132360D02*
X6358290Y-10531140D01*
X6158900Y-10331750D02*
X6557680Y-10331750D01*
X8063900Y-4179235D02*
X8462680Y-4578015D01*
X8462680Y-4179235D02*
X8063900Y-4578015D01*
X8263290Y-4179235D02*
X8263290Y-4578015D01*
X8063900Y-4378625D02*
X8462680Y-4378625D01*
X8063900Y-6084235D02*
X8462680Y-6483015D01*
X8462680Y-6084235D02*
X8063900Y-6483015D01*
X8263290Y-6084235D02*
X8263290Y-6483015D01*
X8063900Y-6283625D02*
X8462680Y-6283625D01*
X8063900Y-7989235D02*
X8462680Y-8388015D01*
X8462680Y-7989235D02*
X8063900Y-8388015D01*
X8263290Y-7989235D02*
X8263290Y-8388015D01*
X8063900Y-8188625D02*
X8462680Y-8188625D01*
X8063900Y-9894235D02*
X8462680Y-10293015D01*
X8462680Y-9894235D02*
X8063900Y-10293015D01*
X8263290Y-9894235D02*
X8263290Y-10293015D01*
X8063900Y-10093625D02*
X8462680Y-10093625D01*
X9968900Y-3702985D02*
X10367680Y-4101765D01*
X10367680Y-3702985D02*
X9968900Y-4101765D01*
X10168290Y-3702985D02*
X10168290Y-4101765D01*
X9968900Y-3902375D02*
X10367680Y-3902375D01*
X9968900Y-5607985D02*
X10367680Y-6006765D01*
X10367680Y-5607985D02*
X9968900Y-6006765D01*
X10168290Y-5607985D02*
X10168290Y-6006765D01*
X9968900Y-5807375D02*
X10367680Y-5807375D01*
X9968900Y-7512985D02*
X10367680Y-7911765D01*
X10367680Y-7512985D02*
X9968900Y-7911765D01*
X10168290Y-7512985D02*
X10168290Y-7911765D01*
X9968900Y-7712375D02*
X10367680Y-7712375D01*
X9968900Y-9417985D02*
X10367680Y-9816765D01*
X10367680Y-9417985D02*
X9968900Y-9816765D01*
X10168290Y-9417985D02*
X10168290Y-9816765D01*
X9968900Y-9617375D02*
X10367680Y-9617375D01*
X11873900Y-4179235D02*
X12272680Y-4578015D01*
X12272680Y-4179235D02*
X11873900Y-4578015D01*
X12073290Y-4179235D02*
X12073290Y-4578015D01*
X11873900Y-4378625D02*
X12272680Y-4378625D01*
X11873900Y-6084235D02*
X12272680Y-6483015D01*
X12272680Y-6084235D02*
X11873900Y-6483015D01*
X12073290Y-6084235D02*
X12073290Y-6483015D01*
X11873900Y-6283625D02*
X12272680Y-6283625D01*
X11873900Y-7989235D02*
X12272680Y-8388015D01*
X12272680Y-7989235D02*
X11873900Y-8388015D01*
X12073290Y-7989235D02*
X12073290Y-8388015D01*
X11873900Y-8188625D02*
X12272680Y-8188625D01*
X11873900Y-9894235D02*
X12272680Y-10293015D01*
X12272680Y-9894235D02*
X11873900Y-10293015D01*
X12073290Y-9894235D02*
X12073290Y-10293015D01*
X11873900Y-10093625D02*
X12272680Y-10093625D01*
X13778900Y-5369860D02*
X14177680Y-5768640D01*
X14177680Y-5369860D02*
X13778900Y-5768640D01*
X13978290Y-5369860D02*
X13978290Y-5768640D01*
X13778900Y-5569250D02*
X14177680Y-5569250D01*
X13778900Y-7274860D02*
X14177680Y-7673640D01*
X14177680Y-7274860D02*
X13778900Y-7673640D01*
X13978290Y-7274860D02*
X13978290Y-7673640D01*
X13778900Y-7474250D02*
X14177680Y-7474250D01*
X13778900Y-9179860D02*
X14177680Y-9578640D01*
X14177680Y-9179860D02*
X13778900Y-9578640D01*
X13978290Y-9179860D02*
X13978290Y-9578640D01*
X13778900Y-9379250D02*
X14177680Y-9379250D01*
X13778900Y-11084860D02*
X14177680Y-11483640D01*
X14177680Y-11084860D02*
X13778900Y-11483640D01*
X13978290Y-11084860D02*
X13978290Y-11483640D01*
X13778900Y-11284250D02*
X14177680Y-11284250D01*
X16237460Y-5379490D02*
X16636240Y-5778270D01*
X16636240Y-5379490D02*
X16237460Y-5778270D01*
X16436850Y-5379490D02*
X16436850Y-5778270D01*
X16237460Y-5578880D02*
X16636240Y-5578880D01*
X16237460Y-7284490D02*
X16636240Y-7683270D01*
X16636240Y-7284490D02*
X16237460Y-7683270D01*
X16436850Y-7284490D02*
X16436850Y-7683270D01*
X16237460Y-7483880D02*
X16636240Y-7483880D01*
X16237460Y-9189490D02*
X16636240Y-9588270D01*
X16636240Y-9189490D02*
X16237460Y-9588270D01*
X16436850Y-9189490D02*
X16436850Y-9588270D01*
X16237460Y-9388880D02*
X16636240Y-9388880D01*
X16237460Y-11094490D02*
X16636240Y-11493270D01*
X16636240Y-11094490D02*
X16237460Y-11493270D01*
X16436850Y-11094490D02*
X16436850Y-11493270D01*
X16237460Y-11293880D02*
X16636240Y-11293880D01*
X18142460Y-4188860D02*
X18541240Y-4587640D01*
X18541240Y-4188860D02*
X18142460Y-4587640D01*
X18341850Y-4188860D02*
X18341850Y-4587640D01*
X18142460Y-4388250D02*
X18541240Y-4388250D01*
X18142460Y-6093860D02*
X18541240Y-6492640D01*
X18541240Y-6093860D02*
X18142460Y-6492640D01*
X18341850Y-6093860D02*
X18341850Y-6492640D01*
X18142460Y-6293250D02*
X18541240Y-6293250D01*
X18142460Y-7998860D02*
X18541240Y-8397640D01*
X18541240Y-7998860D02*
X18142460Y-8397640D01*
X18341850Y-7998860D02*
X18341850Y-8397640D01*
X18142460Y-8198250D02*
X18541240Y-8198250D01*
X18142460Y-9903860D02*
X18541240Y-10302640D01*
X18541240Y-9903860D02*
X18142460Y-10302640D01*
X18341850Y-9903860D02*
X18341850Y-10302640D01*
X18142460Y-10103250D02*
X18541240Y-10103250D01*
X20047460Y-3712610D02*
X20446240Y-4111390D01*
X20446240Y-3712610D02*
X20047460Y-4111390D01*
X20246850Y-3712610D02*
X20246850Y-4111390D01*
X20047460Y-3912000D02*
X20446240Y-3912000D01*
X20047460Y-5617610D02*
X20446240Y-6016390D01*
X20446240Y-5617610D02*
X20047460Y-6016390D01*
X20246850Y-5617610D02*
X20246850Y-6016390D01*
X20047460Y-5817000D02*
X20446240Y-5817000D01*
X20047460Y-7522610D02*
X20446240Y-7921390D01*
X20446240Y-7522610D02*
X20047460Y-7921390D01*
X20246850Y-7522610D02*
X20246850Y-7921390D01*
X20047460Y-7722000D02*
X20446240Y-7722000D01*
X20047460Y-9427610D02*
X20446240Y-9826390D01*
X20446240Y-9427610D02*
X20047460Y-9826390D01*
X20246850Y-9427610D02*
X20246850Y-9826390D01*
X20047460Y-9627000D02*
X20446240Y-9627000D01*
X21952460Y-4188860D02*
X22351240Y-4587640D01*
X22351240Y-4188860D02*
X21952460Y-4587640D01*
X22151850Y-4188860D02*
X22151850Y-4587640D01*
X21952460Y-4388250D02*
X22351240Y-4388250D01*
X21952460Y-6093860D02*
X22351240Y-6492640D01*
X22351240Y-6093860D02*
X21952460Y-6492640D01*
X22151850Y-6093860D02*
X22151850Y-6492640D01*
X21952460Y-6293250D02*
X22351240Y-6293250D01*
X21952460Y-7998860D02*
X22351240Y-8397640D01*
X22351240Y-7998860D02*
X21952460Y-8397640D01*
X22151850Y-7998860D02*
X22151850Y-8397640D01*
X21952460Y-8198250D02*
X22351240Y-8198250D01*
X21952460Y-9903860D02*
X22351240Y-10302640D01*
X22351240Y-9903860D02*
X21952460Y-10302640D01*
X22151850Y-9903860D02*
X22151850Y-10302640D01*
X21952460Y-10103250D02*
X22351240Y-10103250D01*
X23857460Y-4426990D02*
X24256240Y-4825770D01*
X24256240Y-4426990D02*
X23857460Y-4825770D01*
X24056850Y-4426990D02*
X24056850Y-4825770D01*
X23857460Y-4626380D02*
X24256240Y-4626380D01*
X23857460Y-6331990D02*
X24256240Y-6730770D01*
X24256240Y-6331990D02*
X23857460Y-6730770D01*
X24056850Y-6331990D02*
X24056850Y-6730770D01*
X23857460Y-6531380D02*
X24256240Y-6531380D01*
X23857460Y-8236990D02*
X24256240Y-8635770D01*
X24256240Y-8236990D02*
X23857460Y-8635770D01*
X24056850Y-8236990D02*
X24056850Y-8635770D01*
X23857460Y-8436380D02*
X24256240Y-8436380D01*
X23857460Y-10141990D02*
X24256240Y-10540770D01*
X24256240Y-10141990D02*
X23857460Y-10540770D01*
X24056850Y-10141990D02*
X24056850Y-10540770D01*
X23857460Y-10341380D02*
X24256240Y-10341380D01*
D12*
X3104417Y-12902364D02*
X3104417Y-12702364D01*
X3104417Y-12702364D02*
X3152036Y-12702364D01*
X3152036Y-12702364D02*
X3180607Y-12711888D01*
X3180607Y-12711888D02*
X3199655Y-12730935D01*
X3199655Y-12730935D02*
X3209179Y-12749983D01*
X3209179Y-12749983D02*
X3218702Y-12788078D01*
X3218702Y-12788078D02*
X3218702Y-12816649D01*
X3218702Y-12816649D02*
X3209179Y-12854745D01*
X3209179Y-12854745D02*
X3199655Y-12873792D01*
X3199655Y-12873792D02*
X3180607Y-12892840D01*
X3180607Y-12892840D02*
X3152036Y-12902364D01*
X3152036Y-12902364D02*
X3104417Y-12902364D01*
X3304417Y-12902364D02*
X3304417Y-12769030D01*
X3304417Y-12807126D02*
X3313941Y-12788078D01*
X3313941Y-12788078D02*
X3323464Y-12778554D01*
X3323464Y-12778554D02*
X3342512Y-12769030D01*
X3342512Y-12769030D02*
X3361560Y-12769030D01*
X3428226Y-12902364D02*
X3428226Y-12769030D01*
X3428226Y-12702364D02*
X3418702Y-12711888D01*
X3418702Y-12711888D02*
X3428226Y-12721411D01*
X3428226Y-12721411D02*
X3437750Y-12711888D01*
X3437750Y-12711888D02*
X3428226Y-12702364D01*
X3428226Y-12702364D02*
X3428226Y-12721411D01*
X3552036Y-12902364D02*
X3532988Y-12892840D01*
X3532988Y-12892840D02*
X3523464Y-12873792D01*
X3523464Y-12873792D02*
X3523464Y-12702364D01*
X3656798Y-12902364D02*
X3637750Y-12892840D01*
X3637750Y-12892840D02*
X3628226Y-12873792D01*
X3628226Y-12873792D02*
X3628226Y-12702364D01*
X3885369Y-12902364D02*
X3885369Y-12702364D01*
X3885369Y-12702364D02*
X3952036Y-12845221D01*
X3952036Y-12845221D02*
X4018702Y-12702364D01*
X4018702Y-12702364D02*
X4018702Y-12902364D01*
X4199655Y-12902364D02*
X4199655Y-12797602D01*
X4199655Y-12797602D02*
X4190131Y-12778554D01*
X4190131Y-12778554D02*
X4171083Y-12769030D01*
X4171083Y-12769030D02*
X4132988Y-12769030D01*
X4132988Y-12769030D02*
X4113941Y-12778554D01*
X4199655Y-12892840D02*
X4180607Y-12902364D01*
X4180607Y-12902364D02*
X4132988Y-12902364D01*
X4132988Y-12902364D02*
X4113941Y-12892840D01*
X4113941Y-12892840D02*
X4104417Y-12873792D01*
X4104417Y-12873792D02*
X4104417Y-12854745D01*
X4104417Y-12854745D02*
X4113941Y-12835697D01*
X4113941Y-12835697D02*
X4132988Y-12826173D01*
X4132988Y-12826173D02*
X4180607Y-12826173D01*
X4180607Y-12826173D02*
X4199655Y-12816649D01*
X4294893Y-12769030D02*
X4294893Y-12969030D01*
X4294893Y-12778554D02*
X4313941Y-12769030D01*
X4313941Y-12769030D02*
X4352036Y-12769030D01*
X4352036Y-12769030D02*
X4371084Y-12778554D01*
X4371084Y-12778554D02*
X4380607Y-12788078D01*
X4380607Y-12788078D02*
X4390131Y-12807126D01*
X4390131Y-12807126D02*
X4390131Y-12864268D01*
X4390131Y-12864268D02*
X4380607Y-12883316D01*
X4380607Y-12883316D02*
X4371084Y-12892840D01*
X4371084Y-12892840D02*
X4352036Y-12902364D01*
X4352036Y-12902364D02*
X4313941Y-12902364D01*
X4313941Y-12902364D02*
X4294893Y-12892840D01*
X4475845Y-12883316D02*
X4485369Y-12892840D01*
X4485369Y-12892840D02*
X4475845Y-12902364D01*
X4475845Y-12902364D02*
X4466322Y-12892840D01*
X4466322Y-12892840D02*
X4475845Y-12883316D01*
X4475845Y-12883316D02*
X4475845Y-12902364D01*
X4475845Y-12778554D02*
X4485369Y-12788078D01*
X4485369Y-12788078D02*
X4475845Y-12797602D01*
X4475845Y-12797602D02*
X4466322Y-12788078D01*
X4466322Y-12788078D02*
X4475845Y-12778554D01*
X4475845Y-12778554D02*
X4475845Y-12797602D01*
D11*
X2813640Y-13215880D02*
X2843640Y-13245880D01*
X2843640Y-13215880D02*
X2813640Y-13245880D01*
D12*
X3142512Y-13122364D02*
X3161560Y-13122364D01*
X3161560Y-13122364D02*
X3180607Y-13131888D01*
X3180607Y-13131888D02*
X3190131Y-13141411D01*
X3190131Y-13141411D02*
X3199655Y-13160459D01*
X3199655Y-13160459D02*
X3209179Y-13198554D01*
X3209179Y-13198554D02*
X3209179Y-13246173D01*
X3209179Y-13246173D02*
X3199655Y-13284268D01*
X3199655Y-13284268D02*
X3190131Y-13303316D01*
X3190131Y-13303316D02*
X3180607Y-13312840D01*
X3180607Y-13312840D02*
X3161560Y-13322364D01*
X3161560Y-13322364D02*
X3142512Y-13322364D01*
X3142512Y-13322364D02*
X3123464Y-13312840D01*
X3123464Y-13312840D02*
X3113941Y-13303316D01*
X3113941Y-13303316D02*
X3104417Y-13284268D01*
X3104417Y-13284268D02*
X3094893Y-13246173D01*
X3094893Y-13246173D02*
X3094893Y-13198554D01*
X3094893Y-13198554D02*
X3104417Y-13160459D01*
X3104417Y-13160459D02*
X3113941Y-13141411D01*
X3113941Y-13141411D02*
X3123464Y-13131888D01*
X3123464Y-13131888D02*
X3142512Y-13122364D01*
X3294893Y-13303316D02*
X3304417Y-13312840D01*
X3304417Y-13312840D02*
X3294893Y-13322364D01*
X3294893Y-13322364D02*
X3285369Y-13312840D01*
X3285369Y-13312840D02*
X3294893Y-13303316D01*
X3294893Y-13303316D02*
X3294893Y-13322364D01*
X3371083Y-13122364D02*
X3494893Y-13122364D01*
X3494893Y-13122364D02*
X3428226Y-13198554D01*
X3428226Y-13198554D02*
X3456798Y-13198554D01*
X3456798Y-13198554D02*
X3475845Y-13208078D01*
X3475845Y-13208078D02*
X3485369Y-13217602D01*
X3485369Y-13217602D02*
X3494893Y-13236649D01*
X3494893Y-13236649D02*
X3494893Y-13284268D01*
X3494893Y-13284268D02*
X3485369Y-13303316D01*
X3485369Y-13303316D02*
X3475845Y-13312840D01*
X3475845Y-13312840D02*
X3456798Y-13322364D01*
X3456798Y-13322364D02*
X3399655Y-13322364D01*
X3399655Y-13322364D02*
X3380607Y-13312840D01*
X3380607Y-13312840D02*
X3371083Y-13303316D01*
X3618702Y-13122364D02*
X3637750Y-13122364D01*
X3637750Y-13122364D02*
X3656798Y-13131888D01*
X3656798Y-13131888D02*
X3666322Y-13141411D01*
X3666322Y-13141411D02*
X3675845Y-13160459D01*
X3675845Y-13160459D02*
X3685369Y-13198554D01*
X3685369Y-13198554D02*
X3685369Y-13246173D01*
X3685369Y-13246173D02*
X3675845Y-13284268D01*
X3675845Y-13284268D02*
X3666322Y-13303316D01*
X3666322Y-13303316D02*
X3656798Y-13312840D01*
X3656798Y-13312840D02*
X3637750Y-13322364D01*
X3637750Y-13322364D02*
X3618702Y-13322364D01*
X3618702Y-13322364D02*
X3599655Y-13312840D01*
X3599655Y-13312840D02*
X3590131Y-13303316D01*
X3590131Y-13303316D02*
X3580607Y-13284268D01*
X3580607Y-13284268D02*
X3571083Y-13246173D01*
X3571083Y-13246173D02*
X3571083Y-13198554D01*
X3571083Y-13198554D02*
X3580607Y-13160459D01*
X3580607Y-13160459D02*
X3590131Y-13141411D01*
X3590131Y-13141411D02*
X3599655Y-13131888D01*
X3599655Y-13131888D02*
X3618702Y-13122364D01*
X3809179Y-13122364D02*
X3828226Y-13122364D01*
X3828226Y-13122364D02*
X3847274Y-13131888D01*
X3847274Y-13131888D02*
X3856798Y-13141411D01*
X3856798Y-13141411D02*
X3866322Y-13160459D01*
X3866322Y-13160459D02*
X3875845Y-13198554D01*
X3875845Y-13198554D02*
X3875845Y-13246173D01*
X3875845Y-13246173D02*
X3866322Y-13284268D01*
X3866322Y-13284268D02*
X3856798Y-13303316D01*
X3856798Y-13303316D02*
X3847274Y-13312840D01*
X3847274Y-13312840D02*
X3828226Y-13322364D01*
X3828226Y-13322364D02*
X3809179Y-13322364D01*
X3809179Y-13322364D02*
X3790131Y-13312840D01*
X3790131Y-13312840D02*
X3780607Y-13303316D01*
X3780607Y-13303316D02*
X3771083Y-13284268D01*
X3771083Y-13284268D02*
X3761560Y-13246173D01*
X3761560Y-13246173D02*
X3761560Y-13198554D01*
X3761560Y-13198554D02*
X3771083Y-13160459D01*
X3771083Y-13160459D02*
X3780607Y-13141411D01*
X3780607Y-13141411D02*
X3790131Y-13131888D01*
X3790131Y-13131888D02*
X3809179Y-13122364D01*
X3961560Y-13322364D02*
X3961560Y-13189030D01*
X3961560Y-13208078D02*
X3971083Y-13198554D01*
X3971083Y-13198554D02*
X3990131Y-13189030D01*
X3990131Y-13189030D02*
X4018703Y-13189030D01*
X4018703Y-13189030D02*
X4037750Y-13198554D01*
X4037750Y-13198554D02*
X4047274Y-13217602D01*
X4047274Y-13217602D02*
X4047274Y-13322364D01*
X4047274Y-13217602D02*
X4056798Y-13198554D01*
X4056798Y-13198554D02*
X4075845Y-13189030D01*
X4075845Y-13189030D02*
X4104417Y-13189030D01*
X4104417Y-13189030D02*
X4123464Y-13198554D01*
X4123464Y-13198554D02*
X4132988Y-13217602D01*
X4132988Y-13217602D02*
X4132988Y-13322364D01*
X4228226Y-13322364D02*
X4228226Y-13189030D01*
X4228226Y-13208078D02*
X4237750Y-13198554D01*
X4237750Y-13198554D02*
X4256798Y-13189030D01*
X4256798Y-13189030D02*
X4285369Y-13189030D01*
X4285369Y-13189030D02*
X4304417Y-13198554D01*
X4304417Y-13198554D02*
X4313941Y-13217602D01*
X4313941Y-13217602D02*
X4313941Y-13322364D01*
X4313941Y-13217602D02*
X4323465Y-13198554D01*
X4323465Y-13198554D02*
X4342512Y-13189030D01*
X4342512Y-13189030D02*
X4371084Y-13189030D01*
X4371084Y-13189030D02*
X4390131Y-13198554D01*
X4390131Y-13198554D02*
X4399655Y-13217602D01*
X4399655Y-13217602D02*
X4399655Y-13322364D01*
X4790131Y-13112840D02*
X4618703Y-13369983D01*
X5047274Y-13122364D02*
X5066322Y-13122364D01*
X5066322Y-13122364D02*
X5085369Y-13131888D01*
X5085369Y-13131888D02*
X5094893Y-13141411D01*
X5094893Y-13141411D02*
X5104417Y-13160459D01*
X5104417Y-13160459D02*
X5113941Y-13198554D01*
X5113941Y-13198554D02*
X5113941Y-13246173D01*
X5113941Y-13246173D02*
X5104417Y-13284268D01*
X5104417Y-13284268D02*
X5094893Y-13303316D01*
X5094893Y-13303316D02*
X5085369Y-13312840D01*
X5085369Y-13312840D02*
X5066322Y-13322364D01*
X5066322Y-13322364D02*
X5047274Y-13322364D01*
X5047274Y-13322364D02*
X5028227Y-13312840D01*
X5028227Y-13312840D02*
X5018703Y-13303316D01*
X5018703Y-13303316D02*
X5009179Y-13284268D01*
X5009179Y-13284268D02*
X4999655Y-13246173D01*
X4999655Y-13246173D02*
X4999655Y-13198554D01*
X4999655Y-13198554D02*
X5009179Y-13160459D01*
X5009179Y-13160459D02*
X5018703Y-13141411D01*
X5018703Y-13141411D02*
X5028227Y-13131888D01*
X5028227Y-13131888D02*
X5047274Y-13122364D01*
X5199655Y-13303316D02*
X5209179Y-13312840D01*
X5209179Y-13312840D02*
X5199655Y-13322364D01*
X5199655Y-13322364D02*
X5190131Y-13312840D01*
X5190131Y-13312840D02*
X5199655Y-13303316D01*
X5199655Y-13303316D02*
X5199655Y-13322364D01*
X5332988Y-13122364D02*
X5352036Y-13122364D01*
X5352036Y-13122364D02*
X5371084Y-13131888D01*
X5371084Y-13131888D02*
X5380608Y-13141411D01*
X5380608Y-13141411D02*
X5390131Y-13160459D01*
X5390131Y-13160459D02*
X5399655Y-13198554D01*
X5399655Y-13198554D02*
X5399655Y-13246173D01*
X5399655Y-13246173D02*
X5390131Y-13284268D01*
X5390131Y-13284268D02*
X5380608Y-13303316D01*
X5380608Y-13303316D02*
X5371084Y-13312840D01*
X5371084Y-13312840D02*
X5352036Y-13322364D01*
X5352036Y-13322364D02*
X5332988Y-13322364D01*
X5332988Y-13322364D02*
X5313941Y-13312840D01*
X5313941Y-13312840D02*
X5304417Y-13303316D01*
X5304417Y-13303316D02*
X5294893Y-13284268D01*
X5294893Y-13284268D02*
X5285369Y-13246173D01*
X5285369Y-13246173D02*
X5285369Y-13198554D01*
X5285369Y-13198554D02*
X5294893Y-13160459D01*
X5294893Y-13160459D02*
X5304417Y-13141411D01*
X5304417Y-13141411D02*
X5313941Y-13131888D01*
X5313941Y-13131888D02*
X5332988Y-13122364D01*
X5590131Y-13322364D02*
X5475846Y-13322364D01*
X5532988Y-13322364D02*
X5532988Y-13122364D01*
X5532988Y-13122364D02*
X5513941Y-13150935D01*
X5513941Y-13150935D02*
X5494893Y-13169983D01*
X5494893Y-13169983D02*
X5475846Y-13179507D01*
X5780607Y-13322364D02*
X5666322Y-13322364D01*
X5723465Y-13322364D02*
X5723465Y-13122364D01*
X5723465Y-13122364D02*
X5704417Y-13150935D01*
X5704417Y-13150935D02*
X5685369Y-13169983D01*
X5685369Y-13169983D02*
X5666322Y-13179507D01*
X5894893Y-13208078D02*
X5875846Y-13198554D01*
X5875846Y-13198554D02*
X5866322Y-13189030D01*
X5866322Y-13189030D02*
X5856798Y-13169983D01*
X5856798Y-13169983D02*
X5856798Y-13160459D01*
X5856798Y-13160459D02*
X5866322Y-13141411D01*
X5866322Y-13141411D02*
X5875846Y-13131888D01*
X5875846Y-13131888D02*
X5894893Y-13122364D01*
X5894893Y-13122364D02*
X5932988Y-13122364D01*
X5932988Y-13122364D02*
X5952036Y-13131888D01*
X5952036Y-13131888D02*
X5961560Y-13141411D01*
X5961560Y-13141411D02*
X5971084Y-13160459D01*
X5971084Y-13160459D02*
X5971084Y-13169983D01*
X5971084Y-13169983D02*
X5961560Y-13189030D01*
X5961560Y-13189030D02*
X5952036Y-13198554D01*
X5952036Y-13198554D02*
X5932988Y-13208078D01*
X5932988Y-13208078D02*
X5894893Y-13208078D01*
X5894893Y-13208078D02*
X5875846Y-13217602D01*
X5875846Y-13217602D02*
X5866322Y-13227126D01*
X5866322Y-13227126D02*
X5856798Y-13246173D01*
X5856798Y-13246173D02*
X5856798Y-13284268D01*
X5856798Y-13284268D02*
X5866322Y-13303316D01*
X5866322Y-13303316D02*
X5875846Y-13312840D01*
X5875846Y-13312840D02*
X5894893Y-13322364D01*
X5894893Y-13322364D02*
X5932988Y-13322364D01*
X5932988Y-13322364D02*
X5952036Y-13312840D01*
X5952036Y-13312840D02*
X5961560Y-13303316D01*
X5961560Y-13303316D02*
X5971084Y-13284268D01*
X5971084Y-13284268D02*
X5971084Y-13246173D01*
X5971084Y-13246173D02*
X5961560Y-13227126D01*
X5961560Y-13227126D02*
X5952036Y-13217602D01*
X5952036Y-13217602D02*
X5932988Y-13208078D01*
X6047274Y-13122364D02*
X6047274Y-13160459D01*
X6123465Y-13122364D02*
X6123465Y-13160459D01*
X6418703Y-13398554D02*
X6409179Y-13389030D01*
X6409179Y-13389030D02*
X6390131Y-13360459D01*
X6390131Y-13360459D02*
X6380608Y-13341411D01*
X6380608Y-13341411D02*
X6371084Y-13312840D01*
X6371084Y-13312840D02*
X6361560Y-13265221D01*
X6361560Y-13265221D02*
X6361560Y-13227126D01*
X6361560Y-13227126D02*
X6371084Y-13179507D01*
X6371084Y-13179507D02*
X6380608Y-13150935D01*
X6380608Y-13150935D02*
X6390131Y-13131888D01*
X6390131Y-13131888D02*
X6409179Y-13103316D01*
X6409179Y-13103316D02*
X6418703Y-13093792D01*
X6485369Y-13141411D02*
X6494893Y-13131888D01*
X6494893Y-13131888D02*
X6513941Y-13122364D01*
X6513941Y-13122364D02*
X6561560Y-13122364D01*
X6561560Y-13122364D02*
X6580608Y-13131888D01*
X6580608Y-13131888D02*
X6590131Y-13141411D01*
X6590131Y-13141411D02*
X6599655Y-13160459D01*
X6599655Y-13160459D02*
X6599655Y-13179507D01*
X6599655Y-13179507D02*
X6590131Y-13208078D01*
X6590131Y-13208078D02*
X6475846Y-13322364D01*
X6475846Y-13322364D02*
X6599655Y-13322364D01*
X6771084Y-13122364D02*
X6732988Y-13122364D01*
X6732988Y-13122364D02*
X6713941Y-13131888D01*
X6713941Y-13131888D02*
X6704417Y-13141411D01*
X6704417Y-13141411D02*
X6685369Y-13169983D01*
X6685369Y-13169983D02*
X6675846Y-13208078D01*
X6675846Y-13208078D02*
X6675846Y-13284268D01*
X6675846Y-13284268D02*
X6685369Y-13303316D01*
X6685369Y-13303316D02*
X6694893Y-13312840D01*
X6694893Y-13312840D02*
X6713941Y-13322364D01*
X6713941Y-13322364D02*
X6752036Y-13322364D01*
X6752036Y-13322364D02*
X6771084Y-13312840D01*
X6771084Y-13312840D02*
X6780608Y-13303316D01*
X6780608Y-13303316D02*
X6790131Y-13284268D01*
X6790131Y-13284268D02*
X6790131Y-13236649D01*
X6790131Y-13236649D02*
X6780608Y-13217602D01*
X6780608Y-13217602D02*
X6771084Y-13208078D01*
X6771084Y-13208078D02*
X6752036Y-13198554D01*
X6752036Y-13198554D02*
X6713941Y-13198554D01*
X6713941Y-13198554D02*
X6694893Y-13208078D01*
X6694893Y-13208078D02*
X6685369Y-13217602D01*
X6685369Y-13217602D02*
X6675846Y-13236649D01*
X6961560Y-13122364D02*
X6923465Y-13122364D01*
X6923465Y-13122364D02*
X6904417Y-13131888D01*
X6904417Y-13131888D02*
X6894893Y-13141411D01*
X6894893Y-13141411D02*
X6875846Y-13169983D01*
X6875846Y-13169983D02*
X6866322Y-13208078D01*
X6866322Y-13208078D02*
X6866322Y-13284268D01*
X6866322Y-13284268D02*
X6875846Y-13303316D01*
X6875846Y-13303316D02*
X6885369Y-13312840D01*
X6885369Y-13312840D02*
X6904417Y-13322364D01*
X6904417Y-13322364D02*
X6942512Y-13322364D01*
X6942512Y-13322364D02*
X6961560Y-13312840D01*
X6961560Y-13312840D02*
X6971084Y-13303316D01*
X6971084Y-13303316D02*
X6980608Y-13284268D01*
X6980608Y-13284268D02*
X6980608Y-13236649D01*
X6980608Y-13236649D02*
X6971084Y-13217602D01*
X6971084Y-13217602D02*
X6961560Y-13208078D01*
X6961560Y-13208078D02*
X6942512Y-13198554D01*
X6942512Y-13198554D02*
X6904417Y-13198554D01*
X6904417Y-13198554D02*
X6885369Y-13208078D01*
X6885369Y-13208078D02*
X6875846Y-13217602D01*
X6875846Y-13217602D02*
X6866322Y-13236649D01*
X7218703Y-13322364D02*
X7218703Y-13122364D01*
X7304417Y-13322364D02*
X7304417Y-13217602D01*
X7304417Y-13217602D02*
X7294893Y-13198554D01*
X7294893Y-13198554D02*
X7275846Y-13189030D01*
X7275846Y-13189030D02*
X7247274Y-13189030D01*
X7247274Y-13189030D02*
X7228227Y-13198554D01*
X7228227Y-13198554D02*
X7218703Y-13208078D01*
X7428227Y-13322364D02*
X7409179Y-13312840D01*
X7409179Y-13312840D02*
X7399655Y-13303316D01*
X7399655Y-13303316D02*
X7390131Y-13284268D01*
X7390131Y-13284268D02*
X7390131Y-13227126D01*
X7390131Y-13227126D02*
X7399655Y-13208078D01*
X7399655Y-13208078D02*
X7409179Y-13198554D01*
X7409179Y-13198554D02*
X7428227Y-13189030D01*
X7428227Y-13189030D02*
X7456798Y-13189030D01*
X7456798Y-13189030D02*
X7475846Y-13198554D01*
X7475846Y-13198554D02*
X7485370Y-13208078D01*
X7485370Y-13208078D02*
X7494893Y-13227126D01*
X7494893Y-13227126D02*
X7494893Y-13284268D01*
X7494893Y-13284268D02*
X7485370Y-13303316D01*
X7485370Y-13303316D02*
X7475846Y-13312840D01*
X7475846Y-13312840D02*
X7456798Y-13322364D01*
X7456798Y-13322364D02*
X7428227Y-13322364D01*
X7609179Y-13322364D02*
X7590131Y-13312840D01*
X7590131Y-13312840D02*
X7580608Y-13293792D01*
X7580608Y-13293792D02*
X7580608Y-13122364D01*
X7761560Y-13312840D02*
X7742512Y-13322364D01*
X7742512Y-13322364D02*
X7704417Y-13322364D01*
X7704417Y-13322364D02*
X7685370Y-13312840D01*
X7685370Y-13312840D02*
X7675846Y-13293792D01*
X7675846Y-13293792D02*
X7675846Y-13217602D01*
X7675846Y-13217602D02*
X7685370Y-13198554D01*
X7685370Y-13198554D02*
X7704417Y-13189030D01*
X7704417Y-13189030D02*
X7742512Y-13189030D01*
X7742512Y-13189030D02*
X7761560Y-13198554D01*
X7761560Y-13198554D02*
X7771084Y-13217602D01*
X7771084Y-13217602D02*
X7771084Y-13236649D01*
X7771084Y-13236649D02*
X7675846Y-13255697D01*
X7847274Y-13312840D02*
X7866322Y-13322364D01*
X7866322Y-13322364D02*
X7904417Y-13322364D01*
X7904417Y-13322364D02*
X7923465Y-13312840D01*
X7923465Y-13312840D02*
X7932989Y-13293792D01*
X7932989Y-13293792D02*
X7932989Y-13284268D01*
X7932989Y-13284268D02*
X7923465Y-13265221D01*
X7923465Y-13265221D02*
X7904417Y-13255697D01*
X7904417Y-13255697D02*
X7875846Y-13255697D01*
X7875846Y-13255697D02*
X7856798Y-13246173D01*
X7856798Y-13246173D02*
X7847274Y-13227126D01*
X7847274Y-13227126D02*
X7847274Y-13217602D01*
X7847274Y-13217602D02*
X7856798Y-13198554D01*
X7856798Y-13198554D02*
X7875846Y-13189030D01*
X7875846Y-13189030D02*
X7904417Y-13189030D01*
X7904417Y-13189030D02*
X7923465Y-13198554D01*
X7999655Y-13398554D02*
X8009179Y-13389030D01*
X8009179Y-13389030D02*
X8028227Y-13360459D01*
X8028227Y-13360459D02*
X8037751Y-13341411D01*
X8037751Y-13341411D02*
X8047274Y-13312840D01*
X8047274Y-13312840D02*
X8056798Y-13265221D01*
X8056798Y-13265221D02*
X8056798Y-13227126D01*
X8056798Y-13227126D02*
X8047274Y-13179507D01*
X8047274Y-13179507D02*
X8037751Y-13150935D01*
X8037751Y-13150935D02*
X8028227Y-13131888D01*
X8028227Y-13131888D02*
X8009179Y-13103316D01*
X8009179Y-13103316D02*
X7999655Y-13093792D01*
D11*
X2843640Y-13494880D02*
G75*
G02*
X2743640Y-13494880I-50000J0D01*
G01*
X2743640Y-13494880D02*
G75*
G02*
X2843640Y-13494880I50000J0D01*
G01*
D12*
X3209179Y-13586364D02*
X3094893Y-13586364D01*
X3152036Y-13586364D02*
X3152036Y-13386364D01*
X3152036Y-13386364D02*
X3132988Y-13414935D01*
X3132988Y-13414935D02*
X3113941Y-13433983D01*
X3113941Y-13433983D02*
X3094893Y-13443507D01*
X3294893Y-13567316D02*
X3304417Y-13576840D01*
X3304417Y-13576840D02*
X3294893Y-13586364D01*
X3294893Y-13586364D02*
X3285369Y-13576840D01*
X3285369Y-13576840D02*
X3294893Y-13567316D01*
X3294893Y-13567316D02*
X3294893Y-13586364D01*
X3428226Y-13386364D02*
X3447274Y-13386364D01*
X3447274Y-13386364D02*
X3466322Y-13395888D01*
X3466322Y-13395888D02*
X3475845Y-13405411D01*
X3475845Y-13405411D02*
X3485369Y-13424459D01*
X3485369Y-13424459D02*
X3494893Y-13462554D01*
X3494893Y-13462554D02*
X3494893Y-13510173D01*
X3494893Y-13510173D02*
X3485369Y-13548268D01*
X3485369Y-13548268D02*
X3475845Y-13567316D01*
X3475845Y-13567316D02*
X3466322Y-13576840D01*
X3466322Y-13576840D02*
X3447274Y-13586364D01*
X3447274Y-13586364D02*
X3428226Y-13586364D01*
X3428226Y-13586364D02*
X3409179Y-13576840D01*
X3409179Y-13576840D02*
X3399655Y-13567316D01*
X3399655Y-13567316D02*
X3390131Y-13548268D01*
X3390131Y-13548268D02*
X3380607Y-13510173D01*
X3380607Y-13510173D02*
X3380607Y-13462554D01*
X3380607Y-13462554D02*
X3390131Y-13424459D01*
X3390131Y-13424459D02*
X3399655Y-13405411D01*
X3399655Y-13405411D02*
X3409179Y-13395888D01*
X3409179Y-13395888D02*
X3428226Y-13386364D01*
X3618702Y-13386364D02*
X3637750Y-13386364D01*
X3637750Y-13386364D02*
X3656798Y-13395888D01*
X3656798Y-13395888D02*
X3666322Y-13405411D01*
X3666322Y-13405411D02*
X3675845Y-13424459D01*
X3675845Y-13424459D02*
X3685369Y-13462554D01*
X3685369Y-13462554D02*
X3685369Y-13510173D01*
X3685369Y-13510173D02*
X3675845Y-13548268D01*
X3675845Y-13548268D02*
X3666322Y-13567316D01*
X3666322Y-13567316D02*
X3656798Y-13576840D01*
X3656798Y-13576840D02*
X3637750Y-13586364D01*
X3637750Y-13586364D02*
X3618702Y-13586364D01*
X3618702Y-13586364D02*
X3599655Y-13576840D01*
X3599655Y-13576840D02*
X3590131Y-13567316D01*
X3590131Y-13567316D02*
X3580607Y-13548268D01*
X3580607Y-13548268D02*
X3571083Y-13510173D01*
X3571083Y-13510173D02*
X3571083Y-13462554D01*
X3571083Y-13462554D02*
X3580607Y-13424459D01*
X3580607Y-13424459D02*
X3590131Y-13405411D01*
X3590131Y-13405411D02*
X3599655Y-13395888D01*
X3599655Y-13395888D02*
X3618702Y-13386364D01*
X3809179Y-13386364D02*
X3828226Y-13386364D01*
X3828226Y-13386364D02*
X3847274Y-13395888D01*
X3847274Y-13395888D02*
X3856798Y-13405411D01*
X3856798Y-13405411D02*
X3866322Y-13424459D01*
X3866322Y-13424459D02*
X3875845Y-13462554D01*
X3875845Y-13462554D02*
X3875845Y-13510173D01*
X3875845Y-13510173D02*
X3866322Y-13548268D01*
X3866322Y-13548268D02*
X3856798Y-13567316D01*
X3856798Y-13567316D02*
X3847274Y-13576840D01*
X3847274Y-13576840D02*
X3828226Y-13586364D01*
X3828226Y-13586364D02*
X3809179Y-13586364D01*
X3809179Y-13586364D02*
X3790131Y-13576840D01*
X3790131Y-13576840D02*
X3780607Y-13567316D01*
X3780607Y-13567316D02*
X3771083Y-13548268D01*
X3771083Y-13548268D02*
X3761560Y-13510173D01*
X3761560Y-13510173D02*
X3761560Y-13462554D01*
X3761560Y-13462554D02*
X3771083Y-13424459D01*
X3771083Y-13424459D02*
X3780607Y-13405411D01*
X3780607Y-13405411D02*
X3790131Y-13395888D01*
X3790131Y-13395888D02*
X3809179Y-13386364D01*
X3961560Y-13586364D02*
X3961560Y-13453030D01*
X3961560Y-13472078D02*
X3971083Y-13462554D01*
X3971083Y-13462554D02*
X3990131Y-13453030D01*
X3990131Y-13453030D02*
X4018703Y-13453030D01*
X4018703Y-13453030D02*
X4037750Y-13462554D01*
X4037750Y-13462554D02*
X4047274Y-13481602D01*
X4047274Y-13481602D02*
X4047274Y-13586364D01*
X4047274Y-13481602D02*
X4056798Y-13462554D01*
X4056798Y-13462554D02*
X4075845Y-13453030D01*
X4075845Y-13453030D02*
X4104417Y-13453030D01*
X4104417Y-13453030D02*
X4123464Y-13462554D01*
X4123464Y-13462554D02*
X4132988Y-13481602D01*
X4132988Y-13481602D02*
X4132988Y-13586364D01*
X4228226Y-13586364D02*
X4228226Y-13453030D01*
X4228226Y-13472078D02*
X4237750Y-13462554D01*
X4237750Y-13462554D02*
X4256798Y-13453030D01*
X4256798Y-13453030D02*
X4285369Y-13453030D01*
X4285369Y-13453030D02*
X4304417Y-13462554D01*
X4304417Y-13462554D02*
X4313941Y-13481602D01*
X4313941Y-13481602D02*
X4313941Y-13586364D01*
X4313941Y-13481602D02*
X4323465Y-13462554D01*
X4323465Y-13462554D02*
X4342512Y-13453030D01*
X4342512Y-13453030D02*
X4371084Y-13453030D01*
X4371084Y-13453030D02*
X4390131Y-13462554D01*
X4390131Y-13462554D02*
X4399655Y-13481602D01*
X4399655Y-13481602D02*
X4399655Y-13586364D01*
X4790131Y-13376840D02*
X4618703Y-13633983D01*
X5047274Y-13386364D02*
X5066322Y-13386364D01*
X5066322Y-13386364D02*
X5085369Y-13395888D01*
X5085369Y-13395888D02*
X5094893Y-13405411D01*
X5094893Y-13405411D02*
X5104417Y-13424459D01*
X5104417Y-13424459D02*
X5113941Y-13462554D01*
X5113941Y-13462554D02*
X5113941Y-13510173D01*
X5113941Y-13510173D02*
X5104417Y-13548268D01*
X5104417Y-13548268D02*
X5094893Y-13567316D01*
X5094893Y-13567316D02*
X5085369Y-13576840D01*
X5085369Y-13576840D02*
X5066322Y-13586364D01*
X5066322Y-13586364D02*
X5047274Y-13586364D01*
X5047274Y-13586364D02*
X5028227Y-13576840D01*
X5028227Y-13576840D02*
X5018703Y-13567316D01*
X5018703Y-13567316D02*
X5009179Y-13548268D01*
X5009179Y-13548268D02*
X4999655Y-13510173D01*
X4999655Y-13510173D02*
X4999655Y-13462554D01*
X4999655Y-13462554D02*
X5009179Y-13424459D01*
X5009179Y-13424459D02*
X5018703Y-13405411D01*
X5018703Y-13405411D02*
X5028227Y-13395888D01*
X5028227Y-13395888D02*
X5047274Y-13386364D01*
X5199655Y-13567316D02*
X5209179Y-13576840D01*
X5209179Y-13576840D02*
X5199655Y-13586364D01*
X5199655Y-13586364D02*
X5190131Y-13576840D01*
X5190131Y-13576840D02*
X5199655Y-13567316D01*
X5199655Y-13567316D02*
X5199655Y-13586364D01*
X5332988Y-13386364D02*
X5352036Y-13386364D01*
X5352036Y-13386364D02*
X5371084Y-13395888D01*
X5371084Y-13395888D02*
X5380608Y-13405411D01*
X5380608Y-13405411D02*
X5390131Y-13424459D01*
X5390131Y-13424459D02*
X5399655Y-13462554D01*
X5399655Y-13462554D02*
X5399655Y-13510173D01*
X5399655Y-13510173D02*
X5390131Y-13548268D01*
X5390131Y-13548268D02*
X5380608Y-13567316D01*
X5380608Y-13567316D02*
X5371084Y-13576840D01*
X5371084Y-13576840D02*
X5352036Y-13586364D01*
X5352036Y-13586364D02*
X5332988Y-13586364D01*
X5332988Y-13586364D02*
X5313941Y-13576840D01*
X5313941Y-13576840D02*
X5304417Y-13567316D01*
X5304417Y-13567316D02*
X5294893Y-13548268D01*
X5294893Y-13548268D02*
X5285369Y-13510173D01*
X5285369Y-13510173D02*
X5285369Y-13462554D01*
X5285369Y-13462554D02*
X5294893Y-13424459D01*
X5294893Y-13424459D02*
X5304417Y-13405411D01*
X5304417Y-13405411D02*
X5313941Y-13395888D01*
X5313941Y-13395888D02*
X5332988Y-13386364D01*
X5466322Y-13386364D02*
X5590131Y-13386364D01*
X5590131Y-13386364D02*
X5523465Y-13462554D01*
X5523465Y-13462554D02*
X5552036Y-13462554D01*
X5552036Y-13462554D02*
X5571084Y-13472078D01*
X5571084Y-13472078D02*
X5580608Y-13481602D01*
X5580608Y-13481602D02*
X5590131Y-13500649D01*
X5590131Y-13500649D02*
X5590131Y-13548268D01*
X5590131Y-13548268D02*
X5580608Y-13567316D01*
X5580608Y-13567316D02*
X5571084Y-13576840D01*
X5571084Y-13576840D02*
X5552036Y-13586364D01*
X5552036Y-13586364D02*
X5494893Y-13586364D01*
X5494893Y-13586364D02*
X5475846Y-13576840D01*
X5475846Y-13576840D02*
X5466322Y-13567316D01*
X5685369Y-13586364D02*
X5723465Y-13586364D01*
X5723465Y-13586364D02*
X5742512Y-13576840D01*
X5742512Y-13576840D02*
X5752036Y-13567316D01*
X5752036Y-13567316D02*
X5771084Y-13538745D01*
X5771084Y-13538745D02*
X5780607Y-13500649D01*
X5780607Y-13500649D02*
X5780607Y-13424459D01*
X5780607Y-13424459D02*
X5771084Y-13405411D01*
X5771084Y-13405411D02*
X5761560Y-13395888D01*
X5761560Y-13395888D02*
X5742512Y-13386364D01*
X5742512Y-13386364D02*
X5704417Y-13386364D01*
X5704417Y-13386364D02*
X5685369Y-13395888D01*
X5685369Y-13395888D02*
X5675846Y-13405411D01*
X5675846Y-13405411D02*
X5666322Y-13424459D01*
X5666322Y-13424459D02*
X5666322Y-13472078D01*
X5666322Y-13472078D02*
X5675846Y-13491126D01*
X5675846Y-13491126D02*
X5685369Y-13500649D01*
X5685369Y-13500649D02*
X5704417Y-13510173D01*
X5704417Y-13510173D02*
X5742512Y-13510173D01*
X5742512Y-13510173D02*
X5761560Y-13500649D01*
X5761560Y-13500649D02*
X5771084Y-13491126D01*
X5771084Y-13491126D02*
X5780607Y-13472078D01*
X5952036Y-13453030D02*
X5952036Y-13586364D01*
X5904417Y-13376840D02*
X5856798Y-13519697D01*
X5856798Y-13519697D02*
X5980607Y-13519697D01*
X6047274Y-13386364D02*
X6047274Y-13424459D01*
X6123465Y-13386364D02*
X6123465Y-13424459D01*
X6418703Y-13662554D02*
X6409179Y-13653030D01*
X6409179Y-13653030D02*
X6390131Y-13624459D01*
X6390131Y-13624459D02*
X6380608Y-13605411D01*
X6380608Y-13605411D02*
X6371084Y-13576840D01*
X6371084Y-13576840D02*
X6361560Y-13529221D01*
X6361560Y-13529221D02*
X6361560Y-13491126D01*
X6361560Y-13491126D02*
X6371084Y-13443507D01*
X6371084Y-13443507D02*
X6380608Y-13414935D01*
X6380608Y-13414935D02*
X6390131Y-13395888D01*
X6390131Y-13395888D02*
X6409179Y-13367316D01*
X6409179Y-13367316D02*
X6418703Y-13357792D01*
X6523465Y-13472078D02*
X6504417Y-13462554D01*
X6504417Y-13462554D02*
X6494893Y-13453030D01*
X6494893Y-13453030D02*
X6485369Y-13433983D01*
X6485369Y-13433983D02*
X6485369Y-13424459D01*
X6485369Y-13424459D02*
X6494893Y-13405411D01*
X6494893Y-13405411D02*
X6504417Y-13395888D01*
X6504417Y-13395888D02*
X6523465Y-13386364D01*
X6523465Y-13386364D02*
X6561560Y-13386364D01*
X6561560Y-13386364D02*
X6580608Y-13395888D01*
X6580608Y-13395888D02*
X6590131Y-13405411D01*
X6590131Y-13405411D02*
X6599655Y-13424459D01*
X6599655Y-13424459D02*
X6599655Y-13433983D01*
X6599655Y-13433983D02*
X6590131Y-13453030D01*
X6590131Y-13453030D02*
X6580608Y-13462554D01*
X6580608Y-13462554D02*
X6561560Y-13472078D01*
X6561560Y-13472078D02*
X6523465Y-13472078D01*
X6523465Y-13472078D02*
X6504417Y-13481602D01*
X6504417Y-13481602D02*
X6494893Y-13491126D01*
X6494893Y-13491126D02*
X6485369Y-13510173D01*
X6485369Y-13510173D02*
X6485369Y-13548268D01*
X6485369Y-13548268D02*
X6494893Y-13567316D01*
X6494893Y-13567316D02*
X6504417Y-13576840D01*
X6504417Y-13576840D02*
X6523465Y-13586364D01*
X6523465Y-13586364D02*
X6561560Y-13586364D01*
X6561560Y-13586364D02*
X6580608Y-13576840D01*
X6580608Y-13576840D02*
X6590131Y-13567316D01*
X6590131Y-13567316D02*
X6599655Y-13548268D01*
X6599655Y-13548268D02*
X6599655Y-13510173D01*
X6599655Y-13510173D02*
X6590131Y-13491126D01*
X6590131Y-13491126D02*
X6580608Y-13481602D01*
X6580608Y-13481602D02*
X6561560Y-13472078D01*
X6837750Y-13586364D02*
X6837750Y-13386364D01*
X6923465Y-13586364D02*
X6923465Y-13481602D01*
X6923465Y-13481602D02*
X6913941Y-13462554D01*
X6913941Y-13462554D02*
X6894893Y-13453030D01*
X6894893Y-13453030D02*
X6866322Y-13453030D01*
X6866322Y-13453030D02*
X6847274Y-13462554D01*
X6847274Y-13462554D02*
X6837750Y-13472078D01*
X7047274Y-13586364D02*
X7028227Y-13576840D01*
X7028227Y-13576840D02*
X7018703Y-13567316D01*
X7018703Y-13567316D02*
X7009179Y-13548268D01*
X7009179Y-13548268D02*
X7009179Y-13491126D01*
X7009179Y-13491126D02*
X7018703Y-13472078D01*
X7018703Y-13472078D02*
X7028227Y-13462554D01*
X7028227Y-13462554D02*
X7047274Y-13453030D01*
X7047274Y-13453030D02*
X7075846Y-13453030D01*
X7075846Y-13453030D02*
X7094893Y-13462554D01*
X7094893Y-13462554D02*
X7104417Y-13472078D01*
X7104417Y-13472078D02*
X7113941Y-13491126D01*
X7113941Y-13491126D02*
X7113941Y-13548268D01*
X7113941Y-13548268D02*
X7104417Y-13567316D01*
X7104417Y-13567316D02*
X7094893Y-13576840D01*
X7094893Y-13576840D02*
X7075846Y-13586364D01*
X7075846Y-13586364D02*
X7047274Y-13586364D01*
X7228227Y-13586364D02*
X7209179Y-13576840D01*
X7209179Y-13576840D02*
X7199655Y-13557792D01*
X7199655Y-13557792D02*
X7199655Y-13386364D01*
X7380608Y-13576840D02*
X7361560Y-13586364D01*
X7361560Y-13586364D02*
X7323465Y-13586364D01*
X7323465Y-13586364D02*
X7304417Y-13576840D01*
X7304417Y-13576840D02*
X7294893Y-13557792D01*
X7294893Y-13557792D02*
X7294893Y-13481602D01*
X7294893Y-13481602D02*
X7304417Y-13462554D01*
X7304417Y-13462554D02*
X7323465Y-13453030D01*
X7323465Y-13453030D02*
X7361560Y-13453030D01*
X7361560Y-13453030D02*
X7380608Y-13462554D01*
X7380608Y-13462554D02*
X7390131Y-13481602D01*
X7390131Y-13481602D02*
X7390131Y-13500649D01*
X7390131Y-13500649D02*
X7294893Y-13519697D01*
X7466322Y-13576840D02*
X7485370Y-13586364D01*
X7485370Y-13586364D02*
X7523465Y-13586364D01*
X7523465Y-13586364D02*
X7542512Y-13576840D01*
X7542512Y-13576840D02*
X7552036Y-13557792D01*
X7552036Y-13557792D02*
X7552036Y-13548268D01*
X7552036Y-13548268D02*
X7542512Y-13529221D01*
X7542512Y-13529221D02*
X7523465Y-13519697D01*
X7523465Y-13519697D02*
X7494893Y-13519697D01*
X7494893Y-13519697D02*
X7475846Y-13510173D01*
X7475846Y-13510173D02*
X7466322Y-13491126D01*
X7466322Y-13491126D02*
X7466322Y-13481602D01*
X7466322Y-13481602D02*
X7475846Y-13462554D01*
X7475846Y-13462554D02*
X7494893Y-13453030D01*
X7494893Y-13453030D02*
X7523465Y-13453030D01*
X7523465Y-13453030D02*
X7542512Y-13462554D01*
X7618703Y-13662554D02*
X7628227Y-13653030D01*
X7628227Y-13653030D02*
X7647274Y-13624459D01*
X7647274Y-13624459D02*
X7656798Y-13605411D01*
X7656798Y-13605411D02*
X7666322Y-13576840D01*
X7666322Y-13576840D02*
X7675846Y-13529221D01*
X7675846Y-13529221D02*
X7675846Y-13491126D01*
X7675846Y-13491126D02*
X7666322Y-13443507D01*
X7666322Y-13443507D02*
X7656798Y-13414935D01*
X7656798Y-13414935D02*
X7647274Y-13395888D01*
X7647274Y-13395888D02*
X7628227Y-13367316D01*
X7628227Y-13367316D02*
X7618703Y-13357792D01*
X2743640Y-13658880D02*
X2743640Y-13858880D01*
X2643640Y-13758880D02*
X2843640Y-13758880D01*
X3094893Y-13669411D02*
X3104417Y-13659888D01*
X3104417Y-13659888D02*
X3123464Y-13650364D01*
X3123464Y-13650364D02*
X3171083Y-13650364D01*
X3171083Y-13650364D02*
X3190131Y-13659888D01*
X3190131Y-13659888D02*
X3199655Y-13669411D01*
X3199655Y-13669411D02*
X3209179Y-13688459D01*
X3209179Y-13688459D02*
X3209179Y-13707507D01*
X3209179Y-13707507D02*
X3199655Y-13736078D01*
X3199655Y-13736078D02*
X3085369Y-13850364D01*
X3085369Y-13850364D02*
X3209179Y-13850364D01*
X3294893Y-13831316D02*
X3304417Y-13840840D01*
X3304417Y-13840840D02*
X3294893Y-13850364D01*
X3294893Y-13850364D02*
X3285369Y-13840840D01*
X3285369Y-13840840D02*
X3294893Y-13831316D01*
X3294893Y-13831316D02*
X3294893Y-13850364D01*
X3485369Y-13650364D02*
X3390131Y-13650364D01*
X3390131Y-13650364D02*
X3380607Y-13745602D01*
X3380607Y-13745602D02*
X3390131Y-13736078D01*
X3390131Y-13736078D02*
X3409179Y-13726554D01*
X3409179Y-13726554D02*
X3456798Y-13726554D01*
X3456798Y-13726554D02*
X3475845Y-13736078D01*
X3475845Y-13736078D02*
X3485369Y-13745602D01*
X3485369Y-13745602D02*
X3494893Y-13764649D01*
X3494893Y-13764649D02*
X3494893Y-13812268D01*
X3494893Y-13812268D02*
X3485369Y-13831316D01*
X3485369Y-13831316D02*
X3475845Y-13840840D01*
X3475845Y-13840840D02*
X3456798Y-13850364D01*
X3456798Y-13850364D02*
X3409179Y-13850364D01*
X3409179Y-13850364D02*
X3390131Y-13840840D01*
X3390131Y-13840840D02*
X3380607Y-13831316D01*
X3618702Y-13650364D02*
X3637750Y-13650364D01*
X3637750Y-13650364D02*
X3656798Y-13659888D01*
X3656798Y-13659888D02*
X3666322Y-13669411D01*
X3666322Y-13669411D02*
X3675845Y-13688459D01*
X3675845Y-13688459D02*
X3685369Y-13726554D01*
X3685369Y-13726554D02*
X3685369Y-13774173D01*
X3685369Y-13774173D02*
X3675845Y-13812268D01*
X3675845Y-13812268D02*
X3666322Y-13831316D01*
X3666322Y-13831316D02*
X3656798Y-13840840D01*
X3656798Y-13840840D02*
X3637750Y-13850364D01*
X3637750Y-13850364D02*
X3618702Y-13850364D01*
X3618702Y-13850364D02*
X3599655Y-13840840D01*
X3599655Y-13840840D02*
X3590131Y-13831316D01*
X3590131Y-13831316D02*
X3580607Y-13812268D01*
X3580607Y-13812268D02*
X3571083Y-13774173D01*
X3571083Y-13774173D02*
X3571083Y-13726554D01*
X3571083Y-13726554D02*
X3580607Y-13688459D01*
X3580607Y-13688459D02*
X3590131Y-13669411D01*
X3590131Y-13669411D02*
X3599655Y-13659888D01*
X3599655Y-13659888D02*
X3618702Y-13650364D01*
X3809179Y-13650364D02*
X3828226Y-13650364D01*
X3828226Y-13650364D02*
X3847274Y-13659888D01*
X3847274Y-13659888D02*
X3856798Y-13669411D01*
X3856798Y-13669411D02*
X3866322Y-13688459D01*
X3866322Y-13688459D02*
X3875845Y-13726554D01*
X3875845Y-13726554D02*
X3875845Y-13774173D01*
X3875845Y-13774173D02*
X3866322Y-13812268D01*
X3866322Y-13812268D02*
X3856798Y-13831316D01*
X3856798Y-13831316D02*
X3847274Y-13840840D01*
X3847274Y-13840840D02*
X3828226Y-13850364D01*
X3828226Y-13850364D02*
X3809179Y-13850364D01*
X3809179Y-13850364D02*
X3790131Y-13840840D01*
X3790131Y-13840840D02*
X3780607Y-13831316D01*
X3780607Y-13831316D02*
X3771083Y-13812268D01*
X3771083Y-13812268D02*
X3761560Y-13774173D01*
X3761560Y-13774173D02*
X3761560Y-13726554D01*
X3761560Y-13726554D02*
X3771083Y-13688459D01*
X3771083Y-13688459D02*
X3780607Y-13669411D01*
X3780607Y-13669411D02*
X3790131Y-13659888D01*
X3790131Y-13659888D02*
X3809179Y-13650364D01*
X3961560Y-13850364D02*
X3961560Y-13717030D01*
X3961560Y-13736078D02*
X3971083Y-13726554D01*
X3971083Y-13726554D02*
X3990131Y-13717030D01*
X3990131Y-13717030D02*
X4018703Y-13717030D01*
X4018703Y-13717030D02*
X4037750Y-13726554D01*
X4037750Y-13726554D02*
X4047274Y-13745602D01*
X4047274Y-13745602D02*
X4047274Y-13850364D01*
X4047274Y-13745602D02*
X4056798Y-13726554D01*
X4056798Y-13726554D02*
X4075845Y-13717030D01*
X4075845Y-13717030D02*
X4104417Y-13717030D01*
X4104417Y-13717030D02*
X4123464Y-13726554D01*
X4123464Y-13726554D02*
X4132988Y-13745602D01*
X4132988Y-13745602D02*
X4132988Y-13850364D01*
X4228226Y-13850364D02*
X4228226Y-13717030D01*
X4228226Y-13736078D02*
X4237750Y-13726554D01*
X4237750Y-13726554D02*
X4256798Y-13717030D01*
X4256798Y-13717030D02*
X4285369Y-13717030D01*
X4285369Y-13717030D02*
X4304417Y-13726554D01*
X4304417Y-13726554D02*
X4313941Y-13745602D01*
X4313941Y-13745602D02*
X4313941Y-13850364D01*
X4313941Y-13745602D02*
X4323465Y-13726554D01*
X4323465Y-13726554D02*
X4342512Y-13717030D01*
X4342512Y-13717030D02*
X4371084Y-13717030D01*
X4371084Y-13717030D02*
X4390131Y-13726554D01*
X4390131Y-13726554D02*
X4399655Y-13745602D01*
X4399655Y-13745602D02*
X4399655Y-13850364D01*
X4790131Y-13640840D02*
X4618703Y-13897983D01*
X5047274Y-13650364D02*
X5066322Y-13650364D01*
X5066322Y-13650364D02*
X5085369Y-13659888D01*
X5085369Y-13659888D02*
X5094893Y-13669411D01*
X5094893Y-13669411D02*
X5104417Y-13688459D01*
X5104417Y-13688459D02*
X5113941Y-13726554D01*
X5113941Y-13726554D02*
X5113941Y-13774173D01*
X5113941Y-13774173D02*
X5104417Y-13812268D01*
X5104417Y-13812268D02*
X5094893Y-13831316D01*
X5094893Y-13831316D02*
X5085369Y-13840840D01*
X5085369Y-13840840D02*
X5066322Y-13850364D01*
X5066322Y-13850364D02*
X5047274Y-13850364D01*
X5047274Y-13850364D02*
X5028227Y-13840840D01*
X5028227Y-13840840D02*
X5018703Y-13831316D01*
X5018703Y-13831316D02*
X5009179Y-13812268D01*
X5009179Y-13812268D02*
X4999655Y-13774173D01*
X4999655Y-13774173D02*
X4999655Y-13726554D01*
X4999655Y-13726554D02*
X5009179Y-13688459D01*
X5009179Y-13688459D02*
X5018703Y-13669411D01*
X5018703Y-13669411D02*
X5028227Y-13659888D01*
X5028227Y-13659888D02*
X5047274Y-13650364D01*
X5199655Y-13831316D02*
X5209179Y-13840840D01*
X5209179Y-13840840D02*
X5199655Y-13850364D01*
X5199655Y-13850364D02*
X5190131Y-13840840D01*
X5190131Y-13840840D02*
X5199655Y-13831316D01*
X5199655Y-13831316D02*
X5199655Y-13850364D01*
X5332988Y-13650364D02*
X5352036Y-13650364D01*
X5352036Y-13650364D02*
X5371084Y-13659888D01*
X5371084Y-13659888D02*
X5380608Y-13669411D01*
X5380608Y-13669411D02*
X5390131Y-13688459D01*
X5390131Y-13688459D02*
X5399655Y-13726554D01*
X5399655Y-13726554D02*
X5399655Y-13774173D01*
X5399655Y-13774173D02*
X5390131Y-13812268D01*
X5390131Y-13812268D02*
X5380608Y-13831316D01*
X5380608Y-13831316D02*
X5371084Y-13840840D01*
X5371084Y-13840840D02*
X5352036Y-13850364D01*
X5352036Y-13850364D02*
X5332988Y-13850364D01*
X5332988Y-13850364D02*
X5313941Y-13840840D01*
X5313941Y-13840840D02*
X5304417Y-13831316D01*
X5304417Y-13831316D02*
X5294893Y-13812268D01*
X5294893Y-13812268D02*
X5285369Y-13774173D01*
X5285369Y-13774173D02*
X5285369Y-13726554D01*
X5285369Y-13726554D02*
X5294893Y-13688459D01*
X5294893Y-13688459D02*
X5304417Y-13669411D01*
X5304417Y-13669411D02*
X5313941Y-13659888D01*
X5313941Y-13659888D02*
X5332988Y-13650364D01*
X5494893Y-13850364D02*
X5532988Y-13850364D01*
X5532988Y-13850364D02*
X5552036Y-13840840D01*
X5552036Y-13840840D02*
X5561560Y-13831316D01*
X5561560Y-13831316D02*
X5580608Y-13802745D01*
X5580608Y-13802745D02*
X5590131Y-13764649D01*
X5590131Y-13764649D02*
X5590131Y-13688459D01*
X5590131Y-13688459D02*
X5580608Y-13669411D01*
X5580608Y-13669411D02*
X5571084Y-13659888D01*
X5571084Y-13659888D02*
X5552036Y-13650364D01*
X5552036Y-13650364D02*
X5513941Y-13650364D01*
X5513941Y-13650364D02*
X5494893Y-13659888D01*
X5494893Y-13659888D02*
X5485369Y-13669411D01*
X5485369Y-13669411D02*
X5475846Y-13688459D01*
X5475846Y-13688459D02*
X5475846Y-13736078D01*
X5475846Y-13736078D02*
X5485369Y-13755126D01*
X5485369Y-13755126D02*
X5494893Y-13764649D01*
X5494893Y-13764649D02*
X5513941Y-13774173D01*
X5513941Y-13774173D02*
X5552036Y-13774173D01*
X5552036Y-13774173D02*
X5571084Y-13764649D01*
X5571084Y-13764649D02*
X5580608Y-13755126D01*
X5580608Y-13755126D02*
X5590131Y-13736078D01*
X5704417Y-13736078D02*
X5685369Y-13726554D01*
X5685369Y-13726554D02*
X5675846Y-13717030D01*
X5675846Y-13717030D02*
X5666322Y-13697983D01*
X5666322Y-13697983D02*
X5666322Y-13688459D01*
X5666322Y-13688459D02*
X5675846Y-13669411D01*
X5675846Y-13669411D02*
X5685369Y-13659888D01*
X5685369Y-13659888D02*
X5704417Y-13650364D01*
X5704417Y-13650364D02*
X5742512Y-13650364D01*
X5742512Y-13650364D02*
X5761560Y-13659888D01*
X5761560Y-13659888D02*
X5771084Y-13669411D01*
X5771084Y-13669411D02*
X5780607Y-13688459D01*
X5780607Y-13688459D02*
X5780607Y-13697983D01*
X5780607Y-13697983D02*
X5771084Y-13717030D01*
X5771084Y-13717030D02*
X5761560Y-13726554D01*
X5761560Y-13726554D02*
X5742512Y-13736078D01*
X5742512Y-13736078D02*
X5704417Y-13736078D01*
X5704417Y-13736078D02*
X5685369Y-13745602D01*
X5685369Y-13745602D02*
X5675846Y-13755126D01*
X5675846Y-13755126D02*
X5666322Y-13774173D01*
X5666322Y-13774173D02*
X5666322Y-13812268D01*
X5666322Y-13812268D02*
X5675846Y-13831316D01*
X5675846Y-13831316D02*
X5685369Y-13840840D01*
X5685369Y-13840840D02*
X5704417Y-13850364D01*
X5704417Y-13850364D02*
X5742512Y-13850364D01*
X5742512Y-13850364D02*
X5761560Y-13840840D01*
X5761560Y-13840840D02*
X5771084Y-13831316D01*
X5771084Y-13831316D02*
X5780607Y-13812268D01*
X5780607Y-13812268D02*
X5780607Y-13774173D01*
X5780607Y-13774173D02*
X5771084Y-13755126D01*
X5771084Y-13755126D02*
X5761560Y-13745602D01*
X5761560Y-13745602D02*
X5742512Y-13736078D01*
X5952036Y-13717030D02*
X5952036Y-13850364D01*
X5904417Y-13640840D02*
X5856798Y-13783697D01*
X5856798Y-13783697D02*
X5980607Y-13783697D01*
X6047274Y-13650364D02*
X6047274Y-13688459D01*
X6123465Y-13650364D02*
X6123465Y-13688459D01*
X6418703Y-13926554D02*
X6409179Y-13917030D01*
X6409179Y-13917030D02*
X6390131Y-13888459D01*
X6390131Y-13888459D02*
X6380608Y-13869411D01*
X6380608Y-13869411D02*
X6371084Y-13840840D01*
X6371084Y-13840840D02*
X6361560Y-13793221D01*
X6361560Y-13793221D02*
X6361560Y-13755126D01*
X6361560Y-13755126D02*
X6371084Y-13707507D01*
X6371084Y-13707507D02*
X6380608Y-13678935D01*
X6380608Y-13678935D02*
X6390131Y-13659888D01*
X6390131Y-13659888D02*
X6409179Y-13631316D01*
X6409179Y-13631316D02*
X6418703Y-13621792D01*
X6580608Y-13717030D02*
X6580608Y-13850364D01*
X6532988Y-13640840D02*
X6485369Y-13783697D01*
X6485369Y-13783697D02*
X6609179Y-13783697D01*
X6837750Y-13850364D02*
X6837750Y-13650364D01*
X6923465Y-13850364D02*
X6923465Y-13745602D01*
X6923465Y-13745602D02*
X6913941Y-13726554D01*
X6913941Y-13726554D02*
X6894893Y-13717030D01*
X6894893Y-13717030D02*
X6866322Y-13717030D01*
X6866322Y-13717030D02*
X6847274Y-13726554D01*
X6847274Y-13726554D02*
X6837750Y-13736078D01*
X7047274Y-13850364D02*
X7028227Y-13840840D01*
X7028227Y-13840840D02*
X7018703Y-13831316D01*
X7018703Y-13831316D02*
X7009179Y-13812268D01*
X7009179Y-13812268D02*
X7009179Y-13755126D01*
X7009179Y-13755126D02*
X7018703Y-13736078D01*
X7018703Y-13736078D02*
X7028227Y-13726554D01*
X7028227Y-13726554D02*
X7047274Y-13717030D01*
X7047274Y-13717030D02*
X7075846Y-13717030D01*
X7075846Y-13717030D02*
X7094893Y-13726554D01*
X7094893Y-13726554D02*
X7104417Y-13736078D01*
X7104417Y-13736078D02*
X7113941Y-13755126D01*
X7113941Y-13755126D02*
X7113941Y-13812268D01*
X7113941Y-13812268D02*
X7104417Y-13831316D01*
X7104417Y-13831316D02*
X7094893Y-13840840D01*
X7094893Y-13840840D02*
X7075846Y-13850364D01*
X7075846Y-13850364D02*
X7047274Y-13850364D01*
X7228227Y-13850364D02*
X7209179Y-13840840D01*
X7209179Y-13840840D02*
X7199655Y-13821792D01*
X7199655Y-13821792D02*
X7199655Y-13650364D01*
X7380608Y-13840840D02*
X7361560Y-13850364D01*
X7361560Y-13850364D02*
X7323465Y-13850364D01*
X7323465Y-13850364D02*
X7304417Y-13840840D01*
X7304417Y-13840840D02*
X7294893Y-13821792D01*
X7294893Y-13821792D02*
X7294893Y-13745602D01*
X7294893Y-13745602D02*
X7304417Y-13726554D01*
X7304417Y-13726554D02*
X7323465Y-13717030D01*
X7323465Y-13717030D02*
X7361560Y-13717030D01*
X7361560Y-13717030D02*
X7380608Y-13726554D01*
X7380608Y-13726554D02*
X7390131Y-13745602D01*
X7390131Y-13745602D02*
X7390131Y-13764649D01*
X7390131Y-13764649D02*
X7294893Y-13783697D01*
X7466322Y-13840840D02*
X7485370Y-13850364D01*
X7485370Y-13850364D02*
X7523465Y-13850364D01*
X7523465Y-13850364D02*
X7542512Y-13840840D01*
X7542512Y-13840840D02*
X7552036Y-13821792D01*
X7552036Y-13821792D02*
X7552036Y-13812268D01*
X7552036Y-13812268D02*
X7542512Y-13793221D01*
X7542512Y-13793221D02*
X7523465Y-13783697D01*
X7523465Y-13783697D02*
X7494893Y-13783697D01*
X7494893Y-13783697D02*
X7475846Y-13774173D01*
X7475846Y-13774173D02*
X7466322Y-13755126D01*
X7466322Y-13755126D02*
X7466322Y-13745602D01*
X7466322Y-13745602D02*
X7475846Y-13726554D01*
X7475846Y-13726554D02*
X7494893Y-13717030D01*
X7494893Y-13717030D02*
X7523465Y-13717030D01*
X7523465Y-13717030D02*
X7542512Y-13726554D01*
X7618703Y-13926554D02*
X7628227Y-13917030D01*
X7628227Y-13917030D02*
X7647274Y-13888459D01*
X7647274Y-13888459D02*
X7656798Y-13869411D01*
X7656798Y-13869411D02*
X7666322Y-13840840D01*
X7666322Y-13840840D02*
X7675846Y-13793221D01*
X7675846Y-13793221D02*
X7675846Y-13755126D01*
X7675846Y-13755126D02*
X7666322Y-13707507D01*
X7666322Y-13707507D02*
X7656798Y-13678935D01*
X7656798Y-13678935D02*
X7647274Y-13659888D01*
X7647274Y-13659888D02*
X7628227Y-13631316D01*
X7628227Y-13631316D02*
X7618703Y-13621792D01*
X2814351Y-14149591D02*
X2814351Y-14008169D01*
X2672929Y-14008169D01*
X2672929Y-14149591D01*
X2814351Y-14149591D01*
X3085369Y-13970364D02*
X3209179Y-13970364D01*
X3209179Y-13970364D02*
X3142512Y-14046554D01*
X3142512Y-14046554D02*
X3171083Y-14046554D01*
X3171083Y-14046554D02*
X3190131Y-14056078D01*
X3190131Y-14056078D02*
X3199655Y-14065602D01*
X3199655Y-14065602D02*
X3209179Y-14084649D01*
X3209179Y-14084649D02*
X3209179Y-14132268D01*
X3209179Y-14132268D02*
X3199655Y-14151316D01*
X3199655Y-14151316D02*
X3190131Y-14160840D01*
X3190131Y-14160840D02*
X3171083Y-14170364D01*
X3171083Y-14170364D02*
X3113941Y-14170364D01*
X3113941Y-14170364D02*
X3094893Y-14160840D01*
X3094893Y-14160840D02*
X3085369Y-14151316D01*
X3294893Y-14151316D02*
X3304417Y-14160840D01*
X3304417Y-14160840D02*
X3294893Y-14170364D01*
X3294893Y-14170364D02*
X3285369Y-14160840D01*
X3285369Y-14160840D02*
X3294893Y-14151316D01*
X3294893Y-14151316D02*
X3294893Y-14170364D01*
X3428226Y-13970364D02*
X3447274Y-13970364D01*
X3447274Y-13970364D02*
X3466322Y-13979888D01*
X3466322Y-13979888D02*
X3475845Y-13989411D01*
X3475845Y-13989411D02*
X3485369Y-14008459D01*
X3485369Y-14008459D02*
X3494893Y-14046554D01*
X3494893Y-14046554D02*
X3494893Y-14094173D01*
X3494893Y-14094173D02*
X3485369Y-14132268D01*
X3485369Y-14132268D02*
X3475845Y-14151316D01*
X3475845Y-14151316D02*
X3466322Y-14160840D01*
X3466322Y-14160840D02*
X3447274Y-14170364D01*
X3447274Y-14170364D02*
X3428226Y-14170364D01*
X3428226Y-14170364D02*
X3409179Y-14160840D01*
X3409179Y-14160840D02*
X3399655Y-14151316D01*
X3399655Y-14151316D02*
X3390131Y-14132268D01*
X3390131Y-14132268D02*
X3380607Y-14094173D01*
X3380607Y-14094173D02*
X3380607Y-14046554D01*
X3380607Y-14046554D02*
X3390131Y-14008459D01*
X3390131Y-14008459D02*
X3399655Y-13989411D01*
X3399655Y-13989411D02*
X3409179Y-13979888D01*
X3409179Y-13979888D02*
X3428226Y-13970364D01*
X3618702Y-13970364D02*
X3637750Y-13970364D01*
X3637750Y-13970364D02*
X3656798Y-13979888D01*
X3656798Y-13979888D02*
X3666322Y-13989411D01*
X3666322Y-13989411D02*
X3675845Y-14008459D01*
X3675845Y-14008459D02*
X3685369Y-14046554D01*
X3685369Y-14046554D02*
X3685369Y-14094173D01*
X3685369Y-14094173D02*
X3675845Y-14132268D01*
X3675845Y-14132268D02*
X3666322Y-14151316D01*
X3666322Y-14151316D02*
X3656798Y-14160840D01*
X3656798Y-14160840D02*
X3637750Y-14170364D01*
X3637750Y-14170364D02*
X3618702Y-14170364D01*
X3618702Y-14170364D02*
X3599655Y-14160840D01*
X3599655Y-14160840D02*
X3590131Y-14151316D01*
X3590131Y-14151316D02*
X3580607Y-14132268D01*
X3580607Y-14132268D02*
X3571083Y-14094173D01*
X3571083Y-14094173D02*
X3571083Y-14046554D01*
X3571083Y-14046554D02*
X3580607Y-14008459D01*
X3580607Y-14008459D02*
X3590131Y-13989411D01*
X3590131Y-13989411D02*
X3599655Y-13979888D01*
X3599655Y-13979888D02*
X3618702Y-13970364D01*
X3809179Y-13970364D02*
X3828226Y-13970364D01*
X3828226Y-13970364D02*
X3847274Y-13979888D01*
X3847274Y-13979888D02*
X3856798Y-13989411D01*
X3856798Y-13989411D02*
X3866322Y-14008459D01*
X3866322Y-14008459D02*
X3875845Y-14046554D01*
X3875845Y-14046554D02*
X3875845Y-14094173D01*
X3875845Y-14094173D02*
X3866322Y-14132268D01*
X3866322Y-14132268D02*
X3856798Y-14151316D01*
X3856798Y-14151316D02*
X3847274Y-14160840D01*
X3847274Y-14160840D02*
X3828226Y-14170364D01*
X3828226Y-14170364D02*
X3809179Y-14170364D01*
X3809179Y-14170364D02*
X3790131Y-14160840D01*
X3790131Y-14160840D02*
X3780607Y-14151316D01*
X3780607Y-14151316D02*
X3771083Y-14132268D01*
X3771083Y-14132268D02*
X3761560Y-14094173D01*
X3761560Y-14094173D02*
X3761560Y-14046554D01*
X3761560Y-14046554D02*
X3771083Y-14008459D01*
X3771083Y-14008459D02*
X3780607Y-13989411D01*
X3780607Y-13989411D02*
X3790131Y-13979888D01*
X3790131Y-13979888D02*
X3809179Y-13970364D01*
X3961560Y-14170364D02*
X3961560Y-14037030D01*
X3961560Y-14056078D02*
X3971083Y-14046554D01*
X3971083Y-14046554D02*
X3990131Y-14037030D01*
X3990131Y-14037030D02*
X4018703Y-14037030D01*
X4018703Y-14037030D02*
X4037750Y-14046554D01*
X4037750Y-14046554D02*
X4047274Y-14065602D01*
X4047274Y-14065602D02*
X4047274Y-14170364D01*
X4047274Y-14065602D02*
X4056798Y-14046554D01*
X4056798Y-14046554D02*
X4075845Y-14037030D01*
X4075845Y-14037030D02*
X4104417Y-14037030D01*
X4104417Y-14037030D02*
X4123464Y-14046554D01*
X4123464Y-14046554D02*
X4132988Y-14065602D01*
X4132988Y-14065602D02*
X4132988Y-14170364D01*
X4228226Y-14170364D02*
X4228226Y-14037030D01*
X4228226Y-14056078D02*
X4237750Y-14046554D01*
X4237750Y-14046554D02*
X4256798Y-14037030D01*
X4256798Y-14037030D02*
X4285369Y-14037030D01*
X4285369Y-14037030D02*
X4304417Y-14046554D01*
X4304417Y-14046554D02*
X4313941Y-14065602D01*
X4313941Y-14065602D02*
X4313941Y-14170364D01*
X4313941Y-14065602D02*
X4323465Y-14046554D01*
X4323465Y-14046554D02*
X4342512Y-14037030D01*
X4342512Y-14037030D02*
X4371084Y-14037030D01*
X4371084Y-14037030D02*
X4390131Y-14046554D01*
X4390131Y-14046554D02*
X4399655Y-14065602D01*
X4399655Y-14065602D02*
X4399655Y-14170364D01*
X4790131Y-13960840D02*
X4618703Y-14217983D01*
X5047274Y-13970364D02*
X5066322Y-13970364D01*
X5066322Y-13970364D02*
X5085369Y-13979888D01*
X5085369Y-13979888D02*
X5094893Y-13989411D01*
X5094893Y-13989411D02*
X5104417Y-14008459D01*
X5104417Y-14008459D02*
X5113941Y-14046554D01*
X5113941Y-14046554D02*
X5113941Y-14094173D01*
X5113941Y-14094173D02*
X5104417Y-14132268D01*
X5104417Y-14132268D02*
X5094893Y-14151316D01*
X5094893Y-14151316D02*
X5085369Y-14160840D01*
X5085369Y-14160840D02*
X5066322Y-14170364D01*
X5066322Y-14170364D02*
X5047274Y-14170364D01*
X5047274Y-14170364D02*
X5028227Y-14160840D01*
X5028227Y-14160840D02*
X5018703Y-14151316D01*
X5018703Y-14151316D02*
X5009179Y-14132268D01*
X5009179Y-14132268D02*
X4999655Y-14094173D01*
X4999655Y-14094173D02*
X4999655Y-14046554D01*
X4999655Y-14046554D02*
X5009179Y-14008459D01*
X5009179Y-14008459D02*
X5018703Y-13989411D01*
X5018703Y-13989411D02*
X5028227Y-13979888D01*
X5028227Y-13979888D02*
X5047274Y-13970364D01*
X5199655Y-14151316D02*
X5209179Y-14160840D01*
X5209179Y-14160840D02*
X5199655Y-14170364D01*
X5199655Y-14170364D02*
X5190131Y-14160840D01*
X5190131Y-14160840D02*
X5199655Y-14151316D01*
X5199655Y-14151316D02*
X5199655Y-14170364D01*
X5399655Y-14170364D02*
X5285369Y-14170364D01*
X5342512Y-14170364D02*
X5342512Y-13970364D01*
X5342512Y-13970364D02*
X5323465Y-13998935D01*
X5323465Y-13998935D02*
X5304417Y-14017983D01*
X5304417Y-14017983D02*
X5285369Y-14027507D01*
X5590131Y-14170364D02*
X5475846Y-14170364D01*
X5532988Y-14170364D02*
X5532988Y-13970364D01*
X5532988Y-13970364D02*
X5513941Y-13998935D01*
X5513941Y-13998935D02*
X5494893Y-14017983D01*
X5494893Y-14017983D02*
X5475846Y-14027507D01*
X5704417Y-14056078D02*
X5685369Y-14046554D01*
X5685369Y-14046554D02*
X5675846Y-14037030D01*
X5675846Y-14037030D02*
X5666322Y-14017983D01*
X5666322Y-14017983D02*
X5666322Y-14008459D01*
X5666322Y-14008459D02*
X5675846Y-13989411D01*
X5675846Y-13989411D02*
X5685369Y-13979888D01*
X5685369Y-13979888D02*
X5704417Y-13970364D01*
X5704417Y-13970364D02*
X5742512Y-13970364D01*
X5742512Y-13970364D02*
X5761560Y-13979888D01*
X5761560Y-13979888D02*
X5771084Y-13989411D01*
X5771084Y-13989411D02*
X5780607Y-14008459D01*
X5780607Y-14008459D02*
X5780607Y-14017983D01*
X5780607Y-14017983D02*
X5771084Y-14037030D01*
X5771084Y-14037030D02*
X5761560Y-14046554D01*
X5761560Y-14046554D02*
X5742512Y-14056078D01*
X5742512Y-14056078D02*
X5704417Y-14056078D01*
X5704417Y-14056078D02*
X5685369Y-14065602D01*
X5685369Y-14065602D02*
X5675846Y-14075126D01*
X5675846Y-14075126D02*
X5666322Y-14094173D01*
X5666322Y-14094173D02*
X5666322Y-14132268D01*
X5666322Y-14132268D02*
X5675846Y-14151316D01*
X5675846Y-14151316D02*
X5685369Y-14160840D01*
X5685369Y-14160840D02*
X5704417Y-14170364D01*
X5704417Y-14170364D02*
X5742512Y-14170364D01*
X5742512Y-14170364D02*
X5761560Y-14160840D01*
X5761560Y-14160840D02*
X5771084Y-14151316D01*
X5771084Y-14151316D02*
X5780607Y-14132268D01*
X5780607Y-14132268D02*
X5780607Y-14094173D01*
X5780607Y-14094173D02*
X5771084Y-14075126D01*
X5771084Y-14075126D02*
X5761560Y-14065602D01*
X5761560Y-14065602D02*
X5742512Y-14056078D01*
X5971084Y-14170364D02*
X5856798Y-14170364D01*
X5913941Y-14170364D02*
X5913941Y-13970364D01*
X5913941Y-13970364D02*
X5894893Y-13998935D01*
X5894893Y-13998935D02*
X5875846Y-14017983D01*
X5875846Y-14017983D02*
X5856798Y-14027507D01*
X6047274Y-13970364D02*
X6047274Y-14008459D01*
X6123465Y-13970364D02*
X6123465Y-14008459D01*
X6418703Y-14246554D02*
X6409179Y-14237030D01*
X6409179Y-14237030D02*
X6390131Y-14208459D01*
X6390131Y-14208459D02*
X6380608Y-14189411D01*
X6380608Y-14189411D02*
X6371084Y-14160840D01*
X6371084Y-14160840D02*
X6361560Y-14113221D01*
X6361560Y-14113221D02*
X6361560Y-14075126D01*
X6361560Y-14075126D02*
X6371084Y-14027507D01*
X6371084Y-14027507D02*
X6380608Y-13998935D01*
X6380608Y-13998935D02*
X6390131Y-13979888D01*
X6390131Y-13979888D02*
X6409179Y-13951316D01*
X6409179Y-13951316D02*
X6418703Y-13941792D01*
X6523465Y-14056078D02*
X6504417Y-14046554D01*
X6504417Y-14046554D02*
X6494893Y-14037030D01*
X6494893Y-14037030D02*
X6485369Y-14017983D01*
X6485369Y-14017983D02*
X6485369Y-14008459D01*
X6485369Y-14008459D02*
X6494893Y-13989411D01*
X6494893Y-13989411D02*
X6504417Y-13979888D01*
X6504417Y-13979888D02*
X6523465Y-13970364D01*
X6523465Y-13970364D02*
X6561560Y-13970364D01*
X6561560Y-13970364D02*
X6580608Y-13979888D01*
X6580608Y-13979888D02*
X6590131Y-13989411D01*
X6590131Y-13989411D02*
X6599655Y-14008459D01*
X6599655Y-14008459D02*
X6599655Y-14017983D01*
X6599655Y-14017983D02*
X6590131Y-14037030D01*
X6590131Y-14037030D02*
X6580608Y-14046554D01*
X6580608Y-14046554D02*
X6561560Y-14056078D01*
X6561560Y-14056078D02*
X6523465Y-14056078D01*
X6523465Y-14056078D02*
X6504417Y-14065602D01*
X6504417Y-14065602D02*
X6494893Y-14075126D01*
X6494893Y-14075126D02*
X6485369Y-14094173D01*
X6485369Y-14094173D02*
X6485369Y-14132268D01*
X6485369Y-14132268D02*
X6494893Y-14151316D01*
X6494893Y-14151316D02*
X6504417Y-14160840D01*
X6504417Y-14160840D02*
X6523465Y-14170364D01*
X6523465Y-14170364D02*
X6561560Y-14170364D01*
X6561560Y-14170364D02*
X6580608Y-14160840D01*
X6580608Y-14160840D02*
X6590131Y-14151316D01*
X6590131Y-14151316D02*
X6599655Y-14132268D01*
X6599655Y-14132268D02*
X6599655Y-14094173D01*
X6599655Y-14094173D02*
X6590131Y-14075126D01*
X6590131Y-14075126D02*
X6580608Y-14065602D01*
X6580608Y-14065602D02*
X6561560Y-14056078D01*
X6723465Y-13970364D02*
X6742512Y-13970364D01*
X6742512Y-13970364D02*
X6761560Y-13979888D01*
X6761560Y-13979888D02*
X6771084Y-13989411D01*
X6771084Y-13989411D02*
X6780608Y-14008459D01*
X6780608Y-14008459D02*
X6790131Y-14046554D01*
X6790131Y-14046554D02*
X6790131Y-14094173D01*
X6790131Y-14094173D02*
X6780608Y-14132268D01*
X6780608Y-14132268D02*
X6771084Y-14151316D01*
X6771084Y-14151316D02*
X6761560Y-14160840D01*
X6761560Y-14160840D02*
X6742512Y-14170364D01*
X6742512Y-14170364D02*
X6723465Y-14170364D01*
X6723465Y-14170364D02*
X6704417Y-14160840D01*
X6704417Y-14160840D02*
X6694893Y-14151316D01*
X6694893Y-14151316D02*
X6685369Y-14132268D01*
X6685369Y-14132268D02*
X6675846Y-14094173D01*
X6675846Y-14094173D02*
X6675846Y-14046554D01*
X6675846Y-14046554D02*
X6685369Y-14008459D01*
X6685369Y-14008459D02*
X6694893Y-13989411D01*
X6694893Y-13989411D02*
X6704417Y-13979888D01*
X6704417Y-13979888D02*
X6723465Y-13970364D01*
X7028227Y-14170364D02*
X7028227Y-13970364D01*
X7113941Y-14170364D02*
X7113941Y-14065602D01*
X7113941Y-14065602D02*
X7104417Y-14046554D01*
X7104417Y-14046554D02*
X7085370Y-14037030D01*
X7085370Y-14037030D02*
X7056798Y-14037030D01*
X7056798Y-14037030D02*
X7037750Y-14046554D01*
X7037750Y-14046554D02*
X7028227Y-14056078D01*
X7237750Y-14170364D02*
X7218703Y-14160840D01*
X7218703Y-14160840D02*
X7209179Y-14151316D01*
X7209179Y-14151316D02*
X7199655Y-14132268D01*
X7199655Y-14132268D02*
X7199655Y-14075126D01*
X7199655Y-14075126D02*
X7209179Y-14056078D01*
X7209179Y-14056078D02*
X7218703Y-14046554D01*
X7218703Y-14046554D02*
X7237750Y-14037030D01*
X7237750Y-14037030D02*
X7266322Y-14037030D01*
X7266322Y-14037030D02*
X7285370Y-14046554D01*
X7285370Y-14046554D02*
X7294893Y-14056078D01*
X7294893Y-14056078D02*
X7304417Y-14075126D01*
X7304417Y-14075126D02*
X7304417Y-14132268D01*
X7304417Y-14132268D02*
X7294893Y-14151316D01*
X7294893Y-14151316D02*
X7285370Y-14160840D01*
X7285370Y-14160840D02*
X7266322Y-14170364D01*
X7266322Y-14170364D02*
X7237750Y-14170364D01*
X7418703Y-14170364D02*
X7399655Y-14160840D01*
X7399655Y-14160840D02*
X7390131Y-14141792D01*
X7390131Y-14141792D02*
X7390131Y-13970364D01*
X7571084Y-14160840D02*
X7552036Y-14170364D01*
X7552036Y-14170364D02*
X7513941Y-14170364D01*
X7513941Y-14170364D02*
X7494893Y-14160840D01*
X7494893Y-14160840D02*
X7485370Y-14141792D01*
X7485370Y-14141792D02*
X7485370Y-14065602D01*
X7485370Y-14065602D02*
X7494893Y-14046554D01*
X7494893Y-14046554D02*
X7513941Y-14037030D01*
X7513941Y-14037030D02*
X7552036Y-14037030D01*
X7552036Y-14037030D02*
X7571084Y-14046554D01*
X7571084Y-14046554D02*
X7580608Y-14065602D01*
X7580608Y-14065602D02*
X7580608Y-14084649D01*
X7580608Y-14084649D02*
X7485370Y-14103697D01*
X7656798Y-14160840D02*
X7675846Y-14170364D01*
X7675846Y-14170364D02*
X7713941Y-14170364D01*
X7713941Y-14170364D02*
X7732989Y-14160840D01*
X7732989Y-14160840D02*
X7742512Y-14141792D01*
X7742512Y-14141792D02*
X7742512Y-14132268D01*
X7742512Y-14132268D02*
X7732989Y-14113221D01*
X7732989Y-14113221D02*
X7713941Y-14103697D01*
X7713941Y-14103697D02*
X7685370Y-14103697D01*
X7685370Y-14103697D02*
X7666322Y-14094173D01*
X7666322Y-14094173D02*
X7656798Y-14075126D01*
X7656798Y-14075126D02*
X7656798Y-14065602D01*
X7656798Y-14065602D02*
X7666322Y-14046554D01*
X7666322Y-14046554D02*
X7685370Y-14037030D01*
X7685370Y-14037030D02*
X7713941Y-14037030D01*
X7713941Y-14037030D02*
X7732989Y-14046554D01*
X7809179Y-14246554D02*
X7818703Y-14237030D01*
X7818703Y-14237030D02*
X7837751Y-14208459D01*
X7837751Y-14208459D02*
X7847274Y-14189411D01*
X7847274Y-14189411D02*
X7856798Y-14160840D01*
X7856798Y-14160840D02*
X7866322Y-14113221D01*
X7866322Y-14113221D02*
X7866322Y-14075126D01*
X7866322Y-14075126D02*
X7856798Y-14027507D01*
X7856798Y-14027507D02*
X7847274Y-13998935D01*
X7847274Y-13998935D02*
X7837751Y-13979888D01*
X7837751Y-13979888D02*
X7818703Y-13951316D01*
X7818703Y-13951316D02*
X7809179Y-13941792D01*
D11*
X2818640Y-14423880D02*
X2843640Y-14398880D01*
X2818640Y-14373880D01*
X2793640Y-14398880D01*
X2818640Y-14423880D01*
D12*
X3142512Y-14290364D02*
X3161560Y-14290364D01*
X3161560Y-14290364D02*
X3180607Y-14299888D01*
X3180607Y-14299888D02*
X3190131Y-14309411D01*
X3190131Y-14309411D02*
X3199655Y-14328459D01*
X3199655Y-14328459D02*
X3209179Y-14366554D01*
X3209179Y-14366554D02*
X3209179Y-14414173D01*
X3209179Y-14414173D02*
X3199655Y-14452268D01*
X3199655Y-14452268D02*
X3190131Y-14471316D01*
X3190131Y-14471316D02*
X3180607Y-14480840D01*
X3180607Y-14480840D02*
X3161560Y-14490364D01*
X3161560Y-14490364D02*
X3142512Y-14490364D01*
X3142512Y-14490364D02*
X3123464Y-14480840D01*
X3123464Y-14480840D02*
X3113941Y-14471316D01*
X3113941Y-14471316D02*
X3104417Y-14452268D01*
X3104417Y-14452268D02*
X3094893Y-14414173D01*
X3094893Y-14414173D02*
X3094893Y-14366554D01*
X3094893Y-14366554D02*
X3104417Y-14328459D01*
X3104417Y-14328459D02*
X3113941Y-14309411D01*
X3113941Y-14309411D02*
X3123464Y-14299888D01*
X3123464Y-14299888D02*
X3142512Y-14290364D01*
X3294893Y-14471316D02*
X3304417Y-14480840D01*
X3304417Y-14480840D02*
X3294893Y-14490364D01*
X3294893Y-14490364D02*
X3285369Y-14480840D01*
X3285369Y-14480840D02*
X3294893Y-14471316D01*
X3294893Y-14471316D02*
X3294893Y-14490364D01*
X3485369Y-14290364D02*
X3390131Y-14290364D01*
X3390131Y-14290364D02*
X3380607Y-14385602D01*
X3380607Y-14385602D02*
X3390131Y-14376078D01*
X3390131Y-14376078D02*
X3409179Y-14366554D01*
X3409179Y-14366554D02*
X3456798Y-14366554D01*
X3456798Y-14366554D02*
X3475845Y-14376078D01*
X3475845Y-14376078D02*
X3485369Y-14385602D01*
X3485369Y-14385602D02*
X3494893Y-14404649D01*
X3494893Y-14404649D02*
X3494893Y-14452268D01*
X3494893Y-14452268D02*
X3485369Y-14471316D01*
X3485369Y-14471316D02*
X3475845Y-14480840D01*
X3475845Y-14480840D02*
X3456798Y-14490364D01*
X3456798Y-14490364D02*
X3409179Y-14490364D01*
X3409179Y-14490364D02*
X3390131Y-14480840D01*
X3390131Y-14480840D02*
X3380607Y-14471316D01*
X3618702Y-14290364D02*
X3637750Y-14290364D01*
X3637750Y-14290364D02*
X3656798Y-14299888D01*
X3656798Y-14299888D02*
X3666322Y-14309411D01*
X3666322Y-14309411D02*
X3675845Y-14328459D01*
X3675845Y-14328459D02*
X3685369Y-14366554D01*
X3685369Y-14366554D02*
X3685369Y-14414173D01*
X3685369Y-14414173D02*
X3675845Y-14452268D01*
X3675845Y-14452268D02*
X3666322Y-14471316D01*
X3666322Y-14471316D02*
X3656798Y-14480840D01*
X3656798Y-14480840D02*
X3637750Y-14490364D01*
X3637750Y-14490364D02*
X3618702Y-14490364D01*
X3618702Y-14490364D02*
X3599655Y-14480840D01*
X3599655Y-14480840D02*
X3590131Y-14471316D01*
X3590131Y-14471316D02*
X3580607Y-14452268D01*
X3580607Y-14452268D02*
X3571083Y-14414173D01*
X3571083Y-14414173D02*
X3571083Y-14366554D01*
X3571083Y-14366554D02*
X3580607Y-14328459D01*
X3580607Y-14328459D02*
X3590131Y-14309411D01*
X3590131Y-14309411D02*
X3599655Y-14299888D01*
X3599655Y-14299888D02*
X3618702Y-14290364D01*
X3809179Y-14290364D02*
X3828226Y-14290364D01*
X3828226Y-14290364D02*
X3847274Y-14299888D01*
X3847274Y-14299888D02*
X3856798Y-14309411D01*
X3856798Y-14309411D02*
X3866322Y-14328459D01*
X3866322Y-14328459D02*
X3875845Y-14366554D01*
X3875845Y-14366554D02*
X3875845Y-14414173D01*
X3875845Y-14414173D02*
X3866322Y-14452268D01*
X3866322Y-14452268D02*
X3856798Y-14471316D01*
X3856798Y-14471316D02*
X3847274Y-14480840D01*
X3847274Y-14480840D02*
X3828226Y-14490364D01*
X3828226Y-14490364D02*
X3809179Y-14490364D01*
X3809179Y-14490364D02*
X3790131Y-14480840D01*
X3790131Y-14480840D02*
X3780607Y-14471316D01*
X3780607Y-14471316D02*
X3771083Y-14452268D01*
X3771083Y-14452268D02*
X3761560Y-14414173D01*
X3761560Y-14414173D02*
X3761560Y-14366554D01*
X3761560Y-14366554D02*
X3771083Y-14328459D01*
X3771083Y-14328459D02*
X3780607Y-14309411D01*
X3780607Y-14309411D02*
X3790131Y-14299888D01*
X3790131Y-14299888D02*
X3809179Y-14290364D01*
X3961560Y-14490364D02*
X3961560Y-14357030D01*
X3961560Y-14376078D02*
X3971083Y-14366554D01*
X3971083Y-14366554D02*
X3990131Y-14357030D01*
X3990131Y-14357030D02*
X4018703Y-14357030D01*
X4018703Y-14357030D02*
X4037750Y-14366554D01*
X4037750Y-14366554D02*
X4047274Y-14385602D01*
X4047274Y-14385602D02*
X4047274Y-14490364D01*
X4047274Y-14385602D02*
X4056798Y-14366554D01*
X4056798Y-14366554D02*
X4075845Y-14357030D01*
X4075845Y-14357030D02*
X4104417Y-14357030D01*
X4104417Y-14357030D02*
X4123464Y-14366554D01*
X4123464Y-14366554D02*
X4132988Y-14385602D01*
X4132988Y-14385602D02*
X4132988Y-14490364D01*
X4228226Y-14490364D02*
X4228226Y-14357030D01*
X4228226Y-14376078D02*
X4237750Y-14366554D01*
X4237750Y-14366554D02*
X4256798Y-14357030D01*
X4256798Y-14357030D02*
X4285369Y-14357030D01*
X4285369Y-14357030D02*
X4304417Y-14366554D01*
X4304417Y-14366554D02*
X4313941Y-14385602D01*
X4313941Y-14385602D02*
X4313941Y-14490364D01*
X4313941Y-14385602D02*
X4323465Y-14366554D01*
X4323465Y-14366554D02*
X4342512Y-14357030D01*
X4342512Y-14357030D02*
X4371084Y-14357030D01*
X4371084Y-14357030D02*
X4390131Y-14366554D01*
X4390131Y-14366554D02*
X4399655Y-14385602D01*
X4399655Y-14385602D02*
X4399655Y-14490364D01*
X4790131Y-14280840D02*
X4618703Y-14537983D01*
X5047274Y-14290364D02*
X5066322Y-14290364D01*
X5066322Y-14290364D02*
X5085369Y-14299888D01*
X5085369Y-14299888D02*
X5094893Y-14309411D01*
X5094893Y-14309411D02*
X5104417Y-14328459D01*
X5104417Y-14328459D02*
X5113941Y-14366554D01*
X5113941Y-14366554D02*
X5113941Y-14414173D01*
X5113941Y-14414173D02*
X5104417Y-14452268D01*
X5104417Y-14452268D02*
X5094893Y-14471316D01*
X5094893Y-14471316D02*
X5085369Y-14480840D01*
X5085369Y-14480840D02*
X5066322Y-14490364D01*
X5066322Y-14490364D02*
X5047274Y-14490364D01*
X5047274Y-14490364D02*
X5028227Y-14480840D01*
X5028227Y-14480840D02*
X5018703Y-14471316D01*
X5018703Y-14471316D02*
X5009179Y-14452268D01*
X5009179Y-14452268D02*
X4999655Y-14414173D01*
X4999655Y-14414173D02*
X4999655Y-14366554D01*
X4999655Y-14366554D02*
X5009179Y-14328459D01*
X5009179Y-14328459D02*
X5018703Y-14309411D01*
X5018703Y-14309411D02*
X5028227Y-14299888D01*
X5028227Y-14299888D02*
X5047274Y-14290364D01*
X5199655Y-14471316D02*
X5209179Y-14480840D01*
X5209179Y-14480840D02*
X5199655Y-14490364D01*
X5199655Y-14490364D02*
X5190131Y-14480840D01*
X5190131Y-14480840D02*
X5199655Y-14471316D01*
X5199655Y-14471316D02*
X5199655Y-14490364D01*
X5332988Y-14290364D02*
X5352036Y-14290364D01*
X5352036Y-14290364D02*
X5371084Y-14299888D01*
X5371084Y-14299888D02*
X5380608Y-14309411D01*
X5380608Y-14309411D02*
X5390131Y-14328459D01*
X5390131Y-14328459D02*
X5399655Y-14366554D01*
X5399655Y-14366554D02*
X5399655Y-14414173D01*
X5399655Y-14414173D02*
X5390131Y-14452268D01*
X5390131Y-14452268D02*
X5380608Y-14471316D01*
X5380608Y-14471316D02*
X5371084Y-14480840D01*
X5371084Y-14480840D02*
X5352036Y-14490364D01*
X5352036Y-14490364D02*
X5332988Y-14490364D01*
X5332988Y-14490364D02*
X5313941Y-14480840D01*
X5313941Y-14480840D02*
X5304417Y-14471316D01*
X5304417Y-14471316D02*
X5294893Y-14452268D01*
X5294893Y-14452268D02*
X5285369Y-14414173D01*
X5285369Y-14414173D02*
X5285369Y-14366554D01*
X5285369Y-14366554D02*
X5294893Y-14328459D01*
X5294893Y-14328459D02*
X5304417Y-14309411D01*
X5304417Y-14309411D02*
X5313941Y-14299888D01*
X5313941Y-14299888D02*
X5332988Y-14290364D01*
X5590131Y-14490364D02*
X5475846Y-14490364D01*
X5532988Y-14490364D02*
X5532988Y-14290364D01*
X5532988Y-14290364D02*
X5513941Y-14318935D01*
X5513941Y-14318935D02*
X5494893Y-14337983D01*
X5494893Y-14337983D02*
X5475846Y-14347507D01*
X5685369Y-14490364D02*
X5723465Y-14490364D01*
X5723465Y-14490364D02*
X5742512Y-14480840D01*
X5742512Y-14480840D02*
X5752036Y-14471316D01*
X5752036Y-14471316D02*
X5771084Y-14442745D01*
X5771084Y-14442745D02*
X5780607Y-14404649D01*
X5780607Y-14404649D02*
X5780607Y-14328459D01*
X5780607Y-14328459D02*
X5771084Y-14309411D01*
X5771084Y-14309411D02*
X5761560Y-14299888D01*
X5761560Y-14299888D02*
X5742512Y-14290364D01*
X5742512Y-14290364D02*
X5704417Y-14290364D01*
X5704417Y-14290364D02*
X5685369Y-14299888D01*
X5685369Y-14299888D02*
X5675846Y-14309411D01*
X5675846Y-14309411D02*
X5666322Y-14328459D01*
X5666322Y-14328459D02*
X5666322Y-14376078D01*
X5666322Y-14376078D02*
X5675846Y-14395126D01*
X5675846Y-14395126D02*
X5685369Y-14404649D01*
X5685369Y-14404649D02*
X5704417Y-14414173D01*
X5704417Y-14414173D02*
X5742512Y-14414173D01*
X5742512Y-14414173D02*
X5761560Y-14404649D01*
X5761560Y-14404649D02*
X5771084Y-14395126D01*
X5771084Y-14395126D02*
X5780607Y-14376078D01*
X5847274Y-14290364D02*
X5980607Y-14290364D01*
X5980607Y-14290364D02*
X5894893Y-14490364D01*
X6047274Y-14290364D02*
X6047274Y-14328459D01*
X6123465Y-14290364D02*
X6123465Y-14328459D01*
X6418703Y-14566554D02*
X6409179Y-14557030D01*
X6409179Y-14557030D02*
X6390131Y-14528459D01*
X6390131Y-14528459D02*
X6380608Y-14509411D01*
X6380608Y-14509411D02*
X6371084Y-14480840D01*
X6371084Y-14480840D02*
X6361560Y-14433221D01*
X6361560Y-14433221D02*
X6361560Y-14395126D01*
X6361560Y-14395126D02*
X6371084Y-14347507D01*
X6371084Y-14347507D02*
X6380608Y-14318935D01*
X6380608Y-14318935D02*
X6390131Y-14299888D01*
X6390131Y-14299888D02*
X6409179Y-14271316D01*
X6409179Y-14271316D02*
X6418703Y-14261792D01*
X6580608Y-14290364D02*
X6542512Y-14290364D01*
X6542512Y-14290364D02*
X6523465Y-14299888D01*
X6523465Y-14299888D02*
X6513941Y-14309411D01*
X6513941Y-14309411D02*
X6494893Y-14337983D01*
X6494893Y-14337983D02*
X6485369Y-14376078D01*
X6485369Y-14376078D02*
X6485369Y-14452268D01*
X6485369Y-14452268D02*
X6494893Y-14471316D01*
X6494893Y-14471316D02*
X6504417Y-14480840D01*
X6504417Y-14480840D02*
X6523465Y-14490364D01*
X6523465Y-14490364D02*
X6561560Y-14490364D01*
X6561560Y-14490364D02*
X6580608Y-14480840D01*
X6580608Y-14480840D02*
X6590131Y-14471316D01*
X6590131Y-14471316D02*
X6599655Y-14452268D01*
X6599655Y-14452268D02*
X6599655Y-14404649D01*
X6599655Y-14404649D02*
X6590131Y-14385602D01*
X6590131Y-14385602D02*
X6580608Y-14376078D01*
X6580608Y-14376078D02*
X6561560Y-14366554D01*
X6561560Y-14366554D02*
X6523465Y-14366554D01*
X6523465Y-14366554D02*
X6504417Y-14376078D01*
X6504417Y-14376078D02*
X6494893Y-14385602D01*
X6494893Y-14385602D02*
X6485369Y-14404649D01*
X6771084Y-14290364D02*
X6732988Y-14290364D01*
X6732988Y-14290364D02*
X6713941Y-14299888D01*
X6713941Y-14299888D02*
X6704417Y-14309411D01*
X6704417Y-14309411D02*
X6685369Y-14337983D01*
X6685369Y-14337983D02*
X6675846Y-14376078D01*
X6675846Y-14376078D02*
X6675846Y-14452268D01*
X6675846Y-14452268D02*
X6685369Y-14471316D01*
X6685369Y-14471316D02*
X6694893Y-14480840D01*
X6694893Y-14480840D02*
X6713941Y-14490364D01*
X6713941Y-14490364D02*
X6752036Y-14490364D01*
X6752036Y-14490364D02*
X6771084Y-14480840D01*
X6771084Y-14480840D02*
X6780608Y-14471316D01*
X6780608Y-14471316D02*
X6790131Y-14452268D01*
X6790131Y-14452268D02*
X6790131Y-14404649D01*
X6790131Y-14404649D02*
X6780608Y-14385602D01*
X6780608Y-14385602D02*
X6771084Y-14376078D01*
X6771084Y-14376078D02*
X6752036Y-14366554D01*
X6752036Y-14366554D02*
X6713941Y-14366554D01*
X6713941Y-14366554D02*
X6694893Y-14376078D01*
X6694893Y-14376078D02*
X6685369Y-14385602D01*
X6685369Y-14385602D02*
X6675846Y-14404649D01*
X7028227Y-14490364D02*
X7028227Y-14290364D01*
X7113941Y-14490364D02*
X7113941Y-14385602D01*
X7113941Y-14385602D02*
X7104417Y-14366554D01*
X7104417Y-14366554D02*
X7085370Y-14357030D01*
X7085370Y-14357030D02*
X7056798Y-14357030D01*
X7056798Y-14357030D02*
X7037750Y-14366554D01*
X7037750Y-14366554D02*
X7028227Y-14376078D01*
X7237750Y-14490364D02*
X7218703Y-14480840D01*
X7218703Y-14480840D02*
X7209179Y-14471316D01*
X7209179Y-14471316D02*
X7199655Y-14452268D01*
X7199655Y-14452268D02*
X7199655Y-14395126D01*
X7199655Y-14395126D02*
X7209179Y-14376078D01*
X7209179Y-14376078D02*
X7218703Y-14366554D01*
X7218703Y-14366554D02*
X7237750Y-14357030D01*
X7237750Y-14357030D02*
X7266322Y-14357030D01*
X7266322Y-14357030D02*
X7285370Y-14366554D01*
X7285370Y-14366554D02*
X7294893Y-14376078D01*
X7294893Y-14376078D02*
X7304417Y-14395126D01*
X7304417Y-14395126D02*
X7304417Y-14452268D01*
X7304417Y-14452268D02*
X7294893Y-14471316D01*
X7294893Y-14471316D02*
X7285370Y-14480840D01*
X7285370Y-14480840D02*
X7266322Y-14490364D01*
X7266322Y-14490364D02*
X7237750Y-14490364D01*
X7418703Y-14490364D02*
X7399655Y-14480840D01*
X7399655Y-14480840D02*
X7390131Y-14461792D01*
X7390131Y-14461792D02*
X7390131Y-14290364D01*
X7571084Y-14480840D02*
X7552036Y-14490364D01*
X7552036Y-14490364D02*
X7513941Y-14490364D01*
X7513941Y-14490364D02*
X7494893Y-14480840D01*
X7494893Y-14480840D02*
X7485370Y-14461792D01*
X7485370Y-14461792D02*
X7485370Y-14385602D01*
X7485370Y-14385602D02*
X7494893Y-14366554D01*
X7494893Y-14366554D02*
X7513941Y-14357030D01*
X7513941Y-14357030D02*
X7552036Y-14357030D01*
X7552036Y-14357030D02*
X7571084Y-14366554D01*
X7571084Y-14366554D02*
X7580608Y-14385602D01*
X7580608Y-14385602D02*
X7580608Y-14404649D01*
X7580608Y-14404649D02*
X7485370Y-14423697D01*
X7656798Y-14480840D02*
X7675846Y-14490364D01*
X7675846Y-14490364D02*
X7713941Y-14490364D01*
X7713941Y-14490364D02*
X7732989Y-14480840D01*
X7732989Y-14480840D02*
X7742512Y-14461792D01*
X7742512Y-14461792D02*
X7742512Y-14452268D01*
X7742512Y-14452268D02*
X7732989Y-14433221D01*
X7732989Y-14433221D02*
X7713941Y-14423697D01*
X7713941Y-14423697D02*
X7685370Y-14423697D01*
X7685370Y-14423697D02*
X7666322Y-14414173D01*
X7666322Y-14414173D02*
X7656798Y-14395126D01*
X7656798Y-14395126D02*
X7656798Y-14385602D01*
X7656798Y-14385602D02*
X7666322Y-14366554D01*
X7666322Y-14366554D02*
X7685370Y-14357030D01*
X7685370Y-14357030D02*
X7713941Y-14357030D01*
X7713941Y-14357030D02*
X7732989Y-14366554D01*
X7809179Y-14566554D02*
X7818703Y-14557030D01*
X7818703Y-14557030D02*
X7837751Y-14528459D01*
X7837751Y-14528459D02*
X7847274Y-14509411D01*
X7847274Y-14509411D02*
X7856798Y-14480840D01*
X7856798Y-14480840D02*
X7866322Y-14433221D01*
X7866322Y-14433221D02*
X7866322Y-14395126D01*
X7866322Y-14395126D02*
X7856798Y-14347507D01*
X7856798Y-14347507D02*
X7847274Y-14318935D01*
X7847274Y-14318935D02*
X7837751Y-14299888D01*
X7837751Y-14299888D02*
X7818703Y-14271316D01*
X7818703Y-14271316D02*
X7809179Y-14261792D01*
X8171084Y-14566554D02*
X8161560Y-14557030D01*
X8161560Y-14557030D02*
X8142512Y-14528459D01*
X8142512Y-14528459D02*
X8132989Y-14509411D01*
X8132989Y-14509411D02*
X8123465Y-14480840D01*
X8123465Y-14480840D02*
X8113941Y-14433221D01*
X8113941Y-14433221D02*
X8113941Y-14395126D01*
X8113941Y-14395126D02*
X8123465Y-14347507D01*
X8123465Y-14347507D02*
X8132989Y-14318935D01*
X8132989Y-14318935D02*
X8142512Y-14299888D01*
X8142512Y-14299888D02*
X8161560Y-14271316D01*
X8161560Y-14271316D02*
X8171084Y-14261792D01*
X8247274Y-14357030D02*
X8247274Y-14490364D01*
X8247274Y-14376078D02*
X8256798Y-14366554D01*
X8256798Y-14366554D02*
X8275846Y-14357030D01*
X8275846Y-14357030D02*
X8304417Y-14357030D01*
X8304417Y-14357030D02*
X8323465Y-14366554D01*
X8323465Y-14366554D02*
X8332989Y-14385602D01*
X8332989Y-14385602D02*
X8332989Y-14490364D01*
X8456798Y-14490364D02*
X8437751Y-14480840D01*
X8437751Y-14480840D02*
X8428227Y-14471316D01*
X8428227Y-14471316D02*
X8418703Y-14452268D01*
X8418703Y-14452268D02*
X8418703Y-14395126D01*
X8418703Y-14395126D02*
X8428227Y-14376078D01*
X8428227Y-14376078D02*
X8437751Y-14366554D01*
X8437751Y-14366554D02*
X8456798Y-14357030D01*
X8456798Y-14357030D02*
X8485370Y-14357030D01*
X8485370Y-14357030D02*
X8504417Y-14366554D01*
X8504417Y-14366554D02*
X8513941Y-14376078D01*
X8513941Y-14376078D02*
X8523465Y-14395126D01*
X8523465Y-14395126D02*
X8523465Y-14452268D01*
X8523465Y-14452268D02*
X8513941Y-14471316D01*
X8513941Y-14471316D02*
X8504417Y-14480840D01*
X8504417Y-14480840D02*
X8485370Y-14490364D01*
X8485370Y-14490364D02*
X8456798Y-14490364D01*
X8580608Y-14357030D02*
X8656798Y-14357030D01*
X8609179Y-14290364D02*
X8609179Y-14461792D01*
X8609179Y-14461792D02*
X8618703Y-14480840D01*
X8618703Y-14480840D02*
X8637751Y-14490364D01*
X8637751Y-14490364D02*
X8656798Y-14490364D01*
X8875846Y-14357030D02*
X8875846Y-14557030D01*
X8875846Y-14366554D02*
X8894894Y-14357030D01*
X8894894Y-14357030D02*
X8932989Y-14357030D01*
X8932989Y-14357030D02*
X8952036Y-14366554D01*
X8952036Y-14366554D02*
X8961560Y-14376078D01*
X8961560Y-14376078D02*
X8971084Y-14395126D01*
X8971084Y-14395126D02*
X8971084Y-14452268D01*
X8971084Y-14452268D02*
X8961560Y-14471316D01*
X8961560Y-14471316D02*
X8952036Y-14480840D01*
X8952036Y-14480840D02*
X8932989Y-14490364D01*
X8932989Y-14490364D02*
X8894894Y-14490364D01*
X8894894Y-14490364D02*
X8875846Y-14480840D01*
X9085370Y-14490364D02*
X9066322Y-14480840D01*
X9066322Y-14480840D02*
X9056798Y-14461792D01*
X9056798Y-14461792D02*
X9056798Y-14290364D01*
X9247275Y-14490364D02*
X9247275Y-14385602D01*
X9247275Y-14385602D02*
X9237751Y-14366554D01*
X9237751Y-14366554D02*
X9218703Y-14357030D01*
X9218703Y-14357030D02*
X9180608Y-14357030D01*
X9180608Y-14357030D02*
X9161560Y-14366554D01*
X9247275Y-14480840D02*
X9228227Y-14490364D01*
X9228227Y-14490364D02*
X9180608Y-14490364D01*
X9180608Y-14490364D02*
X9161560Y-14480840D01*
X9161560Y-14480840D02*
X9152036Y-14461792D01*
X9152036Y-14461792D02*
X9152036Y-14442745D01*
X9152036Y-14442745D02*
X9161560Y-14423697D01*
X9161560Y-14423697D02*
X9180608Y-14414173D01*
X9180608Y-14414173D02*
X9228227Y-14414173D01*
X9228227Y-14414173D02*
X9247275Y-14404649D01*
X9313941Y-14357030D02*
X9390132Y-14357030D01*
X9342513Y-14290364D02*
X9342513Y-14461792D01*
X9342513Y-14461792D02*
X9352036Y-14480840D01*
X9352036Y-14480840D02*
X9371084Y-14490364D01*
X9371084Y-14490364D02*
X9390132Y-14490364D01*
X9532989Y-14480840D02*
X9513941Y-14490364D01*
X9513941Y-14490364D02*
X9475846Y-14490364D01*
X9475846Y-14490364D02*
X9456798Y-14480840D01*
X9456798Y-14480840D02*
X9447275Y-14461792D01*
X9447275Y-14461792D02*
X9447275Y-14385602D01*
X9447275Y-14385602D02*
X9456798Y-14366554D01*
X9456798Y-14366554D02*
X9475846Y-14357030D01*
X9475846Y-14357030D02*
X9513941Y-14357030D01*
X9513941Y-14357030D02*
X9532989Y-14366554D01*
X9532989Y-14366554D02*
X9542513Y-14385602D01*
X9542513Y-14385602D02*
X9542513Y-14404649D01*
X9542513Y-14404649D02*
X9447275Y-14423697D01*
X9713941Y-14490364D02*
X9713941Y-14290364D01*
X9713941Y-14480840D02*
X9694894Y-14490364D01*
X9694894Y-14490364D02*
X9656798Y-14490364D01*
X9656798Y-14490364D02*
X9637751Y-14480840D01*
X9637751Y-14480840D02*
X9628227Y-14471316D01*
X9628227Y-14471316D02*
X9618703Y-14452268D01*
X9618703Y-14452268D02*
X9618703Y-14395126D01*
X9618703Y-14395126D02*
X9628227Y-14376078D01*
X9628227Y-14376078D02*
X9637751Y-14366554D01*
X9637751Y-14366554D02*
X9656798Y-14357030D01*
X9656798Y-14357030D02*
X9694894Y-14357030D01*
X9694894Y-14357030D02*
X9713941Y-14366554D01*
X9790132Y-14566554D02*
X9799656Y-14557030D01*
X9799656Y-14557030D02*
X9818703Y-14528459D01*
X9818703Y-14528459D02*
X9828227Y-14509411D01*
X9828227Y-14509411D02*
X9837751Y-14480840D01*
X9837751Y-14480840D02*
X9847275Y-14433221D01*
X9847275Y-14433221D02*
X9847275Y-14395126D01*
X9847275Y-14395126D02*
X9837751Y-14347507D01*
X9837751Y-14347507D02*
X9828227Y-14318935D01*
X9828227Y-14318935D02*
X9818703Y-14299888D01*
X9818703Y-14299888D02*
X9799656Y-14271316D01*
X9799656Y-14271316D02*
X9790132Y-14261792D01*
D15*
X2668640Y-14575380D02*
X2843640Y-14750380D01*
X2843640Y-14575380D02*
X2668640Y-14750380D01*
X2843640Y-14662880D02*
G75*
G02*
X2668640Y-14662880I-87500J0D01*
G01*
X2668640Y-14662880D02*
G75*
G02*
X2843640Y-14662880I87500J0D01*
G01*
D12*
X3209179Y-14754364D02*
X3094893Y-14754364D01*
X3152036Y-14754364D02*
X3152036Y-14554364D01*
X3152036Y-14554364D02*
X3132988Y-14582935D01*
X3132988Y-14582935D02*
X3113941Y-14601983D01*
X3113941Y-14601983D02*
X3094893Y-14611507D01*
X3294893Y-14735316D02*
X3304417Y-14744840D01*
X3304417Y-14744840D02*
X3294893Y-14754364D01*
X3294893Y-14754364D02*
X3285369Y-14744840D01*
X3285369Y-14744840D02*
X3294893Y-14735316D01*
X3294893Y-14735316D02*
X3294893Y-14754364D01*
X3371083Y-14554364D02*
X3504417Y-14554364D01*
X3504417Y-14554364D02*
X3418702Y-14754364D01*
X3675845Y-14554364D02*
X3580607Y-14554364D01*
X3580607Y-14554364D02*
X3571083Y-14649602D01*
X3571083Y-14649602D02*
X3580607Y-14640078D01*
X3580607Y-14640078D02*
X3599655Y-14630554D01*
X3599655Y-14630554D02*
X3647274Y-14630554D01*
X3647274Y-14630554D02*
X3666322Y-14640078D01*
X3666322Y-14640078D02*
X3675845Y-14649602D01*
X3675845Y-14649602D02*
X3685369Y-14668649D01*
X3685369Y-14668649D02*
X3685369Y-14716268D01*
X3685369Y-14716268D02*
X3675845Y-14735316D01*
X3675845Y-14735316D02*
X3666322Y-14744840D01*
X3666322Y-14744840D02*
X3647274Y-14754364D01*
X3647274Y-14754364D02*
X3599655Y-14754364D01*
X3599655Y-14754364D02*
X3580607Y-14744840D01*
X3580607Y-14744840D02*
X3571083Y-14735316D01*
X3809179Y-14554364D02*
X3828226Y-14554364D01*
X3828226Y-14554364D02*
X3847274Y-14563888D01*
X3847274Y-14563888D02*
X3856798Y-14573411D01*
X3856798Y-14573411D02*
X3866322Y-14592459D01*
X3866322Y-14592459D02*
X3875845Y-14630554D01*
X3875845Y-14630554D02*
X3875845Y-14678173D01*
X3875845Y-14678173D02*
X3866322Y-14716268D01*
X3866322Y-14716268D02*
X3856798Y-14735316D01*
X3856798Y-14735316D02*
X3847274Y-14744840D01*
X3847274Y-14744840D02*
X3828226Y-14754364D01*
X3828226Y-14754364D02*
X3809179Y-14754364D01*
X3809179Y-14754364D02*
X3790131Y-14744840D01*
X3790131Y-14744840D02*
X3780607Y-14735316D01*
X3780607Y-14735316D02*
X3771083Y-14716268D01*
X3771083Y-14716268D02*
X3761560Y-14678173D01*
X3761560Y-14678173D02*
X3761560Y-14630554D01*
X3761560Y-14630554D02*
X3771083Y-14592459D01*
X3771083Y-14592459D02*
X3780607Y-14573411D01*
X3780607Y-14573411D02*
X3790131Y-14563888D01*
X3790131Y-14563888D02*
X3809179Y-14554364D01*
X3961560Y-14754364D02*
X3961560Y-14621030D01*
X3961560Y-14640078D02*
X3971083Y-14630554D01*
X3971083Y-14630554D02*
X3990131Y-14621030D01*
X3990131Y-14621030D02*
X4018703Y-14621030D01*
X4018703Y-14621030D02*
X4037750Y-14630554D01*
X4037750Y-14630554D02*
X4047274Y-14649602D01*
X4047274Y-14649602D02*
X4047274Y-14754364D01*
X4047274Y-14649602D02*
X4056798Y-14630554D01*
X4056798Y-14630554D02*
X4075845Y-14621030D01*
X4075845Y-14621030D02*
X4104417Y-14621030D01*
X4104417Y-14621030D02*
X4123464Y-14630554D01*
X4123464Y-14630554D02*
X4132988Y-14649602D01*
X4132988Y-14649602D02*
X4132988Y-14754364D01*
X4228226Y-14754364D02*
X4228226Y-14621030D01*
X4228226Y-14640078D02*
X4237750Y-14630554D01*
X4237750Y-14630554D02*
X4256798Y-14621030D01*
X4256798Y-14621030D02*
X4285369Y-14621030D01*
X4285369Y-14621030D02*
X4304417Y-14630554D01*
X4304417Y-14630554D02*
X4313941Y-14649602D01*
X4313941Y-14649602D02*
X4313941Y-14754364D01*
X4313941Y-14649602D02*
X4323465Y-14630554D01*
X4323465Y-14630554D02*
X4342512Y-14621030D01*
X4342512Y-14621030D02*
X4371084Y-14621030D01*
X4371084Y-14621030D02*
X4390131Y-14630554D01*
X4390131Y-14630554D02*
X4399655Y-14649602D01*
X4399655Y-14649602D02*
X4399655Y-14754364D01*
X4790131Y-14544840D02*
X4618703Y-14801983D01*
X5047274Y-14554364D02*
X5066322Y-14554364D01*
X5066322Y-14554364D02*
X5085369Y-14563888D01*
X5085369Y-14563888D02*
X5094893Y-14573411D01*
X5094893Y-14573411D02*
X5104417Y-14592459D01*
X5104417Y-14592459D02*
X5113941Y-14630554D01*
X5113941Y-14630554D02*
X5113941Y-14678173D01*
X5113941Y-14678173D02*
X5104417Y-14716268D01*
X5104417Y-14716268D02*
X5094893Y-14735316D01*
X5094893Y-14735316D02*
X5085369Y-14744840D01*
X5085369Y-14744840D02*
X5066322Y-14754364D01*
X5066322Y-14754364D02*
X5047274Y-14754364D01*
X5047274Y-14754364D02*
X5028227Y-14744840D01*
X5028227Y-14744840D02*
X5018703Y-14735316D01*
X5018703Y-14735316D02*
X5009179Y-14716268D01*
X5009179Y-14716268D02*
X4999655Y-14678173D01*
X4999655Y-14678173D02*
X4999655Y-14630554D01*
X4999655Y-14630554D02*
X5009179Y-14592459D01*
X5009179Y-14592459D02*
X5018703Y-14573411D01*
X5018703Y-14573411D02*
X5028227Y-14563888D01*
X5028227Y-14563888D02*
X5047274Y-14554364D01*
X5199655Y-14735316D02*
X5209179Y-14744840D01*
X5209179Y-14744840D02*
X5199655Y-14754364D01*
X5199655Y-14754364D02*
X5190131Y-14744840D01*
X5190131Y-14744840D02*
X5199655Y-14735316D01*
X5199655Y-14735316D02*
X5199655Y-14754364D01*
X5332988Y-14554364D02*
X5352036Y-14554364D01*
X5352036Y-14554364D02*
X5371084Y-14563888D01*
X5371084Y-14563888D02*
X5380608Y-14573411D01*
X5380608Y-14573411D02*
X5390131Y-14592459D01*
X5390131Y-14592459D02*
X5399655Y-14630554D01*
X5399655Y-14630554D02*
X5399655Y-14678173D01*
X5399655Y-14678173D02*
X5390131Y-14716268D01*
X5390131Y-14716268D02*
X5380608Y-14735316D01*
X5380608Y-14735316D02*
X5371084Y-14744840D01*
X5371084Y-14744840D02*
X5352036Y-14754364D01*
X5352036Y-14754364D02*
X5332988Y-14754364D01*
X5332988Y-14754364D02*
X5313941Y-14744840D01*
X5313941Y-14744840D02*
X5304417Y-14735316D01*
X5304417Y-14735316D02*
X5294893Y-14716268D01*
X5294893Y-14716268D02*
X5285369Y-14678173D01*
X5285369Y-14678173D02*
X5285369Y-14630554D01*
X5285369Y-14630554D02*
X5294893Y-14592459D01*
X5294893Y-14592459D02*
X5304417Y-14573411D01*
X5304417Y-14573411D02*
X5313941Y-14563888D01*
X5313941Y-14563888D02*
X5332988Y-14554364D01*
X5571084Y-14554364D02*
X5532988Y-14554364D01*
X5532988Y-14554364D02*
X5513941Y-14563888D01*
X5513941Y-14563888D02*
X5504417Y-14573411D01*
X5504417Y-14573411D02*
X5485369Y-14601983D01*
X5485369Y-14601983D02*
X5475846Y-14640078D01*
X5475846Y-14640078D02*
X5475846Y-14716268D01*
X5475846Y-14716268D02*
X5485369Y-14735316D01*
X5485369Y-14735316D02*
X5494893Y-14744840D01*
X5494893Y-14744840D02*
X5513941Y-14754364D01*
X5513941Y-14754364D02*
X5552036Y-14754364D01*
X5552036Y-14754364D02*
X5571084Y-14744840D01*
X5571084Y-14744840D02*
X5580608Y-14735316D01*
X5580608Y-14735316D02*
X5590131Y-14716268D01*
X5590131Y-14716268D02*
X5590131Y-14668649D01*
X5590131Y-14668649D02*
X5580608Y-14649602D01*
X5580608Y-14649602D02*
X5571084Y-14640078D01*
X5571084Y-14640078D02*
X5552036Y-14630554D01*
X5552036Y-14630554D02*
X5513941Y-14630554D01*
X5513941Y-14630554D02*
X5494893Y-14640078D01*
X5494893Y-14640078D02*
X5485369Y-14649602D01*
X5485369Y-14649602D02*
X5475846Y-14668649D01*
X5704417Y-14640078D02*
X5685369Y-14630554D01*
X5685369Y-14630554D02*
X5675846Y-14621030D01*
X5675846Y-14621030D02*
X5666322Y-14601983D01*
X5666322Y-14601983D02*
X5666322Y-14592459D01*
X5666322Y-14592459D02*
X5675846Y-14573411D01*
X5675846Y-14573411D02*
X5685369Y-14563888D01*
X5685369Y-14563888D02*
X5704417Y-14554364D01*
X5704417Y-14554364D02*
X5742512Y-14554364D01*
X5742512Y-14554364D02*
X5761560Y-14563888D01*
X5761560Y-14563888D02*
X5771084Y-14573411D01*
X5771084Y-14573411D02*
X5780607Y-14592459D01*
X5780607Y-14592459D02*
X5780607Y-14601983D01*
X5780607Y-14601983D02*
X5771084Y-14621030D01*
X5771084Y-14621030D02*
X5761560Y-14630554D01*
X5761560Y-14630554D02*
X5742512Y-14640078D01*
X5742512Y-14640078D02*
X5704417Y-14640078D01*
X5704417Y-14640078D02*
X5685369Y-14649602D01*
X5685369Y-14649602D02*
X5675846Y-14659126D01*
X5675846Y-14659126D02*
X5666322Y-14678173D01*
X5666322Y-14678173D02*
X5666322Y-14716268D01*
X5666322Y-14716268D02*
X5675846Y-14735316D01*
X5675846Y-14735316D02*
X5685369Y-14744840D01*
X5685369Y-14744840D02*
X5704417Y-14754364D01*
X5704417Y-14754364D02*
X5742512Y-14754364D01*
X5742512Y-14754364D02*
X5761560Y-14744840D01*
X5761560Y-14744840D02*
X5771084Y-14735316D01*
X5771084Y-14735316D02*
X5780607Y-14716268D01*
X5780607Y-14716268D02*
X5780607Y-14678173D01*
X5780607Y-14678173D02*
X5771084Y-14659126D01*
X5771084Y-14659126D02*
X5761560Y-14649602D01*
X5761560Y-14649602D02*
X5742512Y-14640078D01*
X5875846Y-14754364D02*
X5913941Y-14754364D01*
X5913941Y-14754364D02*
X5932988Y-14744840D01*
X5932988Y-14744840D02*
X5942512Y-14735316D01*
X5942512Y-14735316D02*
X5961560Y-14706745D01*
X5961560Y-14706745D02*
X5971084Y-14668649D01*
X5971084Y-14668649D02*
X5971084Y-14592459D01*
X5971084Y-14592459D02*
X5961560Y-14573411D01*
X5961560Y-14573411D02*
X5952036Y-14563888D01*
X5952036Y-14563888D02*
X5932988Y-14554364D01*
X5932988Y-14554364D02*
X5894893Y-14554364D01*
X5894893Y-14554364D02*
X5875846Y-14563888D01*
X5875846Y-14563888D02*
X5866322Y-14573411D01*
X5866322Y-14573411D02*
X5856798Y-14592459D01*
X5856798Y-14592459D02*
X5856798Y-14640078D01*
X5856798Y-14640078D02*
X5866322Y-14659126D01*
X5866322Y-14659126D02*
X5875846Y-14668649D01*
X5875846Y-14668649D02*
X5894893Y-14678173D01*
X5894893Y-14678173D02*
X5932988Y-14678173D01*
X5932988Y-14678173D02*
X5952036Y-14668649D01*
X5952036Y-14668649D02*
X5961560Y-14659126D01*
X5961560Y-14659126D02*
X5971084Y-14640078D01*
X6047274Y-14554364D02*
X6047274Y-14592459D01*
X6123465Y-14554364D02*
X6123465Y-14592459D01*
X6418703Y-14830554D02*
X6409179Y-14821030D01*
X6409179Y-14821030D02*
X6390131Y-14792459D01*
X6390131Y-14792459D02*
X6380608Y-14773411D01*
X6380608Y-14773411D02*
X6371084Y-14744840D01*
X6371084Y-14744840D02*
X6361560Y-14697221D01*
X6361560Y-14697221D02*
X6361560Y-14659126D01*
X6361560Y-14659126D02*
X6371084Y-14611507D01*
X6371084Y-14611507D02*
X6380608Y-14582935D01*
X6380608Y-14582935D02*
X6390131Y-14563888D01*
X6390131Y-14563888D02*
X6409179Y-14535316D01*
X6409179Y-14535316D02*
X6418703Y-14525792D01*
X6523465Y-14640078D02*
X6504417Y-14630554D01*
X6504417Y-14630554D02*
X6494893Y-14621030D01*
X6494893Y-14621030D02*
X6485369Y-14601983D01*
X6485369Y-14601983D02*
X6485369Y-14592459D01*
X6485369Y-14592459D02*
X6494893Y-14573411D01*
X6494893Y-14573411D02*
X6504417Y-14563888D01*
X6504417Y-14563888D02*
X6523465Y-14554364D01*
X6523465Y-14554364D02*
X6561560Y-14554364D01*
X6561560Y-14554364D02*
X6580608Y-14563888D01*
X6580608Y-14563888D02*
X6590131Y-14573411D01*
X6590131Y-14573411D02*
X6599655Y-14592459D01*
X6599655Y-14592459D02*
X6599655Y-14601983D01*
X6599655Y-14601983D02*
X6590131Y-14621030D01*
X6590131Y-14621030D02*
X6580608Y-14630554D01*
X6580608Y-14630554D02*
X6561560Y-14640078D01*
X6561560Y-14640078D02*
X6523465Y-14640078D01*
X6523465Y-14640078D02*
X6504417Y-14649602D01*
X6504417Y-14649602D02*
X6494893Y-14659126D01*
X6494893Y-14659126D02*
X6485369Y-14678173D01*
X6485369Y-14678173D02*
X6485369Y-14716268D01*
X6485369Y-14716268D02*
X6494893Y-14735316D01*
X6494893Y-14735316D02*
X6504417Y-14744840D01*
X6504417Y-14744840D02*
X6523465Y-14754364D01*
X6523465Y-14754364D02*
X6561560Y-14754364D01*
X6561560Y-14754364D02*
X6580608Y-14744840D01*
X6580608Y-14744840D02*
X6590131Y-14735316D01*
X6590131Y-14735316D02*
X6599655Y-14716268D01*
X6599655Y-14716268D02*
X6599655Y-14678173D01*
X6599655Y-14678173D02*
X6590131Y-14659126D01*
X6590131Y-14659126D02*
X6580608Y-14649602D01*
X6580608Y-14649602D02*
X6561560Y-14640078D01*
X6723465Y-14554364D02*
X6742512Y-14554364D01*
X6742512Y-14554364D02*
X6761560Y-14563888D01*
X6761560Y-14563888D02*
X6771084Y-14573411D01*
X6771084Y-14573411D02*
X6780608Y-14592459D01*
X6780608Y-14592459D02*
X6790131Y-14630554D01*
X6790131Y-14630554D02*
X6790131Y-14678173D01*
X6790131Y-14678173D02*
X6780608Y-14716268D01*
X6780608Y-14716268D02*
X6771084Y-14735316D01*
X6771084Y-14735316D02*
X6761560Y-14744840D01*
X6761560Y-14744840D02*
X6742512Y-14754364D01*
X6742512Y-14754364D02*
X6723465Y-14754364D01*
X6723465Y-14754364D02*
X6704417Y-14744840D01*
X6704417Y-14744840D02*
X6694893Y-14735316D01*
X6694893Y-14735316D02*
X6685369Y-14716268D01*
X6685369Y-14716268D02*
X6675846Y-14678173D01*
X6675846Y-14678173D02*
X6675846Y-14630554D01*
X6675846Y-14630554D02*
X6685369Y-14592459D01*
X6685369Y-14592459D02*
X6694893Y-14573411D01*
X6694893Y-14573411D02*
X6704417Y-14563888D01*
X6704417Y-14563888D02*
X6723465Y-14554364D01*
X7028227Y-14754364D02*
X7028227Y-14554364D01*
X7113941Y-14754364D02*
X7113941Y-14649602D01*
X7113941Y-14649602D02*
X7104417Y-14630554D01*
X7104417Y-14630554D02*
X7085370Y-14621030D01*
X7085370Y-14621030D02*
X7056798Y-14621030D01*
X7056798Y-14621030D02*
X7037750Y-14630554D01*
X7037750Y-14630554D02*
X7028227Y-14640078D01*
X7237750Y-14754364D02*
X7218703Y-14744840D01*
X7218703Y-14744840D02*
X7209179Y-14735316D01*
X7209179Y-14735316D02*
X7199655Y-14716268D01*
X7199655Y-14716268D02*
X7199655Y-14659126D01*
X7199655Y-14659126D02*
X7209179Y-14640078D01*
X7209179Y-14640078D02*
X7218703Y-14630554D01*
X7218703Y-14630554D02*
X7237750Y-14621030D01*
X7237750Y-14621030D02*
X7266322Y-14621030D01*
X7266322Y-14621030D02*
X7285370Y-14630554D01*
X7285370Y-14630554D02*
X7294893Y-14640078D01*
X7294893Y-14640078D02*
X7304417Y-14659126D01*
X7304417Y-14659126D02*
X7304417Y-14716268D01*
X7304417Y-14716268D02*
X7294893Y-14735316D01*
X7294893Y-14735316D02*
X7285370Y-14744840D01*
X7285370Y-14744840D02*
X7266322Y-14754364D01*
X7266322Y-14754364D02*
X7237750Y-14754364D01*
X7418703Y-14754364D02*
X7399655Y-14744840D01*
X7399655Y-14744840D02*
X7390131Y-14725792D01*
X7390131Y-14725792D02*
X7390131Y-14554364D01*
X7571084Y-14744840D02*
X7552036Y-14754364D01*
X7552036Y-14754364D02*
X7513941Y-14754364D01*
X7513941Y-14754364D02*
X7494893Y-14744840D01*
X7494893Y-14744840D02*
X7485370Y-14725792D01*
X7485370Y-14725792D02*
X7485370Y-14649602D01*
X7485370Y-14649602D02*
X7494893Y-14630554D01*
X7494893Y-14630554D02*
X7513941Y-14621030D01*
X7513941Y-14621030D02*
X7552036Y-14621030D01*
X7552036Y-14621030D02*
X7571084Y-14630554D01*
X7571084Y-14630554D02*
X7580608Y-14649602D01*
X7580608Y-14649602D02*
X7580608Y-14668649D01*
X7580608Y-14668649D02*
X7485370Y-14687697D01*
X7656798Y-14744840D02*
X7675846Y-14754364D01*
X7675846Y-14754364D02*
X7713941Y-14754364D01*
X7713941Y-14754364D02*
X7732989Y-14744840D01*
X7732989Y-14744840D02*
X7742512Y-14725792D01*
X7742512Y-14725792D02*
X7742512Y-14716268D01*
X7742512Y-14716268D02*
X7732989Y-14697221D01*
X7732989Y-14697221D02*
X7713941Y-14687697D01*
X7713941Y-14687697D02*
X7685370Y-14687697D01*
X7685370Y-14687697D02*
X7666322Y-14678173D01*
X7666322Y-14678173D02*
X7656798Y-14659126D01*
X7656798Y-14659126D02*
X7656798Y-14649602D01*
X7656798Y-14649602D02*
X7666322Y-14630554D01*
X7666322Y-14630554D02*
X7685370Y-14621030D01*
X7685370Y-14621030D02*
X7713941Y-14621030D01*
X7713941Y-14621030D02*
X7732989Y-14630554D01*
X7809179Y-14830554D02*
X7818703Y-14821030D01*
X7818703Y-14821030D02*
X7837751Y-14792459D01*
X7837751Y-14792459D02*
X7847274Y-14773411D01*
X7847274Y-14773411D02*
X7856798Y-14744840D01*
X7856798Y-14744840D02*
X7866322Y-14697221D01*
X7866322Y-14697221D02*
X7866322Y-14659126D01*
X7866322Y-14659126D02*
X7856798Y-14611507D01*
X7856798Y-14611507D02*
X7847274Y-14582935D01*
X7847274Y-14582935D02*
X7837751Y-14563888D01*
X7837751Y-14563888D02*
X7818703Y-14535316D01*
X7818703Y-14535316D02*
X7809179Y-14525792D01*
X8171084Y-14830554D02*
X8161560Y-14821030D01*
X8161560Y-14821030D02*
X8142512Y-14792459D01*
X8142512Y-14792459D02*
X8132989Y-14773411D01*
X8132989Y-14773411D02*
X8123465Y-14744840D01*
X8123465Y-14744840D02*
X8113941Y-14697221D01*
X8113941Y-14697221D02*
X8113941Y-14659126D01*
X8113941Y-14659126D02*
X8123465Y-14611507D01*
X8123465Y-14611507D02*
X8132989Y-14582935D01*
X8132989Y-14582935D02*
X8142512Y-14563888D01*
X8142512Y-14563888D02*
X8161560Y-14535316D01*
X8161560Y-14535316D02*
X8171084Y-14525792D01*
X8247274Y-14621030D02*
X8247274Y-14754364D01*
X8247274Y-14640078D02*
X8256798Y-14630554D01*
X8256798Y-14630554D02*
X8275846Y-14621030D01*
X8275846Y-14621030D02*
X8304417Y-14621030D01*
X8304417Y-14621030D02*
X8323465Y-14630554D01*
X8323465Y-14630554D02*
X8332989Y-14649602D01*
X8332989Y-14649602D02*
X8332989Y-14754364D01*
X8456798Y-14754364D02*
X8437751Y-14744840D01*
X8437751Y-14744840D02*
X8428227Y-14735316D01*
X8428227Y-14735316D02*
X8418703Y-14716268D01*
X8418703Y-14716268D02*
X8418703Y-14659126D01*
X8418703Y-14659126D02*
X8428227Y-14640078D01*
X8428227Y-14640078D02*
X8437751Y-14630554D01*
X8437751Y-14630554D02*
X8456798Y-14621030D01*
X8456798Y-14621030D02*
X8485370Y-14621030D01*
X8485370Y-14621030D02*
X8504417Y-14630554D01*
X8504417Y-14630554D02*
X8513941Y-14640078D01*
X8513941Y-14640078D02*
X8523465Y-14659126D01*
X8523465Y-14659126D02*
X8523465Y-14716268D01*
X8523465Y-14716268D02*
X8513941Y-14735316D01*
X8513941Y-14735316D02*
X8504417Y-14744840D01*
X8504417Y-14744840D02*
X8485370Y-14754364D01*
X8485370Y-14754364D02*
X8456798Y-14754364D01*
X8580608Y-14621030D02*
X8656798Y-14621030D01*
X8609179Y-14554364D02*
X8609179Y-14725792D01*
X8609179Y-14725792D02*
X8618703Y-14744840D01*
X8618703Y-14744840D02*
X8637751Y-14754364D01*
X8637751Y-14754364D02*
X8656798Y-14754364D01*
X8875846Y-14621030D02*
X8875846Y-14821030D01*
X8875846Y-14630554D02*
X8894894Y-14621030D01*
X8894894Y-14621030D02*
X8932989Y-14621030D01*
X8932989Y-14621030D02*
X8952036Y-14630554D01*
X8952036Y-14630554D02*
X8961560Y-14640078D01*
X8961560Y-14640078D02*
X8971084Y-14659126D01*
X8971084Y-14659126D02*
X8971084Y-14716268D01*
X8971084Y-14716268D02*
X8961560Y-14735316D01*
X8961560Y-14735316D02*
X8952036Y-14744840D01*
X8952036Y-14744840D02*
X8932989Y-14754364D01*
X8932989Y-14754364D02*
X8894894Y-14754364D01*
X8894894Y-14754364D02*
X8875846Y-14744840D01*
X9085370Y-14754364D02*
X9066322Y-14744840D01*
X9066322Y-14744840D02*
X9056798Y-14725792D01*
X9056798Y-14725792D02*
X9056798Y-14554364D01*
X9247275Y-14754364D02*
X9247275Y-14649602D01*
X9247275Y-14649602D02*
X9237751Y-14630554D01*
X9237751Y-14630554D02*
X9218703Y-14621030D01*
X9218703Y-14621030D02*
X9180608Y-14621030D01*
X9180608Y-14621030D02*
X9161560Y-14630554D01*
X9247275Y-14744840D02*
X9228227Y-14754364D01*
X9228227Y-14754364D02*
X9180608Y-14754364D01*
X9180608Y-14754364D02*
X9161560Y-14744840D01*
X9161560Y-14744840D02*
X9152036Y-14725792D01*
X9152036Y-14725792D02*
X9152036Y-14706745D01*
X9152036Y-14706745D02*
X9161560Y-14687697D01*
X9161560Y-14687697D02*
X9180608Y-14678173D01*
X9180608Y-14678173D02*
X9228227Y-14678173D01*
X9228227Y-14678173D02*
X9247275Y-14668649D01*
X9313941Y-14621030D02*
X9390132Y-14621030D01*
X9342513Y-14554364D02*
X9342513Y-14725792D01*
X9342513Y-14725792D02*
X9352036Y-14744840D01*
X9352036Y-14744840D02*
X9371084Y-14754364D01*
X9371084Y-14754364D02*
X9390132Y-14754364D01*
X9532989Y-14744840D02*
X9513941Y-14754364D01*
X9513941Y-14754364D02*
X9475846Y-14754364D01*
X9475846Y-14754364D02*
X9456798Y-14744840D01*
X9456798Y-14744840D02*
X9447275Y-14725792D01*
X9447275Y-14725792D02*
X9447275Y-14649602D01*
X9447275Y-14649602D02*
X9456798Y-14630554D01*
X9456798Y-14630554D02*
X9475846Y-14621030D01*
X9475846Y-14621030D02*
X9513941Y-14621030D01*
X9513941Y-14621030D02*
X9532989Y-14630554D01*
X9532989Y-14630554D02*
X9542513Y-14649602D01*
X9542513Y-14649602D02*
X9542513Y-14668649D01*
X9542513Y-14668649D02*
X9447275Y-14687697D01*
X9713941Y-14754364D02*
X9713941Y-14554364D01*
X9713941Y-14744840D02*
X9694894Y-14754364D01*
X9694894Y-14754364D02*
X9656798Y-14754364D01*
X9656798Y-14754364D02*
X9637751Y-14744840D01*
X9637751Y-14744840D02*
X9628227Y-14735316D01*
X9628227Y-14735316D02*
X9618703Y-14716268D01*
X9618703Y-14716268D02*
X9618703Y-14659126D01*
X9618703Y-14659126D02*
X9628227Y-14640078D01*
X9628227Y-14640078D02*
X9637751Y-14630554D01*
X9637751Y-14630554D02*
X9656798Y-14621030D01*
X9656798Y-14621030D02*
X9694894Y-14621030D01*
X9694894Y-14621030D02*
X9713941Y-14630554D01*
X9790132Y-14830554D02*
X9799656Y-14821030D01*
X9799656Y-14821030D02*
X9818703Y-14792459D01*
X9818703Y-14792459D02*
X9828227Y-14773411D01*
X9828227Y-14773411D02*
X9837751Y-14744840D01*
X9837751Y-14744840D02*
X9847275Y-14697221D01*
X9847275Y-14697221D02*
X9847275Y-14659126D01*
X9847275Y-14659126D02*
X9837751Y-14611507D01*
X9837751Y-14611507D02*
X9828227Y-14582935D01*
X9828227Y-14582935D02*
X9818703Y-14563888D01*
X9818703Y-14563888D02*
X9799656Y-14535316D01*
X9799656Y-14535316D02*
X9790132Y-14525792D01*
X2643640Y-14857880D02*
X2843640Y-15057880D01*
X2843640Y-14857880D02*
X2643640Y-15057880D01*
X2743640Y-14857880D02*
X2743640Y-15057880D01*
X2643640Y-14957880D02*
X2843640Y-14957880D01*
X3085369Y-14849364D02*
X3209179Y-14849364D01*
X3209179Y-14849364D02*
X3142512Y-14925554D01*
X3142512Y-14925554D02*
X3171083Y-14925554D01*
X3171083Y-14925554D02*
X3190131Y-14935078D01*
X3190131Y-14935078D02*
X3199655Y-14944602D01*
X3199655Y-14944602D02*
X3209179Y-14963649D01*
X3209179Y-14963649D02*
X3209179Y-15011268D01*
X3209179Y-15011268D02*
X3199655Y-15030316D01*
X3199655Y-15030316D02*
X3190131Y-15039840D01*
X3190131Y-15039840D02*
X3171083Y-15049364D01*
X3171083Y-15049364D02*
X3113941Y-15049364D01*
X3113941Y-15049364D02*
X3094893Y-15039840D01*
X3094893Y-15039840D02*
X3085369Y-15030316D01*
X3294893Y-15030316D02*
X3304417Y-15039840D01*
X3304417Y-15039840D02*
X3294893Y-15049364D01*
X3294893Y-15049364D02*
X3285369Y-15039840D01*
X3285369Y-15039840D02*
X3294893Y-15030316D01*
X3294893Y-15030316D02*
X3294893Y-15049364D01*
X3399655Y-15049364D02*
X3437750Y-15049364D01*
X3437750Y-15049364D02*
X3456798Y-15039840D01*
X3456798Y-15039840D02*
X3466322Y-15030316D01*
X3466322Y-15030316D02*
X3485369Y-15001745D01*
X3485369Y-15001745D02*
X3494893Y-14963649D01*
X3494893Y-14963649D02*
X3494893Y-14887459D01*
X3494893Y-14887459D02*
X3485369Y-14868411D01*
X3485369Y-14868411D02*
X3475845Y-14858888D01*
X3475845Y-14858888D02*
X3456798Y-14849364D01*
X3456798Y-14849364D02*
X3418702Y-14849364D01*
X3418702Y-14849364D02*
X3399655Y-14858888D01*
X3399655Y-14858888D02*
X3390131Y-14868411D01*
X3390131Y-14868411D02*
X3380607Y-14887459D01*
X3380607Y-14887459D02*
X3380607Y-14935078D01*
X3380607Y-14935078D02*
X3390131Y-14954126D01*
X3390131Y-14954126D02*
X3399655Y-14963649D01*
X3399655Y-14963649D02*
X3418702Y-14973173D01*
X3418702Y-14973173D02*
X3456798Y-14973173D01*
X3456798Y-14973173D02*
X3475845Y-14963649D01*
X3475845Y-14963649D02*
X3485369Y-14954126D01*
X3485369Y-14954126D02*
X3494893Y-14935078D01*
X3609179Y-14935078D02*
X3590131Y-14925554D01*
X3590131Y-14925554D02*
X3580607Y-14916030D01*
X3580607Y-14916030D02*
X3571083Y-14896983D01*
X3571083Y-14896983D02*
X3571083Y-14887459D01*
X3571083Y-14887459D02*
X3580607Y-14868411D01*
X3580607Y-14868411D02*
X3590131Y-14858888D01*
X3590131Y-14858888D02*
X3609179Y-14849364D01*
X3609179Y-14849364D02*
X3647274Y-14849364D01*
X3647274Y-14849364D02*
X3666322Y-14858888D01*
X3666322Y-14858888D02*
X3675845Y-14868411D01*
X3675845Y-14868411D02*
X3685369Y-14887459D01*
X3685369Y-14887459D02*
X3685369Y-14896983D01*
X3685369Y-14896983D02*
X3675845Y-14916030D01*
X3675845Y-14916030D02*
X3666322Y-14925554D01*
X3666322Y-14925554D02*
X3647274Y-14935078D01*
X3647274Y-14935078D02*
X3609179Y-14935078D01*
X3609179Y-14935078D02*
X3590131Y-14944602D01*
X3590131Y-14944602D02*
X3580607Y-14954126D01*
X3580607Y-14954126D02*
X3571083Y-14973173D01*
X3571083Y-14973173D02*
X3571083Y-15011268D01*
X3571083Y-15011268D02*
X3580607Y-15030316D01*
X3580607Y-15030316D02*
X3590131Y-15039840D01*
X3590131Y-15039840D02*
X3609179Y-15049364D01*
X3609179Y-15049364D02*
X3647274Y-15049364D01*
X3647274Y-15049364D02*
X3666322Y-15039840D01*
X3666322Y-15039840D02*
X3675845Y-15030316D01*
X3675845Y-15030316D02*
X3685369Y-15011268D01*
X3685369Y-15011268D02*
X3685369Y-14973173D01*
X3685369Y-14973173D02*
X3675845Y-14954126D01*
X3675845Y-14954126D02*
X3666322Y-14944602D01*
X3666322Y-14944602D02*
X3647274Y-14935078D01*
X3799655Y-14935078D02*
X3780607Y-14925554D01*
X3780607Y-14925554D02*
X3771083Y-14916030D01*
X3771083Y-14916030D02*
X3761560Y-14896983D01*
X3761560Y-14896983D02*
X3761560Y-14887459D01*
X3761560Y-14887459D02*
X3771083Y-14868411D01*
X3771083Y-14868411D02*
X3780607Y-14858888D01*
X3780607Y-14858888D02*
X3799655Y-14849364D01*
X3799655Y-14849364D02*
X3837750Y-14849364D01*
X3837750Y-14849364D02*
X3856798Y-14858888D01*
X3856798Y-14858888D02*
X3866322Y-14868411D01*
X3866322Y-14868411D02*
X3875845Y-14887459D01*
X3875845Y-14887459D02*
X3875845Y-14896983D01*
X3875845Y-14896983D02*
X3866322Y-14916030D01*
X3866322Y-14916030D02*
X3856798Y-14925554D01*
X3856798Y-14925554D02*
X3837750Y-14935078D01*
X3837750Y-14935078D02*
X3799655Y-14935078D01*
X3799655Y-14935078D02*
X3780607Y-14944602D01*
X3780607Y-14944602D02*
X3771083Y-14954126D01*
X3771083Y-14954126D02*
X3761560Y-14973173D01*
X3761560Y-14973173D02*
X3761560Y-15011268D01*
X3761560Y-15011268D02*
X3771083Y-15030316D01*
X3771083Y-15030316D02*
X3780607Y-15039840D01*
X3780607Y-15039840D02*
X3799655Y-15049364D01*
X3799655Y-15049364D02*
X3837750Y-15049364D01*
X3837750Y-15049364D02*
X3856798Y-15039840D01*
X3856798Y-15039840D02*
X3866322Y-15030316D01*
X3866322Y-15030316D02*
X3875845Y-15011268D01*
X3875845Y-15011268D02*
X3875845Y-14973173D01*
X3875845Y-14973173D02*
X3866322Y-14954126D01*
X3866322Y-14954126D02*
X3856798Y-14944602D01*
X3856798Y-14944602D02*
X3837750Y-14935078D01*
X3961560Y-15049364D02*
X3961560Y-14916030D01*
X3961560Y-14935078D02*
X3971083Y-14925554D01*
X3971083Y-14925554D02*
X3990131Y-14916030D01*
X3990131Y-14916030D02*
X4018703Y-14916030D01*
X4018703Y-14916030D02*
X4037750Y-14925554D01*
X4037750Y-14925554D02*
X4047274Y-14944602D01*
X4047274Y-14944602D02*
X4047274Y-15049364D01*
X4047274Y-14944602D02*
X4056798Y-14925554D01*
X4056798Y-14925554D02*
X4075845Y-14916030D01*
X4075845Y-14916030D02*
X4104417Y-14916030D01*
X4104417Y-14916030D02*
X4123464Y-14925554D01*
X4123464Y-14925554D02*
X4132988Y-14944602D01*
X4132988Y-14944602D02*
X4132988Y-15049364D01*
X4228226Y-15049364D02*
X4228226Y-14916030D01*
X4228226Y-14935078D02*
X4237750Y-14925554D01*
X4237750Y-14925554D02*
X4256798Y-14916030D01*
X4256798Y-14916030D02*
X4285369Y-14916030D01*
X4285369Y-14916030D02*
X4304417Y-14925554D01*
X4304417Y-14925554D02*
X4313941Y-14944602D01*
X4313941Y-14944602D02*
X4313941Y-15049364D01*
X4313941Y-14944602D02*
X4323465Y-14925554D01*
X4323465Y-14925554D02*
X4342512Y-14916030D01*
X4342512Y-14916030D02*
X4371084Y-14916030D01*
X4371084Y-14916030D02*
X4390131Y-14925554D01*
X4390131Y-14925554D02*
X4399655Y-14944602D01*
X4399655Y-14944602D02*
X4399655Y-15049364D01*
X4790131Y-14839840D02*
X4618703Y-15096983D01*
X5047274Y-14849364D02*
X5066322Y-14849364D01*
X5066322Y-14849364D02*
X5085369Y-14858888D01*
X5085369Y-14858888D02*
X5094893Y-14868411D01*
X5094893Y-14868411D02*
X5104417Y-14887459D01*
X5104417Y-14887459D02*
X5113941Y-14925554D01*
X5113941Y-14925554D02*
X5113941Y-14973173D01*
X5113941Y-14973173D02*
X5104417Y-15011268D01*
X5104417Y-15011268D02*
X5094893Y-15030316D01*
X5094893Y-15030316D02*
X5085369Y-15039840D01*
X5085369Y-15039840D02*
X5066322Y-15049364D01*
X5066322Y-15049364D02*
X5047274Y-15049364D01*
X5047274Y-15049364D02*
X5028227Y-15039840D01*
X5028227Y-15039840D02*
X5018703Y-15030316D01*
X5018703Y-15030316D02*
X5009179Y-15011268D01*
X5009179Y-15011268D02*
X4999655Y-14973173D01*
X4999655Y-14973173D02*
X4999655Y-14925554D01*
X4999655Y-14925554D02*
X5009179Y-14887459D01*
X5009179Y-14887459D02*
X5018703Y-14868411D01*
X5018703Y-14868411D02*
X5028227Y-14858888D01*
X5028227Y-14858888D02*
X5047274Y-14849364D01*
X5199655Y-15030316D02*
X5209179Y-15039840D01*
X5209179Y-15039840D02*
X5199655Y-15049364D01*
X5199655Y-15049364D02*
X5190131Y-15039840D01*
X5190131Y-15039840D02*
X5199655Y-15030316D01*
X5199655Y-15030316D02*
X5199655Y-15049364D01*
X5399655Y-15049364D02*
X5285369Y-15049364D01*
X5342512Y-15049364D02*
X5342512Y-14849364D01*
X5342512Y-14849364D02*
X5323465Y-14877935D01*
X5323465Y-14877935D02*
X5304417Y-14896983D01*
X5304417Y-14896983D02*
X5285369Y-14906507D01*
X5580608Y-14849364D02*
X5485369Y-14849364D01*
X5485369Y-14849364D02*
X5475846Y-14944602D01*
X5475846Y-14944602D02*
X5485369Y-14935078D01*
X5485369Y-14935078D02*
X5504417Y-14925554D01*
X5504417Y-14925554D02*
X5552036Y-14925554D01*
X5552036Y-14925554D02*
X5571084Y-14935078D01*
X5571084Y-14935078D02*
X5580608Y-14944602D01*
X5580608Y-14944602D02*
X5590131Y-14963649D01*
X5590131Y-14963649D02*
X5590131Y-15011268D01*
X5590131Y-15011268D02*
X5580608Y-15030316D01*
X5580608Y-15030316D02*
X5571084Y-15039840D01*
X5571084Y-15039840D02*
X5552036Y-15049364D01*
X5552036Y-15049364D02*
X5504417Y-15049364D01*
X5504417Y-15049364D02*
X5485369Y-15039840D01*
X5485369Y-15039840D02*
X5475846Y-15030316D01*
X5656798Y-14849364D02*
X5790131Y-14849364D01*
X5790131Y-14849364D02*
X5704417Y-15049364D01*
X5904417Y-14849364D02*
X5923465Y-14849364D01*
X5923465Y-14849364D02*
X5942512Y-14858888D01*
X5942512Y-14858888D02*
X5952036Y-14868411D01*
X5952036Y-14868411D02*
X5961560Y-14887459D01*
X5961560Y-14887459D02*
X5971084Y-14925554D01*
X5971084Y-14925554D02*
X5971084Y-14973173D01*
X5971084Y-14973173D02*
X5961560Y-15011268D01*
X5961560Y-15011268D02*
X5952036Y-15030316D01*
X5952036Y-15030316D02*
X5942512Y-15039840D01*
X5942512Y-15039840D02*
X5923465Y-15049364D01*
X5923465Y-15049364D02*
X5904417Y-15049364D01*
X5904417Y-15049364D02*
X5885369Y-15039840D01*
X5885369Y-15039840D02*
X5875846Y-15030316D01*
X5875846Y-15030316D02*
X5866322Y-15011268D01*
X5866322Y-15011268D02*
X5856798Y-14973173D01*
X5856798Y-14973173D02*
X5856798Y-14925554D01*
X5856798Y-14925554D02*
X5866322Y-14887459D01*
X5866322Y-14887459D02*
X5875846Y-14868411D01*
X5875846Y-14868411D02*
X5885369Y-14858888D01*
X5885369Y-14858888D02*
X5904417Y-14849364D01*
X6047274Y-14849364D02*
X6047274Y-14887459D01*
X6123465Y-14849364D02*
X6123465Y-14887459D01*
X6418703Y-15125554D02*
X6409179Y-15116030D01*
X6409179Y-15116030D02*
X6390131Y-15087459D01*
X6390131Y-15087459D02*
X6380608Y-15068411D01*
X6380608Y-15068411D02*
X6371084Y-15039840D01*
X6371084Y-15039840D02*
X6361560Y-14992221D01*
X6361560Y-14992221D02*
X6361560Y-14954126D01*
X6361560Y-14954126D02*
X6371084Y-14906507D01*
X6371084Y-14906507D02*
X6380608Y-14877935D01*
X6380608Y-14877935D02*
X6390131Y-14858888D01*
X6390131Y-14858888D02*
X6409179Y-14830316D01*
X6409179Y-14830316D02*
X6418703Y-14820792D01*
X6580608Y-14916030D02*
X6580608Y-15049364D01*
X6532988Y-14839840D02*
X6485369Y-14982697D01*
X6485369Y-14982697D02*
X6609179Y-14982697D01*
X6723465Y-14849364D02*
X6742512Y-14849364D01*
X6742512Y-14849364D02*
X6761560Y-14858888D01*
X6761560Y-14858888D02*
X6771084Y-14868411D01*
X6771084Y-14868411D02*
X6780608Y-14887459D01*
X6780608Y-14887459D02*
X6790131Y-14925554D01*
X6790131Y-14925554D02*
X6790131Y-14973173D01*
X6790131Y-14973173D02*
X6780608Y-15011268D01*
X6780608Y-15011268D02*
X6771084Y-15030316D01*
X6771084Y-15030316D02*
X6761560Y-15039840D01*
X6761560Y-15039840D02*
X6742512Y-15049364D01*
X6742512Y-15049364D02*
X6723465Y-15049364D01*
X6723465Y-15049364D02*
X6704417Y-15039840D01*
X6704417Y-15039840D02*
X6694893Y-15030316D01*
X6694893Y-15030316D02*
X6685369Y-15011268D01*
X6685369Y-15011268D02*
X6675846Y-14973173D01*
X6675846Y-14973173D02*
X6675846Y-14925554D01*
X6675846Y-14925554D02*
X6685369Y-14887459D01*
X6685369Y-14887459D02*
X6694893Y-14868411D01*
X6694893Y-14868411D02*
X6704417Y-14858888D01*
X6704417Y-14858888D02*
X6723465Y-14849364D01*
X7028227Y-15049364D02*
X7028227Y-14849364D01*
X7113941Y-15049364D02*
X7113941Y-14944602D01*
X7113941Y-14944602D02*
X7104417Y-14925554D01*
X7104417Y-14925554D02*
X7085370Y-14916030D01*
X7085370Y-14916030D02*
X7056798Y-14916030D01*
X7056798Y-14916030D02*
X7037750Y-14925554D01*
X7037750Y-14925554D02*
X7028227Y-14935078D01*
X7237750Y-15049364D02*
X7218703Y-15039840D01*
X7218703Y-15039840D02*
X7209179Y-15030316D01*
X7209179Y-15030316D02*
X7199655Y-15011268D01*
X7199655Y-15011268D02*
X7199655Y-14954126D01*
X7199655Y-14954126D02*
X7209179Y-14935078D01*
X7209179Y-14935078D02*
X7218703Y-14925554D01*
X7218703Y-14925554D02*
X7237750Y-14916030D01*
X7237750Y-14916030D02*
X7266322Y-14916030D01*
X7266322Y-14916030D02*
X7285370Y-14925554D01*
X7285370Y-14925554D02*
X7294893Y-14935078D01*
X7294893Y-14935078D02*
X7304417Y-14954126D01*
X7304417Y-14954126D02*
X7304417Y-15011268D01*
X7304417Y-15011268D02*
X7294893Y-15030316D01*
X7294893Y-15030316D02*
X7285370Y-15039840D01*
X7285370Y-15039840D02*
X7266322Y-15049364D01*
X7266322Y-15049364D02*
X7237750Y-15049364D01*
X7418703Y-15049364D02*
X7399655Y-15039840D01*
X7399655Y-15039840D02*
X7390131Y-15020792D01*
X7390131Y-15020792D02*
X7390131Y-14849364D01*
X7571084Y-15039840D02*
X7552036Y-15049364D01*
X7552036Y-15049364D02*
X7513941Y-15049364D01*
X7513941Y-15049364D02*
X7494893Y-15039840D01*
X7494893Y-15039840D02*
X7485370Y-15020792D01*
X7485370Y-15020792D02*
X7485370Y-14944602D01*
X7485370Y-14944602D02*
X7494893Y-14925554D01*
X7494893Y-14925554D02*
X7513941Y-14916030D01*
X7513941Y-14916030D02*
X7552036Y-14916030D01*
X7552036Y-14916030D02*
X7571084Y-14925554D01*
X7571084Y-14925554D02*
X7580608Y-14944602D01*
X7580608Y-14944602D02*
X7580608Y-14963649D01*
X7580608Y-14963649D02*
X7485370Y-14982697D01*
X7656798Y-15039840D02*
X7675846Y-15049364D01*
X7675846Y-15049364D02*
X7713941Y-15049364D01*
X7713941Y-15049364D02*
X7732989Y-15039840D01*
X7732989Y-15039840D02*
X7742512Y-15020792D01*
X7742512Y-15020792D02*
X7742512Y-15011268D01*
X7742512Y-15011268D02*
X7732989Y-14992221D01*
X7732989Y-14992221D02*
X7713941Y-14982697D01*
X7713941Y-14982697D02*
X7685370Y-14982697D01*
X7685370Y-14982697D02*
X7666322Y-14973173D01*
X7666322Y-14973173D02*
X7656798Y-14954126D01*
X7656798Y-14954126D02*
X7656798Y-14944602D01*
X7656798Y-14944602D02*
X7666322Y-14925554D01*
X7666322Y-14925554D02*
X7685370Y-14916030D01*
X7685370Y-14916030D02*
X7713941Y-14916030D01*
X7713941Y-14916030D02*
X7732989Y-14925554D01*
X7809179Y-15125554D02*
X7818703Y-15116030D01*
X7818703Y-15116030D02*
X7837751Y-15087459D01*
X7837751Y-15087459D02*
X7847274Y-15068411D01*
X7847274Y-15068411D02*
X7856798Y-15039840D01*
X7856798Y-15039840D02*
X7866322Y-14992221D01*
X7866322Y-14992221D02*
X7866322Y-14954126D01*
X7866322Y-14954126D02*
X7856798Y-14906507D01*
X7856798Y-14906507D02*
X7847274Y-14877935D01*
X7847274Y-14877935D02*
X7837751Y-14858888D01*
X7837751Y-14858888D02*
X7818703Y-14830316D01*
X7818703Y-14830316D02*
X7809179Y-14820792D01*
X8171084Y-15125554D02*
X8161560Y-15116030D01*
X8161560Y-15116030D02*
X8142512Y-15087459D01*
X8142512Y-15087459D02*
X8132989Y-15068411D01*
X8132989Y-15068411D02*
X8123465Y-15039840D01*
X8123465Y-15039840D02*
X8113941Y-14992221D01*
X8113941Y-14992221D02*
X8113941Y-14954126D01*
X8113941Y-14954126D02*
X8123465Y-14906507D01*
X8123465Y-14906507D02*
X8132989Y-14877935D01*
X8132989Y-14877935D02*
X8142512Y-14858888D01*
X8142512Y-14858888D02*
X8161560Y-14830316D01*
X8161560Y-14830316D02*
X8171084Y-14820792D01*
X8247274Y-14916030D02*
X8247274Y-15049364D01*
X8247274Y-14935078D02*
X8256798Y-14925554D01*
X8256798Y-14925554D02*
X8275846Y-14916030D01*
X8275846Y-14916030D02*
X8304417Y-14916030D01*
X8304417Y-14916030D02*
X8323465Y-14925554D01*
X8323465Y-14925554D02*
X8332989Y-14944602D01*
X8332989Y-14944602D02*
X8332989Y-15049364D01*
X8456798Y-15049364D02*
X8437751Y-15039840D01*
X8437751Y-15039840D02*
X8428227Y-15030316D01*
X8428227Y-15030316D02*
X8418703Y-15011268D01*
X8418703Y-15011268D02*
X8418703Y-14954126D01*
X8418703Y-14954126D02*
X8428227Y-14935078D01*
X8428227Y-14935078D02*
X8437751Y-14925554D01*
X8437751Y-14925554D02*
X8456798Y-14916030D01*
X8456798Y-14916030D02*
X8485370Y-14916030D01*
X8485370Y-14916030D02*
X8504417Y-14925554D01*
X8504417Y-14925554D02*
X8513941Y-14935078D01*
X8513941Y-14935078D02*
X8523465Y-14954126D01*
X8523465Y-14954126D02*
X8523465Y-15011268D01*
X8523465Y-15011268D02*
X8513941Y-15030316D01*
X8513941Y-15030316D02*
X8504417Y-15039840D01*
X8504417Y-15039840D02*
X8485370Y-15049364D01*
X8485370Y-15049364D02*
X8456798Y-15049364D01*
X8580608Y-14916030D02*
X8656798Y-14916030D01*
X8609179Y-14849364D02*
X8609179Y-15020792D01*
X8609179Y-15020792D02*
X8618703Y-15039840D01*
X8618703Y-15039840D02*
X8637751Y-15049364D01*
X8637751Y-15049364D02*
X8656798Y-15049364D01*
X8875846Y-14916030D02*
X8875846Y-15116030D01*
X8875846Y-14925554D02*
X8894894Y-14916030D01*
X8894894Y-14916030D02*
X8932989Y-14916030D01*
X8932989Y-14916030D02*
X8952036Y-14925554D01*
X8952036Y-14925554D02*
X8961560Y-14935078D01*
X8961560Y-14935078D02*
X8971084Y-14954126D01*
X8971084Y-14954126D02*
X8971084Y-15011268D01*
X8971084Y-15011268D02*
X8961560Y-15030316D01*
X8961560Y-15030316D02*
X8952036Y-15039840D01*
X8952036Y-15039840D02*
X8932989Y-15049364D01*
X8932989Y-15049364D02*
X8894894Y-15049364D01*
X8894894Y-15049364D02*
X8875846Y-15039840D01*
X9085370Y-15049364D02*
X9066322Y-15039840D01*
X9066322Y-15039840D02*
X9056798Y-15020792D01*
X9056798Y-15020792D02*
X9056798Y-14849364D01*
X9247275Y-15049364D02*
X9247275Y-14944602D01*
X9247275Y-14944602D02*
X9237751Y-14925554D01*
X9237751Y-14925554D02*
X9218703Y-14916030D01*
X9218703Y-14916030D02*
X9180608Y-14916030D01*
X9180608Y-14916030D02*
X9161560Y-14925554D01*
X9247275Y-15039840D02*
X9228227Y-15049364D01*
X9228227Y-15049364D02*
X9180608Y-15049364D01*
X9180608Y-15049364D02*
X9161560Y-15039840D01*
X9161560Y-15039840D02*
X9152036Y-15020792D01*
X9152036Y-15020792D02*
X9152036Y-15001745D01*
X9152036Y-15001745D02*
X9161560Y-14982697D01*
X9161560Y-14982697D02*
X9180608Y-14973173D01*
X9180608Y-14973173D02*
X9228227Y-14973173D01*
X9228227Y-14973173D02*
X9247275Y-14963649D01*
X9313941Y-14916030D02*
X9390132Y-14916030D01*
X9342513Y-14849364D02*
X9342513Y-15020792D01*
X9342513Y-15020792D02*
X9352036Y-15039840D01*
X9352036Y-15039840D02*
X9371084Y-15049364D01*
X9371084Y-15049364D02*
X9390132Y-15049364D01*
X9532989Y-15039840D02*
X9513941Y-15049364D01*
X9513941Y-15049364D02*
X9475846Y-15049364D01*
X9475846Y-15049364D02*
X9456798Y-15039840D01*
X9456798Y-15039840D02*
X9447275Y-15020792D01*
X9447275Y-15020792D02*
X9447275Y-14944602D01*
X9447275Y-14944602D02*
X9456798Y-14925554D01*
X9456798Y-14925554D02*
X9475846Y-14916030D01*
X9475846Y-14916030D02*
X9513941Y-14916030D01*
X9513941Y-14916030D02*
X9532989Y-14925554D01*
X9532989Y-14925554D02*
X9542513Y-14944602D01*
X9542513Y-14944602D02*
X9542513Y-14963649D01*
X9542513Y-14963649D02*
X9447275Y-14982697D01*
X9713941Y-15049364D02*
X9713941Y-14849364D01*
X9713941Y-15039840D02*
X9694894Y-15049364D01*
X9694894Y-15049364D02*
X9656798Y-15049364D01*
X9656798Y-15049364D02*
X9637751Y-15039840D01*
X9637751Y-15039840D02*
X9628227Y-15030316D01*
X9628227Y-15030316D02*
X9618703Y-15011268D01*
X9618703Y-15011268D02*
X9618703Y-14954126D01*
X9618703Y-14954126D02*
X9628227Y-14935078D01*
X9628227Y-14935078D02*
X9637751Y-14925554D01*
X9637751Y-14925554D02*
X9656798Y-14916030D01*
X9656798Y-14916030D02*
X9694894Y-14916030D01*
X9694894Y-14916030D02*
X9713941Y-14925554D01*
X9790132Y-15125554D02*
X9799656Y-15116030D01*
X9799656Y-15116030D02*
X9818703Y-15087459D01*
X9818703Y-15087459D02*
X9828227Y-15068411D01*
X9828227Y-15068411D02*
X9837751Y-15039840D01*
X9837751Y-15039840D02*
X9847275Y-14992221D01*
X9847275Y-14992221D02*
X9847275Y-14954126D01*
X9847275Y-14954126D02*
X9837751Y-14906507D01*
X9837751Y-14906507D02*
X9828227Y-14877935D01*
X9828227Y-14877935D02*
X9818703Y-14858888D01*
X9818703Y-14858888D02*
X9799656Y-14830316D01*
X9799656Y-14830316D02*
X9790132Y-14820792D01*
M02*
